G04 #@! TF.FileFunction,Copper,L1,Top,Signal*
%FSLAX46Y46*%
G04 Gerber Fmt 4.6, Leading zero omitted, Abs format (unit mm)*
G04 Created by KiCad (PCBNEW 4.0.6) date Tuesday 03. October 2017 15.24.42*
%MOMM*%
%LPD*%
G01*
G04 APERTURE LIST*
%ADD10C,0.100000*%
%ADD11R,2.000000X1.800000*%
%ADD12R,0.300000X1.300000*%
%ADD13O,1.524000X1.524000*%
%ADD14R,1.700000X1.700000*%
%ADD15C,1.700000*%
%ADD16C,0.350000*%
%ADD17R,0.500000X0.900000*%
%ADD18R,0.900000X0.500000*%
%ADD19C,1.524000*%
%ADD20C,1.523000*%
%ADD21R,1.300000X1.550000*%
%ADD22R,0.800000X0.800000*%
%ADD23C,0.600000*%
%ADD24C,1.000000*%
%ADD25C,0.250000*%
%ADD26C,0.635000*%
G04 APERTURE END LIST*
D10*
D11*
X138047000Y-124647200D03*
D12*
X139847000Y-127397200D03*
X140347000Y-127397200D03*
X140847000Y-127397200D03*
X141347000Y-127397200D03*
X141847000Y-127397200D03*
X142347000Y-127397200D03*
X142847000Y-127397200D03*
X143347000Y-127397200D03*
X143847000Y-127397200D03*
D11*
X146147000Y-124647200D03*
D12*
X144347000Y-127397200D03*
D13*
X168656000Y-73660000D03*
X166116000Y-73660000D03*
X163576000Y-73660000D03*
X161036000Y-73660000D03*
X158496000Y-73660000D03*
X155956000Y-73660000D03*
X153416000Y-73660000D03*
X150876000Y-73660000D03*
X148336000Y-73660000D03*
X145796000Y-73660000D03*
X154940000Y-127000000D03*
X157480000Y-127000000D03*
X160020000Y-127000000D03*
X162560000Y-127000000D03*
X165100000Y-127000000D03*
X167640000Y-127000000D03*
X170180000Y-127000000D03*
X172720000Y-127000000D03*
X190500000Y-73660000D03*
X187960000Y-73660000D03*
X185420000Y-73660000D03*
X182880000Y-73660000D03*
X180340000Y-73660000D03*
X177800000Y-73660000D03*
X175260000Y-73660000D03*
X172720000Y-73660000D03*
X168656000Y-81280000D03*
X166116000Y-81280000D03*
X163576000Y-81280000D03*
X161036000Y-81280000D03*
X158496000Y-81280000D03*
X155956000Y-81280000D03*
X153416000Y-81280000D03*
X150876000Y-81280000D03*
X190500000Y-81280000D03*
X187960000Y-81280000D03*
X185420000Y-81280000D03*
X182880000Y-81280000D03*
X180340000Y-81280000D03*
X177800000Y-81280000D03*
X175260000Y-81280000D03*
X172720000Y-81280000D03*
X177800000Y-127000000D03*
X180340000Y-127000000D03*
X182880000Y-127000000D03*
X185420000Y-127000000D03*
X187960000Y-127000000D03*
X190500000Y-127000000D03*
X165100000Y-119380000D03*
X167640000Y-119380000D03*
X170180000Y-119380000D03*
X172720000Y-119380000D03*
X177800000Y-119380000D03*
X180340000Y-119380000D03*
X182880000Y-119380000D03*
X185420000Y-119380000D03*
X187960000Y-119380000D03*
X190500000Y-119380000D03*
D14*
X163830000Y-111760000D03*
D15*
X161290000Y-111760000D03*
X163830000Y-109220000D03*
X161290000Y-109220000D03*
X163830000Y-106680000D03*
X161290000Y-106680000D03*
X163830000Y-104140000D03*
X161290000Y-104140000D03*
X163830000Y-101600000D03*
X161290000Y-101600000D03*
X163830000Y-99060000D03*
X161290000Y-99060000D03*
X163830000Y-96520000D03*
X161290000Y-96520000D03*
X163830000Y-93980000D03*
X161290000Y-93980000D03*
X163830000Y-91440000D03*
X161290000Y-91440000D03*
X163830000Y-88900000D03*
X161290000Y-88900000D03*
D16*
X172530000Y-91250000D03*
X173330000Y-91250000D03*
X174130000Y-91250000D03*
X174930000Y-91250000D03*
X175730000Y-91250000D03*
X176530000Y-91250000D03*
X177330000Y-91250000D03*
X178130000Y-91250000D03*
X178930000Y-91250000D03*
X179730000Y-91250000D03*
X180530000Y-91250000D03*
X172530000Y-92050000D03*
X173330000Y-92050000D03*
X174130000Y-92050000D03*
X174930000Y-92050000D03*
X175730000Y-92050000D03*
X176530000Y-92050000D03*
X177330000Y-92050000D03*
X178130000Y-92050000D03*
X178930000Y-92050000D03*
X179730000Y-92050000D03*
X180530000Y-92050000D03*
X172530000Y-92850000D03*
X173330000Y-92850000D03*
X174130000Y-92850000D03*
X174930000Y-92850000D03*
X175730000Y-92850000D03*
X176530000Y-92850000D03*
X177330000Y-92850000D03*
X178130000Y-92850000D03*
X178930000Y-92850000D03*
X179730000Y-92850000D03*
X180530000Y-92850000D03*
X172530000Y-93650000D03*
X173330000Y-93650000D03*
X174130000Y-93650000D03*
X174930000Y-93650000D03*
X175730000Y-93650000D03*
X176530000Y-93650000D03*
X177330000Y-93650000D03*
X178130000Y-93650000D03*
X178930000Y-93650000D03*
X179730000Y-93650000D03*
X180530000Y-93650000D03*
X172530000Y-94450000D03*
X173330000Y-94450000D03*
X174130000Y-94450000D03*
X174930000Y-94450000D03*
X178130000Y-94450000D03*
X178930000Y-94450000D03*
X179730000Y-94450000D03*
X180530000Y-94450000D03*
X172530000Y-95250000D03*
X173330000Y-95250000D03*
X174130000Y-95250000D03*
X174930000Y-95250000D03*
X178130000Y-95250000D03*
X178930000Y-95250000D03*
X179730000Y-95250000D03*
X180530000Y-95250000D03*
X172530000Y-96050000D03*
X173330000Y-96050000D03*
X174130000Y-96050000D03*
X174930000Y-96050000D03*
X178130000Y-96050000D03*
X178930000Y-96050000D03*
X179730000Y-96050000D03*
X180530000Y-96050000D03*
X172530000Y-96850000D03*
X173330000Y-96850000D03*
X174130000Y-96850000D03*
X174930000Y-96850000D03*
X175730000Y-96850000D03*
X176530000Y-96850000D03*
X177330000Y-96850000D03*
X178130000Y-96850000D03*
X178930000Y-96850000D03*
X179730000Y-96850000D03*
X180530000Y-96850000D03*
X172530000Y-97650000D03*
X173330000Y-97650000D03*
X174130000Y-97650000D03*
X174930000Y-97650000D03*
X175730000Y-97650000D03*
X176530000Y-97650000D03*
X177330000Y-97650000D03*
X178130000Y-97650000D03*
X178930000Y-97650000D03*
X179730000Y-97650000D03*
X180530000Y-97650000D03*
X172530000Y-98450000D03*
X173330000Y-98450000D03*
X174130000Y-98450000D03*
X174930000Y-98450000D03*
X175730000Y-98450000D03*
X176530000Y-98450000D03*
X177330000Y-98450000D03*
X178130000Y-98450000D03*
X178930000Y-98450000D03*
X179730000Y-98450000D03*
X180530000Y-98450000D03*
X172530000Y-99250000D03*
X173330000Y-99250000D03*
X174130000Y-99250000D03*
X174930000Y-99250000D03*
X175730000Y-99250000D03*
X176530000Y-99250000D03*
X177330000Y-99250000D03*
X178130000Y-99250000D03*
X178930000Y-99250000D03*
X179730000Y-99250000D03*
X180530000Y-99250000D03*
D17*
X200394000Y-128016000D03*
X198894000Y-128016000D03*
D18*
X227279200Y-109919200D03*
X227279200Y-108419200D03*
X230784400Y-109970000D03*
X230784400Y-108470000D03*
X234137200Y-109970000D03*
X234137200Y-108470000D03*
X237490000Y-109970000D03*
X237490000Y-108470000D03*
D17*
X200140000Y-123190000D03*
X198640000Y-123190000D03*
X200140000Y-118110000D03*
X198640000Y-118110000D03*
X200140000Y-113030000D03*
X198640000Y-113030000D03*
D18*
X237236000Y-75934000D03*
X237236000Y-74434000D03*
X232664000Y-75934000D03*
X232664000Y-74434000D03*
X228092000Y-75934000D03*
X228092000Y-74434000D03*
X223520000Y-75934000D03*
X223520000Y-74434000D03*
X218948000Y-75934000D03*
X218948000Y-74434000D03*
X214376000Y-75934000D03*
X214376000Y-74434000D03*
X209804000Y-75934000D03*
X209804000Y-74434000D03*
X205232000Y-75934000D03*
X205232000Y-74434000D03*
D19*
X165100000Y-121920000D03*
X167640000Y-121920000D03*
X170180000Y-121920000D03*
X172720000Y-121920000D03*
X182880000Y-121920000D03*
X180340000Y-121920000D03*
X177800000Y-121920000D03*
X185420000Y-121920000D03*
X187960000Y-121920000D03*
X190500000Y-121920000D03*
D20*
X150876000Y-78740000D03*
D19*
X153416000Y-78740000D03*
X155956000Y-78740000D03*
X158496000Y-78740000D03*
X161036000Y-78740000D03*
X163576000Y-78740000D03*
X166116000Y-78740000D03*
X168656000Y-78740000D03*
X172720000Y-78740000D03*
X175260000Y-78740000D03*
X177800000Y-78740000D03*
X180340000Y-78740000D03*
X182880000Y-78740000D03*
X185420000Y-78740000D03*
X187960000Y-78740000D03*
X190500000Y-78740000D03*
X190500000Y-124460000D03*
X187960000Y-124460000D03*
X185420000Y-124460000D03*
X177800000Y-124460000D03*
X180340000Y-124460000D03*
X182880000Y-124460000D03*
X172720000Y-124460000D03*
X170180000Y-124460000D03*
X167640000Y-124460000D03*
X162560000Y-124460000D03*
X160020000Y-124460000D03*
X190500000Y-76200000D03*
X187960000Y-76200000D03*
X185420000Y-76200000D03*
X182880000Y-76200000D03*
X180340000Y-76200000D03*
X177800000Y-76200000D03*
X175260000Y-76200000D03*
X172720000Y-76200000D03*
X168656000Y-76200000D03*
X166116000Y-76200000D03*
X163576000Y-76200000D03*
X161036000Y-76200000D03*
X158496000Y-76200000D03*
X155956000Y-76200000D03*
X153416000Y-76200000D03*
D20*
X150876000Y-76200000D03*
D19*
X165100000Y-124460000D03*
X148336000Y-76200000D03*
X145796000Y-76200000D03*
X157480000Y-124460000D03*
X154940000Y-124460000D03*
D21*
X215102000Y-129451000D03*
X215102000Y-121501000D03*
X210602000Y-121501000D03*
X210602000Y-129451000D03*
X223230000Y-129451000D03*
X223230000Y-121501000D03*
X218730000Y-121501000D03*
X218730000Y-129451000D03*
X231358000Y-129451000D03*
X231358000Y-121501000D03*
X226858000Y-121501000D03*
X226858000Y-129451000D03*
X239486000Y-129451000D03*
X239486000Y-121501000D03*
X234986000Y-121501000D03*
X234986000Y-129451000D03*
D22*
X212852000Y-115024000D03*
X212852000Y-116624000D03*
X220980000Y-115024000D03*
X220980000Y-116624000D03*
X229108000Y-115024000D03*
X229108000Y-116624000D03*
X237236000Y-115024000D03*
X237236000Y-116624000D03*
X237236000Y-81496000D03*
X237236000Y-83096000D03*
X232664000Y-81496000D03*
X232664000Y-83096000D03*
X228092000Y-81496000D03*
X228092000Y-83096000D03*
X223520000Y-81496000D03*
X223520000Y-83096000D03*
X218948000Y-81496000D03*
X218948000Y-83096000D03*
X214376000Y-81496000D03*
X214376000Y-83096000D03*
X209804000Y-81496000D03*
X209804000Y-83096000D03*
X205232000Y-81496000D03*
X205232000Y-83096000D03*
D23*
X193040000Y-132080000D03*
X208280000Y-116840000D03*
X200660000Y-88900000D03*
X177647600Y-100177600D03*
X169367200Y-93268800D03*
X184200800Y-96418400D03*
X182930800Y-111734600D03*
X195427600Y-113030000D03*
X195478400Y-128117600D03*
X195427600Y-123240800D03*
X195376800Y-118211600D03*
X176326800Y-94234000D03*
X177546000Y-95554800D03*
X175006000Y-100203000D03*
D24*
X173990000Y-111760000D03*
D23*
X184150000Y-95250000D03*
X179146200Y-100609400D03*
X168554400Y-98044000D03*
X183692800Y-94030800D03*
X181889400Y-97231200D03*
X154914600Y-109677200D03*
X182753000Y-99288600D03*
X152882600Y-111175800D03*
X170484800Y-99695000D03*
X156032200Y-110261400D03*
X169316400Y-102819200D03*
X178663600Y-101701600D03*
X180594000Y-100126800D03*
X139471400Y-120878600D03*
X160248600Y-115519200D03*
X142595600Y-121996200D03*
X161137600Y-116484400D03*
X167132000Y-116408200D03*
X169672000Y-97104200D03*
D25*
X229055000Y-65860000D02*
X229235000Y-65860000D01*
X131216400Y-126263400D02*
X131216400Y-126695200D01*
D26*
X141071600Y-106680000D02*
X131216400Y-116535200D01*
X131216400Y-116535200D02*
X131216400Y-126263400D01*
X161290000Y-106680000D02*
X141071600Y-106680000D01*
D25*
X133527800Y-129006600D02*
X140347000Y-129006600D01*
X131216400Y-126695200D02*
X133527800Y-129006600D01*
D10*
X140347000Y-127397200D02*
X140347000Y-129006600D01*
X140347000Y-129006600D02*
X140347000Y-129020000D01*
X140347000Y-129020000D02*
X140335000Y-129032000D01*
D26*
X228727000Y-132080000D02*
X236857000Y-132080000D01*
X236857000Y-132080000D02*
X239486000Y-129451000D01*
X220599000Y-132080000D02*
X228727000Y-132080000D01*
X228727000Y-132080000D02*
X228729000Y-132080000D01*
X228729000Y-132080000D02*
X231358000Y-129451000D01*
X212473000Y-132080000D02*
X220599000Y-132080000D01*
X220599000Y-132080000D02*
X220601000Y-132080000D01*
X220601000Y-132080000D02*
X223230000Y-129451000D01*
X193040000Y-132080000D02*
X212473000Y-132080000D01*
X212473000Y-132080000D02*
X215102000Y-129451000D01*
X215102000Y-129451000D02*
X215102000Y-129957000D01*
X215102000Y-129451000D02*
X215102000Y-121501000D01*
X223230000Y-129451000D02*
X223230000Y-121501000D01*
X231358000Y-129451000D02*
X231358000Y-121501000D01*
X239486000Y-121501000D02*
X239486000Y-129451000D01*
X237236000Y-116674000D02*
X237236000Y-119251000D01*
X237236000Y-119251000D02*
X239486000Y-121501000D01*
X209804000Y-83146000D02*
X214376000Y-83146000D01*
X205232000Y-83146000D02*
X209804000Y-83146000D01*
X212852000Y-116674000D02*
X220980000Y-116674000D01*
X220980000Y-116674000D02*
X229108000Y-116674000D01*
X229108000Y-116674000D02*
X237236000Y-116674000D01*
X208280000Y-116840000D02*
X212686000Y-116840000D01*
X212686000Y-116840000D02*
X212852000Y-116674000D01*
X200660000Y-88900000D02*
X200660000Y-87718000D01*
X200660000Y-87718000D02*
X205232000Y-83146000D01*
X214376000Y-83146000D02*
X218948000Y-83146000D01*
X218948000Y-83146000D02*
X223520000Y-83146000D01*
X223520000Y-83146000D02*
X228092000Y-83146000D01*
X228092000Y-83146000D02*
X232664000Y-83146000D01*
X232664000Y-83146000D02*
X237236000Y-83146000D01*
D10*
X174930000Y-93650000D02*
X174930000Y-93649600D01*
X174930000Y-93649600D02*
X175361600Y-93218000D01*
X176962000Y-93218000D02*
X177330000Y-92850000D01*
X175361600Y-93218000D02*
X176962000Y-93218000D01*
D25*
X177330000Y-99250000D02*
X177330000Y-99860000D01*
X177330000Y-99860000D02*
X177647600Y-100177600D01*
X174930000Y-98450000D02*
X175057200Y-98450000D01*
D10*
X175057200Y-98450000D02*
X175463200Y-98044000D01*
X175463200Y-98044000D02*
X176123600Y-98044000D01*
X176123600Y-98044000D02*
X176123600Y-97282000D01*
X176123600Y-97282000D02*
X176530000Y-96875600D01*
D25*
X176530000Y-96875600D02*
X176530000Y-96850000D01*
X174130000Y-96050000D02*
X174130000Y-96101200D01*
D10*
X174130000Y-96101200D02*
X174498000Y-96469200D01*
X174498000Y-96469200D02*
X176149200Y-96469200D01*
X176149200Y-96469200D02*
X176530000Y-96850000D01*
D25*
X174930000Y-93650000D02*
X174879200Y-93650000D01*
D10*
X174879200Y-93650000D02*
X174498000Y-93268800D01*
X174498000Y-93268800D02*
X169367200Y-93268800D01*
X179323600Y-95656400D02*
X178930000Y-96050000D01*
X183438800Y-95656400D02*
X179323600Y-95656400D01*
D25*
X184200800Y-96418400D02*
X183438800Y-95656400D01*
D26*
X161290000Y-88900000D02*
X148742400Y-88900000D01*
X151333200Y-71577200D02*
X153416000Y-73660000D01*
X143560800Y-71577200D02*
X151333200Y-71577200D01*
X142849600Y-72288400D02*
X143560800Y-71577200D01*
X142849600Y-83007200D02*
X142849600Y-72288400D01*
X148742400Y-88900000D02*
X142849600Y-83007200D01*
D25*
X178930000Y-96050000D02*
X178930000Y-96101200D01*
D10*
X178930000Y-96101200D02*
X178511200Y-96520000D01*
X176936400Y-97231200D02*
X176555200Y-96850000D01*
X178511200Y-97231200D02*
X176936400Y-97231200D01*
X178511200Y-96520000D02*
X178511200Y-97231200D01*
D25*
X176555200Y-96850000D02*
X176530000Y-96850000D01*
D10*
X178930000Y-96050000D02*
X178930000Y-95250000D01*
D26*
X167640000Y-128270000D02*
X167640000Y-129133600D01*
X167640000Y-127000000D02*
X167640000Y-128270000D01*
X158242000Y-112268000D02*
X161290000Y-109220000D01*
X158242000Y-117652800D02*
X158242000Y-112268000D01*
X158394400Y-117805200D02*
X158242000Y-117652800D01*
X174599600Y-117805200D02*
X158394400Y-117805200D01*
X175666400Y-118872000D02*
X174599600Y-117805200D01*
X175666400Y-128727200D02*
X175666400Y-118872000D01*
X174244000Y-130149600D02*
X175666400Y-128727200D01*
X168656000Y-130149600D02*
X174244000Y-130149600D01*
X167640000Y-129133600D02*
X168656000Y-130149600D01*
X161290000Y-109220000D02*
X161290000Y-106680000D01*
X161290000Y-106680000D02*
X161290000Y-104140000D01*
X161290000Y-104140000D02*
X161290000Y-101600000D01*
X161290000Y-101600000D02*
X161290000Y-99060000D01*
X161290000Y-99060000D02*
X161290000Y-96520000D01*
X161290000Y-96520000D02*
X161290000Y-93980000D01*
X161290000Y-93980000D02*
X161290000Y-91440000D01*
X161290000Y-91440000D02*
X161290000Y-88900000D01*
D25*
X153416000Y-73660000D02*
X153416000Y-76200000D01*
X167640000Y-124460000D02*
X170180000Y-124460000D01*
X167640000Y-127000000D02*
X170180000Y-127000000D01*
X170180000Y-127000000D02*
X170180000Y-124460000D01*
X167640000Y-127000000D02*
X167640000Y-124460000D01*
X177330000Y-98450000D02*
X177444000Y-98450000D01*
D10*
X177444000Y-98450000D02*
X177850800Y-98856800D01*
X179323200Y-98856800D02*
X179730000Y-98450000D01*
X177850800Y-98856800D02*
X179323200Y-98856800D01*
X177330000Y-99250000D02*
X177330000Y-98450000D01*
D25*
X227279200Y-109919200D02*
X217906800Y-109919200D01*
X217906800Y-109919200D02*
X212852000Y-114974000D01*
X220980000Y-114974000D02*
X225780400Y-114974000D01*
X225780400Y-114974000D02*
X230784400Y-109970000D01*
X229108000Y-114974000D02*
X229133200Y-114974000D01*
X229133200Y-114974000D02*
X234137200Y-109970000D01*
X237236000Y-114974000D02*
X237236000Y-110224000D01*
X237236000Y-110224000D02*
X237490000Y-109970000D01*
D26*
X237236000Y-75934000D02*
X237236000Y-81446000D01*
X232664000Y-75934000D02*
X232664000Y-81446000D01*
X228092000Y-81446000D02*
X228092000Y-75934000D01*
X223520000Y-75934000D02*
X223520000Y-81446000D01*
X218948000Y-75934000D02*
X218948000Y-81446000D01*
X214376000Y-81446000D02*
X214376000Y-75934000D01*
X209804000Y-81446000D02*
X209804000Y-75934000D01*
X205232000Y-81446000D02*
X205232000Y-75934000D01*
D25*
X165100000Y-127000000D02*
X165100000Y-124460000D01*
X160020000Y-127000000D02*
X160020000Y-124460000D01*
X177800000Y-124460000D02*
X177800000Y-127000000D01*
X180340000Y-124460000D02*
X180340000Y-127000000D01*
X182880000Y-124460000D02*
X182880000Y-127000000D01*
X185420000Y-124460000D02*
X185420000Y-127000000D01*
X187960000Y-124460000D02*
X187960000Y-127000000D01*
X190500000Y-124460000D02*
X190500000Y-127000000D01*
X165100000Y-121920000D02*
X165100000Y-119380000D01*
X167640000Y-119380000D02*
X167640000Y-121920000D01*
X177800000Y-121920000D02*
X177800000Y-119380000D01*
X180340000Y-121920000D02*
X180340000Y-119380000D01*
X182880000Y-121920000D02*
X182880000Y-119380000D01*
X185420000Y-121920000D02*
X185420000Y-119380000D01*
X187960000Y-121920000D02*
X187960000Y-119380000D01*
X190500000Y-121920000D02*
X190500000Y-119380000D01*
X158496000Y-73660000D02*
X158496000Y-76200000D01*
X155956000Y-73660000D02*
X155956000Y-76200000D01*
X148336000Y-73660000D02*
X148336000Y-76200000D01*
X145796000Y-76200000D02*
X145796000Y-73660000D01*
X168656000Y-78740000D02*
X168656000Y-81280000D01*
X166116000Y-78740000D02*
X166116000Y-81280000D01*
X163576000Y-78740000D02*
X163576000Y-81280000D01*
X161036000Y-78740000D02*
X161036000Y-81280000D01*
X158496000Y-78740000D02*
X158496000Y-81280000D01*
X155956000Y-78740000D02*
X155956000Y-81280000D01*
X153416000Y-78740000D02*
X153416000Y-81280000D01*
X150876000Y-78740000D02*
X150876000Y-81280000D01*
D10*
X141347000Y-127397200D02*
X141347000Y-129002600D01*
X141393800Y-128955800D02*
X142392400Y-128955800D01*
X141347000Y-129002600D02*
X141393800Y-128955800D01*
X142347000Y-127397200D02*
X142347000Y-128910400D01*
D25*
X162560000Y-127990600D02*
X161594800Y-128955800D01*
X161594800Y-128955800D02*
X142392400Y-128955800D01*
X162560000Y-127990600D02*
X162560000Y-127000000D01*
D10*
X142347000Y-128910400D02*
X142392400Y-128955800D01*
D26*
X173990000Y-111760000D02*
X182905400Y-111760000D01*
X182905400Y-111760000D02*
X182930800Y-111734600D01*
X198640000Y-113030000D02*
X195427600Y-113030000D01*
X195478400Y-128117600D02*
X198792400Y-128117600D01*
X198792400Y-128117600D02*
X198894000Y-128016000D01*
X195427600Y-123240800D02*
X198589200Y-123240800D01*
X198589200Y-123240800D02*
X198640000Y-123190000D01*
X195376800Y-118211600D02*
X198538400Y-118211600D01*
X198538400Y-118211600D02*
X198640000Y-118110000D01*
D25*
X175730000Y-93650000D02*
X175742800Y-93650000D01*
X175742800Y-93650000D02*
X176326800Y-94234000D01*
X176784000Y-94234000D02*
X176326800Y-94234000D01*
X177330000Y-93688000D02*
X176784000Y-94234000D01*
X177850800Y-95250000D02*
X178130000Y-95250000D01*
X177546000Y-95554800D02*
X177850800Y-95250000D01*
X177330000Y-93650000D02*
X177330000Y-93688000D01*
X174930000Y-96050000D02*
X178130000Y-96050000D01*
X177330000Y-96850000D02*
X178130000Y-96050000D01*
D10*
X178130000Y-96050000D02*
X178130000Y-95250000D01*
D25*
X174930000Y-99250000D02*
X174930000Y-100127000D01*
X174930000Y-100127000D02*
X175006000Y-100203000D01*
D26*
X163830000Y-111760000D02*
X173990000Y-111760000D01*
D25*
X162560000Y-127000000D02*
X162560000Y-124460000D01*
X205181200Y-73734000D02*
X205181200Y-74383200D01*
X205181200Y-74383200D02*
X205232000Y-74434000D01*
X190500000Y-76200000D02*
X190500000Y-73660000D01*
X190500000Y-73660000D02*
X192024000Y-72136000D01*
X192024000Y-72136000D02*
X203200000Y-72136000D01*
X203200000Y-72136000D02*
X204798000Y-73734000D01*
X204798000Y-73734000D02*
X205181200Y-73734000D01*
X205181200Y-73734000D02*
X205232000Y-73734000D01*
X209767916Y-73696602D02*
X209767916Y-74397916D01*
X209767916Y-74397916D02*
X209804000Y-74434000D01*
X187960000Y-73660000D02*
X187960000Y-73152000D01*
X187960000Y-73152000D02*
X189484000Y-71628000D01*
X207772000Y-71628000D02*
X209767916Y-73696602D01*
X209767916Y-73696602D02*
X209804000Y-73734000D01*
X189484000Y-71628000D02*
X207772000Y-71628000D01*
X187960000Y-73660000D02*
X187960000Y-76200000D01*
X214376000Y-74434000D02*
X214376000Y-73734000D01*
X185420000Y-72136000D02*
X186436000Y-71120000D01*
X186436000Y-71120000D02*
X211836000Y-71120000D01*
X211836000Y-71120000D02*
X214376000Y-73734000D01*
X185420000Y-72136000D02*
X185420000Y-73660000D01*
X185420000Y-73660000D02*
X185420000Y-76200000D01*
X185420000Y-73660000D02*
X185420000Y-73025000D01*
X218948000Y-74434000D02*
X218948000Y-73734000D01*
X182880000Y-72136000D02*
X184404000Y-70612000D01*
X184404000Y-70612000D02*
X215900000Y-70612000D01*
X215900000Y-70612000D02*
X218948000Y-73734000D01*
X182880000Y-72136000D02*
X182880000Y-73660000D01*
X182880000Y-73660000D02*
X182880000Y-76200000D01*
X223520000Y-74434000D02*
X223520000Y-73734000D01*
X180340000Y-72136000D02*
X182372000Y-70104000D01*
X182372000Y-70104000D02*
X219890000Y-70104000D01*
X219890000Y-70104000D02*
X223520000Y-73734000D01*
X180340000Y-72136000D02*
X180340000Y-73660000D01*
X180340000Y-73660000D02*
X180340000Y-76200000D01*
X228092000Y-74434000D02*
X228092000Y-73734000D01*
X177800000Y-72136000D02*
X180340000Y-69596000D01*
X180340000Y-69596000D02*
X223954000Y-69596000D01*
X223954000Y-69596000D02*
X228092000Y-73734000D01*
X177800000Y-72136000D02*
X177800000Y-73660000D01*
X177800000Y-73660000D02*
X177800000Y-76200000D01*
X232652400Y-73722400D02*
X232652400Y-74422400D01*
X232652400Y-74422400D02*
X232664000Y-74434000D01*
X175260000Y-73660000D02*
X175260000Y-72136000D01*
X228018000Y-69088000D02*
X232652400Y-73722400D01*
X232652400Y-73722400D02*
X232664000Y-73734000D01*
X178308000Y-69088000D02*
X228018000Y-69088000D01*
X175260000Y-72136000D02*
X178308000Y-69088000D01*
X175260000Y-76200000D02*
X175260000Y-73660000D01*
X237224400Y-73722400D02*
X237224400Y-74422400D01*
X237224400Y-74422400D02*
X237236000Y-74434000D01*
X172720000Y-73660000D02*
X172720000Y-72136000D01*
X232082000Y-68580000D02*
X237224400Y-73722400D01*
X237224400Y-73722400D02*
X237236000Y-73734000D01*
X176276000Y-68580000D02*
X232082000Y-68580000D01*
X172720000Y-72136000D02*
X176276000Y-68580000D01*
X172720000Y-76200000D02*
X172720000Y-73660000D01*
X237490000Y-108470000D02*
X237490000Y-107770000D01*
X227256000Y-97536000D02*
X237490000Y-107770000D01*
X227256000Y-97536000D02*
X225501200Y-97536000D01*
X190500000Y-81280000D02*
X190500000Y-78740000D01*
X190500000Y-81280000D02*
X206756000Y-97536000D01*
X206756000Y-97536000D02*
X225501200Y-97536000D01*
X225501200Y-97536000D02*
X225552000Y-97536000D01*
X234137200Y-108470000D02*
X234137200Y-107770000D01*
X226925800Y-100558600D02*
X234137200Y-107770000D01*
X226925800Y-100558600D02*
X207238600Y-100558600D01*
X207264000Y-100584000D02*
X207238600Y-100558600D01*
X207238600Y-100558600D02*
X187960000Y-81280000D01*
X187960000Y-78740000D02*
X187960000Y-81280000D01*
X230772800Y-107758400D02*
X230772800Y-108458400D01*
X230772800Y-108458400D02*
X230784400Y-108470000D01*
X207238600Y-103098600D02*
X226113000Y-103098600D01*
X226113000Y-103098600D02*
X230772800Y-107758400D01*
X230772800Y-107758400D02*
X230784400Y-107770000D01*
X185420000Y-78740000D02*
X185420000Y-81280000D01*
X185420000Y-81280000D02*
X207238600Y-103098600D01*
X207238600Y-103098600D02*
X207264000Y-103124000D01*
X227203000Y-107746800D02*
X227203000Y-108343000D01*
X227203000Y-108343000D02*
X227279200Y-108419200D01*
X227228400Y-107746800D02*
X227203000Y-107746800D01*
X227203000Y-107746800D02*
X209854800Y-107746800D01*
X227228400Y-108368400D02*
X227279200Y-108419200D01*
X182880000Y-81280000D02*
X182880000Y-78740000D01*
X182880000Y-81280000D02*
X183388000Y-81280000D01*
X183388000Y-81280000D02*
X209854800Y-107746800D01*
X209854800Y-107746800D02*
X209878000Y-107770000D01*
X200140000Y-113030000D02*
X200140000Y-114567400D01*
X231645800Y-118160800D02*
X234986000Y-121501000D01*
X203733400Y-118160800D02*
X231645800Y-118160800D01*
X200140000Y-114567400D02*
X203733400Y-118160800D01*
D26*
X234986000Y-129451000D02*
X234986000Y-121501000D01*
D25*
X200140000Y-113030000D02*
X200140000Y-102323200D01*
X200140000Y-102323200D02*
X200761600Y-101701600D01*
X180340000Y-81280000D02*
X189230000Y-90170000D01*
X200840000Y-101780000D02*
X200761600Y-101701600D01*
X200761600Y-101701600D02*
X200799700Y-101739700D01*
X200799700Y-101739700D02*
X189230000Y-90170000D01*
X180340000Y-78740000D02*
X180340000Y-81280000D01*
X226858000Y-121501000D02*
X226858000Y-121371800D01*
X226858000Y-121371800D02*
X224459800Y-118973600D01*
X201003600Y-118973600D02*
X200140000Y-118110000D01*
X224459800Y-118973600D02*
X201003600Y-118973600D01*
D26*
X226858000Y-121501000D02*
X226858000Y-129451000D01*
D25*
X199390000Y-115570000D02*
X199390000Y-117360000D01*
X199390000Y-115570000D02*
X194310000Y-115570000D01*
X194310000Y-115570000D02*
X194310000Y-97790000D01*
X177800000Y-81280000D02*
X194310000Y-97790000D01*
X199390000Y-117360000D02*
X200140000Y-118110000D01*
X177800000Y-81280000D02*
X177800000Y-78740000D01*
X177800000Y-81280000D02*
X178308000Y-81280000D01*
X218730000Y-121501000D02*
X218730000Y-120889200D01*
X218730000Y-120889200D02*
X217601800Y-119761000D01*
X203569000Y-119761000D02*
X200140000Y-123190000D01*
X217601800Y-119761000D02*
X203569000Y-119761000D01*
D26*
X218730000Y-121501000D02*
X218730000Y-129451000D01*
D25*
X199364600Y-120650000D02*
X199364600Y-122414600D01*
X199364600Y-122414600D02*
X200140000Y-123190000D01*
X193040000Y-99060000D02*
X175260000Y-81280000D01*
X193040000Y-115570000D02*
X193040000Y-99060000D01*
X194310000Y-116840000D02*
X193040000Y-115570000D01*
X194310000Y-119380000D02*
X194310000Y-116840000D01*
X195580000Y-120650000D02*
X194310000Y-119380000D01*
X199390000Y-120650000D02*
X199364600Y-120650000D01*
X199364600Y-120650000D02*
X195580000Y-120650000D01*
X175260000Y-81280000D02*
X175260000Y-78740000D01*
D26*
X200394000Y-128016000D02*
X209167000Y-128016000D01*
X209167000Y-128016000D02*
X210602000Y-129451000D01*
X210602000Y-121501000D02*
X210602000Y-129451000D01*
D25*
X200394000Y-128016000D02*
X200394000Y-126734000D01*
X199390000Y-125730000D02*
X195580000Y-125730000D01*
X195580000Y-125730000D02*
X193040000Y-123190000D01*
X193040000Y-123190000D02*
X193040000Y-116840000D01*
X193040000Y-116840000D02*
X191770000Y-115570000D01*
X191770000Y-115570000D02*
X191770000Y-100330000D01*
X191770000Y-100330000D02*
X172720000Y-81280000D01*
X200394000Y-126734000D02*
X199390000Y-125730000D01*
X172720000Y-78740000D02*
X172720000Y-81280000D01*
X180530000Y-95250000D02*
X184150000Y-95250000D01*
X157480000Y-127000000D02*
X157480000Y-124460000D01*
X172720000Y-127000000D02*
X172720000Y-124460000D01*
X170180000Y-121920000D02*
X170180000Y-119380000D01*
X172720000Y-119380000D02*
X172720000Y-121920000D01*
X150876000Y-73660000D02*
X150876000Y-76200000D01*
D10*
X178930000Y-100393200D02*
X179146200Y-100609400D01*
X178930000Y-99250000D02*
X178930000Y-100393200D01*
D25*
X178130000Y-93650000D02*
X176936400Y-94843600D01*
X162560000Y-102870000D02*
X163830000Y-104140000D01*
X162560000Y-97993200D02*
X162560000Y-102870000D01*
X162407600Y-97790000D02*
X162560000Y-97993200D01*
X165252400Y-97790000D02*
X162407600Y-97790000D01*
X168249600Y-94843600D02*
X165252400Y-97790000D01*
D10*
X176936400Y-94843600D02*
X168249600Y-94843600D01*
D25*
X178130000Y-93650000D02*
X178079200Y-93650000D01*
X178130000Y-94450000D02*
X177888800Y-94450000D01*
X169773600Y-95656400D02*
X163830000Y-101600000D01*
D10*
X175361600Y-95656400D02*
X169773600Y-95656400D01*
X175818800Y-95199200D02*
X175361600Y-95656400D01*
D25*
X177139600Y-95199200D02*
X175818800Y-95199200D01*
X177888800Y-94450000D02*
X177139600Y-95199200D01*
X178130000Y-94450000D02*
X178130000Y-94513600D01*
X178130000Y-94450000D02*
X178041200Y-94450000D01*
X178130000Y-92850000D02*
X178130000Y-92836800D01*
D10*
X178130000Y-92836800D02*
X177749200Y-92456000D01*
D25*
X167894000Y-92456000D02*
X163830000Y-96520000D01*
D10*
X177749200Y-92456000D02*
X167894000Y-92456000D01*
D25*
X178130000Y-92850000D02*
X178092400Y-92850000D01*
X176530000Y-98450000D02*
X176530000Y-98450400D01*
D10*
X176530000Y-98450400D02*
X176123600Y-98856800D01*
D25*
X170789600Y-98044000D02*
X168554400Y-98044000D01*
X171602400Y-98856800D02*
X170789600Y-98044000D01*
D10*
X176123600Y-98856800D02*
X171602400Y-98856800D01*
D25*
X176530000Y-98450000D02*
X176478800Y-98450000D01*
X180530000Y-94450000D02*
X180505200Y-94450000D01*
D10*
X180505200Y-94450000D02*
X180136800Y-94081600D01*
X180136800Y-94081600D02*
X180136800Y-89865200D01*
D25*
X180136800Y-89865200D02*
X173786800Y-83515200D01*
X173786800Y-83515200D02*
X171450000Y-83515200D01*
X171450000Y-83515200D02*
X170738800Y-82804000D01*
X170738800Y-82804000D02*
X170738800Y-78282800D01*
X170738800Y-78282800D02*
X168656000Y-76200000D01*
X168656000Y-73660000D02*
X168656000Y-76200000D01*
X179730000Y-95250000D02*
X179781200Y-95250000D01*
D10*
X179781200Y-95250000D02*
X180187600Y-94843600D01*
X180187600Y-94843600D02*
X182880000Y-94843600D01*
D25*
X182880000Y-94843600D02*
X183692800Y-94030800D01*
X166116000Y-73660000D02*
X166116000Y-76200000D01*
X179730000Y-94450000D02*
X179730000Y-94436800D01*
D10*
X179730000Y-94436800D02*
X179324000Y-94030800D01*
X179324000Y-94030800D02*
X179324000Y-90068400D01*
D25*
X179324000Y-90068400D02*
X173532800Y-84277200D01*
X173532800Y-84277200D02*
X171196000Y-84277200D01*
X171196000Y-84277200D02*
X169468800Y-82550000D01*
X169468800Y-82550000D02*
X164795200Y-82550000D01*
X164795200Y-82550000D02*
X164744400Y-82499200D01*
X164744400Y-82499200D02*
X164744400Y-77368400D01*
X164744400Y-77368400D02*
X163576000Y-76200000D01*
X163576000Y-73660000D02*
X163576000Y-76200000D01*
X178930000Y-94450000D02*
X178930000Y-94449600D01*
D10*
X178930000Y-94449600D02*
X178511200Y-94030800D01*
X178511200Y-94030800D02*
X178511200Y-90119200D01*
D25*
X178511200Y-90119200D02*
X173329600Y-84937600D01*
X173329600Y-84937600D02*
X170840400Y-84937600D01*
X170840400Y-84937600D02*
X168960800Y-83058000D01*
X168960800Y-83058000D02*
X162356800Y-83058000D01*
X162356800Y-83058000D02*
X162204400Y-82905600D01*
X162204400Y-82905600D02*
X162204400Y-77368400D01*
X162204400Y-77368400D02*
X161036000Y-76200000D01*
X161036000Y-73660000D02*
X161036000Y-76200000D01*
D10*
X143347000Y-127397200D02*
X143347000Y-118273000D01*
X180098000Y-97282000D02*
X179730000Y-97650000D01*
X181838600Y-97282000D02*
X180098000Y-97282000D01*
X181889400Y-97231200D02*
X181838600Y-97282000D01*
D25*
X151942800Y-109677200D02*
X154914600Y-109677200D01*
X143347000Y-118273000D02*
X151942800Y-109677200D01*
D10*
X179730000Y-97650000D02*
X179730000Y-97587200D01*
X179730000Y-97650000D02*
X179730000Y-97638000D01*
X179730000Y-97650000D02*
X179819600Y-97650000D01*
X143847000Y-127397200D02*
X143847000Y-120211400D01*
X182714400Y-99250000D02*
X180530000Y-99250000D01*
X182753000Y-99288600D02*
X182714400Y-99250000D01*
D25*
X143847000Y-120211400D02*
X152882600Y-111175800D01*
D10*
X144347000Y-127397200D02*
X144347000Y-121946600D01*
X178536600Y-98069400D02*
X178930000Y-97676000D01*
X176936400Y-98069400D02*
X178536600Y-98069400D01*
X176936400Y-99949000D02*
X176936400Y-98069400D01*
X176072800Y-100812600D02*
X176936400Y-99949000D01*
D25*
X171602400Y-100812600D02*
X176072800Y-100812600D01*
X170484800Y-99695000D02*
X171602400Y-100812600D01*
X144347000Y-121946600D02*
X156032200Y-110261400D01*
D10*
X178930000Y-97676000D02*
X178930000Y-97650000D01*
D25*
X178930000Y-97650000D02*
X178905200Y-97650000D01*
D10*
X178930000Y-98450000D02*
X178930000Y-98387200D01*
X178930000Y-98387200D02*
X179273200Y-98044000D01*
X180086000Y-98856800D02*
X179730000Y-99212800D01*
X180086000Y-98044000D02*
X180086000Y-98856800D01*
X179273200Y-98044000D02*
X180086000Y-98044000D01*
X179730000Y-99212800D02*
X179730000Y-99250000D01*
D25*
X179730000Y-99250000D02*
X179730000Y-99262800D01*
X179730000Y-99262800D02*
X180594000Y-100126800D01*
X177546000Y-102819200D02*
X169316400Y-102819200D01*
X178663600Y-101701600D02*
X177546000Y-102819200D01*
X179730000Y-99250000D02*
X179794400Y-99250000D01*
D10*
X178130000Y-98450000D02*
X178930000Y-98450000D01*
X139471400Y-120878600D02*
X139471400Y-121818400D01*
D25*
X188849000Y-115519200D02*
X160248600Y-115519200D01*
X189433200Y-116103400D02*
X188849000Y-115519200D01*
X189433200Y-103403400D02*
X189433200Y-116103400D01*
X184073800Y-98044000D02*
X189433200Y-103403400D01*
X180975000Y-98044000D02*
X184073800Y-98044000D01*
D10*
X180581000Y-97650000D02*
X180975000Y-98044000D01*
X140847000Y-123194000D02*
X140847000Y-127397200D01*
X139471400Y-121818400D02*
X140847000Y-123194000D01*
X180530000Y-97650000D02*
X180581000Y-97650000D01*
X142595600Y-121996200D02*
X143052800Y-122707400D01*
D25*
X161137600Y-116484400D02*
X161213800Y-116408200D01*
X161213800Y-116408200D02*
X167132000Y-116408200D01*
X171424600Y-97104200D02*
X169672000Y-97104200D01*
D10*
X142847000Y-122913200D02*
X142847000Y-127397200D01*
X143052800Y-122707400D02*
X142847000Y-122913200D01*
X173330000Y-98450000D02*
X173303800Y-98450000D01*
X173303800Y-98450000D02*
X172897800Y-98044000D01*
X172897800Y-98044000D02*
X172364400Y-98044000D01*
X172364400Y-98044000D02*
X171424600Y-97104200D01*
D25*
X171424600Y-97104200D02*
X171551600Y-97104200D01*
M02*
