G04 #@! TF.FileFunction,Other,Fab,Top*
%FSLAX46Y46*%
G04 Gerber Fmt 4.6, Leading zero omitted, Abs format (unit mm)*
G04 Created by KiCad (PCBNEW 4.0.6) date Tuesday 10. October 2017 13:08:52*
%MOMM*%
%LPD*%
G01*
G04 APERTURE LIST*
%ADD10C,0.100000*%
%ADD11C,0.150000*%
%ADD12C,0.075000*%
G04 APERTURE END LIST*
D10*
X200190000Y-127616000D02*
X200190000Y-128416000D01*
X198590000Y-127616000D02*
X200190000Y-127616000D01*
X198590000Y-128416000D02*
X198590000Y-127616000D01*
X200190000Y-128416000D02*
X198590000Y-128416000D01*
X227679200Y-109969200D02*
X226879200Y-109969200D01*
X227679200Y-108369200D02*
X227679200Y-109969200D01*
X226879200Y-108369200D02*
X227679200Y-108369200D01*
X226879200Y-109969200D02*
X226879200Y-108369200D01*
X231184400Y-110020000D02*
X230384400Y-110020000D01*
X231184400Y-108420000D02*
X231184400Y-110020000D01*
X230384400Y-108420000D02*
X231184400Y-108420000D01*
X230384400Y-110020000D02*
X230384400Y-108420000D01*
X234537200Y-110020000D02*
X233737200Y-110020000D01*
X234537200Y-108420000D02*
X234537200Y-110020000D01*
X233737200Y-108420000D02*
X234537200Y-108420000D01*
X233737200Y-110020000D02*
X233737200Y-108420000D01*
X237890000Y-110020000D02*
X237090000Y-110020000D01*
X237890000Y-108420000D02*
X237890000Y-110020000D01*
X237090000Y-108420000D02*
X237890000Y-108420000D01*
X237090000Y-110020000D02*
X237090000Y-108420000D01*
X200190000Y-122790000D02*
X200190000Y-123590000D01*
X198590000Y-122790000D02*
X200190000Y-122790000D01*
X198590000Y-123590000D02*
X198590000Y-122790000D01*
X200190000Y-123590000D02*
X198590000Y-123590000D01*
X200190000Y-117710000D02*
X200190000Y-118510000D01*
X198590000Y-117710000D02*
X200190000Y-117710000D01*
X198590000Y-118510000D02*
X198590000Y-117710000D01*
X200190000Y-118510000D02*
X198590000Y-118510000D01*
X200190000Y-112630000D02*
X200190000Y-113430000D01*
X198590000Y-112630000D02*
X200190000Y-112630000D01*
X198590000Y-113430000D02*
X198590000Y-112630000D01*
X200190000Y-113430000D02*
X198590000Y-113430000D01*
X237636000Y-75984000D02*
X236836000Y-75984000D01*
X237636000Y-74384000D02*
X237636000Y-75984000D01*
X236836000Y-74384000D02*
X237636000Y-74384000D01*
X236836000Y-75984000D02*
X236836000Y-74384000D01*
X233064000Y-75984000D02*
X232264000Y-75984000D01*
X233064000Y-74384000D02*
X233064000Y-75984000D01*
X232264000Y-74384000D02*
X233064000Y-74384000D01*
X232264000Y-75984000D02*
X232264000Y-74384000D01*
X228492000Y-75984000D02*
X227692000Y-75984000D01*
X228492000Y-74384000D02*
X228492000Y-75984000D01*
X227692000Y-74384000D02*
X228492000Y-74384000D01*
X227692000Y-75984000D02*
X227692000Y-74384000D01*
X223920000Y-75984000D02*
X223120000Y-75984000D01*
X223920000Y-74384000D02*
X223920000Y-75984000D01*
X223120000Y-74384000D02*
X223920000Y-74384000D01*
X223120000Y-75984000D02*
X223120000Y-74384000D01*
X219348000Y-75984000D02*
X218548000Y-75984000D01*
X219348000Y-74384000D02*
X219348000Y-75984000D01*
X218548000Y-74384000D02*
X219348000Y-74384000D01*
X218548000Y-75984000D02*
X218548000Y-74384000D01*
X214776000Y-75984000D02*
X213976000Y-75984000D01*
X214776000Y-74384000D02*
X214776000Y-75984000D01*
X213976000Y-74384000D02*
X214776000Y-74384000D01*
X213976000Y-75984000D02*
X213976000Y-74384000D01*
X210204000Y-75984000D02*
X209404000Y-75984000D01*
X210204000Y-74384000D02*
X210204000Y-75984000D01*
X209404000Y-74384000D02*
X210204000Y-74384000D01*
X209404000Y-75984000D02*
X209404000Y-74384000D01*
X205632000Y-75984000D02*
X204832000Y-75984000D01*
X205632000Y-74384000D02*
X205632000Y-75984000D01*
X204832000Y-74384000D02*
X205632000Y-74384000D01*
X204832000Y-75984000D02*
X204832000Y-74384000D01*
X212652000Y-116024000D02*
X213052000Y-116024000D01*
X212852000Y-115974000D02*
X212652000Y-115674000D01*
X213052000Y-115674000D02*
X212852000Y-115974000D01*
X212652000Y-115674000D02*
X213052000Y-115674000D01*
X213252000Y-115024000D02*
X213252000Y-116624000D01*
X212452000Y-115024000D02*
X213252000Y-115024000D01*
X212452000Y-116624000D02*
X212452000Y-115024000D01*
X213252000Y-116624000D02*
X212452000Y-116624000D01*
X220780000Y-116024000D02*
X221180000Y-116024000D01*
X220980000Y-115974000D02*
X220780000Y-115674000D01*
X221180000Y-115674000D02*
X220980000Y-115974000D01*
X220780000Y-115674000D02*
X221180000Y-115674000D01*
X221380000Y-115024000D02*
X221380000Y-116624000D01*
X220580000Y-115024000D02*
X221380000Y-115024000D01*
X220580000Y-116624000D02*
X220580000Y-115024000D01*
X221380000Y-116624000D02*
X220580000Y-116624000D01*
X228908000Y-116024000D02*
X229308000Y-116024000D01*
X229108000Y-115974000D02*
X228908000Y-115674000D01*
X229308000Y-115674000D02*
X229108000Y-115974000D01*
X228908000Y-115674000D02*
X229308000Y-115674000D01*
X229508000Y-115024000D02*
X229508000Y-116624000D01*
X228708000Y-115024000D02*
X229508000Y-115024000D01*
X228708000Y-116624000D02*
X228708000Y-115024000D01*
X229508000Y-116624000D02*
X228708000Y-116624000D01*
X237036000Y-116024000D02*
X237436000Y-116024000D01*
X237236000Y-115974000D02*
X237036000Y-115674000D01*
X237436000Y-115674000D02*
X237236000Y-115974000D01*
X237036000Y-115674000D02*
X237436000Y-115674000D01*
X237636000Y-115024000D02*
X237636000Y-116624000D01*
X236836000Y-115024000D02*
X237636000Y-115024000D01*
X236836000Y-116624000D02*
X236836000Y-115024000D01*
X237636000Y-116624000D02*
X236836000Y-116624000D01*
X237036000Y-82496000D02*
X237436000Y-82496000D01*
X237236000Y-82446000D02*
X237036000Y-82146000D01*
X237436000Y-82146000D02*
X237236000Y-82446000D01*
X237036000Y-82146000D02*
X237436000Y-82146000D01*
X237636000Y-81496000D02*
X237636000Y-83096000D01*
X236836000Y-81496000D02*
X237636000Y-81496000D01*
X236836000Y-83096000D02*
X236836000Y-81496000D01*
X237636000Y-83096000D02*
X236836000Y-83096000D01*
X232464000Y-82496000D02*
X232864000Y-82496000D01*
X232664000Y-82446000D02*
X232464000Y-82146000D01*
X232864000Y-82146000D02*
X232664000Y-82446000D01*
X232464000Y-82146000D02*
X232864000Y-82146000D01*
X233064000Y-81496000D02*
X233064000Y-83096000D01*
X232264000Y-81496000D02*
X233064000Y-81496000D01*
X232264000Y-83096000D02*
X232264000Y-81496000D01*
X233064000Y-83096000D02*
X232264000Y-83096000D01*
X227892000Y-82496000D02*
X228292000Y-82496000D01*
X228092000Y-82446000D02*
X227892000Y-82146000D01*
X228292000Y-82146000D02*
X228092000Y-82446000D01*
X227892000Y-82146000D02*
X228292000Y-82146000D01*
X228492000Y-81496000D02*
X228492000Y-83096000D01*
X227692000Y-81496000D02*
X228492000Y-81496000D01*
X227692000Y-83096000D02*
X227692000Y-81496000D01*
X228492000Y-83096000D02*
X227692000Y-83096000D01*
X223320000Y-82496000D02*
X223720000Y-82496000D01*
X223520000Y-82446000D02*
X223320000Y-82146000D01*
X223720000Y-82146000D02*
X223520000Y-82446000D01*
X223320000Y-82146000D02*
X223720000Y-82146000D01*
X223920000Y-81496000D02*
X223920000Y-83096000D01*
X223120000Y-81496000D02*
X223920000Y-81496000D01*
X223120000Y-83096000D02*
X223120000Y-81496000D01*
X223920000Y-83096000D02*
X223120000Y-83096000D01*
X218748000Y-82496000D02*
X219148000Y-82496000D01*
X218948000Y-82446000D02*
X218748000Y-82146000D01*
X219148000Y-82146000D02*
X218948000Y-82446000D01*
X218748000Y-82146000D02*
X219148000Y-82146000D01*
X219348000Y-81496000D02*
X219348000Y-83096000D01*
X218548000Y-81496000D02*
X219348000Y-81496000D01*
X218548000Y-83096000D02*
X218548000Y-81496000D01*
X219348000Y-83096000D02*
X218548000Y-83096000D01*
X214176000Y-82496000D02*
X214576000Y-82496000D01*
X214376000Y-82446000D02*
X214176000Y-82146000D01*
X214576000Y-82146000D02*
X214376000Y-82446000D01*
X214176000Y-82146000D02*
X214576000Y-82146000D01*
X214776000Y-81496000D02*
X214776000Y-83096000D01*
X213976000Y-81496000D02*
X214776000Y-81496000D01*
X213976000Y-83096000D02*
X213976000Y-81496000D01*
X214776000Y-83096000D02*
X213976000Y-83096000D01*
X209604000Y-82496000D02*
X210004000Y-82496000D01*
X209804000Y-82446000D02*
X209604000Y-82146000D01*
X210004000Y-82146000D02*
X209804000Y-82446000D01*
X209604000Y-82146000D02*
X210004000Y-82146000D01*
X210204000Y-81496000D02*
X210204000Y-83096000D01*
X209404000Y-81496000D02*
X210204000Y-81496000D01*
X209404000Y-83096000D02*
X209404000Y-81496000D01*
X210204000Y-83096000D02*
X209404000Y-83096000D01*
X205032000Y-82496000D02*
X205432000Y-82496000D01*
X205232000Y-82446000D02*
X205032000Y-82146000D01*
X205432000Y-82146000D02*
X205232000Y-82446000D01*
X205032000Y-82146000D02*
X205432000Y-82146000D01*
X205632000Y-81496000D02*
X205632000Y-83096000D01*
X204832000Y-81496000D02*
X205632000Y-81496000D01*
X204832000Y-83096000D02*
X204832000Y-81496000D01*
X205632000Y-83096000D02*
X204832000Y-83096000D01*
D11*
X136425704Y-121645371D02*
X136568561Y-121692990D01*
X136616180Y-121740610D01*
X136663799Y-121835848D01*
X136663799Y-121978705D01*
X136616180Y-122073943D01*
X136568561Y-122121562D01*
X136473323Y-122169181D01*
X136092370Y-122169181D01*
X136092370Y-121169181D01*
X136425704Y-121169181D01*
X136520942Y-121216800D01*
X136568561Y-121264419D01*
X136616180Y-121359657D01*
X136616180Y-121454895D01*
X136568561Y-121550133D01*
X136520942Y-121597752D01*
X136425704Y-121645371D01*
X136092370Y-121645371D01*
X137235227Y-122169181D02*
X137139989Y-122121562D01*
X137092370Y-122073943D01*
X137044751Y-121978705D01*
X137044751Y-121692990D01*
X137092370Y-121597752D01*
X137139989Y-121550133D01*
X137235227Y-121502514D01*
X137378085Y-121502514D01*
X137473323Y-121550133D01*
X137520942Y-121597752D01*
X137568561Y-121692990D01*
X137568561Y-121978705D01*
X137520942Y-122073943D01*
X137473323Y-122121562D01*
X137378085Y-122169181D01*
X137235227Y-122169181D01*
X138425704Y-122169181D02*
X138425704Y-121645371D01*
X138378085Y-121550133D01*
X138282847Y-121502514D01*
X138092370Y-121502514D01*
X137997132Y-121550133D01*
X138425704Y-122121562D02*
X138330466Y-122169181D01*
X138092370Y-122169181D01*
X137997132Y-122121562D01*
X137949513Y-122026324D01*
X137949513Y-121931086D01*
X137997132Y-121835848D01*
X138092370Y-121788229D01*
X138330466Y-121788229D01*
X138425704Y-121740610D01*
X138901894Y-122169181D02*
X138901894Y-121502514D01*
X138901894Y-121692990D02*
X138949513Y-121597752D01*
X138997132Y-121550133D01*
X139092370Y-121502514D01*
X139187609Y-121502514D01*
X139949514Y-122169181D02*
X139949514Y-121169181D01*
X139949514Y-122121562D02*
X139854276Y-122169181D01*
X139663799Y-122169181D01*
X139568561Y-122121562D01*
X139520942Y-122073943D01*
X139473323Y-121978705D01*
X139473323Y-121692990D01*
X139520942Y-121597752D01*
X139568561Y-121550133D01*
X139663799Y-121502514D01*
X139854276Y-121502514D01*
X139949514Y-121550133D01*
X140187609Y-122264419D02*
X140949514Y-122264419D01*
X141759038Y-122073943D02*
X141711419Y-122121562D01*
X141568562Y-122169181D01*
X141473324Y-122169181D01*
X141330466Y-122121562D01*
X141235228Y-122026324D01*
X141187609Y-121931086D01*
X141139990Y-121740610D01*
X141139990Y-121597752D01*
X141187609Y-121407276D01*
X141235228Y-121312038D01*
X141330466Y-121216800D01*
X141473324Y-121169181D01*
X141568562Y-121169181D01*
X141711419Y-121216800D01*
X141759038Y-121264419D01*
X142330466Y-122169181D02*
X142235228Y-122121562D01*
X142187609Y-122073943D01*
X142139990Y-121978705D01*
X142139990Y-121692990D01*
X142187609Y-121597752D01*
X142235228Y-121550133D01*
X142330466Y-121502514D01*
X142473324Y-121502514D01*
X142568562Y-121550133D01*
X142616181Y-121597752D01*
X142663800Y-121692990D01*
X142663800Y-121978705D01*
X142616181Y-122073943D01*
X142568562Y-122121562D01*
X142473324Y-122169181D01*
X142330466Y-122169181D01*
X143092371Y-121502514D02*
X143092371Y-122169181D01*
X143092371Y-121597752D02*
X143139990Y-121550133D01*
X143235228Y-121502514D01*
X143378086Y-121502514D01*
X143473324Y-121550133D01*
X143520943Y-121645371D01*
X143520943Y-122169181D01*
X143997133Y-121502514D02*
X143997133Y-122169181D01*
X143997133Y-121597752D02*
X144044752Y-121550133D01*
X144139990Y-121502514D01*
X144282848Y-121502514D01*
X144378086Y-121550133D01*
X144425705Y-121645371D01*
X144425705Y-122169181D01*
X145282848Y-122121562D02*
X145187610Y-122169181D01*
X144997133Y-122169181D01*
X144901895Y-122121562D01*
X144854276Y-122026324D01*
X144854276Y-121645371D01*
X144901895Y-121550133D01*
X144997133Y-121502514D01*
X145187610Y-121502514D01*
X145282848Y-121550133D01*
X145330467Y-121645371D01*
X145330467Y-121740610D01*
X144854276Y-121835848D01*
X146187610Y-122121562D02*
X146092372Y-122169181D01*
X145901895Y-122169181D01*
X145806657Y-122121562D01*
X145759038Y-122073943D01*
X145711419Y-121978705D01*
X145711419Y-121692990D01*
X145759038Y-121597752D01*
X145806657Y-121550133D01*
X145901895Y-121502514D01*
X146092372Y-121502514D01*
X146187610Y-121550133D01*
X146473324Y-121502514D02*
X146854276Y-121502514D01*
X146616181Y-121169181D02*
X146616181Y-122026324D01*
X146663800Y-122121562D01*
X146759038Y-122169181D01*
X146854276Y-122169181D01*
X147330467Y-122169181D02*
X147235229Y-122121562D01*
X147187610Y-122073943D01*
X147139991Y-121978705D01*
X147139991Y-121692990D01*
X147187610Y-121597752D01*
X147235229Y-121550133D01*
X147330467Y-121502514D01*
X147473325Y-121502514D01*
X147568563Y-121550133D01*
X147616182Y-121597752D01*
X147663801Y-121692990D01*
X147663801Y-121978705D01*
X147616182Y-122073943D01*
X147568563Y-122121562D01*
X147473325Y-122169181D01*
X147330467Y-122169181D01*
X148092372Y-122169181D02*
X148092372Y-121502514D01*
X148092372Y-121692990D02*
X148139991Y-121597752D01*
X148187610Y-121550133D01*
X148282848Y-121502514D01*
X148378087Y-121502514D01*
X169187143Y-104353809D02*
X169234762Y-104401428D01*
X169282381Y-104544285D01*
X169282381Y-104639523D01*
X169234762Y-104782381D01*
X169139524Y-104877619D01*
X169044286Y-104925238D01*
X168853810Y-104972857D01*
X168710952Y-104972857D01*
X168520476Y-104925238D01*
X168425238Y-104877619D01*
X168330000Y-104782381D01*
X168282381Y-104639523D01*
X168282381Y-104544285D01*
X168330000Y-104401428D01*
X168377619Y-104353809D01*
X168282381Y-103734762D02*
X168282381Y-103544285D01*
X168330000Y-103449047D01*
X168425238Y-103353809D01*
X168615714Y-103306190D01*
X168949048Y-103306190D01*
X169139524Y-103353809D01*
X169234762Y-103449047D01*
X169282381Y-103544285D01*
X169282381Y-103734762D01*
X169234762Y-103830000D01*
X169139524Y-103925238D01*
X168949048Y-103972857D01*
X168615714Y-103972857D01*
X168425238Y-103925238D01*
X168330000Y-103830000D01*
X168282381Y-103734762D01*
X169282381Y-102877619D02*
X168282381Y-102877619D01*
X169282381Y-102306190D01*
X168282381Y-102306190D01*
X169282381Y-101830000D02*
X168282381Y-101830000D01*
X169282381Y-101258571D01*
X168282381Y-101258571D01*
X169377619Y-101020476D02*
X169377619Y-100258571D01*
X168282381Y-99830000D02*
X168282381Y-99734761D01*
X168330000Y-99639523D01*
X168377619Y-99591904D01*
X168472857Y-99544285D01*
X168663333Y-99496666D01*
X168901429Y-99496666D01*
X169091905Y-99544285D01*
X169187143Y-99591904D01*
X169234762Y-99639523D01*
X169282381Y-99734761D01*
X169282381Y-99830000D01*
X169234762Y-99925238D01*
X169187143Y-99972857D01*
X169091905Y-100020476D01*
X168901429Y-100068095D01*
X168663333Y-100068095D01*
X168472857Y-100020476D01*
X168377619Y-99972857D01*
X168330000Y-99925238D01*
X168282381Y-99830000D01*
X168377619Y-99115714D02*
X168330000Y-99068095D01*
X168282381Y-98972857D01*
X168282381Y-98734761D01*
X168330000Y-98639523D01*
X168377619Y-98591904D01*
X168472857Y-98544285D01*
X168568095Y-98544285D01*
X168710952Y-98591904D01*
X169282381Y-99163333D01*
X169282381Y-98544285D01*
X168282381Y-98210952D02*
X169282381Y-97544285D01*
X168282381Y-97544285D02*
X169282381Y-98210952D01*
X169282381Y-96639523D02*
X169282381Y-97210952D01*
X169282381Y-96925238D02*
X168282381Y-96925238D01*
X168425238Y-97020476D01*
X168520476Y-97115714D01*
X168568095Y-97210952D01*
X168282381Y-96020476D02*
X168282381Y-95925237D01*
X168330000Y-95829999D01*
X168377619Y-95782380D01*
X168472857Y-95734761D01*
X168663333Y-95687142D01*
X168901429Y-95687142D01*
X169091905Y-95734761D01*
X169187143Y-95782380D01*
X169234762Y-95829999D01*
X169282381Y-95925237D01*
X169282381Y-96020476D01*
X169234762Y-96115714D01*
X169187143Y-96163333D01*
X169091905Y-96210952D01*
X168901429Y-96258571D01*
X168663333Y-96258571D01*
X168472857Y-96210952D01*
X168377619Y-96163333D01*
X168330000Y-96115714D01*
X168282381Y-96020476D01*
X138200381Y-95194381D02*
X137724190Y-95194381D01*
X137724190Y-94194381D01*
X138486095Y-95146762D02*
X138628952Y-95194381D01*
X138867048Y-95194381D01*
X138962286Y-95146762D01*
X139009905Y-95099143D01*
X139057524Y-95003905D01*
X139057524Y-94908667D01*
X139009905Y-94813429D01*
X138962286Y-94765810D01*
X138867048Y-94718190D01*
X138676571Y-94670571D01*
X138581333Y-94622952D01*
X138533714Y-94575333D01*
X138486095Y-94480095D01*
X138486095Y-94384857D01*
X138533714Y-94289619D01*
X138581333Y-94242000D01*
X138676571Y-94194381D01*
X138914667Y-94194381D01*
X139057524Y-94242000D01*
X139676571Y-94194381D02*
X139771810Y-94194381D01*
X139867048Y-94242000D01*
X139914667Y-94289619D01*
X139962286Y-94384857D01*
X140009905Y-94575333D01*
X140009905Y-94813429D01*
X139962286Y-95003905D01*
X139914667Y-95099143D01*
X139867048Y-95146762D01*
X139771810Y-95194381D01*
X139676571Y-95194381D01*
X139581333Y-95146762D01*
X139533714Y-95099143D01*
X139486095Y-95003905D01*
X139438476Y-94813429D01*
X139438476Y-94575333D01*
X139486095Y-94384857D01*
X139533714Y-94289619D01*
X139581333Y-94242000D01*
X139676571Y-94194381D01*
X140962286Y-95194381D02*
X140390857Y-95194381D01*
X140676571Y-95194381D02*
X140676571Y-94194381D01*
X140581333Y-94337238D01*
X140486095Y-94432476D01*
X140390857Y-94480095D01*
X141295619Y-94194381D02*
X141914667Y-94194381D01*
X141581333Y-94575333D01*
X141724191Y-94575333D01*
X141819429Y-94622952D01*
X141867048Y-94670571D01*
X141914667Y-94765810D01*
X141914667Y-95003905D01*
X141867048Y-95099143D01*
X141819429Y-95146762D01*
X141724191Y-95194381D01*
X141438476Y-95194381D01*
X141343238Y-95146762D01*
X141295619Y-95099143D01*
X142676572Y-94670571D02*
X142819429Y-94718190D01*
X142867048Y-94765810D01*
X142914667Y-94861048D01*
X142914667Y-95003905D01*
X142867048Y-95099143D01*
X142819429Y-95146762D01*
X142724191Y-95194381D01*
X142343238Y-95194381D01*
X142343238Y-94194381D01*
X142676572Y-94194381D01*
X142771810Y-94242000D01*
X142819429Y-94289619D01*
X142867048Y-94384857D01*
X142867048Y-94480095D01*
X142819429Y-94575333D01*
X142771810Y-94622952D01*
X142676572Y-94670571D01*
X142343238Y-94670571D01*
X143771810Y-94527714D02*
X143771810Y-95194381D01*
X143533714Y-94146762D02*
X143295619Y-94861048D01*
X143914667Y-94861048D01*
X144295619Y-95194381D02*
X144295619Y-94194381D01*
X144533714Y-94194381D01*
X144676572Y-94242000D01*
X144771810Y-94337238D01*
X144819429Y-94432476D01*
X144867048Y-94622952D01*
X144867048Y-94765810D01*
X144819429Y-94956286D01*
X144771810Y-95051524D01*
X144676572Y-95146762D01*
X144533714Y-95194381D01*
X144295619Y-95194381D01*
X145295619Y-95194381D02*
X145295619Y-94194381D01*
X145867048Y-95194381D01*
X145867048Y-94194381D01*
X146533714Y-94194381D02*
X146628953Y-94194381D01*
X146724191Y-94242000D01*
X146771810Y-94289619D01*
X146819429Y-94384857D01*
X146867048Y-94575333D01*
X146867048Y-94813429D01*
X146819429Y-95003905D01*
X146771810Y-95099143D01*
X146724191Y-95146762D01*
X146628953Y-95194381D01*
X146533714Y-95194381D01*
X146438476Y-95146762D01*
X146390857Y-95099143D01*
X146343238Y-95003905D01*
X146295619Y-94813429D01*
X146295619Y-94575333D01*
X146343238Y-94384857D01*
X146390857Y-94289619D01*
X146438476Y-94242000D01*
X146533714Y-94194381D01*
X147724191Y-94527714D02*
X147724191Y-95194381D01*
X147486095Y-94146762D02*
X147248000Y-94861048D01*
X147867048Y-94861048D01*
X199699524Y-126968381D02*
X199366190Y-126492190D01*
X199128095Y-126968381D02*
X199128095Y-125968381D01*
X199509048Y-125968381D01*
X199604286Y-126016000D01*
X199651905Y-126063619D01*
X199699524Y-126158857D01*
X199699524Y-126301714D01*
X199651905Y-126396952D01*
X199604286Y-126444571D01*
X199509048Y-126492190D01*
X199128095Y-126492190D01*
D12*
X199323334Y-128196952D02*
X199190000Y-128006476D01*
X199094762Y-128196952D02*
X199094762Y-127796952D01*
X199247143Y-127796952D01*
X199285238Y-127816000D01*
X199304286Y-127835048D01*
X199323334Y-127873143D01*
X199323334Y-127930286D01*
X199304286Y-127968381D01*
X199285238Y-127987429D01*
X199247143Y-128006476D01*
X199094762Y-128006476D01*
X199475714Y-127835048D02*
X199494762Y-127816000D01*
X199532857Y-127796952D01*
X199628095Y-127796952D01*
X199666191Y-127816000D01*
X199685238Y-127835048D01*
X199704286Y-127873143D01*
X199704286Y-127911238D01*
X199685238Y-127968381D01*
X199456667Y-128196952D01*
X199704286Y-128196952D01*
D11*
X229231581Y-108859676D02*
X228755390Y-109193010D01*
X229231581Y-109431105D02*
X228231581Y-109431105D01*
X228231581Y-109050152D01*
X228279200Y-108954914D01*
X228326819Y-108907295D01*
X228422057Y-108859676D01*
X228564914Y-108859676D01*
X228660152Y-108907295D01*
X228707771Y-108954914D01*
X228755390Y-109050152D01*
X228755390Y-109431105D01*
D12*
X227460152Y-109235866D02*
X227269676Y-109369200D01*
X227460152Y-109464438D02*
X227060152Y-109464438D01*
X227060152Y-109312057D01*
X227079200Y-109273962D01*
X227098248Y-109254914D01*
X227136343Y-109235866D01*
X227193486Y-109235866D01*
X227231581Y-109254914D01*
X227250629Y-109273962D01*
X227269676Y-109312057D01*
X227269676Y-109464438D01*
X227060152Y-109102533D02*
X227060152Y-108854914D01*
X227212533Y-108988247D01*
X227212533Y-108931105D01*
X227231581Y-108893009D01*
X227250629Y-108873962D01*
X227288724Y-108854914D01*
X227383962Y-108854914D01*
X227422057Y-108873962D01*
X227441105Y-108893009D01*
X227460152Y-108931105D01*
X227460152Y-109045390D01*
X227441105Y-109083486D01*
X227422057Y-109102533D01*
D11*
X232736781Y-108910476D02*
X232260590Y-109243810D01*
X232736781Y-109481905D02*
X231736781Y-109481905D01*
X231736781Y-109100952D01*
X231784400Y-109005714D01*
X231832019Y-108958095D01*
X231927257Y-108910476D01*
X232070114Y-108910476D01*
X232165352Y-108958095D01*
X232212971Y-109005714D01*
X232260590Y-109100952D01*
X232260590Y-109481905D01*
D12*
X230965352Y-109286666D02*
X230774876Y-109420000D01*
X230965352Y-109515238D02*
X230565352Y-109515238D01*
X230565352Y-109362857D01*
X230584400Y-109324762D01*
X230603448Y-109305714D01*
X230641543Y-109286666D01*
X230698686Y-109286666D01*
X230736781Y-109305714D01*
X230755829Y-109324762D01*
X230774876Y-109362857D01*
X230774876Y-109515238D01*
X230698686Y-108943809D02*
X230965352Y-108943809D01*
X230546305Y-109039047D02*
X230832019Y-109134286D01*
X230832019Y-108886666D01*
D11*
X236089581Y-108910476D02*
X235613390Y-109243810D01*
X236089581Y-109481905D02*
X235089581Y-109481905D01*
X235089581Y-109100952D01*
X235137200Y-109005714D01*
X235184819Y-108958095D01*
X235280057Y-108910476D01*
X235422914Y-108910476D01*
X235518152Y-108958095D01*
X235565771Y-109005714D01*
X235613390Y-109100952D01*
X235613390Y-109481905D01*
D12*
X234318152Y-109286666D02*
X234127676Y-109420000D01*
X234318152Y-109515238D02*
X233918152Y-109515238D01*
X233918152Y-109362857D01*
X233937200Y-109324762D01*
X233956248Y-109305714D01*
X233994343Y-109286666D01*
X234051486Y-109286666D01*
X234089581Y-109305714D01*
X234108629Y-109324762D01*
X234127676Y-109362857D01*
X234127676Y-109515238D01*
X233918152Y-108924762D02*
X233918152Y-109115238D01*
X234108629Y-109134286D01*
X234089581Y-109115238D01*
X234070533Y-109077143D01*
X234070533Y-108981905D01*
X234089581Y-108943809D01*
X234108629Y-108924762D01*
X234146724Y-108905714D01*
X234241962Y-108905714D01*
X234280057Y-108924762D01*
X234299105Y-108943809D01*
X234318152Y-108981905D01*
X234318152Y-109077143D01*
X234299105Y-109115238D01*
X234280057Y-109134286D01*
D11*
X239442381Y-108910476D02*
X238966190Y-109243810D01*
X239442381Y-109481905D02*
X238442381Y-109481905D01*
X238442381Y-109100952D01*
X238490000Y-109005714D01*
X238537619Y-108958095D01*
X238632857Y-108910476D01*
X238775714Y-108910476D01*
X238870952Y-108958095D01*
X238918571Y-109005714D01*
X238966190Y-109100952D01*
X238966190Y-109481905D01*
D12*
X237670952Y-109286666D02*
X237480476Y-109420000D01*
X237670952Y-109515238D02*
X237270952Y-109515238D01*
X237270952Y-109362857D01*
X237290000Y-109324762D01*
X237309048Y-109305714D01*
X237347143Y-109286666D01*
X237404286Y-109286666D01*
X237442381Y-109305714D01*
X237461429Y-109324762D01*
X237480476Y-109362857D01*
X237480476Y-109515238D01*
X237270952Y-108943809D02*
X237270952Y-109020000D01*
X237290000Y-109058095D01*
X237309048Y-109077143D01*
X237366190Y-109115238D01*
X237442381Y-109134286D01*
X237594762Y-109134286D01*
X237632857Y-109115238D01*
X237651905Y-109096190D01*
X237670952Y-109058095D01*
X237670952Y-108981905D01*
X237651905Y-108943809D01*
X237632857Y-108924762D01*
X237594762Y-108905714D01*
X237499524Y-108905714D01*
X237461429Y-108924762D01*
X237442381Y-108943809D01*
X237423333Y-108981905D01*
X237423333Y-109058095D01*
X237442381Y-109096190D01*
X237461429Y-109115238D01*
X237499524Y-109134286D01*
D11*
X199699524Y-122142381D02*
X199366190Y-121666190D01*
X199128095Y-122142381D02*
X199128095Y-121142381D01*
X199509048Y-121142381D01*
X199604286Y-121190000D01*
X199651905Y-121237619D01*
X199699524Y-121332857D01*
X199699524Y-121475714D01*
X199651905Y-121570952D01*
X199604286Y-121618571D01*
X199509048Y-121666190D01*
X199128095Y-121666190D01*
D12*
X199323334Y-123370952D02*
X199190000Y-123180476D01*
X199094762Y-123370952D02*
X199094762Y-122970952D01*
X199247143Y-122970952D01*
X199285238Y-122990000D01*
X199304286Y-123009048D01*
X199323334Y-123047143D01*
X199323334Y-123104286D01*
X199304286Y-123142381D01*
X199285238Y-123161429D01*
X199247143Y-123180476D01*
X199094762Y-123180476D01*
X199456667Y-122970952D02*
X199723334Y-122970952D01*
X199551905Y-123370952D01*
D11*
X199699524Y-117062381D02*
X199366190Y-116586190D01*
X199128095Y-117062381D02*
X199128095Y-116062381D01*
X199509048Y-116062381D01*
X199604286Y-116110000D01*
X199651905Y-116157619D01*
X199699524Y-116252857D01*
X199699524Y-116395714D01*
X199651905Y-116490952D01*
X199604286Y-116538571D01*
X199509048Y-116586190D01*
X199128095Y-116586190D01*
D12*
X199323334Y-118290952D02*
X199190000Y-118100476D01*
X199094762Y-118290952D02*
X199094762Y-117890952D01*
X199247143Y-117890952D01*
X199285238Y-117910000D01*
X199304286Y-117929048D01*
X199323334Y-117967143D01*
X199323334Y-118024286D01*
X199304286Y-118062381D01*
X199285238Y-118081429D01*
X199247143Y-118100476D01*
X199094762Y-118100476D01*
X199551905Y-118062381D02*
X199513810Y-118043333D01*
X199494762Y-118024286D01*
X199475714Y-117986190D01*
X199475714Y-117967143D01*
X199494762Y-117929048D01*
X199513810Y-117910000D01*
X199551905Y-117890952D01*
X199628095Y-117890952D01*
X199666191Y-117910000D01*
X199685238Y-117929048D01*
X199704286Y-117967143D01*
X199704286Y-117986190D01*
X199685238Y-118024286D01*
X199666191Y-118043333D01*
X199628095Y-118062381D01*
X199551905Y-118062381D01*
X199513810Y-118081429D01*
X199494762Y-118100476D01*
X199475714Y-118138571D01*
X199475714Y-118214762D01*
X199494762Y-118252857D01*
X199513810Y-118271905D01*
X199551905Y-118290952D01*
X199628095Y-118290952D01*
X199666191Y-118271905D01*
X199685238Y-118252857D01*
X199704286Y-118214762D01*
X199704286Y-118138571D01*
X199685238Y-118100476D01*
X199666191Y-118081429D01*
X199628095Y-118062381D01*
D11*
X199699524Y-111982381D02*
X199366190Y-111506190D01*
X199128095Y-111982381D02*
X199128095Y-110982381D01*
X199509048Y-110982381D01*
X199604286Y-111030000D01*
X199651905Y-111077619D01*
X199699524Y-111172857D01*
X199699524Y-111315714D01*
X199651905Y-111410952D01*
X199604286Y-111458571D01*
X199509048Y-111506190D01*
X199128095Y-111506190D01*
D12*
X199323334Y-113210952D02*
X199190000Y-113020476D01*
X199094762Y-113210952D02*
X199094762Y-112810952D01*
X199247143Y-112810952D01*
X199285238Y-112830000D01*
X199304286Y-112849048D01*
X199323334Y-112887143D01*
X199323334Y-112944286D01*
X199304286Y-112982381D01*
X199285238Y-113001429D01*
X199247143Y-113020476D01*
X199094762Y-113020476D01*
X199513810Y-113210952D02*
X199590000Y-113210952D01*
X199628095Y-113191905D01*
X199647143Y-113172857D01*
X199685238Y-113115714D01*
X199704286Y-113039524D01*
X199704286Y-112887143D01*
X199685238Y-112849048D01*
X199666191Y-112830000D01*
X199628095Y-112810952D01*
X199551905Y-112810952D01*
X199513810Y-112830000D01*
X199494762Y-112849048D01*
X199475714Y-112887143D01*
X199475714Y-112982381D01*
X199494762Y-113020476D01*
X199513810Y-113039524D01*
X199551905Y-113058571D01*
X199628095Y-113058571D01*
X199666191Y-113039524D01*
X199685238Y-113020476D01*
X199704286Y-112982381D01*
D11*
X239188381Y-74874476D02*
X238712190Y-75207810D01*
X239188381Y-75445905D02*
X238188381Y-75445905D01*
X238188381Y-75064952D01*
X238236000Y-74969714D01*
X238283619Y-74922095D01*
X238378857Y-74874476D01*
X238521714Y-74874476D01*
X238616952Y-74922095D01*
X238664571Y-74969714D01*
X238712190Y-75064952D01*
X238712190Y-75445905D01*
D12*
X237416952Y-75441142D02*
X237226476Y-75574476D01*
X237416952Y-75669714D02*
X237016952Y-75669714D01*
X237016952Y-75517333D01*
X237036000Y-75479238D01*
X237055048Y-75460190D01*
X237093143Y-75441142D01*
X237150286Y-75441142D01*
X237188381Y-75460190D01*
X237207429Y-75479238D01*
X237226476Y-75517333D01*
X237226476Y-75669714D01*
X237416952Y-75060190D02*
X237416952Y-75288762D01*
X237416952Y-75174476D02*
X237016952Y-75174476D01*
X237074095Y-75212571D01*
X237112190Y-75250666D01*
X237131238Y-75288762D01*
X237016952Y-74812571D02*
X237016952Y-74774476D01*
X237036000Y-74736381D01*
X237055048Y-74717333D01*
X237093143Y-74698286D01*
X237169333Y-74679238D01*
X237264571Y-74679238D01*
X237340762Y-74698286D01*
X237378857Y-74717333D01*
X237397905Y-74736381D01*
X237416952Y-74774476D01*
X237416952Y-74812571D01*
X237397905Y-74850667D01*
X237378857Y-74869714D01*
X237340762Y-74888762D01*
X237264571Y-74907810D01*
X237169333Y-74907810D01*
X237093143Y-74888762D01*
X237055048Y-74869714D01*
X237036000Y-74850667D01*
X237016952Y-74812571D01*
D11*
X234616381Y-74874476D02*
X234140190Y-75207810D01*
X234616381Y-75445905D02*
X233616381Y-75445905D01*
X233616381Y-75064952D01*
X233664000Y-74969714D01*
X233711619Y-74922095D01*
X233806857Y-74874476D01*
X233949714Y-74874476D01*
X234044952Y-74922095D01*
X234092571Y-74969714D01*
X234140190Y-75064952D01*
X234140190Y-75445905D01*
D12*
X232844952Y-75441142D02*
X232654476Y-75574476D01*
X232844952Y-75669714D02*
X232444952Y-75669714D01*
X232444952Y-75517333D01*
X232464000Y-75479238D01*
X232483048Y-75460190D01*
X232521143Y-75441142D01*
X232578286Y-75441142D01*
X232616381Y-75460190D01*
X232635429Y-75479238D01*
X232654476Y-75517333D01*
X232654476Y-75669714D01*
X232844952Y-75060190D02*
X232844952Y-75288762D01*
X232844952Y-75174476D02*
X232444952Y-75174476D01*
X232502095Y-75212571D01*
X232540190Y-75250666D01*
X232559238Y-75288762D01*
X232844952Y-74679238D02*
X232844952Y-74907810D01*
X232844952Y-74793524D02*
X232444952Y-74793524D01*
X232502095Y-74831619D01*
X232540190Y-74869714D01*
X232559238Y-74907810D01*
D11*
X230044381Y-74874476D02*
X229568190Y-75207810D01*
X230044381Y-75445905D02*
X229044381Y-75445905D01*
X229044381Y-75064952D01*
X229092000Y-74969714D01*
X229139619Y-74922095D01*
X229234857Y-74874476D01*
X229377714Y-74874476D01*
X229472952Y-74922095D01*
X229520571Y-74969714D01*
X229568190Y-75064952D01*
X229568190Y-75445905D01*
D12*
X228272952Y-75441142D02*
X228082476Y-75574476D01*
X228272952Y-75669714D02*
X227872952Y-75669714D01*
X227872952Y-75517333D01*
X227892000Y-75479238D01*
X227911048Y-75460190D01*
X227949143Y-75441142D01*
X228006286Y-75441142D01*
X228044381Y-75460190D01*
X228063429Y-75479238D01*
X228082476Y-75517333D01*
X228082476Y-75669714D01*
X228272952Y-75060190D02*
X228272952Y-75288762D01*
X228272952Y-75174476D02*
X227872952Y-75174476D01*
X227930095Y-75212571D01*
X227968190Y-75250666D01*
X227987238Y-75288762D01*
X227911048Y-74907810D02*
X227892000Y-74888762D01*
X227872952Y-74850667D01*
X227872952Y-74755429D01*
X227892000Y-74717333D01*
X227911048Y-74698286D01*
X227949143Y-74679238D01*
X227987238Y-74679238D01*
X228044381Y-74698286D01*
X228272952Y-74926857D01*
X228272952Y-74679238D01*
D11*
X225472381Y-74874476D02*
X224996190Y-75207810D01*
X225472381Y-75445905D02*
X224472381Y-75445905D01*
X224472381Y-75064952D01*
X224520000Y-74969714D01*
X224567619Y-74922095D01*
X224662857Y-74874476D01*
X224805714Y-74874476D01*
X224900952Y-74922095D01*
X224948571Y-74969714D01*
X224996190Y-75064952D01*
X224996190Y-75445905D01*
D12*
X223700952Y-75441142D02*
X223510476Y-75574476D01*
X223700952Y-75669714D02*
X223300952Y-75669714D01*
X223300952Y-75517333D01*
X223320000Y-75479238D01*
X223339048Y-75460190D01*
X223377143Y-75441142D01*
X223434286Y-75441142D01*
X223472381Y-75460190D01*
X223491429Y-75479238D01*
X223510476Y-75517333D01*
X223510476Y-75669714D01*
X223700952Y-75060190D02*
X223700952Y-75288762D01*
X223700952Y-75174476D02*
X223300952Y-75174476D01*
X223358095Y-75212571D01*
X223396190Y-75250666D01*
X223415238Y-75288762D01*
X223300952Y-74926857D02*
X223300952Y-74679238D01*
X223453333Y-74812571D01*
X223453333Y-74755429D01*
X223472381Y-74717333D01*
X223491429Y-74698286D01*
X223529524Y-74679238D01*
X223624762Y-74679238D01*
X223662857Y-74698286D01*
X223681905Y-74717333D01*
X223700952Y-74755429D01*
X223700952Y-74869714D01*
X223681905Y-74907810D01*
X223662857Y-74926857D01*
D11*
X220900381Y-74874476D02*
X220424190Y-75207810D01*
X220900381Y-75445905D02*
X219900381Y-75445905D01*
X219900381Y-75064952D01*
X219948000Y-74969714D01*
X219995619Y-74922095D01*
X220090857Y-74874476D01*
X220233714Y-74874476D01*
X220328952Y-74922095D01*
X220376571Y-74969714D01*
X220424190Y-75064952D01*
X220424190Y-75445905D01*
D12*
X219128952Y-75441142D02*
X218938476Y-75574476D01*
X219128952Y-75669714D02*
X218728952Y-75669714D01*
X218728952Y-75517333D01*
X218748000Y-75479238D01*
X218767048Y-75460190D01*
X218805143Y-75441142D01*
X218862286Y-75441142D01*
X218900381Y-75460190D01*
X218919429Y-75479238D01*
X218938476Y-75517333D01*
X218938476Y-75669714D01*
X219128952Y-75060190D02*
X219128952Y-75288762D01*
X219128952Y-75174476D02*
X218728952Y-75174476D01*
X218786095Y-75212571D01*
X218824190Y-75250666D01*
X218843238Y-75288762D01*
X218862286Y-74717333D02*
X219128952Y-74717333D01*
X218709905Y-74812571D02*
X218995619Y-74907810D01*
X218995619Y-74660190D01*
D11*
X216328381Y-74874476D02*
X215852190Y-75207810D01*
X216328381Y-75445905D02*
X215328381Y-75445905D01*
X215328381Y-75064952D01*
X215376000Y-74969714D01*
X215423619Y-74922095D01*
X215518857Y-74874476D01*
X215661714Y-74874476D01*
X215756952Y-74922095D01*
X215804571Y-74969714D01*
X215852190Y-75064952D01*
X215852190Y-75445905D01*
D12*
X214556952Y-75441142D02*
X214366476Y-75574476D01*
X214556952Y-75669714D02*
X214156952Y-75669714D01*
X214156952Y-75517333D01*
X214176000Y-75479238D01*
X214195048Y-75460190D01*
X214233143Y-75441142D01*
X214290286Y-75441142D01*
X214328381Y-75460190D01*
X214347429Y-75479238D01*
X214366476Y-75517333D01*
X214366476Y-75669714D01*
X214556952Y-75060190D02*
X214556952Y-75288762D01*
X214556952Y-75174476D02*
X214156952Y-75174476D01*
X214214095Y-75212571D01*
X214252190Y-75250666D01*
X214271238Y-75288762D01*
X214156952Y-74698286D02*
X214156952Y-74888762D01*
X214347429Y-74907810D01*
X214328381Y-74888762D01*
X214309333Y-74850667D01*
X214309333Y-74755429D01*
X214328381Y-74717333D01*
X214347429Y-74698286D01*
X214385524Y-74679238D01*
X214480762Y-74679238D01*
X214518857Y-74698286D01*
X214537905Y-74717333D01*
X214556952Y-74755429D01*
X214556952Y-74850667D01*
X214537905Y-74888762D01*
X214518857Y-74907810D01*
D11*
X211756381Y-74874476D02*
X211280190Y-75207810D01*
X211756381Y-75445905D02*
X210756381Y-75445905D01*
X210756381Y-75064952D01*
X210804000Y-74969714D01*
X210851619Y-74922095D01*
X210946857Y-74874476D01*
X211089714Y-74874476D01*
X211184952Y-74922095D01*
X211232571Y-74969714D01*
X211280190Y-75064952D01*
X211280190Y-75445905D01*
D12*
X209984952Y-75441142D02*
X209794476Y-75574476D01*
X209984952Y-75669714D02*
X209584952Y-75669714D01*
X209584952Y-75517333D01*
X209604000Y-75479238D01*
X209623048Y-75460190D01*
X209661143Y-75441142D01*
X209718286Y-75441142D01*
X209756381Y-75460190D01*
X209775429Y-75479238D01*
X209794476Y-75517333D01*
X209794476Y-75669714D01*
X209984952Y-75060190D02*
X209984952Y-75288762D01*
X209984952Y-75174476D02*
X209584952Y-75174476D01*
X209642095Y-75212571D01*
X209680190Y-75250666D01*
X209699238Y-75288762D01*
X209584952Y-74717333D02*
X209584952Y-74793524D01*
X209604000Y-74831619D01*
X209623048Y-74850667D01*
X209680190Y-74888762D01*
X209756381Y-74907810D01*
X209908762Y-74907810D01*
X209946857Y-74888762D01*
X209965905Y-74869714D01*
X209984952Y-74831619D01*
X209984952Y-74755429D01*
X209965905Y-74717333D01*
X209946857Y-74698286D01*
X209908762Y-74679238D01*
X209813524Y-74679238D01*
X209775429Y-74698286D01*
X209756381Y-74717333D01*
X209737333Y-74755429D01*
X209737333Y-74831619D01*
X209756381Y-74869714D01*
X209775429Y-74888762D01*
X209813524Y-74907810D01*
D11*
X207184381Y-74874476D02*
X206708190Y-75207810D01*
X207184381Y-75445905D02*
X206184381Y-75445905D01*
X206184381Y-75064952D01*
X206232000Y-74969714D01*
X206279619Y-74922095D01*
X206374857Y-74874476D01*
X206517714Y-74874476D01*
X206612952Y-74922095D01*
X206660571Y-74969714D01*
X206708190Y-75064952D01*
X206708190Y-75445905D01*
D12*
X205412952Y-75441142D02*
X205222476Y-75574476D01*
X205412952Y-75669714D02*
X205012952Y-75669714D01*
X205012952Y-75517333D01*
X205032000Y-75479238D01*
X205051048Y-75460190D01*
X205089143Y-75441142D01*
X205146286Y-75441142D01*
X205184381Y-75460190D01*
X205203429Y-75479238D01*
X205222476Y-75517333D01*
X205222476Y-75669714D01*
X205412952Y-75060190D02*
X205412952Y-75288762D01*
X205412952Y-75174476D02*
X205012952Y-75174476D01*
X205070095Y-75212571D01*
X205108190Y-75250666D01*
X205127238Y-75288762D01*
X205012952Y-74926857D02*
X205012952Y-74660190D01*
X205412952Y-74831619D01*
D11*
X214654381Y-116466857D02*
X214654381Y-116943048D01*
X213654381Y-116943048D01*
X214130571Y-116133524D02*
X214130571Y-115800190D01*
X214654381Y-115657333D02*
X214654381Y-116133524D01*
X213654381Y-116133524D01*
X213654381Y-115657333D01*
X214654381Y-115228762D02*
X213654381Y-115228762D01*
X213654381Y-114990667D01*
X213702000Y-114847809D01*
X213797238Y-114752571D01*
X213892476Y-114704952D01*
X214082952Y-114657333D01*
X214225810Y-114657333D01*
X214416286Y-114704952D01*
X214511524Y-114752571D01*
X214606762Y-114847809D01*
X214654381Y-114990667D01*
X214654381Y-115228762D01*
X222782381Y-116466857D02*
X222782381Y-116943048D01*
X221782381Y-116943048D01*
X222258571Y-116133524D02*
X222258571Y-115800190D01*
X222782381Y-115657333D02*
X222782381Y-116133524D01*
X221782381Y-116133524D01*
X221782381Y-115657333D01*
X222782381Y-115228762D02*
X221782381Y-115228762D01*
X221782381Y-114990667D01*
X221830000Y-114847809D01*
X221925238Y-114752571D01*
X222020476Y-114704952D01*
X222210952Y-114657333D01*
X222353810Y-114657333D01*
X222544286Y-114704952D01*
X222639524Y-114752571D01*
X222734762Y-114847809D01*
X222782381Y-114990667D01*
X222782381Y-115228762D01*
X230910381Y-116466857D02*
X230910381Y-116943048D01*
X229910381Y-116943048D01*
X230386571Y-116133524D02*
X230386571Y-115800190D01*
X230910381Y-115657333D02*
X230910381Y-116133524D01*
X229910381Y-116133524D01*
X229910381Y-115657333D01*
X230910381Y-115228762D02*
X229910381Y-115228762D01*
X229910381Y-114990667D01*
X229958000Y-114847809D01*
X230053238Y-114752571D01*
X230148476Y-114704952D01*
X230338952Y-114657333D01*
X230481810Y-114657333D01*
X230672286Y-114704952D01*
X230767524Y-114752571D01*
X230862762Y-114847809D01*
X230910381Y-114990667D01*
X230910381Y-115228762D01*
X239038381Y-116466857D02*
X239038381Y-116943048D01*
X238038381Y-116943048D01*
X238514571Y-116133524D02*
X238514571Y-115800190D01*
X239038381Y-115657333D02*
X239038381Y-116133524D01*
X238038381Y-116133524D01*
X238038381Y-115657333D01*
X239038381Y-115228762D02*
X238038381Y-115228762D01*
X238038381Y-114990667D01*
X238086000Y-114847809D01*
X238181238Y-114752571D01*
X238276476Y-114704952D01*
X238466952Y-114657333D01*
X238609810Y-114657333D01*
X238800286Y-114704952D01*
X238895524Y-114752571D01*
X238990762Y-114847809D01*
X239038381Y-114990667D01*
X239038381Y-115228762D01*
X239038381Y-82938857D02*
X239038381Y-83415048D01*
X238038381Y-83415048D01*
X238514571Y-82605524D02*
X238514571Y-82272190D01*
X239038381Y-82129333D02*
X239038381Y-82605524D01*
X238038381Y-82605524D01*
X238038381Y-82129333D01*
X239038381Y-81700762D02*
X238038381Y-81700762D01*
X238038381Y-81462667D01*
X238086000Y-81319809D01*
X238181238Y-81224571D01*
X238276476Y-81176952D01*
X238466952Y-81129333D01*
X238609810Y-81129333D01*
X238800286Y-81176952D01*
X238895524Y-81224571D01*
X238990762Y-81319809D01*
X239038381Y-81462667D01*
X239038381Y-81700762D01*
X234466381Y-82938857D02*
X234466381Y-83415048D01*
X233466381Y-83415048D01*
X233942571Y-82605524D02*
X233942571Y-82272190D01*
X234466381Y-82129333D02*
X234466381Y-82605524D01*
X233466381Y-82605524D01*
X233466381Y-82129333D01*
X234466381Y-81700762D02*
X233466381Y-81700762D01*
X233466381Y-81462667D01*
X233514000Y-81319809D01*
X233609238Y-81224571D01*
X233704476Y-81176952D01*
X233894952Y-81129333D01*
X234037810Y-81129333D01*
X234228286Y-81176952D01*
X234323524Y-81224571D01*
X234418762Y-81319809D01*
X234466381Y-81462667D01*
X234466381Y-81700762D01*
X229894381Y-82938857D02*
X229894381Y-83415048D01*
X228894381Y-83415048D01*
X229370571Y-82605524D02*
X229370571Y-82272190D01*
X229894381Y-82129333D02*
X229894381Y-82605524D01*
X228894381Y-82605524D01*
X228894381Y-82129333D01*
X229894381Y-81700762D02*
X228894381Y-81700762D01*
X228894381Y-81462667D01*
X228942000Y-81319809D01*
X229037238Y-81224571D01*
X229132476Y-81176952D01*
X229322952Y-81129333D01*
X229465810Y-81129333D01*
X229656286Y-81176952D01*
X229751524Y-81224571D01*
X229846762Y-81319809D01*
X229894381Y-81462667D01*
X229894381Y-81700762D01*
X225322381Y-82938857D02*
X225322381Y-83415048D01*
X224322381Y-83415048D01*
X224798571Y-82605524D02*
X224798571Y-82272190D01*
X225322381Y-82129333D02*
X225322381Y-82605524D01*
X224322381Y-82605524D01*
X224322381Y-82129333D01*
X225322381Y-81700762D02*
X224322381Y-81700762D01*
X224322381Y-81462667D01*
X224370000Y-81319809D01*
X224465238Y-81224571D01*
X224560476Y-81176952D01*
X224750952Y-81129333D01*
X224893810Y-81129333D01*
X225084286Y-81176952D01*
X225179524Y-81224571D01*
X225274762Y-81319809D01*
X225322381Y-81462667D01*
X225322381Y-81700762D01*
X220750381Y-82938857D02*
X220750381Y-83415048D01*
X219750381Y-83415048D01*
X220226571Y-82605524D02*
X220226571Y-82272190D01*
X220750381Y-82129333D02*
X220750381Y-82605524D01*
X219750381Y-82605524D01*
X219750381Y-82129333D01*
X220750381Y-81700762D02*
X219750381Y-81700762D01*
X219750381Y-81462667D01*
X219798000Y-81319809D01*
X219893238Y-81224571D01*
X219988476Y-81176952D01*
X220178952Y-81129333D01*
X220321810Y-81129333D01*
X220512286Y-81176952D01*
X220607524Y-81224571D01*
X220702762Y-81319809D01*
X220750381Y-81462667D01*
X220750381Y-81700762D01*
X216178381Y-82938857D02*
X216178381Y-83415048D01*
X215178381Y-83415048D01*
X215654571Y-82605524D02*
X215654571Y-82272190D01*
X216178381Y-82129333D02*
X216178381Y-82605524D01*
X215178381Y-82605524D01*
X215178381Y-82129333D01*
X216178381Y-81700762D02*
X215178381Y-81700762D01*
X215178381Y-81462667D01*
X215226000Y-81319809D01*
X215321238Y-81224571D01*
X215416476Y-81176952D01*
X215606952Y-81129333D01*
X215749810Y-81129333D01*
X215940286Y-81176952D01*
X216035524Y-81224571D01*
X216130762Y-81319809D01*
X216178381Y-81462667D01*
X216178381Y-81700762D01*
X211606381Y-82938857D02*
X211606381Y-83415048D01*
X210606381Y-83415048D01*
X211082571Y-82605524D02*
X211082571Y-82272190D01*
X211606381Y-82129333D02*
X211606381Y-82605524D01*
X210606381Y-82605524D01*
X210606381Y-82129333D01*
X211606381Y-81700762D02*
X210606381Y-81700762D01*
X210606381Y-81462667D01*
X210654000Y-81319809D01*
X210749238Y-81224571D01*
X210844476Y-81176952D01*
X211034952Y-81129333D01*
X211177810Y-81129333D01*
X211368286Y-81176952D01*
X211463524Y-81224571D01*
X211558762Y-81319809D01*
X211606381Y-81462667D01*
X211606381Y-81700762D01*
X207034381Y-82938857D02*
X207034381Y-83415048D01*
X206034381Y-83415048D01*
X206510571Y-82605524D02*
X206510571Y-82272190D01*
X207034381Y-82129333D02*
X207034381Y-82605524D01*
X206034381Y-82605524D01*
X206034381Y-82129333D01*
X207034381Y-81700762D02*
X206034381Y-81700762D01*
X206034381Y-81462667D01*
X206082000Y-81319809D01*
X206177238Y-81224571D01*
X206272476Y-81176952D01*
X206462952Y-81129333D01*
X206605810Y-81129333D01*
X206796286Y-81176952D01*
X206891524Y-81224571D01*
X206986762Y-81319809D01*
X207034381Y-81462667D01*
X207034381Y-81700762D01*
M02*
