G04 #@! TF.FileFunction,Other,User*
%FSLAX46Y46*%
G04 Gerber Fmt 4.6, Leading zero omitted, Abs format (unit mm)*
G04 Created by KiCad (PCBNEW 4.0.6) date Tuesday 03. October 2017 15.24.42*
%MOMM*%
%LPD*%
G01*
G04 APERTURE LIST*
%ADD10C,0.100000*%
%ADD11C,0.050000*%
G04 APERTURE END LIST*
D10*
D11*
X187340000Y-99190000D02*
X187340000Y-96390000D01*
X187340000Y-99190000D02*
X186040000Y-99190000D01*
X186040000Y-96390000D02*
X187340000Y-96390000D01*
X186040000Y-96390000D02*
X186040000Y-99190000D01*
X177930000Y-113650000D02*
X175130000Y-113650000D01*
X177930000Y-113650000D02*
X177930000Y-114950000D01*
X175130000Y-114950000D02*
X175130000Y-113650000D01*
X175130000Y-114950000D02*
X177930000Y-114950000D01*
X177930000Y-111110000D02*
X175130000Y-111110000D01*
X177930000Y-111110000D02*
X177930000Y-112410000D01*
X175130000Y-112410000D02*
X175130000Y-111110000D01*
X175130000Y-112410000D02*
X177930000Y-112410000D01*
X177930000Y-108570000D02*
X175130000Y-108570000D01*
X177930000Y-108570000D02*
X177930000Y-109870000D01*
X175130000Y-109870000D02*
X175130000Y-108570000D01*
X175130000Y-109870000D02*
X177930000Y-109870000D01*
X177930000Y-106030000D02*
X175130000Y-106030000D01*
X177930000Y-106030000D02*
X177930000Y-107330000D01*
X175130000Y-107330000D02*
X175130000Y-106030000D01*
X175130000Y-107330000D02*
X177930000Y-107330000D01*
X177930000Y-103490000D02*
X175130000Y-103490000D01*
X177930000Y-103490000D02*
X177930000Y-104790000D01*
X175130000Y-104790000D02*
X175130000Y-103490000D01*
X175130000Y-104790000D02*
X177930000Y-104790000D01*
X177930000Y-100950000D02*
X175130000Y-100950000D01*
X177930000Y-100950000D02*
X177930000Y-102250000D01*
X175130000Y-102250000D02*
X175130000Y-100950000D01*
X175130000Y-102250000D02*
X177930000Y-102250000D01*
X172850000Y-113650000D02*
X170050000Y-113650000D01*
X172850000Y-113650000D02*
X172850000Y-114950000D01*
X170050000Y-114950000D02*
X170050000Y-113650000D01*
X170050000Y-114950000D02*
X172850000Y-114950000D01*
X172850000Y-111110000D02*
X170050000Y-111110000D01*
X172850000Y-111110000D02*
X172850000Y-112410000D01*
X170050000Y-112410000D02*
X170050000Y-111110000D01*
X170050000Y-112410000D02*
X172850000Y-112410000D01*
X172850000Y-108570000D02*
X170050000Y-108570000D01*
X172850000Y-108570000D02*
X172850000Y-109870000D01*
X170050000Y-109870000D02*
X170050000Y-108570000D01*
X170050000Y-109870000D02*
X172850000Y-109870000D01*
X172850000Y-106030000D02*
X170050000Y-106030000D01*
X172850000Y-106030000D02*
X172850000Y-107330000D01*
X170050000Y-107330000D02*
X170050000Y-106030000D01*
X170050000Y-107330000D02*
X172850000Y-107330000D01*
X170200000Y-104840000D02*
X172700000Y-104840000D01*
X170200000Y-104840000D02*
X170200000Y-103440000D01*
X172700000Y-103440000D02*
X172700000Y-104840000D01*
X172700000Y-103440000D02*
X170200000Y-103440000D01*
X172750000Y-100800000D02*
X170150000Y-100800000D01*
X172750000Y-102400000D02*
X170150000Y-102400000D01*
X172750000Y-100800000D02*
X172750000Y-102400000D01*
X170150000Y-100800000D02*
X170150000Y-102400000D01*
X183938600Y-101347800D02*
X183938600Y-104747800D01*
X183938600Y-104747800D02*
X179738600Y-104747800D01*
X179738600Y-104747800D02*
X179738600Y-101347800D01*
X179738600Y-101347800D02*
X183938600Y-101347800D01*
M02*
