G04 #@! TF.FileFunction,Copper,L4,Bot,Signal*
%FSLAX46Y46*%
G04 Gerber Fmt 4.6, Leading zero omitted, Abs format (unit mm)*
G04 Created by KiCad (PCBNEW 4.0.6) date Tuesday 10. October 2017 13:08:52*
%MOMM*%
%LPD*%
G01*
G04 APERTURE LIST*
%ADD10C,0.100000*%
%ADD11O,1.524000X1.524000*%
%ADD12R,0.750000X0.800000*%
%ADD13R,0.800000X0.750000*%
%ADD14R,1.700000X1.700000*%
%ADD15C,1.700000*%
%ADD16R,0.500000X0.900000*%
%ADD17C,1.524000*%
%ADD18C,1.523000*%
%ADD19R,1.400000X1.200000*%
%ADD20C,1.000000*%
%ADD21C,0.400000*%
%ADD22C,0.600000*%
%ADD23C,0.635000*%
%ADD24C,0.250000*%
G04 APERTURE END LIST*
D10*
D11*
X168656000Y-73660000D03*
X166116000Y-73660000D03*
X163576000Y-73660000D03*
X161036000Y-73660000D03*
X158496000Y-73660000D03*
X155956000Y-73660000D03*
X153416000Y-73660000D03*
X150876000Y-73660000D03*
X148336000Y-73660000D03*
X145796000Y-73660000D03*
X154940000Y-127000000D03*
X157480000Y-127000000D03*
X160020000Y-127000000D03*
X162560000Y-127000000D03*
X165100000Y-127000000D03*
X167640000Y-127000000D03*
X170180000Y-127000000D03*
X172720000Y-127000000D03*
X190500000Y-73660000D03*
X187960000Y-73660000D03*
X185420000Y-73660000D03*
X182880000Y-73660000D03*
X180340000Y-73660000D03*
X177800000Y-73660000D03*
X175260000Y-73660000D03*
X172720000Y-73660000D03*
X168656000Y-81280000D03*
X166116000Y-81280000D03*
X163576000Y-81280000D03*
X161036000Y-81280000D03*
X158496000Y-81280000D03*
X155956000Y-81280000D03*
X153416000Y-81280000D03*
X150876000Y-81280000D03*
X190500000Y-81280000D03*
X187960000Y-81280000D03*
X185420000Y-81280000D03*
X182880000Y-81280000D03*
X180340000Y-81280000D03*
X177800000Y-81280000D03*
X175260000Y-81280000D03*
X172720000Y-81280000D03*
X177800000Y-127000000D03*
X180340000Y-127000000D03*
X182880000Y-127000000D03*
X185420000Y-127000000D03*
X187960000Y-127000000D03*
X190500000Y-127000000D03*
X165100000Y-119380000D03*
X167640000Y-119380000D03*
X170180000Y-119380000D03*
X172720000Y-119380000D03*
X177800000Y-119380000D03*
X180340000Y-119380000D03*
X182880000Y-119380000D03*
X185420000Y-119380000D03*
X187960000Y-119380000D03*
X190500000Y-119380000D03*
D12*
X186690000Y-98540000D03*
X186690000Y-97040000D03*
D13*
X177280000Y-114300000D03*
X175780000Y-114300000D03*
X177280000Y-111760000D03*
X175780000Y-111760000D03*
X177280000Y-109220000D03*
X175780000Y-109220000D03*
X177280000Y-106680000D03*
X175780000Y-106680000D03*
X177280000Y-104140000D03*
X175780000Y-104140000D03*
X177280000Y-101600000D03*
X175780000Y-101600000D03*
X172200000Y-114300000D03*
X170700000Y-114300000D03*
X172200000Y-111760000D03*
X170700000Y-111760000D03*
X172200000Y-109220000D03*
X170700000Y-109220000D03*
X172200000Y-106680000D03*
X170700000Y-106680000D03*
D14*
X163830000Y-111760000D03*
D15*
X161290000Y-111760000D03*
X163830000Y-109220000D03*
X161290000Y-109220000D03*
X163830000Y-106680000D03*
X161290000Y-106680000D03*
X163830000Y-104140000D03*
X161290000Y-104140000D03*
X163830000Y-101600000D03*
X161290000Y-101600000D03*
X163830000Y-99060000D03*
X161290000Y-99060000D03*
X163830000Y-96520000D03*
X161290000Y-96520000D03*
X163830000Y-93980000D03*
X161290000Y-93980000D03*
X163830000Y-91440000D03*
X161290000Y-91440000D03*
X163830000Y-88900000D03*
X161290000Y-88900000D03*
D16*
X170700000Y-104140000D03*
X172200000Y-104140000D03*
X172200000Y-101600000D03*
X170700000Y-101600000D03*
D17*
X165100000Y-121920000D03*
X167640000Y-121920000D03*
X170180000Y-121920000D03*
X172720000Y-121920000D03*
X182880000Y-121920000D03*
X180340000Y-121920000D03*
X177800000Y-121920000D03*
X185420000Y-121920000D03*
X187960000Y-121920000D03*
X190500000Y-121920000D03*
D18*
X150876000Y-78740000D03*
D17*
X153416000Y-78740000D03*
X155956000Y-78740000D03*
X158496000Y-78740000D03*
X161036000Y-78740000D03*
X163576000Y-78740000D03*
X166116000Y-78740000D03*
X168656000Y-78740000D03*
X172720000Y-78740000D03*
X175260000Y-78740000D03*
X177800000Y-78740000D03*
X180340000Y-78740000D03*
X182880000Y-78740000D03*
X185420000Y-78740000D03*
X187960000Y-78740000D03*
X190500000Y-78740000D03*
X190500000Y-124460000D03*
X187960000Y-124460000D03*
X185420000Y-124460000D03*
X177800000Y-124460000D03*
X180340000Y-124460000D03*
X182880000Y-124460000D03*
X172720000Y-124460000D03*
X170180000Y-124460000D03*
X167640000Y-124460000D03*
X162560000Y-124460000D03*
X160020000Y-124460000D03*
X190500000Y-76200000D03*
X187960000Y-76200000D03*
X185420000Y-76200000D03*
X182880000Y-76200000D03*
X180340000Y-76200000D03*
X177800000Y-76200000D03*
X175260000Y-76200000D03*
X172720000Y-76200000D03*
X168656000Y-76200000D03*
X166116000Y-76200000D03*
X163576000Y-76200000D03*
X161036000Y-76200000D03*
X158496000Y-76200000D03*
X155956000Y-76200000D03*
X153416000Y-76200000D03*
D18*
X150876000Y-76200000D03*
D17*
X165100000Y-124460000D03*
X148336000Y-76200000D03*
X145796000Y-76200000D03*
X157480000Y-124460000D03*
X154940000Y-124460000D03*
D19*
X182938600Y-103897800D03*
X180738600Y-103897800D03*
X180738600Y-102197800D03*
X182938600Y-102197800D03*
D20*
X184302400Y-98552000D03*
D21*
X174523400Y-98044000D03*
X180136800Y-98856800D03*
X176936400Y-98044000D03*
X176936400Y-98856800D03*
X173736000Y-95656400D03*
X176149000Y-96418400D03*
X179324000Y-95656400D03*
X176936400Y-92456000D03*
X175437800Y-94157800D03*
D20*
X240614200Y-116636800D03*
X239496600Y-131851400D03*
X231368600Y-131699000D03*
X223215200Y-131775200D03*
X215112600Y-131826000D03*
X240030000Y-83185000D03*
D22*
X180746400Y-105435400D03*
X172212000Y-116205000D03*
X178968400Y-114300000D03*
X140335000Y-128727200D03*
D21*
X177698400Y-95656400D03*
X177723800Y-96443800D03*
X174523400Y-98856800D03*
X175387000Y-95631000D03*
X176936400Y-96418400D03*
X176123600Y-94081600D03*
X176936400Y-94107000D03*
D20*
X196824600Y-112953800D03*
X196824600Y-118110000D03*
X197078600Y-123215400D03*
X197053200Y-128041400D03*
D22*
X185140600Y-104038400D03*
X175768000Y-115925600D03*
X141351000Y-128676400D03*
D20*
X183235600Y-95250000D03*
D22*
X178917600Y-100812600D03*
D21*
X169164000Y-97510600D03*
X171196000Y-99491800D03*
X171780200Y-97256600D03*
X171196000Y-98018600D03*
X180136800Y-98044000D03*
X150469600Y-115417600D03*
X169799000Y-102946200D03*
X181610000Y-98729800D03*
X140944600Y-117932200D03*
D23*
X186690000Y-98540000D02*
X184290400Y-98540000D01*
X184290400Y-98540000D02*
X184302400Y-98552000D01*
X177280000Y-104140000D02*
X177280000Y-101600000D01*
X180738600Y-103897800D02*
X180738600Y-105427600D01*
X172200000Y-114300000D02*
X172200000Y-116193000D01*
X177280000Y-114300000D02*
X178968400Y-114300000D01*
X177280000Y-104140000D02*
X177280000Y-106680000D01*
X177280000Y-106680000D02*
X177280000Y-109220000D01*
X177280000Y-109220000D02*
X177280000Y-111760000D01*
X177280000Y-111760000D02*
X177280000Y-114300000D01*
X172200000Y-114300000D02*
X172200000Y-111760000D01*
X172200000Y-111760000D02*
X172200000Y-109220000D01*
X172200000Y-109220000D02*
X172200000Y-106680000D01*
X182938600Y-102197800D02*
X182938600Y-103897800D01*
X182938600Y-103897800D02*
X183079200Y-104038400D01*
X183079200Y-104038400D02*
X185140600Y-104038400D01*
X172200000Y-101600000D02*
X175780000Y-101600000D01*
X175780000Y-101600000D02*
X175780000Y-104140000D01*
X175780000Y-104140000D02*
X175780000Y-106680000D01*
X175780000Y-106680000D02*
X175780000Y-109220000D01*
X175780000Y-109220000D02*
X175780000Y-111760000D01*
X175780000Y-111760000D02*
X175780000Y-114300000D01*
X175780000Y-114300000D02*
X175768000Y-114312000D01*
X175768000Y-114312000D02*
X175768000Y-115925600D01*
D24*
X185025600Y-97040000D02*
X186690000Y-97040000D01*
X183235600Y-95250000D02*
X185025600Y-97040000D01*
D23*
X170700000Y-101600000D02*
X170700000Y-102094600D01*
X172200000Y-102882000D02*
X172200000Y-104140000D01*
X172288200Y-102793800D02*
X172200000Y-102882000D01*
X171399200Y-102793800D02*
X172288200Y-102793800D01*
X170700000Y-102094600D02*
X171399200Y-102793800D01*
D24*
X178917600Y-100812600D02*
X180302800Y-102197800D01*
D10*
X180302800Y-102197800D02*
X180738600Y-102197800D01*
D24*
X169164000Y-97510600D02*
X165074600Y-101600000D01*
X165074600Y-101600000D02*
X163830000Y-101600000D01*
X168579800Y-93980000D02*
X163830000Y-93980000D01*
X170332400Y-97917000D02*
X168579800Y-93980000D01*
X170891200Y-99187000D02*
X170332400Y-97917000D01*
X171196000Y-99491800D02*
X170891200Y-99187000D01*
X171780200Y-97256600D02*
X171348400Y-96824800D01*
X171348400Y-96824800D02*
X171348400Y-88468200D01*
X171348400Y-88468200D02*
X166878000Y-83997800D01*
X166878000Y-83997800D02*
X150114000Y-83997800D01*
X150114000Y-83997800D02*
X148336000Y-82219800D01*
X148336000Y-82219800D02*
X148336000Y-76200000D01*
X145796000Y-82245200D02*
X145796000Y-76200000D01*
X149098000Y-85547200D02*
X145796000Y-82245200D01*
X166852600Y-85547200D02*
X149098000Y-85547200D01*
X170764200Y-89458800D02*
X166852600Y-85547200D01*
X170764200Y-97586800D02*
X170764200Y-89458800D01*
X171196000Y-98018600D02*
X170764200Y-97586800D01*
D10*
X180136800Y-98044000D02*
X178181000Y-99999800D01*
D24*
X178181000Y-99999800D02*
X169468800Y-99999800D01*
X169468800Y-99999800D02*
X166522400Y-102946200D01*
X166522400Y-102946200D02*
X166522400Y-114960400D01*
X166522400Y-114960400D02*
X166065200Y-115417600D01*
X166065200Y-115417600D02*
X150469600Y-115417600D01*
D10*
X169799000Y-102946200D02*
X170700000Y-103847200D01*
X170700000Y-103847200D02*
X170700000Y-104140000D01*
D23*
X170700000Y-114300000D02*
X170700000Y-111760000D01*
X170700000Y-111760000D02*
X170700000Y-109220000D01*
X170700000Y-109220000D02*
X170700000Y-106680000D01*
X170700000Y-106680000D02*
X170700000Y-104140000D01*
D24*
X181610000Y-98729800D02*
X183616600Y-100736400D01*
X183616600Y-100736400D02*
X186588400Y-100736400D01*
D10*
X186588400Y-100736400D02*
X186740800Y-100888800D01*
D24*
X186740800Y-100888800D02*
X186740800Y-116459000D01*
X186740800Y-116459000D02*
X185267600Y-117932200D01*
X185267600Y-117932200D02*
X140944600Y-117932200D01*
M02*
