G04 #@! TF.FileFunction,Paste,Top*
%FSLAX46Y46*%
G04 Gerber Fmt 4.6, Leading zero omitted, Abs format (unit mm)*
G04 Created by KiCad (PCBNEW 4.0.6) date Tuesday 10. October 2017 13:08:52*
%MOMM*%
%LPD*%
G01*
G04 APERTURE LIST*
%ADD10C,0.100000*%
%ADD11R,2.000000X1.800000*%
%ADD12R,0.300000X1.300000*%
%ADD13C,0.350000*%
%ADD14R,0.500000X0.900000*%
%ADD15R,0.900000X0.500000*%
%ADD16R,1.300000X1.550000*%
%ADD17R,0.800000X0.800000*%
G04 APERTURE END LIST*
D10*
D11*
X138047000Y-124647200D03*
D12*
X139847000Y-127397200D03*
X140347000Y-127397200D03*
X140847000Y-127397200D03*
X141347000Y-127397200D03*
X141847000Y-127397200D03*
X142347000Y-127397200D03*
X142847000Y-127397200D03*
X143347000Y-127397200D03*
X143847000Y-127397200D03*
D11*
X146147000Y-124647200D03*
D12*
X144347000Y-127397200D03*
D13*
X172530000Y-91250000D03*
X173330000Y-91250000D03*
X174130000Y-91250000D03*
X174930000Y-91250000D03*
X175730000Y-91250000D03*
X176530000Y-91250000D03*
X177330000Y-91250000D03*
X178130000Y-91250000D03*
X178930000Y-91250000D03*
X179730000Y-91250000D03*
X180530000Y-91250000D03*
X172530000Y-92050000D03*
X173330000Y-92050000D03*
X174130000Y-92050000D03*
X174930000Y-92050000D03*
X175730000Y-92050000D03*
X176530000Y-92050000D03*
X177330000Y-92050000D03*
X178130000Y-92050000D03*
X178930000Y-92050000D03*
X179730000Y-92050000D03*
X180530000Y-92050000D03*
X172530000Y-92850000D03*
X173330000Y-92850000D03*
X174130000Y-92850000D03*
X174930000Y-92850000D03*
X175730000Y-92850000D03*
X176530000Y-92850000D03*
X177330000Y-92850000D03*
X178130000Y-92850000D03*
X178930000Y-92850000D03*
X179730000Y-92850000D03*
X180530000Y-92850000D03*
X172530000Y-93650000D03*
X173330000Y-93650000D03*
X174130000Y-93650000D03*
X174930000Y-93650000D03*
X175730000Y-93650000D03*
X176530000Y-93650000D03*
X177330000Y-93650000D03*
X178130000Y-93650000D03*
X178930000Y-93650000D03*
X179730000Y-93650000D03*
X180530000Y-93650000D03*
X172530000Y-94450000D03*
X173330000Y-94450000D03*
X174130000Y-94450000D03*
X174930000Y-94450000D03*
X178130000Y-94450000D03*
X178930000Y-94450000D03*
X179730000Y-94450000D03*
X180530000Y-94450000D03*
X172530000Y-95250000D03*
X173330000Y-95250000D03*
X174130000Y-95250000D03*
X174930000Y-95250000D03*
X178130000Y-95250000D03*
X178930000Y-95250000D03*
X179730000Y-95250000D03*
X180530000Y-95250000D03*
X172530000Y-96050000D03*
X173330000Y-96050000D03*
X174130000Y-96050000D03*
X174930000Y-96050000D03*
X178130000Y-96050000D03*
X178930000Y-96050000D03*
X179730000Y-96050000D03*
X180530000Y-96050000D03*
X172530000Y-96850000D03*
X173330000Y-96850000D03*
X174130000Y-96850000D03*
X174930000Y-96850000D03*
X175730000Y-96850000D03*
X176530000Y-96850000D03*
X177330000Y-96850000D03*
X178130000Y-96850000D03*
X178930000Y-96850000D03*
X179730000Y-96850000D03*
X180530000Y-96850000D03*
X172530000Y-97650000D03*
X173330000Y-97650000D03*
X174130000Y-97650000D03*
X174930000Y-97650000D03*
X175730000Y-97650000D03*
X176530000Y-97650000D03*
X177330000Y-97650000D03*
X178130000Y-97650000D03*
X178930000Y-97650000D03*
X179730000Y-97650000D03*
X180530000Y-97650000D03*
X172530000Y-98450000D03*
X173330000Y-98450000D03*
X174130000Y-98450000D03*
X174930000Y-98450000D03*
X175730000Y-98450000D03*
X176530000Y-98450000D03*
X177330000Y-98450000D03*
X178130000Y-98450000D03*
X178930000Y-98450000D03*
X179730000Y-98450000D03*
X180530000Y-98450000D03*
X172530000Y-99250000D03*
X173330000Y-99250000D03*
X174130000Y-99250000D03*
X174930000Y-99250000D03*
X175730000Y-99250000D03*
X176530000Y-99250000D03*
X177330000Y-99250000D03*
X178130000Y-99250000D03*
X178930000Y-99250000D03*
X179730000Y-99250000D03*
X180530000Y-99250000D03*
D14*
X200140000Y-128016000D03*
X198640000Y-128016000D03*
D15*
X227279200Y-109919200D03*
X227279200Y-108419200D03*
X230784400Y-109970000D03*
X230784400Y-108470000D03*
X234137200Y-109970000D03*
X234137200Y-108470000D03*
X237490000Y-109970000D03*
X237490000Y-108470000D03*
D14*
X200140000Y-123190000D03*
X198640000Y-123190000D03*
X200140000Y-118110000D03*
X198640000Y-118110000D03*
X200140000Y-113030000D03*
X198640000Y-113030000D03*
D15*
X237236000Y-75934000D03*
X237236000Y-74434000D03*
X232664000Y-75934000D03*
X232664000Y-74434000D03*
X228092000Y-75934000D03*
X228092000Y-74434000D03*
X223520000Y-75934000D03*
X223520000Y-74434000D03*
X218948000Y-75934000D03*
X218948000Y-74434000D03*
X214376000Y-75934000D03*
X214376000Y-74434000D03*
X209804000Y-75934000D03*
X209804000Y-74434000D03*
X205232000Y-75934000D03*
X205232000Y-74434000D03*
D16*
X215102000Y-129451000D03*
X215102000Y-121501000D03*
X210602000Y-121501000D03*
X210602000Y-129451000D03*
X223230000Y-129451000D03*
X223230000Y-121501000D03*
X218730000Y-121501000D03*
X218730000Y-129451000D03*
X231358000Y-129451000D03*
X231358000Y-121501000D03*
X226858000Y-121501000D03*
X226858000Y-129451000D03*
X239486000Y-129451000D03*
X239486000Y-121501000D03*
X234986000Y-121501000D03*
X234986000Y-129451000D03*
D17*
X212852000Y-115024000D03*
X212852000Y-116624000D03*
X220980000Y-115024000D03*
X220980000Y-116624000D03*
X229108000Y-115024000D03*
X229108000Y-116624000D03*
X237236000Y-115024000D03*
X237236000Y-116624000D03*
X237236000Y-81496000D03*
X237236000Y-83096000D03*
X232664000Y-81496000D03*
X232664000Y-83096000D03*
X228092000Y-81496000D03*
X228092000Y-83096000D03*
X223520000Y-81496000D03*
X223520000Y-83096000D03*
X218948000Y-81496000D03*
X218948000Y-83096000D03*
X214376000Y-81496000D03*
X214376000Y-83096000D03*
X209804000Y-81496000D03*
X209804000Y-83096000D03*
X205232000Y-81496000D03*
X205232000Y-83096000D03*
M02*
