G04 #@! TF.FileFunction,Other,User*
%FSLAX46Y46*%
G04 Gerber Fmt 4.6, Leading zero omitted, Abs format (unit mm)*
G04 Created by KiCad (PCBNEW 4.0.6) date Tuesday 10. October 2017 13:08:52*
%MOMM*%
%LPD*%
G01*
G04 APERTURE LIST*
%ADD10C,0.100000*%
%ADD11C,0.050000*%
G04 APERTURE END LIST*
D10*
D11*
X167530000Y-117310000D02*
X157580000Y-117310000D01*
X157580000Y-117310000D02*
X157580000Y-83310000D01*
X157580000Y-83310000D02*
X167530000Y-83310000D01*
X167530000Y-83310000D02*
X167530000Y-117310000D01*
X200640000Y-128716000D02*
X198140000Y-128716000D01*
X200640000Y-128716000D02*
X200640000Y-127316000D01*
X198140000Y-127316000D02*
X198140000Y-128716000D01*
X198140000Y-127316000D02*
X200640000Y-127316000D01*
X226579200Y-110419200D02*
X226579200Y-107919200D01*
X226579200Y-110419200D02*
X227979200Y-110419200D01*
X227979200Y-107919200D02*
X226579200Y-107919200D01*
X227979200Y-107919200D02*
X227979200Y-110419200D01*
X230084400Y-110470000D02*
X230084400Y-107970000D01*
X230084400Y-110470000D02*
X231484400Y-110470000D01*
X231484400Y-107970000D02*
X230084400Y-107970000D01*
X231484400Y-107970000D02*
X231484400Y-110470000D01*
X233437200Y-110470000D02*
X233437200Y-107970000D01*
X233437200Y-110470000D02*
X234837200Y-110470000D01*
X234837200Y-107970000D02*
X233437200Y-107970000D01*
X234837200Y-107970000D02*
X234837200Y-110470000D01*
X236790000Y-110470000D02*
X236790000Y-107970000D01*
X236790000Y-110470000D02*
X238190000Y-110470000D01*
X238190000Y-107970000D02*
X236790000Y-107970000D01*
X238190000Y-107970000D02*
X238190000Y-110470000D01*
X200640000Y-123890000D02*
X198140000Y-123890000D01*
X200640000Y-123890000D02*
X200640000Y-122490000D01*
X198140000Y-122490000D02*
X198140000Y-123890000D01*
X198140000Y-122490000D02*
X200640000Y-122490000D01*
X200640000Y-118810000D02*
X198140000Y-118810000D01*
X200640000Y-118810000D02*
X200640000Y-117410000D01*
X198140000Y-117410000D02*
X198140000Y-118810000D01*
X198140000Y-117410000D02*
X200640000Y-117410000D01*
X200640000Y-113730000D02*
X198140000Y-113730000D01*
X200640000Y-113730000D02*
X200640000Y-112330000D01*
X198140000Y-112330000D02*
X198140000Y-113730000D01*
X198140000Y-112330000D02*
X200640000Y-112330000D01*
X236536000Y-76434000D02*
X236536000Y-73934000D01*
X236536000Y-76434000D02*
X237936000Y-76434000D01*
X237936000Y-73934000D02*
X236536000Y-73934000D01*
X237936000Y-73934000D02*
X237936000Y-76434000D01*
X231964000Y-76434000D02*
X231964000Y-73934000D01*
X231964000Y-76434000D02*
X233364000Y-76434000D01*
X233364000Y-73934000D02*
X231964000Y-73934000D01*
X233364000Y-73934000D02*
X233364000Y-76434000D01*
X227392000Y-76434000D02*
X227392000Y-73934000D01*
X227392000Y-76434000D02*
X228792000Y-76434000D01*
X228792000Y-73934000D02*
X227392000Y-73934000D01*
X228792000Y-73934000D02*
X228792000Y-76434000D01*
X222820000Y-76434000D02*
X222820000Y-73934000D01*
X222820000Y-76434000D02*
X224220000Y-76434000D01*
X224220000Y-73934000D02*
X222820000Y-73934000D01*
X224220000Y-73934000D02*
X224220000Y-76434000D01*
X218248000Y-76434000D02*
X218248000Y-73934000D01*
X218248000Y-76434000D02*
X219648000Y-76434000D01*
X219648000Y-73934000D02*
X218248000Y-73934000D01*
X219648000Y-73934000D02*
X219648000Y-76434000D01*
X213676000Y-76434000D02*
X213676000Y-73934000D01*
X213676000Y-76434000D02*
X215076000Y-76434000D01*
X215076000Y-73934000D02*
X213676000Y-73934000D01*
X215076000Y-73934000D02*
X215076000Y-76434000D01*
X209104000Y-76434000D02*
X209104000Y-73934000D01*
X209104000Y-76434000D02*
X210504000Y-76434000D01*
X210504000Y-73934000D02*
X209104000Y-73934000D01*
X210504000Y-73934000D02*
X210504000Y-76434000D01*
X204532000Y-76434000D02*
X204532000Y-73934000D01*
X204532000Y-76434000D02*
X205932000Y-76434000D01*
X205932000Y-73934000D02*
X204532000Y-73934000D01*
X205932000Y-73934000D02*
X205932000Y-76434000D01*
X212202000Y-114374000D02*
X213502000Y-114374000D01*
X213502000Y-114374000D02*
X213502000Y-117274000D01*
X213502000Y-117274000D02*
X212202000Y-117274000D01*
X212202000Y-117274000D02*
X212202000Y-114374000D01*
X220330000Y-114374000D02*
X221630000Y-114374000D01*
X221630000Y-114374000D02*
X221630000Y-117274000D01*
X221630000Y-117274000D02*
X220330000Y-117274000D01*
X220330000Y-117274000D02*
X220330000Y-114374000D01*
X228458000Y-114374000D02*
X229758000Y-114374000D01*
X229758000Y-114374000D02*
X229758000Y-117274000D01*
X229758000Y-117274000D02*
X228458000Y-117274000D01*
X228458000Y-117274000D02*
X228458000Y-114374000D01*
X236586000Y-114374000D02*
X237886000Y-114374000D01*
X237886000Y-114374000D02*
X237886000Y-117274000D01*
X237886000Y-117274000D02*
X236586000Y-117274000D01*
X236586000Y-117274000D02*
X236586000Y-114374000D01*
X236586000Y-80846000D02*
X237886000Y-80846000D01*
X237886000Y-80846000D02*
X237886000Y-83746000D01*
X237886000Y-83746000D02*
X236586000Y-83746000D01*
X236586000Y-83746000D02*
X236586000Y-80846000D01*
X232014000Y-80846000D02*
X233314000Y-80846000D01*
X233314000Y-80846000D02*
X233314000Y-83746000D01*
X233314000Y-83746000D02*
X232014000Y-83746000D01*
X232014000Y-83746000D02*
X232014000Y-80846000D01*
X227442000Y-80846000D02*
X228742000Y-80846000D01*
X228742000Y-80846000D02*
X228742000Y-83746000D01*
X228742000Y-83746000D02*
X227442000Y-83746000D01*
X227442000Y-83746000D02*
X227442000Y-80846000D01*
X222870000Y-80846000D02*
X224170000Y-80846000D01*
X224170000Y-80846000D02*
X224170000Y-83746000D01*
X224170000Y-83746000D02*
X222870000Y-83746000D01*
X222870000Y-83746000D02*
X222870000Y-80846000D01*
X218298000Y-80846000D02*
X219598000Y-80846000D01*
X219598000Y-80846000D02*
X219598000Y-83746000D01*
X219598000Y-83746000D02*
X218298000Y-83746000D01*
X218298000Y-83746000D02*
X218298000Y-80846000D01*
X213726000Y-80846000D02*
X215026000Y-80846000D01*
X215026000Y-80846000D02*
X215026000Y-83746000D01*
X215026000Y-83746000D02*
X213726000Y-83746000D01*
X213726000Y-83746000D02*
X213726000Y-80846000D01*
X209154000Y-80846000D02*
X210454000Y-80846000D01*
X210454000Y-80846000D02*
X210454000Y-83746000D01*
X210454000Y-83746000D02*
X209154000Y-83746000D01*
X209154000Y-83746000D02*
X209154000Y-80846000D01*
X204582000Y-80846000D02*
X205882000Y-80846000D01*
X205882000Y-80846000D02*
X205882000Y-83746000D01*
X205882000Y-83746000D02*
X204582000Y-83746000D01*
X204582000Y-83746000D02*
X204582000Y-80846000D01*
M02*
