G04 #@! TF.FileFunction,Other,ECO1*
%FSLAX46Y46*%
G04 Gerber Fmt 4.6, Leading zero omitted, Abs format (unit mm)*
G04 Created by KiCad (PCBNEW 4.0.6) date Tuesday 03. October 2017 15.24.42*
%MOMM*%
%LPD*%
G01*
G04 APERTURE LIST*
%ADD10C,0.100000*%
G04 APERTURE END LIST*
D10*
X168156000Y-73331429D02*
X168156000Y-73760000D01*
X168127428Y-73845714D01*
X168070285Y-73902857D01*
X167984571Y-73931429D01*
X167927428Y-73931429D01*
X168441714Y-73931429D02*
X168441714Y-73331429D01*
X168670286Y-73331429D01*
X168727428Y-73360000D01*
X168756000Y-73388571D01*
X168784571Y-73445714D01*
X168784571Y-73531429D01*
X168756000Y-73588571D01*
X168727428Y-73617143D01*
X168670286Y-73645714D01*
X168441714Y-73645714D01*
X169327428Y-73331429D02*
X169041714Y-73331429D01*
X169013143Y-73617143D01*
X169041714Y-73588571D01*
X169098857Y-73560000D01*
X169241714Y-73560000D01*
X169298857Y-73588571D01*
X169327428Y-73617143D01*
X169356000Y-73674286D01*
X169356000Y-73817143D01*
X169327428Y-73874286D01*
X169298857Y-73902857D01*
X169241714Y-73931429D01*
X169098857Y-73931429D01*
X169041714Y-73902857D01*
X169013143Y-73874286D01*
X168011571Y-72026429D02*
X168011571Y-71426429D01*
X168211571Y-71855000D01*
X168411571Y-71426429D01*
X168411571Y-72026429D01*
X169011571Y-72026429D02*
X168668714Y-72026429D01*
X168840142Y-72026429D02*
X168840142Y-71426429D01*
X168782999Y-71512143D01*
X168725857Y-71569286D01*
X168668714Y-71597857D01*
X169383000Y-71426429D02*
X169440143Y-71426429D01*
X169497286Y-71455000D01*
X169525857Y-71483571D01*
X169554428Y-71540714D01*
X169583000Y-71655000D01*
X169583000Y-71797857D01*
X169554428Y-71912143D01*
X169525857Y-71969286D01*
X169497286Y-71997857D01*
X169440143Y-72026429D01*
X169383000Y-72026429D01*
X169325857Y-71997857D01*
X169297286Y-71969286D01*
X169268714Y-71912143D01*
X169240143Y-71797857D01*
X169240143Y-71655000D01*
X169268714Y-71540714D01*
X169297286Y-71483571D01*
X169325857Y-71455000D01*
X169383000Y-71426429D01*
X154440000Y-126671429D02*
X154440000Y-127100000D01*
X154411428Y-127185714D01*
X154354285Y-127242857D01*
X154268571Y-127271429D01*
X154211428Y-127271429D01*
X154725714Y-127271429D02*
X154725714Y-126671429D01*
X154954286Y-126671429D01*
X155011428Y-126700000D01*
X155040000Y-126728571D01*
X155068571Y-126785714D01*
X155068571Y-126871429D01*
X155040000Y-126928571D01*
X155011428Y-126957143D01*
X154954286Y-126985714D01*
X154725714Y-126985714D01*
X155640000Y-127271429D02*
X155297143Y-127271429D01*
X155468571Y-127271429D02*
X155468571Y-126671429D01*
X155411428Y-126757143D01*
X155354286Y-126814286D01*
X155297143Y-126842857D01*
X190000000Y-73331429D02*
X190000000Y-73760000D01*
X189971428Y-73845714D01*
X189914285Y-73902857D01*
X189828571Y-73931429D01*
X189771428Y-73931429D01*
X190285714Y-73931429D02*
X190285714Y-73331429D01*
X190514286Y-73331429D01*
X190571428Y-73360000D01*
X190600000Y-73388571D01*
X190628571Y-73445714D01*
X190628571Y-73531429D01*
X190600000Y-73588571D01*
X190571428Y-73617143D01*
X190514286Y-73645714D01*
X190285714Y-73645714D01*
X191142857Y-73331429D02*
X191028571Y-73331429D01*
X190971428Y-73360000D01*
X190942857Y-73388571D01*
X190885714Y-73474286D01*
X190857143Y-73588571D01*
X190857143Y-73817143D01*
X190885714Y-73874286D01*
X190914286Y-73902857D01*
X190971428Y-73931429D01*
X191085714Y-73931429D01*
X191142857Y-73902857D01*
X191171428Y-73874286D01*
X191200000Y-73817143D01*
X191200000Y-73674286D01*
X191171428Y-73617143D01*
X191142857Y-73588571D01*
X191085714Y-73560000D01*
X190971428Y-73560000D01*
X190914286Y-73588571D01*
X190885714Y-73617143D01*
X190857143Y-73674286D01*
X168156000Y-80951429D02*
X168156000Y-81380000D01*
X168127428Y-81465714D01*
X168070285Y-81522857D01*
X167984571Y-81551429D01*
X167927428Y-81551429D01*
X168441714Y-81551429D02*
X168441714Y-80951429D01*
X168670286Y-80951429D01*
X168727428Y-80980000D01*
X168756000Y-81008571D01*
X168784571Y-81065714D01*
X168784571Y-81151429D01*
X168756000Y-81208571D01*
X168727428Y-81237143D01*
X168670286Y-81265714D01*
X168441714Y-81265714D01*
X168984571Y-80951429D02*
X169384571Y-80951429D01*
X169127428Y-81551429D01*
X190000000Y-80951429D02*
X190000000Y-81380000D01*
X189971428Y-81465714D01*
X189914285Y-81522857D01*
X189828571Y-81551429D01*
X189771428Y-81551429D01*
X190285714Y-81551429D02*
X190285714Y-80951429D01*
X190514286Y-80951429D01*
X190571428Y-80980000D01*
X190600000Y-81008571D01*
X190628571Y-81065714D01*
X190628571Y-81151429D01*
X190600000Y-81208571D01*
X190571428Y-81237143D01*
X190514286Y-81265714D01*
X190285714Y-81265714D01*
X190971428Y-81208571D02*
X190914286Y-81180000D01*
X190885714Y-81151429D01*
X190857143Y-81094286D01*
X190857143Y-81065714D01*
X190885714Y-81008571D01*
X190914286Y-80980000D01*
X190971428Y-80951429D01*
X191085714Y-80951429D01*
X191142857Y-80980000D01*
X191171428Y-81008571D01*
X191200000Y-81065714D01*
X191200000Y-81094286D01*
X191171428Y-81151429D01*
X191142857Y-81180000D01*
X191085714Y-81208571D01*
X190971428Y-81208571D01*
X190914286Y-81237143D01*
X190885714Y-81265714D01*
X190857143Y-81322857D01*
X190857143Y-81437143D01*
X190885714Y-81494286D01*
X190914286Y-81522857D01*
X190971428Y-81551429D01*
X191085714Y-81551429D01*
X191142857Y-81522857D01*
X191171428Y-81494286D01*
X191200000Y-81437143D01*
X191200000Y-81322857D01*
X191171428Y-81265714D01*
X191142857Y-81237143D01*
X191085714Y-81208571D01*
X177300000Y-126671429D02*
X177300000Y-127100000D01*
X177271428Y-127185714D01*
X177214285Y-127242857D01*
X177128571Y-127271429D01*
X177071428Y-127271429D01*
X177585714Y-127271429D02*
X177585714Y-126671429D01*
X177814286Y-126671429D01*
X177871428Y-126700000D01*
X177900000Y-126728571D01*
X177928571Y-126785714D01*
X177928571Y-126871429D01*
X177900000Y-126928571D01*
X177871428Y-126957143D01*
X177814286Y-126985714D01*
X177585714Y-126985714D01*
X178157143Y-126728571D02*
X178185714Y-126700000D01*
X178242857Y-126671429D01*
X178385714Y-126671429D01*
X178442857Y-126700000D01*
X178471428Y-126728571D01*
X178500000Y-126785714D01*
X178500000Y-126842857D01*
X178471428Y-126928571D01*
X178128571Y-127271429D01*
X178500000Y-127271429D01*
X164600000Y-119051429D02*
X164600000Y-119480000D01*
X164571428Y-119565714D01*
X164514285Y-119622857D01*
X164428571Y-119651429D01*
X164371428Y-119651429D01*
X164885714Y-119651429D02*
X164885714Y-119051429D01*
X165114286Y-119051429D01*
X165171428Y-119080000D01*
X165200000Y-119108571D01*
X165228571Y-119165714D01*
X165228571Y-119251429D01*
X165200000Y-119308571D01*
X165171428Y-119337143D01*
X165114286Y-119365714D01*
X164885714Y-119365714D01*
X165428571Y-119051429D02*
X165800000Y-119051429D01*
X165600000Y-119280000D01*
X165685714Y-119280000D01*
X165742857Y-119308571D01*
X165771428Y-119337143D01*
X165800000Y-119394286D01*
X165800000Y-119537143D01*
X165771428Y-119594286D01*
X165742857Y-119622857D01*
X165685714Y-119651429D01*
X165514286Y-119651429D01*
X165457143Y-119622857D01*
X165428571Y-119594286D01*
X164328571Y-117746429D02*
X164328571Y-117146429D01*
X164528571Y-117575000D01*
X164728571Y-117146429D01*
X164728571Y-117746429D01*
X165128571Y-117146429D02*
X165185714Y-117146429D01*
X165242857Y-117175000D01*
X165271428Y-117203571D01*
X165299999Y-117260714D01*
X165328571Y-117375000D01*
X165328571Y-117517857D01*
X165299999Y-117632143D01*
X165271428Y-117689286D01*
X165242857Y-117717857D01*
X165185714Y-117746429D01*
X165128571Y-117746429D01*
X165071428Y-117717857D01*
X165042857Y-117689286D01*
X165014285Y-117632143D01*
X164985714Y-117517857D01*
X164985714Y-117375000D01*
X165014285Y-117260714D01*
X165042857Y-117203571D01*
X165071428Y-117175000D01*
X165128571Y-117146429D01*
X165842857Y-117346429D02*
X165842857Y-117746429D01*
X165700000Y-117117857D02*
X165557143Y-117546429D01*
X165928571Y-117546429D01*
X177300000Y-119051429D02*
X177300000Y-119480000D01*
X177271428Y-119565714D01*
X177214285Y-119622857D01*
X177128571Y-119651429D01*
X177071428Y-119651429D01*
X177585714Y-119651429D02*
X177585714Y-119051429D01*
X177814286Y-119051429D01*
X177871428Y-119080000D01*
X177900000Y-119108571D01*
X177928571Y-119165714D01*
X177928571Y-119251429D01*
X177900000Y-119308571D01*
X177871428Y-119337143D01*
X177814286Y-119365714D01*
X177585714Y-119365714D01*
X178442857Y-119251429D02*
X178442857Y-119651429D01*
X178300000Y-119022857D02*
X178157143Y-119451429D01*
X178528571Y-119451429D01*
X210044857Y-126226000D02*
X210073429Y-126140286D01*
X210073429Y-125997429D01*
X210044857Y-125940286D01*
X210016286Y-125911715D01*
X209959143Y-125883143D01*
X209902000Y-125883143D01*
X209844857Y-125911715D01*
X209816286Y-125940286D01*
X209787714Y-125997429D01*
X209759143Y-126111715D01*
X209730571Y-126168857D01*
X209702000Y-126197429D01*
X209644857Y-126226000D01*
X209587714Y-126226000D01*
X209530571Y-126197429D01*
X209502000Y-126168857D01*
X209473429Y-126111715D01*
X209473429Y-125968857D01*
X209502000Y-125883143D01*
X209473429Y-125683143D02*
X210073429Y-125540286D01*
X209644857Y-125426000D01*
X210073429Y-125311714D01*
X209473429Y-125168857D01*
X209530571Y-124968857D02*
X209502000Y-124940286D01*
X209473429Y-124883143D01*
X209473429Y-124740286D01*
X209502000Y-124683143D01*
X209530571Y-124654572D01*
X209587714Y-124626000D01*
X209644857Y-124626000D01*
X209730571Y-124654572D01*
X210073429Y-124997429D01*
X210073429Y-124626000D01*
X218172857Y-126226000D02*
X218201429Y-126140286D01*
X218201429Y-125997429D01*
X218172857Y-125940286D01*
X218144286Y-125911715D01*
X218087143Y-125883143D01*
X218030000Y-125883143D01*
X217972857Y-125911715D01*
X217944286Y-125940286D01*
X217915714Y-125997429D01*
X217887143Y-126111715D01*
X217858571Y-126168857D01*
X217830000Y-126197429D01*
X217772857Y-126226000D01*
X217715714Y-126226000D01*
X217658571Y-126197429D01*
X217630000Y-126168857D01*
X217601429Y-126111715D01*
X217601429Y-125968857D01*
X217630000Y-125883143D01*
X217601429Y-125683143D02*
X218201429Y-125540286D01*
X217772857Y-125426000D01*
X218201429Y-125311714D01*
X217601429Y-125168857D01*
X217601429Y-124997429D02*
X217601429Y-124626000D01*
X217830000Y-124826000D01*
X217830000Y-124740286D01*
X217858571Y-124683143D01*
X217887143Y-124654572D01*
X217944286Y-124626000D01*
X218087143Y-124626000D01*
X218144286Y-124654572D01*
X218172857Y-124683143D01*
X218201429Y-124740286D01*
X218201429Y-124911714D01*
X218172857Y-124968857D01*
X218144286Y-124997429D01*
X226300857Y-126226000D02*
X226329429Y-126140286D01*
X226329429Y-125997429D01*
X226300857Y-125940286D01*
X226272286Y-125911715D01*
X226215143Y-125883143D01*
X226158000Y-125883143D01*
X226100857Y-125911715D01*
X226072286Y-125940286D01*
X226043714Y-125997429D01*
X226015143Y-126111715D01*
X225986571Y-126168857D01*
X225958000Y-126197429D01*
X225900857Y-126226000D01*
X225843714Y-126226000D01*
X225786571Y-126197429D01*
X225758000Y-126168857D01*
X225729429Y-126111715D01*
X225729429Y-125968857D01*
X225758000Y-125883143D01*
X225729429Y-125683143D02*
X226329429Y-125540286D01*
X225900857Y-125426000D01*
X226329429Y-125311714D01*
X225729429Y-125168857D01*
X225929429Y-124683143D02*
X226329429Y-124683143D01*
X225700857Y-124826000D02*
X226129429Y-124968857D01*
X226129429Y-124597429D01*
X234428857Y-126226000D02*
X234457429Y-126140286D01*
X234457429Y-125997429D01*
X234428857Y-125940286D01*
X234400286Y-125911715D01*
X234343143Y-125883143D01*
X234286000Y-125883143D01*
X234228857Y-125911715D01*
X234200286Y-125940286D01*
X234171714Y-125997429D01*
X234143143Y-126111715D01*
X234114571Y-126168857D01*
X234086000Y-126197429D01*
X234028857Y-126226000D01*
X233971714Y-126226000D01*
X233914571Y-126197429D01*
X233886000Y-126168857D01*
X233857429Y-126111715D01*
X233857429Y-125968857D01*
X233886000Y-125883143D01*
X233857429Y-125683143D02*
X234457429Y-125540286D01*
X234028857Y-125426000D01*
X234457429Y-125311714D01*
X233857429Y-125168857D01*
X233857429Y-124654572D02*
X233857429Y-124940286D01*
X234143143Y-124968857D01*
X234114571Y-124940286D01*
X234086000Y-124883143D01*
X234086000Y-124740286D01*
X234114571Y-124683143D01*
X234143143Y-124654572D01*
X234200286Y-124626000D01*
X234343143Y-124626000D01*
X234400286Y-124654572D01*
X234428857Y-124683143D01*
X234457429Y-124740286D01*
X234457429Y-124883143D01*
X234428857Y-124940286D01*
X234400286Y-124968857D01*
M02*
