G04 #@! TF.FileFunction,Copper,L2,Inr,Plane*
%FSLAX46Y46*%
G04 Gerber Fmt 4.6, Leading zero omitted, Abs format (unit mm)*
G04 Created by KiCad (PCBNEW 4.0.6) date Tuesday 10. October 2017 13:08:52*
%MOMM*%
%LPD*%
G01*
G04 APERTURE LIST*
%ADD10C,0.100000*%
%ADD11O,1.524000X1.524000*%
%ADD12R,1.700000X1.700000*%
%ADD13C,1.700000*%
%ADD14C,1.524000*%
%ADD15C,1.523000*%
%ADD16C,1.000000*%
%ADD17C,0.400000*%
%ADD18C,0.600000*%
%ADD19C,0.254000*%
G04 APERTURE END LIST*
D10*
D11*
X168656000Y-73660000D03*
X166116000Y-73660000D03*
X163576000Y-73660000D03*
X161036000Y-73660000D03*
X158496000Y-73660000D03*
X155956000Y-73660000D03*
X153416000Y-73660000D03*
X150876000Y-73660000D03*
X148336000Y-73660000D03*
X145796000Y-73660000D03*
X154940000Y-127000000D03*
X157480000Y-127000000D03*
X160020000Y-127000000D03*
X162560000Y-127000000D03*
X165100000Y-127000000D03*
X167640000Y-127000000D03*
X170180000Y-127000000D03*
X172720000Y-127000000D03*
X190500000Y-73660000D03*
X187960000Y-73660000D03*
X185420000Y-73660000D03*
X182880000Y-73660000D03*
X180340000Y-73660000D03*
X177800000Y-73660000D03*
X175260000Y-73660000D03*
X172720000Y-73660000D03*
X168656000Y-81280000D03*
X166116000Y-81280000D03*
X163576000Y-81280000D03*
X161036000Y-81280000D03*
X158496000Y-81280000D03*
X155956000Y-81280000D03*
X153416000Y-81280000D03*
X150876000Y-81280000D03*
X190500000Y-81280000D03*
X187960000Y-81280000D03*
X185420000Y-81280000D03*
X182880000Y-81280000D03*
X180340000Y-81280000D03*
X177800000Y-81280000D03*
X175260000Y-81280000D03*
X172720000Y-81280000D03*
X177800000Y-127000000D03*
X180340000Y-127000000D03*
X182880000Y-127000000D03*
X185420000Y-127000000D03*
X187960000Y-127000000D03*
X190500000Y-127000000D03*
X165100000Y-119380000D03*
X167640000Y-119380000D03*
X170180000Y-119380000D03*
X172720000Y-119380000D03*
X177800000Y-119380000D03*
X180340000Y-119380000D03*
X182880000Y-119380000D03*
X185420000Y-119380000D03*
X187960000Y-119380000D03*
X190500000Y-119380000D03*
D12*
X163830000Y-111760000D03*
D13*
X161290000Y-111760000D03*
X163830000Y-109220000D03*
X161290000Y-109220000D03*
X163830000Y-106680000D03*
X161290000Y-106680000D03*
X163830000Y-104140000D03*
X161290000Y-104140000D03*
X163830000Y-101600000D03*
X161290000Y-101600000D03*
X163830000Y-99060000D03*
X161290000Y-99060000D03*
X163830000Y-96520000D03*
X161290000Y-96520000D03*
X163830000Y-93980000D03*
X161290000Y-93980000D03*
X163830000Y-91440000D03*
X161290000Y-91440000D03*
X163830000Y-88900000D03*
X161290000Y-88900000D03*
D14*
X165100000Y-121920000D03*
X167640000Y-121920000D03*
X170180000Y-121920000D03*
X172720000Y-121920000D03*
X182880000Y-121920000D03*
X180340000Y-121920000D03*
X177800000Y-121920000D03*
X185420000Y-121920000D03*
X187960000Y-121920000D03*
X190500000Y-121920000D03*
D15*
X150876000Y-78740000D03*
D14*
X153416000Y-78740000D03*
X155956000Y-78740000D03*
X158496000Y-78740000D03*
X161036000Y-78740000D03*
X163576000Y-78740000D03*
X166116000Y-78740000D03*
X168656000Y-78740000D03*
X172720000Y-78740000D03*
X175260000Y-78740000D03*
X177800000Y-78740000D03*
X180340000Y-78740000D03*
X182880000Y-78740000D03*
X185420000Y-78740000D03*
X187960000Y-78740000D03*
X190500000Y-78740000D03*
X190500000Y-124460000D03*
X187960000Y-124460000D03*
X185420000Y-124460000D03*
X177800000Y-124460000D03*
X180340000Y-124460000D03*
X182880000Y-124460000D03*
X172720000Y-124460000D03*
X170180000Y-124460000D03*
X167640000Y-124460000D03*
X162560000Y-124460000D03*
X160020000Y-124460000D03*
X190500000Y-76200000D03*
X187960000Y-76200000D03*
X185420000Y-76200000D03*
X182880000Y-76200000D03*
X180340000Y-76200000D03*
X177800000Y-76200000D03*
X175260000Y-76200000D03*
X172720000Y-76200000D03*
X168656000Y-76200000D03*
X166116000Y-76200000D03*
X163576000Y-76200000D03*
X161036000Y-76200000D03*
X158496000Y-76200000D03*
X155956000Y-76200000D03*
X153416000Y-76200000D03*
D15*
X150876000Y-76200000D03*
D14*
X165100000Y-124460000D03*
X148336000Y-76200000D03*
X145796000Y-76200000D03*
X157480000Y-124460000D03*
X154940000Y-124460000D03*
D16*
X184302400Y-98552000D03*
D17*
X174523400Y-98044000D03*
X180136800Y-98856800D03*
X176936400Y-98044000D03*
X176936400Y-98856800D03*
X173736000Y-95656400D03*
X176149000Y-96418400D03*
X179324000Y-95656400D03*
X176936400Y-92456000D03*
X175437800Y-94157800D03*
D16*
X240614200Y-116636800D03*
X239496600Y-131851400D03*
X231368600Y-131699000D03*
X223215200Y-131775200D03*
X215112600Y-131826000D03*
X240030000Y-83185000D03*
D18*
X180746400Y-105435400D03*
X172212000Y-116205000D03*
X178968400Y-114300000D03*
X140335000Y-128727200D03*
D17*
X177698400Y-95656400D03*
X177723800Y-96443800D03*
X174523400Y-98856800D03*
X175387000Y-95631000D03*
X176936400Y-96418400D03*
X176123600Y-94081600D03*
X176936400Y-94107000D03*
D16*
X196824600Y-112953800D03*
X196824600Y-118110000D03*
X197078600Y-123215400D03*
X197053200Y-128041400D03*
D18*
X185140600Y-104038400D03*
X175768000Y-115925600D03*
X141351000Y-128676400D03*
D16*
X183235600Y-95250000D03*
D18*
X178917600Y-100812600D03*
D17*
X169164000Y-97510600D03*
X171196000Y-99491800D03*
X171780200Y-97256600D03*
X171196000Y-98018600D03*
X180136800Y-98044000D03*
X150469600Y-115417600D03*
X169799000Y-102946200D03*
X181610000Y-98729800D03*
X140944600Y-117932200D03*
D19*
G36*
X246149000Y-134389000D02*
X127231000Y-134389000D01*
X127231000Y-132011167D01*
X214177438Y-132011167D01*
X214319483Y-132354943D01*
X214582273Y-132618192D01*
X214925801Y-132760838D01*
X215297767Y-132761162D01*
X215641543Y-132619117D01*
X215904792Y-132356327D01*
X216047438Y-132012799D01*
X216047483Y-131960367D01*
X222280038Y-131960367D01*
X222422083Y-132304143D01*
X222684873Y-132567392D01*
X223028401Y-132710038D01*
X223400367Y-132710362D01*
X223744143Y-132568317D01*
X224007392Y-132305527D01*
X224150038Y-131961999D01*
X224150105Y-131884167D01*
X230433438Y-131884167D01*
X230575483Y-132227943D01*
X230838273Y-132491192D01*
X231181801Y-132633838D01*
X231553767Y-132634162D01*
X231897543Y-132492117D01*
X232160792Y-132229327D01*
X232240833Y-132036567D01*
X238561438Y-132036567D01*
X238703483Y-132380343D01*
X238966273Y-132643592D01*
X239309801Y-132786238D01*
X239681767Y-132786562D01*
X240025543Y-132644517D01*
X240288792Y-132381727D01*
X240431438Y-132038199D01*
X240431762Y-131666233D01*
X240289717Y-131322457D01*
X240026927Y-131059208D01*
X239683399Y-130916562D01*
X239311433Y-130916238D01*
X238967657Y-131058283D01*
X238704408Y-131321073D01*
X238561762Y-131664601D01*
X238561438Y-132036567D01*
X232240833Y-132036567D01*
X232303438Y-131885799D01*
X232303762Y-131513833D01*
X232161717Y-131170057D01*
X231898927Y-130906808D01*
X231555399Y-130764162D01*
X231183433Y-130763838D01*
X230839657Y-130905883D01*
X230576408Y-131168673D01*
X230433762Y-131512201D01*
X230433438Y-131884167D01*
X224150105Y-131884167D01*
X224150362Y-131590033D01*
X224008317Y-131246257D01*
X223745527Y-130983008D01*
X223401999Y-130840362D01*
X223030033Y-130840038D01*
X222686257Y-130982083D01*
X222423008Y-131244873D01*
X222280362Y-131588401D01*
X222280038Y-131960367D01*
X216047483Y-131960367D01*
X216047762Y-131640833D01*
X215905717Y-131297057D01*
X215642927Y-131033808D01*
X215299399Y-130891162D01*
X214927433Y-130890838D01*
X214583657Y-131032883D01*
X214320408Y-131295673D01*
X214177762Y-131639201D01*
X214177438Y-132011167D01*
X127231000Y-132011167D01*
X127231000Y-128872759D01*
X139599872Y-128872759D01*
X139711534Y-129143000D01*
X139918112Y-129349940D01*
X140188158Y-129462073D01*
X140480559Y-129462328D01*
X140750800Y-129350666D01*
X140957740Y-129144088D01*
X141069873Y-128874042D01*
X141070128Y-128581641D01*
X140958466Y-128311400D01*
X140751888Y-128104460D01*
X140481842Y-127992327D01*
X140189441Y-127992072D01*
X139919200Y-128103734D01*
X139712260Y-128310312D01*
X139600127Y-128580358D01*
X139599872Y-128872759D01*
X127231000Y-128872759D01*
X127231000Y-126976549D01*
X153743000Y-126976549D01*
X153743000Y-127023451D01*
X153834116Y-127481523D01*
X154093593Y-127869858D01*
X154481928Y-128129335D01*
X154940000Y-128220451D01*
X155398072Y-128129335D01*
X155786407Y-127869858D01*
X156045884Y-127481523D01*
X156137000Y-127023451D01*
X156137000Y-126976549D01*
X156283000Y-126976549D01*
X156283000Y-127023451D01*
X156374116Y-127481523D01*
X156633593Y-127869858D01*
X157021928Y-128129335D01*
X157480000Y-128220451D01*
X157938072Y-128129335D01*
X158326407Y-127869858D01*
X158585884Y-127481523D01*
X158677000Y-127023451D01*
X158677000Y-126976549D01*
X158823000Y-126976549D01*
X158823000Y-127023451D01*
X158914116Y-127481523D01*
X159173593Y-127869858D01*
X159561928Y-128129335D01*
X160020000Y-128220451D01*
X160478072Y-128129335D01*
X160866407Y-127869858D01*
X161125884Y-127481523D01*
X161179122Y-127213872D01*
X161382259Y-127213872D01*
X161553754Y-127648294D01*
X161878441Y-127984019D01*
X162306889Y-128169936D01*
X162346128Y-128177738D01*
X162533000Y-128087915D01*
X162533000Y-127027000D01*
X162587000Y-127027000D01*
X162587000Y-128087915D01*
X162773872Y-128177738D01*
X162813111Y-128169936D01*
X163241559Y-127984019D01*
X163566246Y-127648294D01*
X163737741Y-127213872D01*
X163647948Y-127027000D01*
X162587000Y-127027000D01*
X162533000Y-127027000D01*
X161472052Y-127027000D01*
X161382259Y-127213872D01*
X161179122Y-127213872D01*
X161217000Y-127023451D01*
X161217000Y-126976549D01*
X163903000Y-126976549D01*
X163903000Y-127023451D01*
X163994116Y-127481523D01*
X164253593Y-127869858D01*
X164641928Y-128129335D01*
X165100000Y-128220451D01*
X165558072Y-128129335D01*
X165946407Y-127869858D01*
X166205884Y-127481523D01*
X166297000Y-127023451D01*
X166297000Y-126976549D01*
X166443000Y-126976549D01*
X166443000Y-127023451D01*
X166534116Y-127481523D01*
X166793593Y-127869858D01*
X167181928Y-128129335D01*
X167640000Y-128220451D01*
X168098072Y-128129335D01*
X168486407Y-127869858D01*
X168745884Y-127481523D01*
X168837000Y-127023451D01*
X168837000Y-126976549D01*
X168983000Y-126976549D01*
X168983000Y-127023451D01*
X169074116Y-127481523D01*
X169333593Y-127869858D01*
X169721928Y-128129335D01*
X170180000Y-128220451D01*
X170638072Y-128129335D01*
X171026407Y-127869858D01*
X171285884Y-127481523D01*
X171377000Y-127023451D01*
X171377000Y-126976549D01*
X171523000Y-126976549D01*
X171523000Y-127023451D01*
X171614116Y-127481523D01*
X171873593Y-127869858D01*
X172261928Y-128129335D01*
X172720000Y-128220451D01*
X173178072Y-128129335D01*
X173566407Y-127869858D01*
X173825884Y-127481523D01*
X173917000Y-127023451D01*
X173917000Y-126976549D01*
X176603000Y-126976549D01*
X176603000Y-127023451D01*
X176694116Y-127481523D01*
X176953593Y-127869858D01*
X177341928Y-128129335D01*
X177800000Y-128220451D01*
X178258072Y-128129335D01*
X178646407Y-127869858D01*
X178905884Y-127481523D01*
X178997000Y-127023451D01*
X178997000Y-126976549D01*
X179143000Y-126976549D01*
X179143000Y-127023451D01*
X179234116Y-127481523D01*
X179493593Y-127869858D01*
X179881928Y-128129335D01*
X180340000Y-128220451D01*
X180798072Y-128129335D01*
X181186407Y-127869858D01*
X181445884Y-127481523D01*
X181537000Y-127023451D01*
X181537000Y-126976549D01*
X181683000Y-126976549D01*
X181683000Y-127023451D01*
X181774116Y-127481523D01*
X182033593Y-127869858D01*
X182421928Y-128129335D01*
X182880000Y-128220451D01*
X183338072Y-128129335D01*
X183726407Y-127869858D01*
X183985884Y-127481523D01*
X184077000Y-127023451D01*
X184077000Y-126976549D01*
X184223000Y-126976549D01*
X184223000Y-127023451D01*
X184314116Y-127481523D01*
X184573593Y-127869858D01*
X184961928Y-128129335D01*
X185420000Y-128220451D01*
X185878072Y-128129335D01*
X186266407Y-127869858D01*
X186525884Y-127481523D01*
X186617000Y-127023451D01*
X186617000Y-126976549D01*
X186763000Y-126976549D01*
X186763000Y-127023451D01*
X186854116Y-127481523D01*
X187113593Y-127869858D01*
X187501928Y-128129335D01*
X187960000Y-128220451D01*
X188418072Y-128129335D01*
X188806407Y-127869858D01*
X189065884Y-127481523D01*
X189157000Y-127023451D01*
X189157000Y-126976549D01*
X189303000Y-126976549D01*
X189303000Y-127023451D01*
X189394116Y-127481523D01*
X189653593Y-127869858D01*
X190041928Y-128129335D01*
X190500000Y-128220451D01*
X190958072Y-128129335D01*
X191346407Y-127869858D01*
X191605884Y-127481523D01*
X191697000Y-127023451D01*
X191697000Y-126976549D01*
X191605884Y-126518477D01*
X191346407Y-126130142D01*
X190958072Y-125870665D01*
X190500000Y-125779549D01*
X190041928Y-125870665D01*
X189653593Y-126130142D01*
X189394116Y-126518477D01*
X189303000Y-126976549D01*
X189157000Y-126976549D01*
X189065884Y-126518477D01*
X188806407Y-126130142D01*
X188418072Y-125870665D01*
X187960000Y-125779549D01*
X187501928Y-125870665D01*
X187113593Y-126130142D01*
X186854116Y-126518477D01*
X186763000Y-126976549D01*
X186617000Y-126976549D01*
X186525884Y-126518477D01*
X186266407Y-126130142D01*
X185878072Y-125870665D01*
X185420000Y-125779549D01*
X184961928Y-125870665D01*
X184573593Y-126130142D01*
X184314116Y-126518477D01*
X184223000Y-126976549D01*
X184077000Y-126976549D01*
X183985884Y-126518477D01*
X183726407Y-126130142D01*
X183338072Y-125870665D01*
X182880000Y-125779549D01*
X182421928Y-125870665D01*
X182033593Y-126130142D01*
X181774116Y-126518477D01*
X181683000Y-126976549D01*
X181537000Y-126976549D01*
X181445884Y-126518477D01*
X181186407Y-126130142D01*
X180798072Y-125870665D01*
X180340000Y-125779549D01*
X179881928Y-125870665D01*
X179493593Y-126130142D01*
X179234116Y-126518477D01*
X179143000Y-126976549D01*
X178997000Y-126976549D01*
X178905884Y-126518477D01*
X178646407Y-126130142D01*
X178258072Y-125870665D01*
X177800000Y-125779549D01*
X177341928Y-125870665D01*
X176953593Y-126130142D01*
X176694116Y-126518477D01*
X176603000Y-126976549D01*
X173917000Y-126976549D01*
X173825884Y-126518477D01*
X173566407Y-126130142D01*
X173178072Y-125870665D01*
X172720000Y-125779549D01*
X172261928Y-125870665D01*
X171873593Y-126130142D01*
X171614116Y-126518477D01*
X171523000Y-126976549D01*
X171377000Y-126976549D01*
X171285884Y-126518477D01*
X171026407Y-126130142D01*
X170638072Y-125870665D01*
X170180000Y-125779549D01*
X169721928Y-125870665D01*
X169333593Y-126130142D01*
X169074116Y-126518477D01*
X168983000Y-126976549D01*
X168837000Y-126976549D01*
X168745884Y-126518477D01*
X168486407Y-126130142D01*
X168098072Y-125870665D01*
X167640000Y-125779549D01*
X167181928Y-125870665D01*
X166793593Y-126130142D01*
X166534116Y-126518477D01*
X166443000Y-126976549D01*
X166297000Y-126976549D01*
X166205884Y-126518477D01*
X165946407Y-126130142D01*
X165558072Y-125870665D01*
X165100000Y-125779549D01*
X164641928Y-125870665D01*
X164253593Y-126130142D01*
X163994116Y-126518477D01*
X163903000Y-126976549D01*
X161217000Y-126976549D01*
X161179123Y-126786128D01*
X161382259Y-126786128D01*
X161472052Y-126973000D01*
X162533000Y-126973000D01*
X162533000Y-125912085D01*
X162587000Y-125912085D01*
X162587000Y-126973000D01*
X163647948Y-126973000D01*
X163737741Y-126786128D01*
X163566246Y-126351706D01*
X163241559Y-126015981D01*
X162813111Y-125830064D01*
X162773872Y-125822262D01*
X162587000Y-125912085D01*
X162533000Y-125912085D01*
X162346128Y-125822262D01*
X162306889Y-125830064D01*
X161878441Y-126015981D01*
X161553754Y-126351706D01*
X161382259Y-126786128D01*
X161179123Y-126786128D01*
X161125884Y-126518477D01*
X160866407Y-126130142D01*
X160478072Y-125870665D01*
X160020000Y-125779549D01*
X159561928Y-125870665D01*
X159173593Y-126130142D01*
X158914116Y-126518477D01*
X158823000Y-126976549D01*
X158677000Y-126976549D01*
X158585884Y-126518477D01*
X158326407Y-126130142D01*
X157938072Y-125870665D01*
X157480000Y-125779549D01*
X157021928Y-125870665D01*
X156633593Y-126130142D01*
X156374116Y-126518477D01*
X156283000Y-126976549D01*
X156137000Y-126976549D01*
X156045884Y-126518477D01*
X155786407Y-126130142D01*
X155398072Y-125870665D01*
X154940000Y-125779549D01*
X154481928Y-125870665D01*
X154093593Y-126130142D01*
X153834116Y-126518477D01*
X153743000Y-126976549D01*
X127231000Y-126976549D01*
X127231000Y-124697054D01*
X153742792Y-124697054D01*
X153924641Y-125137160D01*
X154261068Y-125474176D01*
X154700857Y-125656792D01*
X155177054Y-125657208D01*
X155617160Y-125475359D01*
X155954176Y-125138932D01*
X156136792Y-124699143D01*
X156136793Y-124697054D01*
X156282792Y-124697054D01*
X156464641Y-125137160D01*
X156801068Y-125474176D01*
X157240857Y-125656792D01*
X157717054Y-125657208D01*
X158157160Y-125475359D01*
X158494176Y-125138932D01*
X158676792Y-124699143D01*
X158676793Y-124697054D01*
X158822792Y-124697054D01*
X159004641Y-125137160D01*
X159341068Y-125474176D01*
X159780857Y-125656792D01*
X160257054Y-125657208D01*
X160697160Y-125475359D01*
X160907936Y-125264951D01*
X161793232Y-125264951D01*
X161864656Y-125462993D01*
X162301415Y-125652742D01*
X162777541Y-125660906D01*
X163220549Y-125486243D01*
X163255344Y-125462993D01*
X163326768Y-125264951D01*
X162560000Y-124498184D01*
X161793232Y-125264951D01*
X160907936Y-125264951D01*
X161034176Y-125138932D01*
X161216792Y-124699143D01*
X161216810Y-124677541D01*
X161359094Y-124677541D01*
X161533757Y-125120549D01*
X161557007Y-125155344D01*
X161755049Y-125226768D01*
X162521816Y-124460000D01*
X162598184Y-124460000D01*
X163364951Y-125226768D01*
X163562993Y-125155344D01*
X163752742Y-124718585D01*
X163753111Y-124697054D01*
X163902792Y-124697054D01*
X164084641Y-125137160D01*
X164421068Y-125474176D01*
X164860857Y-125656792D01*
X165337054Y-125657208D01*
X165777160Y-125475359D01*
X166114176Y-125138932D01*
X166296792Y-124699143D01*
X166296793Y-124697054D01*
X166442792Y-124697054D01*
X166624641Y-125137160D01*
X166961068Y-125474176D01*
X167400857Y-125656792D01*
X167877054Y-125657208D01*
X168317160Y-125475359D01*
X168654176Y-125138932D01*
X168836792Y-124699143D01*
X168836793Y-124697054D01*
X168982792Y-124697054D01*
X169164641Y-125137160D01*
X169501068Y-125474176D01*
X169940857Y-125656792D01*
X170417054Y-125657208D01*
X170857160Y-125475359D01*
X171194176Y-125138932D01*
X171376792Y-124699143D01*
X171376793Y-124697054D01*
X171522792Y-124697054D01*
X171704641Y-125137160D01*
X172041068Y-125474176D01*
X172480857Y-125656792D01*
X172957054Y-125657208D01*
X173397160Y-125475359D01*
X173734176Y-125138932D01*
X173916792Y-124699143D01*
X173916793Y-124697054D01*
X176602792Y-124697054D01*
X176784641Y-125137160D01*
X177121068Y-125474176D01*
X177560857Y-125656792D01*
X178037054Y-125657208D01*
X178477160Y-125475359D01*
X178814176Y-125138932D01*
X178996792Y-124699143D01*
X178996793Y-124697054D01*
X179142792Y-124697054D01*
X179324641Y-125137160D01*
X179661068Y-125474176D01*
X180100857Y-125656792D01*
X180577054Y-125657208D01*
X181017160Y-125475359D01*
X181354176Y-125138932D01*
X181536792Y-124699143D01*
X181536793Y-124697054D01*
X181682792Y-124697054D01*
X181864641Y-125137160D01*
X182201068Y-125474176D01*
X182640857Y-125656792D01*
X183117054Y-125657208D01*
X183557160Y-125475359D01*
X183894176Y-125138932D01*
X184076792Y-124699143D01*
X184076793Y-124697054D01*
X184222792Y-124697054D01*
X184404641Y-125137160D01*
X184741068Y-125474176D01*
X185180857Y-125656792D01*
X185657054Y-125657208D01*
X186097160Y-125475359D01*
X186434176Y-125138932D01*
X186616792Y-124699143D01*
X186616793Y-124697054D01*
X186762792Y-124697054D01*
X186944641Y-125137160D01*
X187281068Y-125474176D01*
X187720857Y-125656792D01*
X188197054Y-125657208D01*
X188637160Y-125475359D01*
X188974176Y-125138932D01*
X189156792Y-124699143D01*
X189156793Y-124697054D01*
X189302792Y-124697054D01*
X189484641Y-125137160D01*
X189821068Y-125474176D01*
X190260857Y-125656792D01*
X190737054Y-125657208D01*
X191177160Y-125475359D01*
X191514176Y-125138932D01*
X191696792Y-124699143D01*
X191697208Y-124222946D01*
X191515359Y-123782840D01*
X191178932Y-123445824D01*
X190739143Y-123263208D01*
X190262946Y-123262792D01*
X189822840Y-123444641D01*
X189485824Y-123781068D01*
X189303208Y-124220857D01*
X189302792Y-124697054D01*
X189156793Y-124697054D01*
X189157208Y-124222946D01*
X188975359Y-123782840D01*
X188638932Y-123445824D01*
X188199143Y-123263208D01*
X187722946Y-123262792D01*
X187282840Y-123444641D01*
X186945824Y-123781068D01*
X186763208Y-124220857D01*
X186762792Y-124697054D01*
X186616793Y-124697054D01*
X186617208Y-124222946D01*
X186435359Y-123782840D01*
X186098932Y-123445824D01*
X185659143Y-123263208D01*
X185182946Y-123262792D01*
X184742840Y-123444641D01*
X184405824Y-123781068D01*
X184223208Y-124220857D01*
X184222792Y-124697054D01*
X184076793Y-124697054D01*
X184077208Y-124222946D01*
X183895359Y-123782840D01*
X183558932Y-123445824D01*
X183119143Y-123263208D01*
X182642946Y-123262792D01*
X182202840Y-123444641D01*
X181865824Y-123781068D01*
X181683208Y-124220857D01*
X181682792Y-124697054D01*
X181536793Y-124697054D01*
X181537208Y-124222946D01*
X181355359Y-123782840D01*
X181018932Y-123445824D01*
X180579143Y-123263208D01*
X180102946Y-123262792D01*
X179662840Y-123444641D01*
X179325824Y-123781068D01*
X179143208Y-124220857D01*
X179142792Y-124697054D01*
X178996793Y-124697054D01*
X178997208Y-124222946D01*
X178815359Y-123782840D01*
X178478932Y-123445824D01*
X178039143Y-123263208D01*
X177562946Y-123262792D01*
X177122840Y-123444641D01*
X176785824Y-123781068D01*
X176603208Y-124220857D01*
X176602792Y-124697054D01*
X173916793Y-124697054D01*
X173917208Y-124222946D01*
X173735359Y-123782840D01*
X173398932Y-123445824D01*
X172959143Y-123263208D01*
X172482946Y-123262792D01*
X172042840Y-123444641D01*
X171705824Y-123781068D01*
X171523208Y-124220857D01*
X171522792Y-124697054D01*
X171376793Y-124697054D01*
X171377208Y-124222946D01*
X171195359Y-123782840D01*
X170858932Y-123445824D01*
X170419143Y-123263208D01*
X169942946Y-123262792D01*
X169502840Y-123444641D01*
X169165824Y-123781068D01*
X168983208Y-124220857D01*
X168982792Y-124697054D01*
X168836793Y-124697054D01*
X168837208Y-124222946D01*
X168655359Y-123782840D01*
X168318932Y-123445824D01*
X167879143Y-123263208D01*
X167402946Y-123262792D01*
X166962840Y-123444641D01*
X166625824Y-123781068D01*
X166443208Y-124220857D01*
X166442792Y-124697054D01*
X166296793Y-124697054D01*
X166297208Y-124222946D01*
X166115359Y-123782840D01*
X165778932Y-123445824D01*
X165339143Y-123263208D01*
X164862946Y-123262792D01*
X164422840Y-123444641D01*
X164085824Y-123781068D01*
X163903208Y-124220857D01*
X163902792Y-124697054D01*
X163753111Y-124697054D01*
X163760906Y-124242459D01*
X163586243Y-123799451D01*
X163562993Y-123764656D01*
X163364951Y-123693232D01*
X162598184Y-124460000D01*
X162521816Y-124460000D01*
X161755049Y-123693232D01*
X161557007Y-123764656D01*
X161367258Y-124201415D01*
X161359094Y-124677541D01*
X161216810Y-124677541D01*
X161217208Y-124222946D01*
X161035359Y-123782840D01*
X160907792Y-123655049D01*
X161793232Y-123655049D01*
X162560000Y-124421816D01*
X163326768Y-123655049D01*
X163255344Y-123457007D01*
X162818585Y-123267258D01*
X162342459Y-123259094D01*
X161899451Y-123433757D01*
X161864656Y-123457007D01*
X161793232Y-123655049D01*
X160907792Y-123655049D01*
X160698932Y-123445824D01*
X160259143Y-123263208D01*
X159782946Y-123262792D01*
X159342840Y-123444641D01*
X159005824Y-123781068D01*
X158823208Y-124220857D01*
X158822792Y-124697054D01*
X158676793Y-124697054D01*
X158677208Y-124222946D01*
X158495359Y-123782840D01*
X158158932Y-123445824D01*
X157719143Y-123263208D01*
X157242946Y-123262792D01*
X156802840Y-123444641D01*
X156465824Y-123781068D01*
X156283208Y-124220857D01*
X156282792Y-124697054D01*
X156136793Y-124697054D01*
X156137208Y-124222946D01*
X155955359Y-123782840D01*
X155618932Y-123445824D01*
X155179143Y-123263208D01*
X154702946Y-123262792D01*
X154262840Y-123444641D01*
X153925824Y-123781068D01*
X153743208Y-124220857D01*
X153742792Y-124697054D01*
X127231000Y-124697054D01*
X127231000Y-122157054D01*
X163902792Y-122157054D01*
X164084641Y-122597160D01*
X164421068Y-122934176D01*
X164860857Y-123116792D01*
X165337054Y-123117208D01*
X165777160Y-122935359D01*
X166114176Y-122598932D01*
X166296792Y-122159143D01*
X166296793Y-122157054D01*
X166442792Y-122157054D01*
X166624641Y-122597160D01*
X166961068Y-122934176D01*
X167400857Y-123116792D01*
X167877054Y-123117208D01*
X168317160Y-122935359D01*
X168654176Y-122598932D01*
X168836792Y-122159143D01*
X168836793Y-122157054D01*
X168982792Y-122157054D01*
X169164641Y-122597160D01*
X169501068Y-122934176D01*
X169940857Y-123116792D01*
X170417054Y-123117208D01*
X170857160Y-122935359D01*
X171194176Y-122598932D01*
X171376792Y-122159143D01*
X171376793Y-122157054D01*
X171522792Y-122157054D01*
X171704641Y-122597160D01*
X172041068Y-122934176D01*
X172480857Y-123116792D01*
X172957054Y-123117208D01*
X173397160Y-122935359D01*
X173734176Y-122598932D01*
X173916792Y-122159143D01*
X173916793Y-122157054D01*
X176602792Y-122157054D01*
X176784641Y-122597160D01*
X177121068Y-122934176D01*
X177560857Y-123116792D01*
X178037054Y-123117208D01*
X178477160Y-122935359D01*
X178814176Y-122598932D01*
X178996792Y-122159143D01*
X178996793Y-122157054D01*
X179142792Y-122157054D01*
X179324641Y-122597160D01*
X179661068Y-122934176D01*
X180100857Y-123116792D01*
X180577054Y-123117208D01*
X181017160Y-122935359D01*
X181354176Y-122598932D01*
X181536792Y-122159143D01*
X181536793Y-122157054D01*
X181682792Y-122157054D01*
X181864641Y-122597160D01*
X182201068Y-122934176D01*
X182640857Y-123116792D01*
X183117054Y-123117208D01*
X183557160Y-122935359D01*
X183894176Y-122598932D01*
X184076792Y-122159143D01*
X184076793Y-122157054D01*
X184222792Y-122157054D01*
X184404641Y-122597160D01*
X184741068Y-122934176D01*
X185180857Y-123116792D01*
X185657054Y-123117208D01*
X186097160Y-122935359D01*
X186434176Y-122598932D01*
X186616792Y-122159143D01*
X186616793Y-122157054D01*
X186762792Y-122157054D01*
X186944641Y-122597160D01*
X187281068Y-122934176D01*
X187720857Y-123116792D01*
X188197054Y-123117208D01*
X188637160Y-122935359D01*
X188974176Y-122598932D01*
X189156792Y-122159143D01*
X189156793Y-122157054D01*
X189302792Y-122157054D01*
X189484641Y-122597160D01*
X189821068Y-122934176D01*
X190260857Y-123116792D01*
X190737054Y-123117208D01*
X191177160Y-122935359D01*
X191514176Y-122598932D01*
X191696792Y-122159143D01*
X191697208Y-121682946D01*
X191515359Y-121242840D01*
X191178932Y-120905824D01*
X190739143Y-120723208D01*
X190262946Y-120722792D01*
X189822840Y-120904641D01*
X189485824Y-121241068D01*
X189303208Y-121680857D01*
X189302792Y-122157054D01*
X189156793Y-122157054D01*
X189157208Y-121682946D01*
X188975359Y-121242840D01*
X188638932Y-120905824D01*
X188199143Y-120723208D01*
X187722946Y-120722792D01*
X187282840Y-120904641D01*
X186945824Y-121241068D01*
X186763208Y-121680857D01*
X186762792Y-122157054D01*
X186616793Y-122157054D01*
X186617208Y-121682946D01*
X186435359Y-121242840D01*
X186098932Y-120905824D01*
X185659143Y-120723208D01*
X185182946Y-120722792D01*
X184742840Y-120904641D01*
X184405824Y-121241068D01*
X184223208Y-121680857D01*
X184222792Y-122157054D01*
X184076793Y-122157054D01*
X184077208Y-121682946D01*
X183895359Y-121242840D01*
X183558932Y-120905824D01*
X183119143Y-120723208D01*
X182642946Y-120722792D01*
X182202840Y-120904641D01*
X181865824Y-121241068D01*
X181683208Y-121680857D01*
X181682792Y-122157054D01*
X181536793Y-122157054D01*
X181537208Y-121682946D01*
X181355359Y-121242840D01*
X181018932Y-120905824D01*
X180579143Y-120723208D01*
X180102946Y-120722792D01*
X179662840Y-120904641D01*
X179325824Y-121241068D01*
X179143208Y-121680857D01*
X179142792Y-122157054D01*
X178996793Y-122157054D01*
X178997208Y-121682946D01*
X178815359Y-121242840D01*
X178478932Y-120905824D01*
X178039143Y-120723208D01*
X177562946Y-120722792D01*
X177122840Y-120904641D01*
X176785824Y-121241068D01*
X176603208Y-121680857D01*
X176602792Y-122157054D01*
X173916793Y-122157054D01*
X173917208Y-121682946D01*
X173735359Y-121242840D01*
X173398932Y-120905824D01*
X172959143Y-120723208D01*
X172482946Y-120722792D01*
X172042840Y-120904641D01*
X171705824Y-121241068D01*
X171523208Y-121680857D01*
X171522792Y-122157054D01*
X171376793Y-122157054D01*
X171377208Y-121682946D01*
X171195359Y-121242840D01*
X170858932Y-120905824D01*
X170419143Y-120723208D01*
X169942946Y-120722792D01*
X169502840Y-120904641D01*
X169165824Y-121241068D01*
X168983208Y-121680857D01*
X168982792Y-122157054D01*
X168836793Y-122157054D01*
X168837208Y-121682946D01*
X168655359Y-121242840D01*
X168318932Y-120905824D01*
X167879143Y-120723208D01*
X167402946Y-120722792D01*
X166962840Y-120904641D01*
X166625824Y-121241068D01*
X166443208Y-121680857D01*
X166442792Y-122157054D01*
X166296793Y-122157054D01*
X166297208Y-121682946D01*
X166115359Y-121242840D01*
X165778932Y-120905824D01*
X165339143Y-120723208D01*
X164862946Y-120722792D01*
X164422840Y-120904641D01*
X164085824Y-121241068D01*
X163903208Y-121680857D01*
X163902792Y-122157054D01*
X127231000Y-122157054D01*
X127231000Y-119356549D01*
X163903000Y-119356549D01*
X163903000Y-119403451D01*
X163994116Y-119861523D01*
X164253593Y-120249858D01*
X164641928Y-120509335D01*
X165100000Y-120600451D01*
X165558072Y-120509335D01*
X165946407Y-120249858D01*
X166205884Y-119861523D01*
X166297000Y-119403451D01*
X166297000Y-119356549D01*
X166443000Y-119356549D01*
X166443000Y-119403451D01*
X166534116Y-119861523D01*
X166793593Y-120249858D01*
X167181928Y-120509335D01*
X167640000Y-120600451D01*
X168098072Y-120509335D01*
X168486407Y-120249858D01*
X168745884Y-119861523D01*
X168837000Y-119403451D01*
X168837000Y-119356549D01*
X168983000Y-119356549D01*
X168983000Y-119403451D01*
X169074116Y-119861523D01*
X169333593Y-120249858D01*
X169721928Y-120509335D01*
X170180000Y-120600451D01*
X170638072Y-120509335D01*
X171026407Y-120249858D01*
X171285884Y-119861523D01*
X171377000Y-119403451D01*
X171377000Y-119356549D01*
X171523000Y-119356549D01*
X171523000Y-119403451D01*
X171614116Y-119861523D01*
X171873593Y-120249858D01*
X172261928Y-120509335D01*
X172720000Y-120600451D01*
X173178072Y-120509335D01*
X173566407Y-120249858D01*
X173825884Y-119861523D01*
X173917000Y-119403451D01*
X173917000Y-119356549D01*
X176603000Y-119356549D01*
X176603000Y-119403451D01*
X176694116Y-119861523D01*
X176953593Y-120249858D01*
X177341928Y-120509335D01*
X177800000Y-120600451D01*
X178258072Y-120509335D01*
X178646407Y-120249858D01*
X178905884Y-119861523D01*
X178997000Y-119403451D01*
X178997000Y-119356549D01*
X179143000Y-119356549D01*
X179143000Y-119403451D01*
X179234116Y-119861523D01*
X179493593Y-120249858D01*
X179881928Y-120509335D01*
X180340000Y-120600451D01*
X180798072Y-120509335D01*
X181186407Y-120249858D01*
X181445884Y-119861523D01*
X181537000Y-119403451D01*
X181537000Y-119356549D01*
X181683000Y-119356549D01*
X181683000Y-119403451D01*
X181774116Y-119861523D01*
X182033593Y-120249858D01*
X182421928Y-120509335D01*
X182880000Y-120600451D01*
X183338072Y-120509335D01*
X183726407Y-120249858D01*
X183985884Y-119861523D01*
X184077000Y-119403451D01*
X184077000Y-119356549D01*
X184223000Y-119356549D01*
X184223000Y-119403451D01*
X184314116Y-119861523D01*
X184573593Y-120249858D01*
X184961928Y-120509335D01*
X185420000Y-120600451D01*
X185878072Y-120509335D01*
X186266407Y-120249858D01*
X186525884Y-119861523D01*
X186617000Y-119403451D01*
X186617000Y-119356549D01*
X186763000Y-119356549D01*
X186763000Y-119403451D01*
X186854116Y-119861523D01*
X187113593Y-120249858D01*
X187501928Y-120509335D01*
X187960000Y-120600451D01*
X188418072Y-120509335D01*
X188806407Y-120249858D01*
X189065884Y-119861523D01*
X189157000Y-119403451D01*
X189157000Y-119356549D01*
X189303000Y-119356549D01*
X189303000Y-119403451D01*
X189394116Y-119861523D01*
X189653593Y-120249858D01*
X190041928Y-120509335D01*
X190500000Y-120600451D01*
X190958072Y-120509335D01*
X191346407Y-120249858D01*
X191605884Y-119861523D01*
X191697000Y-119403451D01*
X191697000Y-119356549D01*
X191605884Y-118898477D01*
X191346407Y-118510142D01*
X190958072Y-118250665D01*
X190500000Y-118159549D01*
X190041928Y-118250665D01*
X189653593Y-118510142D01*
X189394116Y-118898477D01*
X189303000Y-119356549D01*
X189157000Y-119356549D01*
X189065884Y-118898477D01*
X188806407Y-118510142D01*
X188418072Y-118250665D01*
X187960000Y-118159549D01*
X187501928Y-118250665D01*
X187113593Y-118510142D01*
X186854116Y-118898477D01*
X186763000Y-119356549D01*
X186617000Y-119356549D01*
X186525884Y-118898477D01*
X186266407Y-118510142D01*
X185878072Y-118250665D01*
X185420000Y-118159549D01*
X184961928Y-118250665D01*
X184573593Y-118510142D01*
X184314116Y-118898477D01*
X184223000Y-119356549D01*
X184077000Y-119356549D01*
X183985884Y-118898477D01*
X183726407Y-118510142D01*
X183338072Y-118250665D01*
X182880000Y-118159549D01*
X182421928Y-118250665D01*
X182033593Y-118510142D01*
X181774116Y-118898477D01*
X181683000Y-119356549D01*
X181537000Y-119356549D01*
X181445884Y-118898477D01*
X181186407Y-118510142D01*
X180798072Y-118250665D01*
X180340000Y-118159549D01*
X179881928Y-118250665D01*
X179493593Y-118510142D01*
X179234116Y-118898477D01*
X179143000Y-119356549D01*
X178997000Y-119356549D01*
X178905884Y-118898477D01*
X178646407Y-118510142D01*
X178258072Y-118250665D01*
X177800000Y-118159549D01*
X177341928Y-118250665D01*
X176953593Y-118510142D01*
X176694116Y-118898477D01*
X176603000Y-119356549D01*
X173917000Y-119356549D01*
X173825884Y-118898477D01*
X173566407Y-118510142D01*
X173178072Y-118250665D01*
X172720000Y-118159549D01*
X172261928Y-118250665D01*
X171873593Y-118510142D01*
X171614116Y-118898477D01*
X171523000Y-119356549D01*
X171377000Y-119356549D01*
X171285884Y-118898477D01*
X171026407Y-118510142D01*
X170638072Y-118250665D01*
X170180000Y-118159549D01*
X169721928Y-118250665D01*
X169333593Y-118510142D01*
X169074116Y-118898477D01*
X168983000Y-119356549D01*
X168837000Y-119356549D01*
X168745884Y-118898477D01*
X168486407Y-118510142D01*
X168098072Y-118250665D01*
X167640000Y-118159549D01*
X167181928Y-118250665D01*
X166793593Y-118510142D01*
X166534116Y-118898477D01*
X166443000Y-119356549D01*
X166297000Y-119356549D01*
X166205884Y-118898477D01*
X165946407Y-118510142D01*
X165558072Y-118250665D01*
X165100000Y-118159549D01*
X164641928Y-118250665D01*
X164253593Y-118510142D01*
X163994116Y-118898477D01*
X163903000Y-119356549D01*
X127231000Y-119356549D01*
X127231000Y-118057955D01*
X140309490Y-118057955D01*
X140405960Y-118291428D01*
X140584432Y-118470213D01*
X140817737Y-118567089D01*
X141070355Y-118567310D01*
X141303828Y-118470840D01*
X141482613Y-118292368D01*
X141579489Y-118059063D01*
X141579710Y-117806445D01*
X141483240Y-117572972D01*
X141304768Y-117394187D01*
X141071463Y-117297311D01*
X140818845Y-117297090D01*
X140585372Y-117393560D01*
X140406587Y-117572032D01*
X140309711Y-117805337D01*
X140309490Y-118057955D01*
X127231000Y-118057955D01*
X127231000Y-116350559D01*
X171476872Y-116350559D01*
X171588534Y-116620800D01*
X171795112Y-116827740D01*
X172065158Y-116939873D01*
X172357559Y-116940128D01*
X172627800Y-116828466D01*
X172634310Y-116821967D01*
X239679038Y-116821967D01*
X239821083Y-117165743D01*
X240083873Y-117428992D01*
X240427401Y-117571638D01*
X240799367Y-117571962D01*
X241143143Y-117429917D01*
X241406392Y-117167127D01*
X241549038Y-116823599D01*
X241549362Y-116451633D01*
X241407317Y-116107857D01*
X241144527Y-115844608D01*
X240800999Y-115701962D01*
X240429033Y-115701638D01*
X240085257Y-115843683D01*
X239822008Y-116106473D01*
X239679362Y-116450001D01*
X239679038Y-116821967D01*
X172634310Y-116821967D01*
X172834740Y-116621888D01*
X172946873Y-116351842D01*
X172947128Y-116059441D01*
X172835466Y-115789200D01*
X172628888Y-115582260D01*
X172358842Y-115470127D01*
X172066441Y-115469872D01*
X171796200Y-115581534D01*
X171589260Y-115788112D01*
X171477127Y-116058158D01*
X171476872Y-116350559D01*
X127231000Y-116350559D01*
X127231000Y-115543355D01*
X149834490Y-115543355D01*
X149930960Y-115776828D01*
X150109432Y-115955613D01*
X150342737Y-116052489D01*
X150595355Y-116052710D01*
X150828828Y-115956240D01*
X151007613Y-115777768D01*
X151104489Y-115544463D01*
X151104710Y-115291845D01*
X151008240Y-115058372D01*
X150829768Y-114879587D01*
X150596463Y-114782711D01*
X150343845Y-114782490D01*
X150110372Y-114878960D01*
X149931587Y-115057432D01*
X149834711Y-115290737D01*
X149834490Y-115543355D01*
X127231000Y-115543355D01*
X127231000Y-114445559D01*
X178233272Y-114445559D01*
X178344934Y-114715800D01*
X178551512Y-114922740D01*
X178821558Y-115034873D01*
X179113959Y-115035128D01*
X179384200Y-114923466D01*
X179591140Y-114716888D01*
X179703273Y-114446842D01*
X179703528Y-114154441D01*
X179591866Y-113884200D01*
X179385288Y-113677260D01*
X179115242Y-113565127D01*
X178822841Y-113564872D01*
X178552600Y-113676534D01*
X178345660Y-113883112D01*
X178233527Y-114153158D01*
X178233272Y-114445559D01*
X127231000Y-114445559D01*
X127231000Y-89154481D01*
X160004777Y-89154481D01*
X160199995Y-89626943D01*
X160561155Y-89988735D01*
X160998182Y-90170205D01*
X160563057Y-90349995D01*
X160201265Y-90711155D01*
X160005223Y-91183276D01*
X160004777Y-91694481D01*
X160199995Y-92166943D01*
X160561155Y-92528735D01*
X160998182Y-92710205D01*
X160563057Y-92889995D01*
X160201265Y-93251155D01*
X160005223Y-93723276D01*
X160004777Y-94234481D01*
X160199995Y-94706943D01*
X160561155Y-95068735D01*
X160998182Y-95250205D01*
X160563057Y-95429995D01*
X160201265Y-95791155D01*
X160005223Y-96263276D01*
X160004777Y-96774481D01*
X160199995Y-97246943D01*
X160561155Y-97608735D01*
X160998182Y-97790205D01*
X160563057Y-97969995D01*
X160201265Y-98331155D01*
X160005223Y-98803276D01*
X160004777Y-99314481D01*
X160199995Y-99786943D01*
X160561155Y-100148735D01*
X160998182Y-100330205D01*
X160563057Y-100509995D01*
X160201265Y-100871155D01*
X160005223Y-101343276D01*
X160004777Y-101854481D01*
X160199995Y-102326943D01*
X160561155Y-102688735D01*
X160998182Y-102870205D01*
X160563057Y-103049995D01*
X160201265Y-103411155D01*
X160005223Y-103883276D01*
X160004777Y-104394481D01*
X160199995Y-104866943D01*
X160561155Y-105228735D01*
X160998182Y-105410205D01*
X160563057Y-105589995D01*
X160201265Y-105951155D01*
X160005223Y-106423276D01*
X160004777Y-106934481D01*
X160199995Y-107406943D01*
X160561155Y-107768735D01*
X160998182Y-107950205D01*
X160563057Y-108129995D01*
X160201265Y-108491155D01*
X160005223Y-108963276D01*
X160004777Y-109474481D01*
X160199995Y-109946943D01*
X160561155Y-110308735D01*
X160998182Y-110490205D01*
X160563057Y-110669995D01*
X160201265Y-111031155D01*
X160005223Y-111503276D01*
X160004777Y-112014481D01*
X160199995Y-112486943D01*
X160561155Y-112848735D01*
X161033276Y-113044777D01*
X161544481Y-113045223D01*
X162016943Y-112850005D01*
X162378735Y-112488845D01*
X162545000Y-112088435D01*
X162545000Y-112696527D01*
X162611225Y-112856408D01*
X162733592Y-112978775D01*
X162893473Y-113045000D01*
X163694250Y-113045000D01*
X163803000Y-112936250D01*
X163803000Y-111787000D01*
X163857000Y-111787000D01*
X163857000Y-112936250D01*
X163965750Y-113045000D01*
X164766527Y-113045000D01*
X164926408Y-112978775D01*
X165048775Y-112856408D01*
X165115000Y-112696527D01*
X165115000Y-111895750D01*
X165006250Y-111787000D01*
X163857000Y-111787000D01*
X163803000Y-111787000D01*
X163783000Y-111787000D01*
X163783000Y-111733000D01*
X163803000Y-111733000D01*
X163803000Y-111713000D01*
X163857000Y-111713000D01*
X163857000Y-111733000D01*
X165006250Y-111733000D01*
X165115000Y-111624250D01*
X165115000Y-110823473D01*
X165048775Y-110663592D01*
X164926408Y-110541225D01*
X164766527Y-110475000D01*
X164157626Y-110475000D01*
X164556943Y-110310005D01*
X164918735Y-109948845D01*
X165114777Y-109476724D01*
X165115223Y-108965519D01*
X164920005Y-108493057D01*
X164558845Y-108131265D01*
X164121818Y-107949795D01*
X164556943Y-107770005D01*
X164918735Y-107408845D01*
X165114777Y-106936724D01*
X165115223Y-106425519D01*
X164920005Y-105953057D01*
X164558845Y-105591265D01*
X164534026Y-105580959D01*
X180011272Y-105580959D01*
X180122934Y-105851200D01*
X180329512Y-106058140D01*
X180599558Y-106170273D01*
X180891959Y-106170528D01*
X181162200Y-106058866D01*
X181369140Y-105852288D01*
X181481273Y-105582242D01*
X181481528Y-105289841D01*
X181369866Y-105019600D01*
X181163288Y-104812660D01*
X180893242Y-104700527D01*
X180600841Y-104700272D01*
X180330600Y-104811934D01*
X180123660Y-105018512D01*
X180011527Y-105288558D01*
X180011272Y-105580959D01*
X164534026Y-105580959D01*
X164121818Y-105409795D01*
X164556943Y-105230005D01*
X164918735Y-104868845D01*
X165114777Y-104396724D01*
X165115223Y-103885519D01*
X164920005Y-103413057D01*
X164579499Y-103071955D01*
X169163890Y-103071955D01*
X169260360Y-103305428D01*
X169438832Y-103484213D01*
X169672137Y-103581089D01*
X169924755Y-103581310D01*
X170158228Y-103484840D01*
X170337013Y-103306368D01*
X170433889Y-103073063D01*
X170434110Y-102820445D01*
X170337640Y-102586972D01*
X170159168Y-102408187D01*
X169925863Y-102311311D01*
X169673245Y-102311090D01*
X169439772Y-102407560D01*
X169260987Y-102586032D01*
X169164111Y-102819337D01*
X169163890Y-103071955D01*
X164579499Y-103071955D01*
X164558845Y-103051265D01*
X164121818Y-102869795D01*
X164556943Y-102690005D01*
X164918735Y-102328845D01*
X165114777Y-101856724D01*
X165115223Y-101345519D01*
X164955169Y-100958159D01*
X178182472Y-100958159D01*
X178294134Y-101228400D01*
X178500712Y-101435340D01*
X178770758Y-101547473D01*
X179063159Y-101547728D01*
X179333400Y-101436066D01*
X179540340Y-101229488D01*
X179652473Y-100959442D01*
X179652728Y-100667041D01*
X179541066Y-100396800D01*
X179334488Y-100189860D01*
X179064442Y-100077727D01*
X178772041Y-100077472D01*
X178501800Y-100189134D01*
X178294860Y-100395712D01*
X178182727Y-100665758D01*
X178182472Y-100958159D01*
X164955169Y-100958159D01*
X164920005Y-100873057D01*
X164558845Y-100511265D01*
X164121818Y-100329795D01*
X164556943Y-100150005D01*
X164918735Y-99788845D01*
X164989860Y-99617555D01*
X170560890Y-99617555D01*
X170657360Y-99851028D01*
X170835832Y-100029813D01*
X171069137Y-100126689D01*
X171321755Y-100126910D01*
X171555228Y-100030440D01*
X171734013Y-99851968D01*
X171830889Y-99618663D01*
X171831110Y-99366045D01*
X171734640Y-99132572D01*
X171556168Y-98953787D01*
X171322863Y-98856911D01*
X171070245Y-98856690D01*
X170836772Y-98953160D01*
X170657987Y-99131632D01*
X170561111Y-99364937D01*
X170560890Y-99617555D01*
X164989860Y-99617555D01*
X165114777Y-99316724D01*
X165115223Y-98805519D01*
X164920005Y-98333057D01*
X164558845Y-97971265D01*
X164121818Y-97789795D01*
X164493171Y-97636355D01*
X168528890Y-97636355D01*
X168625360Y-97869828D01*
X168803832Y-98048613D01*
X169037137Y-98145489D01*
X169289755Y-98145710D01*
X169293034Y-98144355D01*
X170560890Y-98144355D01*
X170657360Y-98377828D01*
X170835832Y-98556613D01*
X171069137Y-98653489D01*
X171321755Y-98653710D01*
X171555228Y-98557240D01*
X171734013Y-98378768D01*
X171820802Y-98169755D01*
X173888290Y-98169755D01*
X173984760Y-98403228D01*
X174163232Y-98582013D01*
X174396537Y-98678889D01*
X174649155Y-98679110D01*
X174882628Y-98582640D01*
X175061413Y-98404168D01*
X175158289Y-98170863D01*
X175158289Y-98169755D01*
X176301290Y-98169755D01*
X176397760Y-98403228D01*
X176444775Y-98450325D01*
X176398387Y-98496632D01*
X176301511Y-98729937D01*
X176301290Y-98982555D01*
X176397760Y-99216028D01*
X176576232Y-99394813D01*
X176809537Y-99491689D01*
X177062155Y-99491910D01*
X177295628Y-99395440D01*
X177474413Y-99216968D01*
X177571289Y-98983663D01*
X177571510Y-98731045D01*
X177475040Y-98497572D01*
X177428025Y-98450475D01*
X177474413Y-98404168D01*
X177571289Y-98170863D01*
X177571289Y-98169755D01*
X179501690Y-98169755D01*
X179598160Y-98403228D01*
X179645175Y-98450325D01*
X179598787Y-98496632D01*
X179501911Y-98729937D01*
X179501690Y-98982555D01*
X179598160Y-99216028D01*
X179776632Y-99394813D01*
X180009937Y-99491689D01*
X180262555Y-99491910D01*
X180496028Y-99395440D01*
X180674813Y-99216968D01*
X180771689Y-98983663D01*
X180771801Y-98855555D01*
X180974890Y-98855555D01*
X181071360Y-99089028D01*
X181249832Y-99267813D01*
X181483137Y-99364689D01*
X181735755Y-99364910D01*
X181969228Y-99268440D01*
X182148013Y-99089968D01*
X182244889Y-98856663D01*
X182244993Y-98737167D01*
X183367238Y-98737167D01*
X183509283Y-99080943D01*
X183772073Y-99344192D01*
X184115601Y-99486838D01*
X184487567Y-99487162D01*
X184831343Y-99345117D01*
X185094592Y-99082327D01*
X185237238Y-98738799D01*
X185237562Y-98366833D01*
X185095517Y-98023057D01*
X184832727Y-97759808D01*
X184489199Y-97617162D01*
X184117233Y-97616838D01*
X183773457Y-97758883D01*
X183510208Y-98021673D01*
X183367562Y-98365201D01*
X183367238Y-98737167D01*
X182244993Y-98737167D01*
X182245110Y-98604045D01*
X182148640Y-98370572D01*
X181970168Y-98191787D01*
X181736863Y-98094911D01*
X181484245Y-98094690D01*
X181250772Y-98191160D01*
X181071987Y-98369632D01*
X180975111Y-98602937D01*
X180974890Y-98855555D01*
X180771801Y-98855555D01*
X180771910Y-98731045D01*
X180675440Y-98497572D01*
X180628425Y-98450475D01*
X180674813Y-98404168D01*
X180771689Y-98170863D01*
X180771910Y-97918245D01*
X180675440Y-97684772D01*
X180496968Y-97505987D01*
X180263663Y-97409111D01*
X180011045Y-97408890D01*
X179777572Y-97505360D01*
X179598787Y-97683832D01*
X179501911Y-97917137D01*
X179501690Y-98169755D01*
X177571289Y-98169755D01*
X177571510Y-97918245D01*
X177475040Y-97684772D01*
X177296568Y-97505987D01*
X177063263Y-97409111D01*
X176810645Y-97408890D01*
X176577172Y-97505360D01*
X176398387Y-97683832D01*
X176301511Y-97917137D01*
X176301290Y-98169755D01*
X175158289Y-98169755D01*
X175158510Y-97918245D01*
X175062040Y-97684772D01*
X174883568Y-97505987D01*
X174650263Y-97409111D01*
X174397645Y-97408890D01*
X174164172Y-97505360D01*
X173985387Y-97683832D01*
X173888511Y-97917137D01*
X173888290Y-98169755D01*
X171820802Y-98169755D01*
X171830889Y-98145463D01*
X171831110Y-97892845D01*
X171830614Y-97891644D01*
X171905955Y-97891710D01*
X172139428Y-97795240D01*
X172318213Y-97616768D01*
X172415089Y-97383463D01*
X172415310Y-97130845D01*
X172318840Y-96897372D01*
X172140368Y-96718587D01*
X171907063Y-96621711D01*
X171654445Y-96621490D01*
X171420972Y-96717960D01*
X171242187Y-96896432D01*
X171145311Y-97129737D01*
X171145090Y-97382355D01*
X171145586Y-97383556D01*
X171070245Y-97383490D01*
X170836772Y-97479960D01*
X170657987Y-97658432D01*
X170561111Y-97891737D01*
X170560890Y-98144355D01*
X169293034Y-98144355D01*
X169523228Y-98049240D01*
X169702013Y-97870768D01*
X169798889Y-97637463D01*
X169799110Y-97384845D01*
X169702640Y-97151372D01*
X169524168Y-96972587D01*
X169290863Y-96875711D01*
X169038245Y-96875490D01*
X168804772Y-96971960D01*
X168625987Y-97150432D01*
X168529111Y-97383737D01*
X168528890Y-97636355D01*
X164493171Y-97636355D01*
X164556943Y-97610005D01*
X164918735Y-97248845D01*
X165114777Y-96776724D01*
X165114979Y-96544155D01*
X175513890Y-96544155D01*
X175610360Y-96777628D01*
X175788832Y-96956413D01*
X176022137Y-97053289D01*
X176274755Y-97053510D01*
X176508228Y-96957040D01*
X176687013Y-96778568D01*
X176783889Y-96545263D01*
X176784110Y-96292645D01*
X176687640Y-96059172D01*
X176509168Y-95880387D01*
X176275863Y-95783511D01*
X176023245Y-95783290D01*
X175789772Y-95879760D01*
X175610987Y-96058232D01*
X175514111Y-96291537D01*
X175513890Y-96544155D01*
X165114979Y-96544155D01*
X165115223Y-96265519D01*
X164920005Y-95793057D01*
X164909123Y-95782155D01*
X173100890Y-95782155D01*
X173197360Y-96015628D01*
X173375832Y-96194413D01*
X173609137Y-96291289D01*
X173861755Y-96291510D01*
X174095228Y-96195040D01*
X174274013Y-96016568D01*
X174370889Y-95783263D01*
X174370889Y-95782155D01*
X178688890Y-95782155D01*
X178785360Y-96015628D01*
X178963832Y-96194413D01*
X179197137Y-96291289D01*
X179449755Y-96291510D01*
X179683228Y-96195040D01*
X179862013Y-96016568D01*
X179958889Y-95783263D01*
X179959110Y-95530645D01*
X179919659Y-95435167D01*
X182300438Y-95435167D01*
X182442483Y-95778943D01*
X182705273Y-96042192D01*
X183048801Y-96184838D01*
X183420767Y-96185162D01*
X183764543Y-96043117D01*
X184027792Y-95780327D01*
X184170438Y-95436799D01*
X184170762Y-95064833D01*
X184028717Y-94721057D01*
X183765927Y-94457808D01*
X183422399Y-94315162D01*
X183050433Y-94314838D01*
X182706657Y-94456883D01*
X182443408Y-94719673D01*
X182300762Y-95063201D01*
X182300438Y-95435167D01*
X179919659Y-95435167D01*
X179862640Y-95297172D01*
X179684168Y-95118387D01*
X179450863Y-95021511D01*
X179198245Y-95021290D01*
X178964772Y-95117760D01*
X178785987Y-95296232D01*
X178689111Y-95529537D01*
X178688890Y-95782155D01*
X174370889Y-95782155D01*
X174371110Y-95530645D01*
X174274640Y-95297172D01*
X174096168Y-95118387D01*
X173862863Y-95021511D01*
X173610245Y-95021290D01*
X173376772Y-95117760D01*
X173197987Y-95296232D01*
X173101111Y-95529537D01*
X173100890Y-95782155D01*
X164909123Y-95782155D01*
X164558845Y-95431265D01*
X164121818Y-95249795D01*
X164556943Y-95070005D01*
X164918735Y-94708845D01*
X165095331Y-94283555D01*
X174802690Y-94283555D01*
X174899160Y-94517028D01*
X175077632Y-94695813D01*
X175310937Y-94792689D01*
X175563555Y-94792910D01*
X175797028Y-94696440D01*
X175975813Y-94517968D01*
X176072689Y-94284663D01*
X176072910Y-94032045D01*
X175976440Y-93798572D01*
X175797968Y-93619787D01*
X175564663Y-93522911D01*
X175312045Y-93522690D01*
X175078572Y-93619160D01*
X174899787Y-93797632D01*
X174802911Y-94030937D01*
X174802690Y-94283555D01*
X165095331Y-94283555D01*
X165114777Y-94236724D01*
X165115223Y-93725519D01*
X164920005Y-93253057D01*
X164558845Y-92891265D01*
X164121818Y-92709795D01*
X164431698Y-92581755D01*
X176301290Y-92581755D01*
X176397760Y-92815228D01*
X176576232Y-92994013D01*
X176809537Y-93090889D01*
X177062155Y-93091110D01*
X177295628Y-92994640D01*
X177474413Y-92816168D01*
X177571289Y-92582863D01*
X177571510Y-92330245D01*
X177475040Y-92096772D01*
X177296568Y-91917987D01*
X177063263Y-91821111D01*
X176810645Y-91820890D01*
X176577172Y-91917360D01*
X176398387Y-92095832D01*
X176301511Y-92329137D01*
X176301290Y-92581755D01*
X164431698Y-92581755D01*
X164556943Y-92530005D01*
X164918735Y-92168845D01*
X165114777Y-91696724D01*
X165115223Y-91185519D01*
X164920005Y-90713057D01*
X164558845Y-90351265D01*
X164121818Y-90169795D01*
X164556943Y-89990005D01*
X164918735Y-89628845D01*
X165114777Y-89156724D01*
X165115223Y-88645519D01*
X164920005Y-88173057D01*
X164558845Y-87811265D01*
X164086724Y-87615223D01*
X163575519Y-87614777D01*
X163103057Y-87809995D01*
X162741265Y-88171155D01*
X162559795Y-88608182D01*
X162380005Y-88173057D01*
X162018845Y-87811265D01*
X161546724Y-87615223D01*
X161035519Y-87614777D01*
X160563057Y-87809995D01*
X160201265Y-88171155D01*
X160005223Y-88643276D01*
X160004777Y-89154481D01*
X127231000Y-89154481D01*
X127231000Y-83370167D01*
X239094838Y-83370167D01*
X239236883Y-83713943D01*
X239499673Y-83977192D01*
X239843201Y-84119838D01*
X240215167Y-84120162D01*
X240558943Y-83978117D01*
X240822192Y-83715327D01*
X240964838Y-83371799D01*
X240965162Y-82999833D01*
X240823117Y-82656057D01*
X240560327Y-82392808D01*
X240216799Y-82250162D01*
X239844833Y-82249838D01*
X239501057Y-82391883D01*
X239237808Y-82654673D01*
X239095162Y-82998201D01*
X239094838Y-83370167D01*
X127231000Y-83370167D01*
X127231000Y-81256549D01*
X149679000Y-81256549D01*
X149679000Y-81303451D01*
X149770116Y-81761523D01*
X150029593Y-82149858D01*
X150417928Y-82409335D01*
X150876000Y-82500451D01*
X151334072Y-82409335D01*
X151722407Y-82149858D01*
X151981884Y-81761523D01*
X152073000Y-81303451D01*
X152073000Y-81256549D01*
X152219000Y-81256549D01*
X152219000Y-81303451D01*
X152310116Y-81761523D01*
X152569593Y-82149858D01*
X152957928Y-82409335D01*
X153416000Y-82500451D01*
X153874072Y-82409335D01*
X154262407Y-82149858D01*
X154521884Y-81761523D01*
X154613000Y-81303451D01*
X154613000Y-81256549D01*
X154759000Y-81256549D01*
X154759000Y-81303451D01*
X154850116Y-81761523D01*
X155109593Y-82149858D01*
X155497928Y-82409335D01*
X155956000Y-82500451D01*
X156414072Y-82409335D01*
X156802407Y-82149858D01*
X157061884Y-81761523D01*
X157153000Y-81303451D01*
X157153000Y-81256549D01*
X157299000Y-81256549D01*
X157299000Y-81303451D01*
X157390116Y-81761523D01*
X157649593Y-82149858D01*
X158037928Y-82409335D01*
X158496000Y-82500451D01*
X158954072Y-82409335D01*
X159342407Y-82149858D01*
X159601884Y-81761523D01*
X159693000Y-81303451D01*
X159693000Y-81256549D01*
X159839000Y-81256549D01*
X159839000Y-81303451D01*
X159930116Y-81761523D01*
X160189593Y-82149858D01*
X160577928Y-82409335D01*
X161036000Y-82500451D01*
X161494072Y-82409335D01*
X161882407Y-82149858D01*
X162141884Y-81761523D01*
X162233000Y-81303451D01*
X162233000Y-81256549D01*
X162379000Y-81256549D01*
X162379000Y-81303451D01*
X162470116Y-81761523D01*
X162729593Y-82149858D01*
X163117928Y-82409335D01*
X163576000Y-82500451D01*
X164034072Y-82409335D01*
X164422407Y-82149858D01*
X164681884Y-81761523D01*
X164773000Y-81303451D01*
X164773000Y-81256549D01*
X164919000Y-81256549D01*
X164919000Y-81303451D01*
X165010116Y-81761523D01*
X165269593Y-82149858D01*
X165657928Y-82409335D01*
X166116000Y-82500451D01*
X166574072Y-82409335D01*
X166962407Y-82149858D01*
X167221884Y-81761523D01*
X167313000Y-81303451D01*
X167313000Y-81256549D01*
X167459000Y-81256549D01*
X167459000Y-81303451D01*
X167550116Y-81761523D01*
X167809593Y-82149858D01*
X168197928Y-82409335D01*
X168656000Y-82500451D01*
X169114072Y-82409335D01*
X169502407Y-82149858D01*
X169761884Y-81761523D01*
X169853000Y-81303451D01*
X169853000Y-81256549D01*
X171523000Y-81256549D01*
X171523000Y-81303451D01*
X171614116Y-81761523D01*
X171873593Y-82149858D01*
X172261928Y-82409335D01*
X172720000Y-82500451D01*
X173178072Y-82409335D01*
X173566407Y-82149858D01*
X173825884Y-81761523D01*
X173917000Y-81303451D01*
X173917000Y-81256549D01*
X174063000Y-81256549D01*
X174063000Y-81303451D01*
X174154116Y-81761523D01*
X174413593Y-82149858D01*
X174801928Y-82409335D01*
X175260000Y-82500451D01*
X175718072Y-82409335D01*
X176106407Y-82149858D01*
X176365884Y-81761523D01*
X176457000Y-81303451D01*
X176457000Y-81256549D01*
X176603000Y-81256549D01*
X176603000Y-81303451D01*
X176694116Y-81761523D01*
X176953593Y-82149858D01*
X177341928Y-82409335D01*
X177800000Y-82500451D01*
X178258072Y-82409335D01*
X178646407Y-82149858D01*
X178905884Y-81761523D01*
X178997000Y-81303451D01*
X178997000Y-81256549D01*
X179143000Y-81256549D01*
X179143000Y-81303451D01*
X179234116Y-81761523D01*
X179493593Y-82149858D01*
X179881928Y-82409335D01*
X180340000Y-82500451D01*
X180798072Y-82409335D01*
X181186407Y-82149858D01*
X181445884Y-81761523D01*
X181537000Y-81303451D01*
X181537000Y-81256549D01*
X181683000Y-81256549D01*
X181683000Y-81303451D01*
X181774116Y-81761523D01*
X182033593Y-82149858D01*
X182421928Y-82409335D01*
X182880000Y-82500451D01*
X183338072Y-82409335D01*
X183726407Y-82149858D01*
X183985884Y-81761523D01*
X184077000Y-81303451D01*
X184077000Y-81256549D01*
X184223000Y-81256549D01*
X184223000Y-81303451D01*
X184314116Y-81761523D01*
X184573593Y-82149858D01*
X184961928Y-82409335D01*
X185420000Y-82500451D01*
X185878072Y-82409335D01*
X186266407Y-82149858D01*
X186525884Y-81761523D01*
X186617000Y-81303451D01*
X186617000Y-81256549D01*
X186763000Y-81256549D01*
X186763000Y-81303451D01*
X186854116Y-81761523D01*
X187113593Y-82149858D01*
X187501928Y-82409335D01*
X187960000Y-82500451D01*
X188418072Y-82409335D01*
X188806407Y-82149858D01*
X189065884Y-81761523D01*
X189157000Y-81303451D01*
X189157000Y-81256549D01*
X189303000Y-81256549D01*
X189303000Y-81303451D01*
X189394116Y-81761523D01*
X189653593Y-82149858D01*
X190041928Y-82409335D01*
X190500000Y-82500451D01*
X190958072Y-82409335D01*
X191346407Y-82149858D01*
X191605884Y-81761523D01*
X191697000Y-81303451D01*
X191697000Y-81256549D01*
X191605884Y-80798477D01*
X191346407Y-80410142D01*
X190958072Y-80150665D01*
X190500000Y-80059549D01*
X190041928Y-80150665D01*
X189653593Y-80410142D01*
X189394116Y-80798477D01*
X189303000Y-81256549D01*
X189157000Y-81256549D01*
X189065884Y-80798477D01*
X188806407Y-80410142D01*
X188418072Y-80150665D01*
X187960000Y-80059549D01*
X187501928Y-80150665D01*
X187113593Y-80410142D01*
X186854116Y-80798477D01*
X186763000Y-81256549D01*
X186617000Y-81256549D01*
X186525884Y-80798477D01*
X186266407Y-80410142D01*
X185878072Y-80150665D01*
X185420000Y-80059549D01*
X184961928Y-80150665D01*
X184573593Y-80410142D01*
X184314116Y-80798477D01*
X184223000Y-81256549D01*
X184077000Y-81256549D01*
X183985884Y-80798477D01*
X183726407Y-80410142D01*
X183338072Y-80150665D01*
X182880000Y-80059549D01*
X182421928Y-80150665D01*
X182033593Y-80410142D01*
X181774116Y-80798477D01*
X181683000Y-81256549D01*
X181537000Y-81256549D01*
X181445884Y-80798477D01*
X181186407Y-80410142D01*
X180798072Y-80150665D01*
X180340000Y-80059549D01*
X179881928Y-80150665D01*
X179493593Y-80410142D01*
X179234116Y-80798477D01*
X179143000Y-81256549D01*
X178997000Y-81256549D01*
X178905884Y-80798477D01*
X178646407Y-80410142D01*
X178258072Y-80150665D01*
X177800000Y-80059549D01*
X177341928Y-80150665D01*
X176953593Y-80410142D01*
X176694116Y-80798477D01*
X176603000Y-81256549D01*
X176457000Y-81256549D01*
X176365884Y-80798477D01*
X176106407Y-80410142D01*
X175718072Y-80150665D01*
X175260000Y-80059549D01*
X174801928Y-80150665D01*
X174413593Y-80410142D01*
X174154116Y-80798477D01*
X174063000Y-81256549D01*
X173917000Y-81256549D01*
X173825884Y-80798477D01*
X173566407Y-80410142D01*
X173178072Y-80150665D01*
X172720000Y-80059549D01*
X172261928Y-80150665D01*
X171873593Y-80410142D01*
X171614116Y-80798477D01*
X171523000Y-81256549D01*
X169853000Y-81256549D01*
X169761884Y-80798477D01*
X169502407Y-80410142D01*
X169114072Y-80150665D01*
X168656000Y-80059549D01*
X168197928Y-80150665D01*
X167809593Y-80410142D01*
X167550116Y-80798477D01*
X167459000Y-81256549D01*
X167313000Y-81256549D01*
X167221884Y-80798477D01*
X166962407Y-80410142D01*
X166574072Y-80150665D01*
X166116000Y-80059549D01*
X165657928Y-80150665D01*
X165269593Y-80410142D01*
X165010116Y-80798477D01*
X164919000Y-81256549D01*
X164773000Y-81256549D01*
X164681884Y-80798477D01*
X164422407Y-80410142D01*
X164034072Y-80150665D01*
X163576000Y-80059549D01*
X163117928Y-80150665D01*
X162729593Y-80410142D01*
X162470116Y-80798477D01*
X162379000Y-81256549D01*
X162233000Y-81256549D01*
X162141884Y-80798477D01*
X161882407Y-80410142D01*
X161494072Y-80150665D01*
X161036000Y-80059549D01*
X160577928Y-80150665D01*
X160189593Y-80410142D01*
X159930116Y-80798477D01*
X159839000Y-81256549D01*
X159693000Y-81256549D01*
X159601884Y-80798477D01*
X159342407Y-80410142D01*
X158954072Y-80150665D01*
X158496000Y-80059549D01*
X158037928Y-80150665D01*
X157649593Y-80410142D01*
X157390116Y-80798477D01*
X157299000Y-81256549D01*
X157153000Y-81256549D01*
X157061884Y-80798477D01*
X156802407Y-80410142D01*
X156414072Y-80150665D01*
X155956000Y-80059549D01*
X155497928Y-80150665D01*
X155109593Y-80410142D01*
X154850116Y-80798477D01*
X154759000Y-81256549D01*
X154613000Y-81256549D01*
X154521884Y-80798477D01*
X154262407Y-80410142D01*
X153874072Y-80150665D01*
X153416000Y-80059549D01*
X152957928Y-80150665D01*
X152569593Y-80410142D01*
X152310116Y-80798477D01*
X152219000Y-81256549D01*
X152073000Y-81256549D01*
X151981884Y-80798477D01*
X151722407Y-80410142D01*
X151334072Y-80150665D01*
X150876000Y-80059549D01*
X150417928Y-80150665D01*
X150029593Y-80410142D01*
X149770116Y-80798477D01*
X149679000Y-81256549D01*
X127231000Y-81256549D01*
X127231000Y-78976954D01*
X149679293Y-78976954D01*
X149861065Y-79416877D01*
X150197352Y-79753752D01*
X150636957Y-79936292D01*
X151112954Y-79936707D01*
X151552877Y-79754935D01*
X151889752Y-79418648D01*
X152072292Y-78979043D01*
X152072293Y-78977054D01*
X152218792Y-78977054D01*
X152400641Y-79417160D01*
X152737068Y-79754176D01*
X153176857Y-79936792D01*
X153653054Y-79937208D01*
X154093160Y-79755359D01*
X154430176Y-79418932D01*
X154612792Y-78979143D01*
X154612793Y-78977054D01*
X154758792Y-78977054D01*
X154940641Y-79417160D01*
X155277068Y-79754176D01*
X155716857Y-79936792D01*
X156193054Y-79937208D01*
X156633160Y-79755359D01*
X156970176Y-79418932D01*
X157152792Y-78979143D01*
X157152793Y-78977054D01*
X157298792Y-78977054D01*
X157480641Y-79417160D01*
X157817068Y-79754176D01*
X158256857Y-79936792D01*
X158733054Y-79937208D01*
X159173160Y-79755359D01*
X159510176Y-79418932D01*
X159692792Y-78979143D01*
X159692793Y-78977054D01*
X159838792Y-78977054D01*
X160020641Y-79417160D01*
X160357068Y-79754176D01*
X160796857Y-79936792D01*
X161273054Y-79937208D01*
X161713160Y-79755359D01*
X162050176Y-79418932D01*
X162232792Y-78979143D01*
X162232793Y-78977054D01*
X162378792Y-78977054D01*
X162560641Y-79417160D01*
X162897068Y-79754176D01*
X163336857Y-79936792D01*
X163813054Y-79937208D01*
X164253160Y-79755359D01*
X164590176Y-79418932D01*
X164772792Y-78979143D01*
X164772793Y-78977054D01*
X164918792Y-78977054D01*
X165100641Y-79417160D01*
X165437068Y-79754176D01*
X165876857Y-79936792D01*
X166353054Y-79937208D01*
X166793160Y-79755359D01*
X167130176Y-79418932D01*
X167312792Y-78979143D01*
X167312793Y-78977054D01*
X167458792Y-78977054D01*
X167640641Y-79417160D01*
X167977068Y-79754176D01*
X168416857Y-79936792D01*
X168893054Y-79937208D01*
X169333160Y-79755359D01*
X169670176Y-79418932D01*
X169852792Y-78979143D01*
X169852793Y-78977054D01*
X171522792Y-78977054D01*
X171704641Y-79417160D01*
X172041068Y-79754176D01*
X172480857Y-79936792D01*
X172957054Y-79937208D01*
X173397160Y-79755359D01*
X173734176Y-79418932D01*
X173916792Y-78979143D01*
X173916793Y-78977054D01*
X174062792Y-78977054D01*
X174244641Y-79417160D01*
X174581068Y-79754176D01*
X175020857Y-79936792D01*
X175497054Y-79937208D01*
X175937160Y-79755359D01*
X176274176Y-79418932D01*
X176456792Y-78979143D01*
X176456793Y-78977054D01*
X176602792Y-78977054D01*
X176784641Y-79417160D01*
X177121068Y-79754176D01*
X177560857Y-79936792D01*
X178037054Y-79937208D01*
X178477160Y-79755359D01*
X178814176Y-79418932D01*
X178996792Y-78979143D01*
X178996793Y-78977054D01*
X179142792Y-78977054D01*
X179324641Y-79417160D01*
X179661068Y-79754176D01*
X180100857Y-79936792D01*
X180577054Y-79937208D01*
X181017160Y-79755359D01*
X181354176Y-79418932D01*
X181536792Y-78979143D01*
X181536793Y-78977054D01*
X181682792Y-78977054D01*
X181864641Y-79417160D01*
X182201068Y-79754176D01*
X182640857Y-79936792D01*
X183117054Y-79937208D01*
X183557160Y-79755359D01*
X183894176Y-79418932D01*
X184076792Y-78979143D01*
X184076793Y-78977054D01*
X184222792Y-78977054D01*
X184404641Y-79417160D01*
X184741068Y-79754176D01*
X185180857Y-79936792D01*
X185657054Y-79937208D01*
X186097160Y-79755359D01*
X186434176Y-79418932D01*
X186616792Y-78979143D01*
X186616793Y-78977054D01*
X186762792Y-78977054D01*
X186944641Y-79417160D01*
X187281068Y-79754176D01*
X187720857Y-79936792D01*
X188197054Y-79937208D01*
X188637160Y-79755359D01*
X188974176Y-79418932D01*
X189156792Y-78979143D01*
X189156793Y-78977054D01*
X189302792Y-78977054D01*
X189484641Y-79417160D01*
X189821068Y-79754176D01*
X190260857Y-79936792D01*
X190737054Y-79937208D01*
X191177160Y-79755359D01*
X191514176Y-79418932D01*
X191696792Y-78979143D01*
X191697208Y-78502946D01*
X191515359Y-78062840D01*
X191178932Y-77725824D01*
X190739143Y-77543208D01*
X190262946Y-77542792D01*
X189822840Y-77724641D01*
X189485824Y-78061068D01*
X189303208Y-78500857D01*
X189302792Y-78977054D01*
X189156793Y-78977054D01*
X189157208Y-78502946D01*
X188975359Y-78062840D01*
X188638932Y-77725824D01*
X188199143Y-77543208D01*
X187722946Y-77542792D01*
X187282840Y-77724641D01*
X186945824Y-78061068D01*
X186763208Y-78500857D01*
X186762792Y-78977054D01*
X186616793Y-78977054D01*
X186617208Y-78502946D01*
X186435359Y-78062840D01*
X186098932Y-77725824D01*
X185659143Y-77543208D01*
X185182946Y-77542792D01*
X184742840Y-77724641D01*
X184405824Y-78061068D01*
X184223208Y-78500857D01*
X184222792Y-78977054D01*
X184076793Y-78977054D01*
X184077208Y-78502946D01*
X183895359Y-78062840D01*
X183558932Y-77725824D01*
X183119143Y-77543208D01*
X182642946Y-77542792D01*
X182202840Y-77724641D01*
X181865824Y-78061068D01*
X181683208Y-78500857D01*
X181682792Y-78977054D01*
X181536793Y-78977054D01*
X181537208Y-78502946D01*
X181355359Y-78062840D01*
X181018932Y-77725824D01*
X180579143Y-77543208D01*
X180102946Y-77542792D01*
X179662840Y-77724641D01*
X179325824Y-78061068D01*
X179143208Y-78500857D01*
X179142792Y-78977054D01*
X178996793Y-78977054D01*
X178997208Y-78502946D01*
X178815359Y-78062840D01*
X178478932Y-77725824D01*
X178039143Y-77543208D01*
X177562946Y-77542792D01*
X177122840Y-77724641D01*
X176785824Y-78061068D01*
X176603208Y-78500857D01*
X176602792Y-78977054D01*
X176456793Y-78977054D01*
X176457208Y-78502946D01*
X176275359Y-78062840D01*
X175938932Y-77725824D01*
X175499143Y-77543208D01*
X175022946Y-77542792D01*
X174582840Y-77724641D01*
X174245824Y-78061068D01*
X174063208Y-78500857D01*
X174062792Y-78977054D01*
X173916793Y-78977054D01*
X173917208Y-78502946D01*
X173735359Y-78062840D01*
X173398932Y-77725824D01*
X172959143Y-77543208D01*
X172482946Y-77542792D01*
X172042840Y-77724641D01*
X171705824Y-78061068D01*
X171523208Y-78500857D01*
X171522792Y-78977054D01*
X169852793Y-78977054D01*
X169853208Y-78502946D01*
X169671359Y-78062840D01*
X169334932Y-77725824D01*
X168895143Y-77543208D01*
X168418946Y-77542792D01*
X167978840Y-77724641D01*
X167641824Y-78061068D01*
X167459208Y-78500857D01*
X167458792Y-78977054D01*
X167312793Y-78977054D01*
X167313208Y-78502946D01*
X167131359Y-78062840D01*
X166794932Y-77725824D01*
X166355143Y-77543208D01*
X165878946Y-77542792D01*
X165438840Y-77724641D01*
X165101824Y-78061068D01*
X164919208Y-78500857D01*
X164918792Y-78977054D01*
X164772793Y-78977054D01*
X164773208Y-78502946D01*
X164591359Y-78062840D01*
X164254932Y-77725824D01*
X163815143Y-77543208D01*
X163338946Y-77542792D01*
X162898840Y-77724641D01*
X162561824Y-78061068D01*
X162379208Y-78500857D01*
X162378792Y-78977054D01*
X162232793Y-78977054D01*
X162233208Y-78502946D01*
X162051359Y-78062840D01*
X161714932Y-77725824D01*
X161275143Y-77543208D01*
X160798946Y-77542792D01*
X160358840Y-77724641D01*
X160021824Y-78061068D01*
X159839208Y-78500857D01*
X159838792Y-78977054D01*
X159692793Y-78977054D01*
X159693208Y-78502946D01*
X159511359Y-78062840D01*
X159174932Y-77725824D01*
X158735143Y-77543208D01*
X158258946Y-77542792D01*
X157818840Y-77724641D01*
X157481824Y-78061068D01*
X157299208Y-78500857D01*
X157298792Y-78977054D01*
X157152793Y-78977054D01*
X157153208Y-78502946D01*
X156971359Y-78062840D01*
X156634932Y-77725824D01*
X156195143Y-77543208D01*
X155718946Y-77542792D01*
X155278840Y-77724641D01*
X154941824Y-78061068D01*
X154759208Y-78500857D01*
X154758792Y-78977054D01*
X154612793Y-78977054D01*
X154613208Y-78502946D01*
X154431359Y-78062840D01*
X154094932Y-77725824D01*
X153655143Y-77543208D01*
X153178946Y-77542792D01*
X152738840Y-77724641D01*
X152401824Y-78061068D01*
X152219208Y-78500857D01*
X152218792Y-78977054D01*
X152072293Y-78977054D01*
X152072707Y-78503046D01*
X151890935Y-78063123D01*
X151554648Y-77726248D01*
X151115043Y-77543708D01*
X150639046Y-77543293D01*
X150199123Y-77725065D01*
X149862248Y-78061352D01*
X149679708Y-78500957D01*
X149679293Y-78976954D01*
X127231000Y-78976954D01*
X127231000Y-76437054D01*
X144598792Y-76437054D01*
X144780641Y-76877160D01*
X145117068Y-77214176D01*
X145556857Y-77396792D01*
X146033054Y-77397208D01*
X146473160Y-77215359D01*
X146810176Y-76878932D01*
X146992792Y-76439143D01*
X146992793Y-76437054D01*
X147138792Y-76437054D01*
X147320641Y-76877160D01*
X147657068Y-77214176D01*
X148096857Y-77396792D01*
X148573054Y-77397208D01*
X149013160Y-77215359D01*
X149350176Y-76878932D01*
X149532792Y-76439143D01*
X149532793Y-76436954D01*
X149679293Y-76436954D01*
X149861065Y-76876877D01*
X150197352Y-77213752D01*
X150636957Y-77396292D01*
X151112954Y-77396707D01*
X151552877Y-77214935D01*
X151889752Y-76878648D01*
X152072292Y-76439043D01*
X152072293Y-76437054D01*
X152218792Y-76437054D01*
X152400641Y-76877160D01*
X152737068Y-77214176D01*
X153176857Y-77396792D01*
X153653054Y-77397208D01*
X154093160Y-77215359D01*
X154430176Y-76878932D01*
X154612792Y-76439143D01*
X154612793Y-76437054D01*
X154758792Y-76437054D01*
X154940641Y-76877160D01*
X155277068Y-77214176D01*
X155716857Y-77396792D01*
X156193054Y-77397208D01*
X156633160Y-77215359D01*
X156970176Y-76878932D01*
X157152792Y-76439143D01*
X157152793Y-76437054D01*
X157298792Y-76437054D01*
X157480641Y-76877160D01*
X157817068Y-77214176D01*
X158256857Y-77396792D01*
X158733054Y-77397208D01*
X159173160Y-77215359D01*
X159510176Y-76878932D01*
X159692792Y-76439143D01*
X159692793Y-76437054D01*
X159838792Y-76437054D01*
X160020641Y-76877160D01*
X160357068Y-77214176D01*
X160796857Y-77396792D01*
X161273054Y-77397208D01*
X161713160Y-77215359D01*
X162050176Y-76878932D01*
X162232792Y-76439143D01*
X162232793Y-76437054D01*
X162378792Y-76437054D01*
X162560641Y-76877160D01*
X162897068Y-77214176D01*
X163336857Y-77396792D01*
X163813054Y-77397208D01*
X164253160Y-77215359D01*
X164590176Y-76878932D01*
X164772792Y-76439143D01*
X164772793Y-76437054D01*
X164918792Y-76437054D01*
X165100641Y-76877160D01*
X165437068Y-77214176D01*
X165876857Y-77396792D01*
X166353054Y-77397208D01*
X166793160Y-77215359D01*
X167130176Y-76878932D01*
X167312792Y-76439143D01*
X167312793Y-76437054D01*
X167458792Y-76437054D01*
X167640641Y-76877160D01*
X167977068Y-77214176D01*
X168416857Y-77396792D01*
X168893054Y-77397208D01*
X169333160Y-77215359D01*
X169670176Y-76878932D01*
X169852792Y-76439143D01*
X169852793Y-76437054D01*
X171522792Y-76437054D01*
X171704641Y-76877160D01*
X172041068Y-77214176D01*
X172480857Y-77396792D01*
X172957054Y-77397208D01*
X173397160Y-77215359D01*
X173734176Y-76878932D01*
X173916792Y-76439143D01*
X173916793Y-76437054D01*
X174062792Y-76437054D01*
X174244641Y-76877160D01*
X174581068Y-77214176D01*
X175020857Y-77396792D01*
X175497054Y-77397208D01*
X175937160Y-77215359D01*
X176274176Y-76878932D01*
X176456792Y-76439143D01*
X176456793Y-76437054D01*
X176602792Y-76437054D01*
X176784641Y-76877160D01*
X177121068Y-77214176D01*
X177560857Y-77396792D01*
X178037054Y-77397208D01*
X178477160Y-77215359D01*
X178814176Y-76878932D01*
X178996792Y-76439143D01*
X178996793Y-76437054D01*
X179142792Y-76437054D01*
X179324641Y-76877160D01*
X179661068Y-77214176D01*
X180100857Y-77396792D01*
X180577054Y-77397208D01*
X181017160Y-77215359D01*
X181354176Y-76878932D01*
X181536792Y-76439143D01*
X181536793Y-76437054D01*
X181682792Y-76437054D01*
X181864641Y-76877160D01*
X182201068Y-77214176D01*
X182640857Y-77396792D01*
X183117054Y-77397208D01*
X183557160Y-77215359D01*
X183894176Y-76878932D01*
X184076792Y-76439143D01*
X184076793Y-76437054D01*
X184222792Y-76437054D01*
X184404641Y-76877160D01*
X184741068Y-77214176D01*
X185180857Y-77396792D01*
X185657054Y-77397208D01*
X186097160Y-77215359D01*
X186434176Y-76878932D01*
X186616792Y-76439143D01*
X186616793Y-76437054D01*
X186762792Y-76437054D01*
X186944641Y-76877160D01*
X187281068Y-77214176D01*
X187720857Y-77396792D01*
X188197054Y-77397208D01*
X188637160Y-77215359D01*
X188974176Y-76878932D01*
X189156792Y-76439143D01*
X189156793Y-76437054D01*
X189302792Y-76437054D01*
X189484641Y-76877160D01*
X189821068Y-77214176D01*
X190260857Y-77396792D01*
X190737054Y-77397208D01*
X191177160Y-77215359D01*
X191514176Y-76878932D01*
X191696792Y-76439143D01*
X191697208Y-75962946D01*
X191515359Y-75522840D01*
X191178932Y-75185824D01*
X190739143Y-75003208D01*
X190262946Y-75002792D01*
X189822840Y-75184641D01*
X189485824Y-75521068D01*
X189303208Y-75960857D01*
X189302792Y-76437054D01*
X189156793Y-76437054D01*
X189157208Y-75962946D01*
X188975359Y-75522840D01*
X188638932Y-75185824D01*
X188199143Y-75003208D01*
X187722946Y-75002792D01*
X187282840Y-75184641D01*
X186945824Y-75521068D01*
X186763208Y-75960857D01*
X186762792Y-76437054D01*
X186616793Y-76437054D01*
X186617208Y-75962946D01*
X186435359Y-75522840D01*
X186098932Y-75185824D01*
X185659143Y-75003208D01*
X185182946Y-75002792D01*
X184742840Y-75184641D01*
X184405824Y-75521068D01*
X184223208Y-75960857D01*
X184222792Y-76437054D01*
X184076793Y-76437054D01*
X184077208Y-75962946D01*
X183895359Y-75522840D01*
X183558932Y-75185824D01*
X183119143Y-75003208D01*
X182642946Y-75002792D01*
X182202840Y-75184641D01*
X181865824Y-75521068D01*
X181683208Y-75960857D01*
X181682792Y-76437054D01*
X181536793Y-76437054D01*
X181537208Y-75962946D01*
X181355359Y-75522840D01*
X181018932Y-75185824D01*
X180579143Y-75003208D01*
X180102946Y-75002792D01*
X179662840Y-75184641D01*
X179325824Y-75521068D01*
X179143208Y-75960857D01*
X179142792Y-76437054D01*
X178996793Y-76437054D01*
X178997208Y-75962946D01*
X178815359Y-75522840D01*
X178478932Y-75185824D01*
X178039143Y-75003208D01*
X177562946Y-75002792D01*
X177122840Y-75184641D01*
X176785824Y-75521068D01*
X176603208Y-75960857D01*
X176602792Y-76437054D01*
X176456793Y-76437054D01*
X176457208Y-75962946D01*
X176275359Y-75522840D01*
X175938932Y-75185824D01*
X175499143Y-75003208D01*
X175022946Y-75002792D01*
X174582840Y-75184641D01*
X174245824Y-75521068D01*
X174063208Y-75960857D01*
X174062792Y-76437054D01*
X173916793Y-76437054D01*
X173917208Y-75962946D01*
X173735359Y-75522840D01*
X173398932Y-75185824D01*
X172959143Y-75003208D01*
X172482946Y-75002792D01*
X172042840Y-75184641D01*
X171705824Y-75521068D01*
X171523208Y-75960857D01*
X171522792Y-76437054D01*
X169852793Y-76437054D01*
X169853208Y-75962946D01*
X169671359Y-75522840D01*
X169334932Y-75185824D01*
X168895143Y-75003208D01*
X168418946Y-75002792D01*
X167978840Y-75184641D01*
X167641824Y-75521068D01*
X167459208Y-75960857D01*
X167458792Y-76437054D01*
X167312793Y-76437054D01*
X167313208Y-75962946D01*
X167131359Y-75522840D01*
X166794932Y-75185824D01*
X166355143Y-75003208D01*
X165878946Y-75002792D01*
X165438840Y-75184641D01*
X165101824Y-75521068D01*
X164919208Y-75960857D01*
X164918792Y-76437054D01*
X164772793Y-76437054D01*
X164773208Y-75962946D01*
X164591359Y-75522840D01*
X164254932Y-75185824D01*
X163815143Y-75003208D01*
X163338946Y-75002792D01*
X162898840Y-75184641D01*
X162561824Y-75521068D01*
X162379208Y-75960857D01*
X162378792Y-76437054D01*
X162232793Y-76437054D01*
X162233208Y-75962946D01*
X162051359Y-75522840D01*
X161714932Y-75185824D01*
X161275143Y-75003208D01*
X160798946Y-75002792D01*
X160358840Y-75184641D01*
X160021824Y-75521068D01*
X159839208Y-75960857D01*
X159838792Y-76437054D01*
X159692793Y-76437054D01*
X159693208Y-75962946D01*
X159511359Y-75522840D01*
X159174932Y-75185824D01*
X158735143Y-75003208D01*
X158258946Y-75002792D01*
X157818840Y-75184641D01*
X157481824Y-75521068D01*
X157299208Y-75960857D01*
X157298792Y-76437054D01*
X157152793Y-76437054D01*
X157153208Y-75962946D01*
X156971359Y-75522840D01*
X156634932Y-75185824D01*
X156195143Y-75003208D01*
X155718946Y-75002792D01*
X155278840Y-75184641D01*
X154941824Y-75521068D01*
X154759208Y-75960857D01*
X154758792Y-76437054D01*
X154612793Y-76437054D01*
X154613208Y-75962946D01*
X154431359Y-75522840D01*
X154094932Y-75185824D01*
X153655143Y-75003208D01*
X153178946Y-75002792D01*
X152738840Y-75184641D01*
X152401824Y-75521068D01*
X152219208Y-75960857D01*
X152218792Y-76437054D01*
X152072293Y-76437054D01*
X152072707Y-75963046D01*
X151890935Y-75523123D01*
X151554648Y-75186248D01*
X151115043Y-75003708D01*
X150639046Y-75003293D01*
X150199123Y-75185065D01*
X149862248Y-75521352D01*
X149679708Y-75960957D01*
X149679293Y-76436954D01*
X149532793Y-76436954D01*
X149533208Y-75962946D01*
X149351359Y-75522840D01*
X149014932Y-75185824D01*
X148575143Y-75003208D01*
X148098946Y-75002792D01*
X147658840Y-75184641D01*
X147321824Y-75521068D01*
X147139208Y-75960857D01*
X147138792Y-76437054D01*
X146992793Y-76437054D01*
X146993208Y-75962946D01*
X146811359Y-75522840D01*
X146474932Y-75185824D01*
X146035143Y-75003208D01*
X145558946Y-75002792D01*
X145118840Y-75184641D01*
X144781824Y-75521068D01*
X144599208Y-75960857D01*
X144598792Y-76437054D01*
X127231000Y-76437054D01*
X127231000Y-73636549D01*
X144599000Y-73636549D01*
X144599000Y-73683451D01*
X144690116Y-74141523D01*
X144949593Y-74529858D01*
X145337928Y-74789335D01*
X145796000Y-74880451D01*
X146254072Y-74789335D01*
X146642407Y-74529858D01*
X146901884Y-74141523D01*
X146993000Y-73683451D01*
X146993000Y-73636549D01*
X147139000Y-73636549D01*
X147139000Y-73683451D01*
X147230116Y-74141523D01*
X147489593Y-74529858D01*
X147877928Y-74789335D01*
X148336000Y-74880451D01*
X148794072Y-74789335D01*
X149182407Y-74529858D01*
X149441884Y-74141523D01*
X149533000Y-73683451D01*
X149533000Y-73636549D01*
X149679000Y-73636549D01*
X149679000Y-73683451D01*
X149770116Y-74141523D01*
X150029593Y-74529858D01*
X150417928Y-74789335D01*
X150876000Y-74880451D01*
X151334072Y-74789335D01*
X151722407Y-74529858D01*
X151981884Y-74141523D01*
X152073000Y-73683451D01*
X152073000Y-73636549D01*
X152219000Y-73636549D01*
X152219000Y-73683451D01*
X152310116Y-74141523D01*
X152569593Y-74529858D01*
X152957928Y-74789335D01*
X153416000Y-74880451D01*
X153874072Y-74789335D01*
X154262407Y-74529858D01*
X154521884Y-74141523D01*
X154613000Y-73683451D01*
X154613000Y-73636549D01*
X154759000Y-73636549D01*
X154759000Y-73683451D01*
X154850116Y-74141523D01*
X155109593Y-74529858D01*
X155497928Y-74789335D01*
X155956000Y-74880451D01*
X156414072Y-74789335D01*
X156802407Y-74529858D01*
X157061884Y-74141523D01*
X157153000Y-73683451D01*
X157153000Y-73636549D01*
X157299000Y-73636549D01*
X157299000Y-73683451D01*
X157390116Y-74141523D01*
X157649593Y-74529858D01*
X158037928Y-74789335D01*
X158496000Y-74880451D01*
X158954072Y-74789335D01*
X159342407Y-74529858D01*
X159601884Y-74141523D01*
X159693000Y-73683451D01*
X159693000Y-73636549D01*
X159839000Y-73636549D01*
X159839000Y-73683451D01*
X159930116Y-74141523D01*
X160189593Y-74529858D01*
X160577928Y-74789335D01*
X161036000Y-74880451D01*
X161494072Y-74789335D01*
X161882407Y-74529858D01*
X162141884Y-74141523D01*
X162233000Y-73683451D01*
X162233000Y-73636549D01*
X162379000Y-73636549D01*
X162379000Y-73683451D01*
X162470116Y-74141523D01*
X162729593Y-74529858D01*
X163117928Y-74789335D01*
X163576000Y-74880451D01*
X164034072Y-74789335D01*
X164422407Y-74529858D01*
X164681884Y-74141523D01*
X164773000Y-73683451D01*
X164773000Y-73636549D01*
X164919000Y-73636549D01*
X164919000Y-73683451D01*
X165010116Y-74141523D01*
X165269593Y-74529858D01*
X165657928Y-74789335D01*
X166116000Y-74880451D01*
X166574072Y-74789335D01*
X166962407Y-74529858D01*
X167221884Y-74141523D01*
X167313000Y-73683451D01*
X167313000Y-73636549D01*
X167459000Y-73636549D01*
X167459000Y-73683451D01*
X167550116Y-74141523D01*
X167809593Y-74529858D01*
X168197928Y-74789335D01*
X168656000Y-74880451D01*
X169114072Y-74789335D01*
X169502407Y-74529858D01*
X169761884Y-74141523D01*
X169853000Y-73683451D01*
X169853000Y-73636549D01*
X171523000Y-73636549D01*
X171523000Y-73683451D01*
X171614116Y-74141523D01*
X171873593Y-74529858D01*
X172261928Y-74789335D01*
X172720000Y-74880451D01*
X173178072Y-74789335D01*
X173566407Y-74529858D01*
X173825884Y-74141523D01*
X173917000Y-73683451D01*
X173917000Y-73636549D01*
X174063000Y-73636549D01*
X174063000Y-73683451D01*
X174154116Y-74141523D01*
X174413593Y-74529858D01*
X174801928Y-74789335D01*
X175260000Y-74880451D01*
X175718072Y-74789335D01*
X176106407Y-74529858D01*
X176365884Y-74141523D01*
X176457000Y-73683451D01*
X176457000Y-73636549D01*
X176603000Y-73636549D01*
X176603000Y-73683451D01*
X176694116Y-74141523D01*
X176953593Y-74529858D01*
X177341928Y-74789335D01*
X177800000Y-74880451D01*
X178258072Y-74789335D01*
X178646407Y-74529858D01*
X178905884Y-74141523D01*
X178997000Y-73683451D01*
X178997000Y-73636549D01*
X179143000Y-73636549D01*
X179143000Y-73683451D01*
X179234116Y-74141523D01*
X179493593Y-74529858D01*
X179881928Y-74789335D01*
X180340000Y-74880451D01*
X180798072Y-74789335D01*
X181186407Y-74529858D01*
X181445884Y-74141523D01*
X181537000Y-73683451D01*
X181537000Y-73636549D01*
X181683000Y-73636549D01*
X181683000Y-73683451D01*
X181774116Y-74141523D01*
X182033593Y-74529858D01*
X182421928Y-74789335D01*
X182880000Y-74880451D01*
X183338072Y-74789335D01*
X183726407Y-74529858D01*
X183985884Y-74141523D01*
X184077000Y-73683451D01*
X184077000Y-73636549D01*
X184223000Y-73636549D01*
X184223000Y-73683451D01*
X184314116Y-74141523D01*
X184573593Y-74529858D01*
X184961928Y-74789335D01*
X185420000Y-74880451D01*
X185878072Y-74789335D01*
X186266407Y-74529858D01*
X186525884Y-74141523D01*
X186617000Y-73683451D01*
X186617000Y-73636549D01*
X186763000Y-73636549D01*
X186763000Y-73683451D01*
X186854116Y-74141523D01*
X187113593Y-74529858D01*
X187501928Y-74789335D01*
X187960000Y-74880451D01*
X188418072Y-74789335D01*
X188806407Y-74529858D01*
X189065884Y-74141523D01*
X189157000Y-73683451D01*
X189157000Y-73636549D01*
X189303000Y-73636549D01*
X189303000Y-73683451D01*
X189394116Y-74141523D01*
X189653593Y-74529858D01*
X190041928Y-74789335D01*
X190500000Y-74880451D01*
X190958072Y-74789335D01*
X191346407Y-74529858D01*
X191605884Y-74141523D01*
X191697000Y-73683451D01*
X191697000Y-73636549D01*
X191605884Y-73178477D01*
X191346407Y-72790142D01*
X190958072Y-72530665D01*
X190500000Y-72439549D01*
X190041928Y-72530665D01*
X189653593Y-72790142D01*
X189394116Y-73178477D01*
X189303000Y-73636549D01*
X189157000Y-73636549D01*
X189065884Y-73178477D01*
X188806407Y-72790142D01*
X188418072Y-72530665D01*
X187960000Y-72439549D01*
X187501928Y-72530665D01*
X187113593Y-72790142D01*
X186854116Y-73178477D01*
X186763000Y-73636549D01*
X186617000Y-73636549D01*
X186525884Y-73178477D01*
X186266407Y-72790142D01*
X185878072Y-72530665D01*
X185420000Y-72439549D01*
X184961928Y-72530665D01*
X184573593Y-72790142D01*
X184314116Y-73178477D01*
X184223000Y-73636549D01*
X184077000Y-73636549D01*
X183985884Y-73178477D01*
X183726407Y-72790142D01*
X183338072Y-72530665D01*
X182880000Y-72439549D01*
X182421928Y-72530665D01*
X182033593Y-72790142D01*
X181774116Y-73178477D01*
X181683000Y-73636549D01*
X181537000Y-73636549D01*
X181445884Y-73178477D01*
X181186407Y-72790142D01*
X180798072Y-72530665D01*
X180340000Y-72439549D01*
X179881928Y-72530665D01*
X179493593Y-72790142D01*
X179234116Y-73178477D01*
X179143000Y-73636549D01*
X178997000Y-73636549D01*
X178905884Y-73178477D01*
X178646407Y-72790142D01*
X178258072Y-72530665D01*
X177800000Y-72439549D01*
X177341928Y-72530665D01*
X176953593Y-72790142D01*
X176694116Y-73178477D01*
X176603000Y-73636549D01*
X176457000Y-73636549D01*
X176365884Y-73178477D01*
X176106407Y-72790142D01*
X175718072Y-72530665D01*
X175260000Y-72439549D01*
X174801928Y-72530665D01*
X174413593Y-72790142D01*
X174154116Y-73178477D01*
X174063000Y-73636549D01*
X173917000Y-73636549D01*
X173825884Y-73178477D01*
X173566407Y-72790142D01*
X173178072Y-72530665D01*
X172720000Y-72439549D01*
X172261928Y-72530665D01*
X171873593Y-72790142D01*
X171614116Y-73178477D01*
X171523000Y-73636549D01*
X169853000Y-73636549D01*
X169761884Y-73178477D01*
X169502407Y-72790142D01*
X169114072Y-72530665D01*
X168656000Y-72439549D01*
X168197928Y-72530665D01*
X167809593Y-72790142D01*
X167550116Y-73178477D01*
X167459000Y-73636549D01*
X167313000Y-73636549D01*
X167221884Y-73178477D01*
X166962407Y-72790142D01*
X166574072Y-72530665D01*
X166116000Y-72439549D01*
X165657928Y-72530665D01*
X165269593Y-72790142D01*
X165010116Y-73178477D01*
X164919000Y-73636549D01*
X164773000Y-73636549D01*
X164681884Y-73178477D01*
X164422407Y-72790142D01*
X164034072Y-72530665D01*
X163576000Y-72439549D01*
X163117928Y-72530665D01*
X162729593Y-72790142D01*
X162470116Y-73178477D01*
X162379000Y-73636549D01*
X162233000Y-73636549D01*
X162141884Y-73178477D01*
X161882407Y-72790142D01*
X161494072Y-72530665D01*
X161036000Y-72439549D01*
X160577928Y-72530665D01*
X160189593Y-72790142D01*
X159930116Y-73178477D01*
X159839000Y-73636549D01*
X159693000Y-73636549D01*
X159601884Y-73178477D01*
X159342407Y-72790142D01*
X158954072Y-72530665D01*
X158496000Y-72439549D01*
X158037928Y-72530665D01*
X157649593Y-72790142D01*
X157390116Y-73178477D01*
X157299000Y-73636549D01*
X157153000Y-73636549D01*
X157061884Y-73178477D01*
X156802407Y-72790142D01*
X156414072Y-72530665D01*
X155956000Y-72439549D01*
X155497928Y-72530665D01*
X155109593Y-72790142D01*
X154850116Y-73178477D01*
X154759000Y-73636549D01*
X154613000Y-73636549D01*
X154521884Y-73178477D01*
X154262407Y-72790142D01*
X153874072Y-72530665D01*
X153416000Y-72439549D01*
X152957928Y-72530665D01*
X152569593Y-72790142D01*
X152310116Y-73178477D01*
X152219000Y-73636549D01*
X152073000Y-73636549D01*
X151981884Y-73178477D01*
X151722407Y-72790142D01*
X151334072Y-72530665D01*
X150876000Y-72439549D01*
X150417928Y-72530665D01*
X150029593Y-72790142D01*
X149770116Y-73178477D01*
X149679000Y-73636549D01*
X149533000Y-73636549D01*
X149441884Y-73178477D01*
X149182407Y-72790142D01*
X148794072Y-72530665D01*
X148336000Y-72439549D01*
X147877928Y-72530665D01*
X147489593Y-72790142D01*
X147230116Y-73178477D01*
X147139000Y-73636549D01*
X146993000Y-73636549D01*
X146901884Y-73178477D01*
X146642407Y-72790142D01*
X146254072Y-72530665D01*
X145796000Y-72439549D01*
X145337928Y-72530665D01*
X144949593Y-72790142D01*
X144690116Y-73178477D01*
X144599000Y-73636549D01*
X127231000Y-73636549D01*
X127231000Y-66372600D01*
X246149000Y-66372600D01*
X246149000Y-134389000D01*
X246149000Y-134389000D01*
G37*
X246149000Y-134389000D02*
X127231000Y-134389000D01*
X127231000Y-132011167D01*
X214177438Y-132011167D01*
X214319483Y-132354943D01*
X214582273Y-132618192D01*
X214925801Y-132760838D01*
X215297767Y-132761162D01*
X215641543Y-132619117D01*
X215904792Y-132356327D01*
X216047438Y-132012799D01*
X216047483Y-131960367D01*
X222280038Y-131960367D01*
X222422083Y-132304143D01*
X222684873Y-132567392D01*
X223028401Y-132710038D01*
X223400367Y-132710362D01*
X223744143Y-132568317D01*
X224007392Y-132305527D01*
X224150038Y-131961999D01*
X224150105Y-131884167D01*
X230433438Y-131884167D01*
X230575483Y-132227943D01*
X230838273Y-132491192D01*
X231181801Y-132633838D01*
X231553767Y-132634162D01*
X231897543Y-132492117D01*
X232160792Y-132229327D01*
X232240833Y-132036567D01*
X238561438Y-132036567D01*
X238703483Y-132380343D01*
X238966273Y-132643592D01*
X239309801Y-132786238D01*
X239681767Y-132786562D01*
X240025543Y-132644517D01*
X240288792Y-132381727D01*
X240431438Y-132038199D01*
X240431762Y-131666233D01*
X240289717Y-131322457D01*
X240026927Y-131059208D01*
X239683399Y-130916562D01*
X239311433Y-130916238D01*
X238967657Y-131058283D01*
X238704408Y-131321073D01*
X238561762Y-131664601D01*
X238561438Y-132036567D01*
X232240833Y-132036567D01*
X232303438Y-131885799D01*
X232303762Y-131513833D01*
X232161717Y-131170057D01*
X231898927Y-130906808D01*
X231555399Y-130764162D01*
X231183433Y-130763838D01*
X230839657Y-130905883D01*
X230576408Y-131168673D01*
X230433762Y-131512201D01*
X230433438Y-131884167D01*
X224150105Y-131884167D01*
X224150362Y-131590033D01*
X224008317Y-131246257D01*
X223745527Y-130983008D01*
X223401999Y-130840362D01*
X223030033Y-130840038D01*
X222686257Y-130982083D01*
X222423008Y-131244873D01*
X222280362Y-131588401D01*
X222280038Y-131960367D01*
X216047483Y-131960367D01*
X216047762Y-131640833D01*
X215905717Y-131297057D01*
X215642927Y-131033808D01*
X215299399Y-130891162D01*
X214927433Y-130890838D01*
X214583657Y-131032883D01*
X214320408Y-131295673D01*
X214177762Y-131639201D01*
X214177438Y-132011167D01*
X127231000Y-132011167D01*
X127231000Y-128872759D01*
X139599872Y-128872759D01*
X139711534Y-129143000D01*
X139918112Y-129349940D01*
X140188158Y-129462073D01*
X140480559Y-129462328D01*
X140750800Y-129350666D01*
X140957740Y-129144088D01*
X141069873Y-128874042D01*
X141070128Y-128581641D01*
X140958466Y-128311400D01*
X140751888Y-128104460D01*
X140481842Y-127992327D01*
X140189441Y-127992072D01*
X139919200Y-128103734D01*
X139712260Y-128310312D01*
X139600127Y-128580358D01*
X139599872Y-128872759D01*
X127231000Y-128872759D01*
X127231000Y-126976549D01*
X153743000Y-126976549D01*
X153743000Y-127023451D01*
X153834116Y-127481523D01*
X154093593Y-127869858D01*
X154481928Y-128129335D01*
X154940000Y-128220451D01*
X155398072Y-128129335D01*
X155786407Y-127869858D01*
X156045884Y-127481523D01*
X156137000Y-127023451D01*
X156137000Y-126976549D01*
X156283000Y-126976549D01*
X156283000Y-127023451D01*
X156374116Y-127481523D01*
X156633593Y-127869858D01*
X157021928Y-128129335D01*
X157480000Y-128220451D01*
X157938072Y-128129335D01*
X158326407Y-127869858D01*
X158585884Y-127481523D01*
X158677000Y-127023451D01*
X158677000Y-126976549D01*
X158823000Y-126976549D01*
X158823000Y-127023451D01*
X158914116Y-127481523D01*
X159173593Y-127869858D01*
X159561928Y-128129335D01*
X160020000Y-128220451D01*
X160478072Y-128129335D01*
X160866407Y-127869858D01*
X161125884Y-127481523D01*
X161179122Y-127213872D01*
X161382259Y-127213872D01*
X161553754Y-127648294D01*
X161878441Y-127984019D01*
X162306889Y-128169936D01*
X162346128Y-128177738D01*
X162533000Y-128087915D01*
X162533000Y-127027000D01*
X162587000Y-127027000D01*
X162587000Y-128087915D01*
X162773872Y-128177738D01*
X162813111Y-128169936D01*
X163241559Y-127984019D01*
X163566246Y-127648294D01*
X163737741Y-127213872D01*
X163647948Y-127027000D01*
X162587000Y-127027000D01*
X162533000Y-127027000D01*
X161472052Y-127027000D01*
X161382259Y-127213872D01*
X161179122Y-127213872D01*
X161217000Y-127023451D01*
X161217000Y-126976549D01*
X163903000Y-126976549D01*
X163903000Y-127023451D01*
X163994116Y-127481523D01*
X164253593Y-127869858D01*
X164641928Y-128129335D01*
X165100000Y-128220451D01*
X165558072Y-128129335D01*
X165946407Y-127869858D01*
X166205884Y-127481523D01*
X166297000Y-127023451D01*
X166297000Y-126976549D01*
X166443000Y-126976549D01*
X166443000Y-127023451D01*
X166534116Y-127481523D01*
X166793593Y-127869858D01*
X167181928Y-128129335D01*
X167640000Y-128220451D01*
X168098072Y-128129335D01*
X168486407Y-127869858D01*
X168745884Y-127481523D01*
X168837000Y-127023451D01*
X168837000Y-126976549D01*
X168983000Y-126976549D01*
X168983000Y-127023451D01*
X169074116Y-127481523D01*
X169333593Y-127869858D01*
X169721928Y-128129335D01*
X170180000Y-128220451D01*
X170638072Y-128129335D01*
X171026407Y-127869858D01*
X171285884Y-127481523D01*
X171377000Y-127023451D01*
X171377000Y-126976549D01*
X171523000Y-126976549D01*
X171523000Y-127023451D01*
X171614116Y-127481523D01*
X171873593Y-127869858D01*
X172261928Y-128129335D01*
X172720000Y-128220451D01*
X173178072Y-128129335D01*
X173566407Y-127869858D01*
X173825884Y-127481523D01*
X173917000Y-127023451D01*
X173917000Y-126976549D01*
X176603000Y-126976549D01*
X176603000Y-127023451D01*
X176694116Y-127481523D01*
X176953593Y-127869858D01*
X177341928Y-128129335D01*
X177800000Y-128220451D01*
X178258072Y-128129335D01*
X178646407Y-127869858D01*
X178905884Y-127481523D01*
X178997000Y-127023451D01*
X178997000Y-126976549D01*
X179143000Y-126976549D01*
X179143000Y-127023451D01*
X179234116Y-127481523D01*
X179493593Y-127869858D01*
X179881928Y-128129335D01*
X180340000Y-128220451D01*
X180798072Y-128129335D01*
X181186407Y-127869858D01*
X181445884Y-127481523D01*
X181537000Y-127023451D01*
X181537000Y-126976549D01*
X181683000Y-126976549D01*
X181683000Y-127023451D01*
X181774116Y-127481523D01*
X182033593Y-127869858D01*
X182421928Y-128129335D01*
X182880000Y-128220451D01*
X183338072Y-128129335D01*
X183726407Y-127869858D01*
X183985884Y-127481523D01*
X184077000Y-127023451D01*
X184077000Y-126976549D01*
X184223000Y-126976549D01*
X184223000Y-127023451D01*
X184314116Y-127481523D01*
X184573593Y-127869858D01*
X184961928Y-128129335D01*
X185420000Y-128220451D01*
X185878072Y-128129335D01*
X186266407Y-127869858D01*
X186525884Y-127481523D01*
X186617000Y-127023451D01*
X186617000Y-126976549D01*
X186763000Y-126976549D01*
X186763000Y-127023451D01*
X186854116Y-127481523D01*
X187113593Y-127869858D01*
X187501928Y-128129335D01*
X187960000Y-128220451D01*
X188418072Y-128129335D01*
X188806407Y-127869858D01*
X189065884Y-127481523D01*
X189157000Y-127023451D01*
X189157000Y-126976549D01*
X189303000Y-126976549D01*
X189303000Y-127023451D01*
X189394116Y-127481523D01*
X189653593Y-127869858D01*
X190041928Y-128129335D01*
X190500000Y-128220451D01*
X190958072Y-128129335D01*
X191346407Y-127869858D01*
X191605884Y-127481523D01*
X191697000Y-127023451D01*
X191697000Y-126976549D01*
X191605884Y-126518477D01*
X191346407Y-126130142D01*
X190958072Y-125870665D01*
X190500000Y-125779549D01*
X190041928Y-125870665D01*
X189653593Y-126130142D01*
X189394116Y-126518477D01*
X189303000Y-126976549D01*
X189157000Y-126976549D01*
X189065884Y-126518477D01*
X188806407Y-126130142D01*
X188418072Y-125870665D01*
X187960000Y-125779549D01*
X187501928Y-125870665D01*
X187113593Y-126130142D01*
X186854116Y-126518477D01*
X186763000Y-126976549D01*
X186617000Y-126976549D01*
X186525884Y-126518477D01*
X186266407Y-126130142D01*
X185878072Y-125870665D01*
X185420000Y-125779549D01*
X184961928Y-125870665D01*
X184573593Y-126130142D01*
X184314116Y-126518477D01*
X184223000Y-126976549D01*
X184077000Y-126976549D01*
X183985884Y-126518477D01*
X183726407Y-126130142D01*
X183338072Y-125870665D01*
X182880000Y-125779549D01*
X182421928Y-125870665D01*
X182033593Y-126130142D01*
X181774116Y-126518477D01*
X181683000Y-126976549D01*
X181537000Y-126976549D01*
X181445884Y-126518477D01*
X181186407Y-126130142D01*
X180798072Y-125870665D01*
X180340000Y-125779549D01*
X179881928Y-125870665D01*
X179493593Y-126130142D01*
X179234116Y-126518477D01*
X179143000Y-126976549D01*
X178997000Y-126976549D01*
X178905884Y-126518477D01*
X178646407Y-126130142D01*
X178258072Y-125870665D01*
X177800000Y-125779549D01*
X177341928Y-125870665D01*
X176953593Y-126130142D01*
X176694116Y-126518477D01*
X176603000Y-126976549D01*
X173917000Y-126976549D01*
X173825884Y-126518477D01*
X173566407Y-126130142D01*
X173178072Y-125870665D01*
X172720000Y-125779549D01*
X172261928Y-125870665D01*
X171873593Y-126130142D01*
X171614116Y-126518477D01*
X171523000Y-126976549D01*
X171377000Y-126976549D01*
X171285884Y-126518477D01*
X171026407Y-126130142D01*
X170638072Y-125870665D01*
X170180000Y-125779549D01*
X169721928Y-125870665D01*
X169333593Y-126130142D01*
X169074116Y-126518477D01*
X168983000Y-126976549D01*
X168837000Y-126976549D01*
X168745884Y-126518477D01*
X168486407Y-126130142D01*
X168098072Y-125870665D01*
X167640000Y-125779549D01*
X167181928Y-125870665D01*
X166793593Y-126130142D01*
X166534116Y-126518477D01*
X166443000Y-126976549D01*
X166297000Y-126976549D01*
X166205884Y-126518477D01*
X165946407Y-126130142D01*
X165558072Y-125870665D01*
X165100000Y-125779549D01*
X164641928Y-125870665D01*
X164253593Y-126130142D01*
X163994116Y-126518477D01*
X163903000Y-126976549D01*
X161217000Y-126976549D01*
X161179123Y-126786128D01*
X161382259Y-126786128D01*
X161472052Y-126973000D01*
X162533000Y-126973000D01*
X162533000Y-125912085D01*
X162587000Y-125912085D01*
X162587000Y-126973000D01*
X163647948Y-126973000D01*
X163737741Y-126786128D01*
X163566246Y-126351706D01*
X163241559Y-126015981D01*
X162813111Y-125830064D01*
X162773872Y-125822262D01*
X162587000Y-125912085D01*
X162533000Y-125912085D01*
X162346128Y-125822262D01*
X162306889Y-125830064D01*
X161878441Y-126015981D01*
X161553754Y-126351706D01*
X161382259Y-126786128D01*
X161179123Y-126786128D01*
X161125884Y-126518477D01*
X160866407Y-126130142D01*
X160478072Y-125870665D01*
X160020000Y-125779549D01*
X159561928Y-125870665D01*
X159173593Y-126130142D01*
X158914116Y-126518477D01*
X158823000Y-126976549D01*
X158677000Y-126976549D01*
X158585884Y-126518477D01*
X158326407Y-126130142D01*
X157938072Y-125870665D01*
X157480000Y-125779549D01*
X157021928Y-125870665D01*
X156633593Y-126130142D01*
X156374116Y-126518477D01*
X156283000Y-126976549D01*
X156137000Y-126976549D01*
X156045884Y-126518477D01*
X155786407Y-126130142D01*
X155398072Y-125870665D01*
X154940000Y-125779549D01*
X154481928Y-125870665D01*
X154093593Y-126130142D01*
X153834116Y-126518477D01*
X153743000Y-126976549D01*
X127231000Y-126976549D01*
X127231000Y-124697054D01*
X153742792Y-124697054D01*
X153924641Y-125137160D01*
X154261068Y-125474176D01*
X154700857Y-125656792D01*
X155177054Y-125657208D01*
X155617160Y-125475359D01*
X155954176Y-125138932D01*
X156136792Y-124699143D01*
X156136793Y-124697054D01*
X156282792Y-124697054D01*
X156464641Y-125137160D01*
X156801068Y-125474176D01*
X157240857Y-125656792D01*
X157717054Y-125657208D01*
X158157160Y-125475359D01*
X158494176Y-125138932D01*
X158676792Y-124699143D01*
X158676793Y-124697054D01*
X158822792Y-124697054D01*
X159004641Y-125137160D01*
X159341068Y-125474176D01*
X159780857Y-125656792D01*
X160257054Y-125657208D01*
X160697160Y-125475359D01*
X160907936Y-125264951D01*
X161793232Y-125264951D01*
X161864656Y-125462993D01*
X162301415Y-125652742D01*
X162777541Y-125660906D01*
X163220549Y-125486243D01*
X163255344Y-125462993D01*
X163326768Y-125264951D01*
X162560000Y-124498184D01*
X161793232Y-125264951D01*
X160907936Y-125264951D01*
X161034176Y-125138932D01*
X161216792Y-124699143D01*
X161216810Y-124677541D01*
X161359094Y-124677541D01*
X161533757Y-125120549D01*
X161557007Y-125155344D01*
X161755049Y-125226768D01*
X162521816Y-124460000D01*
X162598184Y-124460000D01*
X163364951Y-125226768D01*
X163562993Y-125155344D01*
X163752742Y-124718585D01*
X163753111Y-124697054D01*
X163902792Y-124697054D01*
X164084641Y-125137160D01*
X164421068Y-125474176D01*
X164860857Y-125656792D01*
X165337054Y-125657208D01*
X165777160Y-125475359D01*
X166114176Y-125138932D01*
X166296792Y-124699143D01*
X166296793Y-124697054D01*
X166442792Y-124697054D01*
X166624641Y-125137160D01*
X166961068Y-125474176D01*
X167400857Y-125656792D01*
X167877054Y-125657208D01*
X168317160Y-125475359D01*
X168654176Y-125138932D01*
X168836792Y-124699143D01*
X168836793Y-124697054D01*
X168982792Y-124697054D01*
X169164641Y-125137160D01*
X169501068Y-125474176D01*
X169940857Y-125656792D01*
X170417054Y-125657208D01*
X170857160Y-125475359D01*
X171194176Y-125138932D01*
X171376792Y-124699143D01*
X171376793Y-124697054D01*
X171522792Y-124697054D01*
X171704641Y-125137160D01*
X172041068Y-125474176D01*
X172480857Y-125656792D01*
X172957054Y-125657208D01*
X173397160Y-125475359D01*
X173734176Y-125138932D01*
X173916792Y-124699143D01*
X173916793Y-124697054D01*
X176602792Y-124697054D01*
X176784641Y-125137160D01*
X177121068Y-125474176D01*
X177560857Y-125656792D01*
X178037054Y-125657208D01*
X178477160Y-125475359D01*
X178814176Y-125138932D01*
X178996792Y-124699143D01*
X178996793Y-124697054D01*
X179142792Y-124697054D01*
X179324641Y-125137160D01*
X179661068Y-125474176D01*
X180100857Y-125656792D01*
X180577054Y-125657208D01*
X181017160Y-125475359D01*
X181354176Y-125138932D01*
X181536792Y-124699143D01*
X181536793Y-124697054D01*
X181682792Y-124697054D01*
X181864641Y-125137160D01*
X182201068Y-125474176D01*
X182640857Y-125656792D01*
X183117054Y-125657208D01*
X183557160Y-125475359D01*
X183894176Y-125138932D01*
X184076792Y-124699143D01*
X184076793Y-124697054D01*
X184222792Y-124697054D01*
X184404641Y-125137160D01*
X184741068Y-125474176D01*
X185180857Y-125656792D01*
X185657054Y-125657208D01*
X186097160Y-125475359D01*
X186434176Y-125138932D01*
X186616792Y-124699143D01*
X186616793Y-124697054D01*
X186762792Y-124697054D01*
X186944641Y-125137160D01*
X187281068Y-125474176D01*
X187720857Y-125656792D01*
X188197054Y-125657208D01*
X188637160Y-125475359D01*
X188974176Y-125138932D01*
X189156792Y-124699143D01*
X189156793Y-124697054D01*
X189302792Y-124697054D01*
X189484641Y-125137160D01*
X189821068Y-125474176D01*
X190260857Y-125656792D01*
X190737054Y-125657208D01*
X191177160Y-125475359D01*
X191514176Y-125138932D01*
X191696792Y-124699143D01*
X191697208Y-124222946D01*
X191515359Y-123782840D01*
X191178932Y-123445824D01*
X190739143Y-123263208D01*
X190262946Y-123262792D01*
X189822840Y-123444641D01*
X189485824Y-123781068D01*
X189303208Y-124220857D01*
X189302792Y-124697054D01*
X189156793Y-124697054D01*
X189157208Y-124222946D01*
X188975359Y-123782840D01*
X188638932Y-123445824D01*
X188199143Y-123263208D01*
X187722946Y-123262792D01*
X187282840Y-123444641D01*
X186945824Y-123781068D01*
X186763208Y-124220857D01*
X186762792Y-124697054D01*
X186616793Y-124697054D01*
X186617208Y-124222946D01*
X186435359Y-123782840D01*
X186098932Y-123445824D01*
X185659143Y-123263208D01*
X185182946Y-123262792D01*
X184742840Y-123444641D01*
X184405824Y-123781068D01*
X184223208Y-124220857D01*
X184222792Y-124697054D01*
X184076793Y-124697054D01*
X184077208Y-124222946D01*
X183895359Y-123782840D01*
X183558932Y-123445824D01*
X183119143Y-123263208D01*
X182642946Y-123262792D01*
X182202840Y-123444641D01*
X181865824Y-123781068D01*
X181683208Y-124220857D01*
X181682792Y-124697054D01*
X181536793Y-124697054D01*
X181537208Y-124222946D01*
X181355359Y-123782840D01*
X181018932Y-123445824D01*
X180579143Y-123263208D01*
X180102946Y-123262792D01*
X179662840Y-123444641D01*
X179325824Y-123781068D01*
X179143208Y-124220857D01*
X179142792Y-124697054D01*
X178996793Y-124697054D01*
X178997208Y-124222946D01*
X178815359Y-123782840D01*
X178478932Y-123445824D01*
X178039143Y-123263208D01*
X177562946Y-123262792D01*
X177122840Y-123444641D01*
X176785824Y-123781068D01*
X176603208Y-124220857D01*
X176602792Y-124697054D01*
X173916793Y-124697054D01*
X173917208Y-124222946D01*
X173735359Y-123782840D01*
X173398932Y-123445824D01*
X172959143Y-123263208D01*
X172482946Y-123262792D01*
X172042840Y-123444641D01*
X171705824Y-123781068D01*
X171523208Y-124220857D01*
X171522792Y-124697054D01*
X171376793Y-124697054D01*
X171377208Y-124222946D01*
X171195359Y-123782840D01*
X170858932Y-123445824D01*
X170419143Y-123263208D01*
X169942946Y-123262792D01*
X169502840Y-123444641D01*
X169165824Y-123781068D01*
X168983208Y-124220857D01*
X168982792Y-124697054D01*
X168836793Y-124697054D01*
X168837208Y-124222946D01*
X168655359Y-123782840D01*
X168318932Y-123445824D01*
X167879143Y-123263208D01*
X167402946Y-123262792D01*
X166962840Y-123444641D01*
X166625824Y-123781068D01*
X166443208Y-124220857D01*
X166442792Y-124697054D01*
X166296793Y-124697054D01*
X166297208Y-124222946D01*
X166115359Y-123782840D01*
X165778932Y-123445824D01*
X165339143Y-123263208D01*
X164862946Y-123262792D01*
X164422840Y-123444641D01*
X164085824Y-123781068D01*
X163903208Y-124220857D01*
X163902792Y-124697054D01*
X163753111Y-124697054D01*
X163760906Y-124242459D01*
X163586243Y-123799451D01*
X163562993Y-123764656D01*
X163364951Y-123693232D01*
X162598184Y-124460000D01*
X162521816Y-124460000D01*
X161755049Y-123693232D01*
X161557007Y-123764656D01*
X161367258Y-124201415D01*
X161359094Y-124677541D01*
X161216810Y-124677541D01*
X161217208Y-124222946D01*
X161035359Y-123782840D01*
X160907792Y-123655049D01*
X161793232Y-123655049D01*
X162560000Y-124421816D01*
X163326768Y-123655049D01*
X163255344Y-123457007D01*
X162818585Y-123267258D01*
X162342459Y-123259094D01*
X161899451Y-123433757D01*
X161864656Y-123457007D01*
X161793232Y-123655049D01*
X160907792Y-123655049D01*
X160698932Y-123445824D01*
X160259143Y-123263208D01*
X159782946Y-123262792D01*
X159342840Y-123444641D01*
X159005824Y-123781068D01*
X158823208Y-124220857D01*
X158822792Y-124697054D01*
X158676793Y-124697054D01*
X158677208Y-124222946D01*
X158495359Y-123782840D01*
X158158932Y-123445824D01*
X157719143Y-123263208D01*
X157242946Y-123262792D01*
X156802840Y-123444641D01*
X156465824Y-123781068D01*
X156283208Y-124220857D01*
X156282792Y-124697054D01*
X156136793Y-124697054D01*
X156137208Y-124222946D01*
X155955359Y-123782840D01*
X155618932Y-123445824D01*
X155179143Y-123263208D01*
X154702946Y-123262792D01*
X154262840Y-123444641D01*
X153925824Y-123781068D01*
X153743208Y-124220857D01*
X153742792Y-124697054D01*
X127231000Y-124697054D01*
X127231000Y-122157054D01*
X163902792Y-122157054D01*
X164084641Y-122597160D01*
X164421068Y-122934176D01*
X164860857Y-123116792D01*
X165337054Y-123117208D01*
X165777160Y-122935359D01*
X166114176Y-122598932D01*
X166296792Y-122159143D01*
X166296793Y-122157054D01*
X166442792Y-122157054D01*
X166624641Y-122597160D01*
X166961068Y-122934176D01*
X167400857Y-123116792D01*
X167877054Y-123117208D01*
X168317160Y-122935359D01*
X168654176Y-122598932D01*
X168836792Y-122159143D01*
X168836793Y-122157054D01*
X168982792Y-122157054D01*
X169164641Y-122597160D01*
X169501068Y-122934176D01*
X169940857Y-123116792D01*
X170417054Y-123117208D01*
X170857160Y-122935359D01*
X171194176Y-122598932D01*
X171376792Y-122159143D01*
X171376793Y-122157054D01*
X171522792Y-122157054D01*
X171704641Y-122597160D01*
X172041068Y-122934176D01*
X172480857Y-123116792D01*
X172957054Y-123117208D01*
X173397160Y-122935359D01*
X173734176Y-122598932D01*
X173916792Y-122159143D01*
X173916793Y-122157054D01*
X176602792Y-122157054D01*
X176784641Y-122597160D01*
X177121068Y-122934176D01*
X177560857Y-123116792D01*
X178037054Y-123117208D01*
X178477160Y-122935359D01*
X178814176Y-122598932D01*
X178996792Y-122159143D01*
X178996793Y-122157054D01*
X179142792Y-122157054D01*
X179324641Y-122597160D01*
X179661068Y-122934176D01*
X180100857Y-123116792D01*
X180577054Y-123117208D01*
X181017160Y-122935359D01*
X181354176Y-122598932D01*
X181536792Y-122159143D01*
X181536793Y-122157054D01*
X181682792Y-122157054D01*
X181864641Y-122597160D01*
X182201068Y-122934176D01*
X182640857Y-123116792D01*
X183117054Y-123117208D01*
X183557160Y-122935359D01*
X183894176Y-122598932D01*
X184076792Y-122159143D01*
X184076793Y-122157054D01*
X184222792Y-122157054D01*
X184404641Y-122597160D01*
X184741068Y-122934176D01*
X185180857Y-123116792D01*
X185657054Y-123117208D01*
X186097160Y-122935359D01*
X186434176Y-122598932D01*
X186616792Y-122159143D01*
X186616793Y-122157054D01*
X186762792Y-122157054D01*
X186944641Y-122597160D01*
X187281068Y-122934176D01*
X187720857Y-123116792D01*
X188197054Y-123117208D01*
X188637160Y-122935359D01*
X188974176Y-122598932D01*
X189156792Y-122159143D01*
X189156793Y-122157054D01*
X189302792Y-122157054D01*
X189484641Y-122597160D01*
X189821068Y-122934176D01*
X190260857Y-123116792D01*
X190737054Y-123117208D01*
X191177160Y-122935359D01*
X191514176Y-122598932D01*
X191696792Y-122159143D01*
X191697208Y-121682946D01*
X191515359Y-121242840D01*
X191178932Y-120905824D01*
X190739143Y-120723208D01*
X190262946Y-120722792D01*
X189822840Y-120904641D01*
X189485824Y-121241068D01*
X189303208Y-121680857D01*
X189302792Y-122157054D01*
X189156793Y-122157054D01*
X189157208Y-121682946D01*
X188975359Y-121242840D01*
X188638932Y-120905824D01*
X188199143Y-120723208D01*
X187722946Y-120722792D01*
X187282840Y-120904641D01*
X186945824Y-121241068D01*
X186763208Y-121680857D01*
X186762792Y-122157054D01*
X186616793Y-122157054D01*
X186617208Y-121682946D01*
X186435359Y-121242840D01*
X186098932Y-120905824D01*
X185659143Y-120723208D01*
X185182946Y-120722792D01*
X184742840Y-120904641D01*
X184405824Y-121241068D01*
X184223208Y-121680857D01*
X184222792Y-122157054D01*
X184076793Y-122157054D01*
X184077208Y-121682946D01*
X183895359Y-121242840D01*
X183558932Y-120905824D01*
X183119143Y-120723208D01*
X182642946Y-120722792D01*
X182202840Y-120904641D01*
X181865824Y-121241068D01*
X181683208Y-121680857D01*
X181682792Y-122157054D01*
X181536793Y-122157054D01*
X181537208Y-121682946D01*
X181355359Y-121242840D01*
X181018932Y-120905824D01*
X180579143Y-120723208D01*
X180102946Y-120722792D01*
X179662840Y-120904641D01*
X179325824Y-121241068D01*
X179143208Y-121680857D01*
X179142792Y-122157054D01*
X178996793Y-122157054D01*
X178997208Y-121682946D01*
X178815359Y-121242840D01*
X178478932Y-120905824D01*
X178039143Y-120723208D01*
X177562946Y-120722792D01*
X177122840Y-120904641D01*
X176785824Y-121241068D01*
X176603208Y-121680857D01*
X176602792Y-122157054D01*
X173916793Y-122157054D01*
X173917208Y-121682946D01*
X173735359Y-121242840D01*
X173398932Y-120905824D01*
X172959143Y-120723208D01*
X172482946Y-120722792D01*
X172042840Y-120904641D01*
X171705824Y-121241068D01*
X171523208Y-121680857D01*
X171522792Y-122157054D01*
X171376793Y-122157054D01*
X171377208Y-121682946D01*
X171195359Y-121242840D01*
X170858932Y-120905824D01*
X170419143Y-120723208D01*
X169942946Y-120722792D01*
X169502840Y-120904641D01*
X169165824Y-121241068D01*
X168983208Y-121680857D01*
X168982792Y-122157054D01*
X168836793Y-122157054D01*
X168837208Y-121682946D01*
X168655359Y-121242840D01*
X168318932Y-120905824D01*
X167879143Y-120723208D01*
X167402946Y-120722792D01*
X166962840Y-120904641D01*
X166625824Y-121241068D01*
X166443208Y-121680857D01*
X166442792Y-122157054D01*
X166296793Y-122157054D01*
X166297208Y-121682946D01*
X166115359Y-121242840D01*
X165778932Y-120905824D01*
X165339143Y-120723208D01*
X164862946Y-120722792D01*
X164422840Y-120904641D01*
X164085824Y-121241068D01*
X163903208Y-121680857D01*
X163902792Y-122157054D01*
X127231000Y-122157054D01*
X127231000Y-119356549D01*
X163903000Y-119356549D01*
X163903000Y-119403451D01*
X163994116Y-119861523D01*
X164253593Y-120249858D01*
X164641928Y-120509335D01*
X165100000Y-120600451D01*
X165558072Y-120509335D01*
X165946407Y-120249858D01*
X166205884Y-119861523D01*
X166297000Y-119403451D01*
X166297000Y-119356549D01*
X166443000Y-119356549D01*
X166443000Y-119403451D01*
X166534116Y-119861523D01*
X166793593Y-120249858D01*
X167181928Y-120509335D01*
X167640000Y-120600451D01*
X168098072Y-120509335D01*
X168486407Y-120249858D01*
X168745884Y-119861523D01*
X168837000Y-119403451D01*
X168837000Y-119356549D01*
X168983000Y-119356549D01*
X168983000Y-119403451D01*
X169074116Y-119861523D01*
X169333593Y-120249858D01*
X169721928Y-120509335D01*
X170180000Y-120600451D01*
X170638072Y-120509335D01*
X171026407Y-120249858D01*
X171285884Y-119861523D01*
X171377000Y-119403451D01*
X171377000Y-119356549D01*
X171523000Y-119356549D01*
X171523000Y-119403451D01*
X171614116Y-119861523D01*
X171873593Y-120249858D01*
X172261928Y-120509335D01*
X172720000Y-120600451D01*
X173178072Y-120509335D01*
X173566407Y-120249858D01*
X173825884Y-119861523D01*
X173917000Y-119403451D01*
X173917000Y-119356549D01*
X176603000Y-119356549D01*
X176603000Y-119403451D01*
X176694116Y-119861523D01*
X176953593Y-120249858D01*
X177341928Y-120509335D01*
X177800000Y-120600451D01*
X178258072Y-120509335D01*
X178646407Y-120249858D01*
X178905884Y-119861523D01*
X178997000Y-119403451D01*
X178997000Y-119356549D01*
X179143000Y-119356549D01*
X179143000Y-119403451D01*
X179234116Y-119861523D01*
X179493593Y-120249858D01*
X179881928Y-120509335D01*
X180340000Y-120600451D01*
X180798072Y-120509335D01*
X181186407Y-120249858D01*
X181445884Y-119861523D01*
X181537000Y-119403451D01*
X181537000Y-119356549D01*
X181683000Y-119356549D01*
X181683000Y-119403451D01*
X181774116Y-119861523D01*
X182033593Y-120249858D01*
X182421928Y-120509335D01*
X182880000Y-120600451D01*
X183338072Y-120509335D01*
X183726407Y-120249858D01*
X183985884Y-119861523D01*
X184077000Y-119403451D01*
X184077000Y-119356549D01*
X184223000Y-119356549D01*
X184223000Y-119403451D01*
X184314116Y-119861523D01*
X184573593Y-120249858D01*
X184961928Y-120509335D01*
X185420000Y-120600451D01*
X185878072Y-120509335D01*
X186266407Y-120249858D01*
X186525884Y-119861523D01*
X186617000Y-119403451D01*
X186617000Y-119356549D01*
X186763000Y-119356549D01*
X186763000Y-119403451D01*
X186854116Y-119861523D01*
X187113593Y-120249858D01*
X187501928Y-120509335D01*
X187960000Y-120600451D01*
X188418072Y-120509335D01*
X188806407Y-120249858D01*
X189065884Y-119861523D01*
X189157000Y-119403451D01*
X189157000Y-119356549D01*
X189303000Y-119356549D01*
X189303000Y-119403451D01*
X189394116Y-119861523D01*
X189653593Y-120249858D01*
X190041928Y-120509335D01*
X190500000Y-120600451D01*
X190958072Y-120509335D01*
X191346407Y-120249858D01*
X191605884Y-119861523D01*
X191697000Y-119403451D01*
X191697000Y-119356549D01*
X191605884Y-118898477D01*
X191346407Y-118510142D01*
X190958072Y-118250665D01*
X190500000Y-118159549D01*
X190041928Y-118250665D01*
X189653593Y-118510142D01*
X189394116Y-118898477D01*
X189303000Y-119356549D01*
X189157000Y-119356549D01*
X189065884Y-118898477D01*
X188806407Y-118510142D01*
X188418072Y-118250665D01*
X187960000Y-118159549D01*
X187501928Y-118250665D01*
X187113593Y-118510142D01*
X186854116Y-118898477D01*
X186763000Y-119356549D01*
X186617000Y-119356549D01*
X186525884Y-118898477D01*
X186266407Y-118510142D01*
X185878072Y-118250665D01*
X185420000Y-118159549D01*
X184961928Y-118250665D01*
X184573593Y-118510142D01*
X184314116Y-118898477D01*
X184223000Y-119356549D01*
X184077000Y-119356549D01*
X183985884Y-118898477D01*
X183726407Y-118510142D01*
X183338072Y-118250665D01*
X182880000Y-118159549D01*
X182421928Y-118250665D01*
X182033593Y-118510142D01*
X181774116Y-118898477D01*
X181683000Y-119356549D01*
X181537000Y-119356549D01*
X181445884Y-118898477D01*
X181186407Y-118510142D01*
X180798072Y-118250665D01*
X180340000Y-118159549D01*
X179881928Y-118250665D01*
X179493593Y-118510142D01*
X179234116Y-118898477D01*
X179143000Y-119356549D01*
X178997000Y-119356549D01*
X178905884Y-118898477D01*
X178646407Y-118510142D01*
X178258072Y-118250665D01*
X177800000Y-118159549D01*
X177341928Y-118250665D01*
X176953593Y-118510142D01*
X176694116Y-118898477D01*
X176603000Y-119356549D01*
X173917000Y-119356549D01*
X173825884Y-118898477D01*
X173566407Y-118510142D01*
X173178072Y-118250665D01*
X172720000Y-118159549D01*
X172261928Y-118250665D01*
X171873593Y-118510142D01*
X171614116Y-118898477D01*
X171523000Y-119356549D01*
X171377000Y-119356549D01*
X171285884Y-118898477D01*
X171026407Y-118510142D01*
X170638072Y-118250665D01*
X170180000Y-118159549D01*
X169721928Y-118250665D01*
X169333593Y-118510142D01*
X169074116Y-118898477D01*
X168983000Y-119356549D01*
X168837000Y-119356549D01*
X168745884Y-118898477D01*
X168486407Y-118510142D01*
X168098072Y-118250665D01*
X167640000Y-118159549D01*
X167181928Y-118250665D01*
X166793593Y-118510142D01*
X166534116Y-118898477D01*
X166443000Y-119356549D01*
X166297000Y-119356549D01*
X166205884Y-118898477D01*
X165946407Y-118510142D01*
X165558072Y-118250665D01*
X165100000Y-118159549D01*
X164641928Y-118250665D01*
X164253593Y-118510142D01*
X163994116Y-118898477D01*
X163903000Y-119356549D01*
X127231000Y-119356549D01*
X127231000Y-118057955D01*
X140309490Y-118057955D01*
X140405960Y-118291428D01*
X140584432Y-118470213D01*
X140817737Y-118567089D01*
X141070355Y-118567310D01*
X141303828Y-118470840D01*
X141482613Y-118292368D01*
X141579489Y-118059063D01*
X141579710Y-117806445D01*
X141483240Y-117572972D01*
X141304768Y-117394187D01*
X141071463Y-117297311D01*
X140818845Y-117297090D01*
X140585372Y-117393560D01*
X140406587Y-117572032D01*
X140309711Y-117805337D01*
X140309490Y-118057955D01*
X127231000Y-118057955D01*
X127231000Y-116350559D01*
X171476872Y-116350559D01*
X171588534Y-116620800D01*
X171795112Y-116827740D01*
X172065158Y-116939873D01*
X172357559Y-116940128D01*
X172627800Y-116828466D01*
X172634310Y-116821967D01*
X239679038Y-116821967D01*
X239821083Y-117165743D01*
X240083873Y-117428992D01*
X240427401Y-117571638D01*
X240799367Y-117571962D01*
X241143143Y-117429917D01*
X241406392Y-117167127D01*
X241549038Y-116823599D01*
X241549362Y-116451633D01*
X241407317Y-116107857D01*
X241144527Y-115844608D01*
X240800999Y-115701962D01*
X240429033Y-115701638D01*
X240085257Y-115843683D01*
X239822008Y-116106473D01*
X239679362Y-116450001D01*
X239679038Y-116821967D01*
X172634310Y-116821967D01*
X172834740Y-116621888D01*
X172946873Y-116351842D01*
X172947128Y-116059441D01*
X172835466Y-115789200D01*
X172628888Y-115582260D01*
X172358842Y-115470127D01*
X172066441Y-115469872D01*
X171796200Y-115581534D01*
X171589260Y-115788112D01*
X171477127Y-116058158D01*
X171476872Y-116350559D01*
X127231000Y-116350559D01*
X127231000Y-115543355D01*
X149834490Y-115543355D01*
X149930960Y-115776828D01*
X150109432Y-115955613D01*
X150342737Y-116052489D01*
X150595355Y-116052710D01*
X150828828Y-115956240D01*
X151007613Y-115777768D01*
X151104489Y-115544463D01*
X151104710Y-115291845D01*
X151008240Y-115058372D01*
X150829768Y-114879587D01*
X150596463Y-114782711D01*
X150343845Y-114782490D01*
X150110372Y-114878960D01*
X149931587Y-115057432D01*
X149834711Y-115290737D01*
X149834490Y-115543355D01*
X127231000Y-115543355D01*
X127231000Y-114445559D01*
X178233272Y-114445559D01*
X178344934Y-114715800D01*
X178551512Y-114922740D01*
X178821558Y-115034873D01*
X179113959Y-115035128D01*
X179384200Y-114923466D01*
X179591140Y-114716888D01*
X179703273Y-114446842D01*
X179703528Y-114154441D01*
X179591866Y-113884200D01*
X179385288Y-113677260D01*
X179115242Y-113565127D01*
X178822841Y-113564872D01*
X178552600Y-113676534D01*
X178345660Y-113883112D01*
X178233527Y-114153158D01*
X178233272Y-114445559D01*
X127231000Y-114445559D01*
X127231000Y-89154481D01*
X160004777Y-89154481D01*
X160199995Y-89626943D01*
X160561155Y-89988735D01*
X160998182Y-90170205D01*
X160563057Y-90349995D01*
X160201265Y-90711155D01*
X160005223Y-91183276D01*
X160004777Y-91694481D01*
X160199995Y-92166943D01*
X160561155Y-92528735D01*
X160998182Y-92710205D01*
X160563057Y-92889995D01*
X160201265Y-93251155D01*
X160005223Y-93723276D01*
X160004777Y-94234481D01*
X160199995Y-94706943D01*
X160561155Y-95068735D01*
X160998182Y-95250205D01*
X160563057Y-95429995D01*
X160201265Y-95791155D01*
X160005223Y-96263276D01*
X160004777Y-96774481D01*
X160199995Y-97246943D01*
X160561155Y-97608735D01*
X160998182Y-97790205D01*
X160563057Y-97969995D01*
X160201265Y-98331155D01*
X160005223Y-98803276D01*
X160004777Y-99314481D01*
X160199995Y-99786943D01*
X160561155Y-100148735D01*
X160998182Y-100330205D01*
X160563057Y-100509995D01*
X160201265Y-100871155D01*
X160005223Y-101343276D01*
X160004777Y-101854481D01*
X160199995Y-102326943D01*
X160561155Y-102688735D01*
X160998182Y-102870205D01*
X160563057Y-103049995D01*
X160201265Y-103411155D01*
X160005223Y-103883276D01*
X160004777Y-104394481D01*
X160199995Y-104866943D01*
X160561155Y-105228735D01*
X160998182Y-105410205D01*
X160563057Y-105589995D01*
X160201265Y-105951155D01*
X160005223Y-106423276D01*
X160004777Y-106934481D01*
X160199995Y-107406943D01*
X160561155Y-107768735D01*
X160998182Y-107950205D01*
X160563057Y-108129995D01*
X160201265Y-108491155D01*
X160005223Y-108963276D01*
X160004777Y-109474481D01*
X160199995Y-109946943D01*
X160561155Y-110308735D01*
X160998182Y-110490205D01*
X160563057Y-110669995D01*
X160201265Y-111031155D01*
X160005223Y-111503276D01*
X160004777Y-112014481D01*
X160199995Y-112486943D01*
X160561155Y-112848735D01*
X161033276Y-113044777D01*
X161544481Y-113045223D01*
X162016943Y-112850005D01*
X162378735Y-112488845D01*
X162545000Y-112088435D01*
X162545000Y-112696527D01*
X162611225Y-112856408D01*
X162733592Y-112978775D01*
X162893473Y-113045000D01*
X163694250Y-113045000D01*
X163803000Y-112936250D01*
X163803000Y-111787000D01*
X163857000Y-111787000D01*
X163857000Y-112936250D01*
X163965750Y-113045000D01*
X164766527Y-113045000D01*
X164926408Y-112978775D01*
X165048775Y-112856408D01*
X165115000Y-112696527D01*
X165115000Y-111895750D01*
X165006250Y-111787000D01*
X163857000Y-111787000D01*
X163803000Y-111787000D01*
X163783000Y-111787000D01*
X163783000Y-111733000D01*
X163803000Y-111733000D01*
X163803000Y-111713000D01*
X163857000Y-111713000D01*
X163857000Y-111733000D01*
X165006250Y-111733000D01*
X165115000Y-111624250D01*
X165115000Y-110823473D01*
X165048775Y-110663592D01*
X164926408Y-110541225D01*
X164766527Y-110475000D01*
X164157626Y-110475000D01*
X164556943Y-110310005D01*
X164918735Y-109948845D01*
X165114777Y-109476724D01*
X165115223Y-108965519D01*
X164920005Y-108493057D01*
X164558845Y-108131265D01*
X164121818Y-107949795D01*
X164556943Y-107770005D01*
X164918735Y-107408845D01*
X165114777Y-106936724D01*
X165115223Y-106425519D01*
X164920005Y-105953057D01*
X164558845Y-105591265D01*
X164534026Y-105580959D01*
X180011272Y-105580959D01*
X180122934Y-105851200D01*
X180329512Y-106058140D01*
X180599558Y-106170273D01*
X180891959Y-106170528D01*
X181162200Y-106058866D01*
X181369140Y-105852288D01*
X181481273Y-105582242D01*
X181481528Y-105289841D01*
X181369866Y-105019600D01*
X181163288Y-104812660D01*
X180893242Y-104700527D01*
X180600841Y-104700272D01*
X180330600Y-104811934D01*
X180123660Y-105018512D01*
X180011527Y-105288558D01*
X180011272Y-105580959D01*
X164534026Y-105580959D01*
X164121818Y-105409795D01*
X164556943Y-105230005D01*
X164918735Y-104868845D01*
X165114777Y-104396724D01*
X165115223Y-103885519D01*
X164920005Y-103413057D01*
X164579499Y-103071955D01*
X169163890Y-103071955D01*
X169260360Y-103305428D01*
X169438832Y-103484213D01*
X169672137Y-103581089D01*
X169924755Y-103581310D01*
X170158228Y-103484840D01*
X170337013Y-103306368D01*
X170433889Y-103073063D01*
X170434110Y-102820445D01*
X170337640Y-102586972D01*
X170159168Y-102408187D01*
X169925863Y-102311311D01*
X169673245Y-102311090D01*
X169439772Y-102407560D01*
X169260987Y-102586032D01*
X169164111Y-102819337D01*
X169163890Y-103071955D01*
X164579499Y-103071955D01*
X164558845Y-103051265D01*
X164121818Y-102869795D01*
X164556943Y-102690005D01*
X164918735Y-102328845D01*
X165114777Y-101856724D01*
X165115223Y-101345519D01*
X164955169Y-100958159D01*
X178182472Y-100958159D01*
X178294134Y-101228400D01*
X178500712Y-101435340D01*
X178770758Y-101547473D01*
X179063159Y-101547728D01*
X179333400Y-101436066D01*
X179540340Y-101229488D01*
X179652473Y-100959442D01*
X179652728Y-100667041D01*
X179541066Y-100396800D01*
X179334488Y-100189860D01*
X179064442Y-100077727D01*
X178772041Y-100077472D01*
X178501800Y-100189134D01*
X178294860Y-100395712D01*
X178182727Y-100665758D01*
X178182472Y-100958159D01*
X164955169Y-100958159D01*
X164920005Y-100873057D01*
X164558845Y-100511265D01*
X164121818Y-100329795D01*
X164556943Y-100150005D01*
X164918735Y-99788845D01*
X164989860Y-99617555D01*
X170560890Y-99617555D01*
X170657360Y-99851028D01*
X170835832Y-100029813D01*
X171069137Y-100126689D01*
X171321755Y-100126910D01*
X171555228Y-100030440D01*
X171734013Y-99851968D01*
X171830889Y-99618663D01*
X171831110Y-99366045D01*
X171734640Y-99132572D01*
X171556168Y-98953787D01*
X171322863Y-98856911D01*
X171070245Y-98856690D01*
X170836772Y-98953160D01*
X170657987Y-99131632D01*
X170561111Y-99364937D01*
X170560890Y-99617555D01*
X164989860Y-99617555D01*
X165114777Y-99316724D01*
X165115223Y-98805519D01*
X164920005Y-98333057D01*
X164558845Y-97971265D01*
X164121818Y-97789795D01*
X164493171Y-97636355D01*
X168528890Y-97636355D01*
X168625360Y-97869828D01*
X168803832Y-98048613D01*
X169037137Y-98145489D01*
X169289755Y-98145710D01*
X169293034Y-98144355D01*
X170560890Y-98144355D01*
X170657360Y-98377828D01*
X170835832Y-98556613D01*
X171069137Y-98653489D01*
X171321755Y-98653710D01*
X171555228Y-98557240D01*
X171734013Y-98378768D01*
X171820802Y-98169755D01*
X173888290Y-98169755D01*
X173984760Y-98403228D01*
X174163232Y-98582013D01*
X174396537Y-98678889D01*
X174649155Y-98679110D01*
X174882628Y-98582640D01*
X175061413Y-98404168D01*
X175158289Y-98170863D01*
X175158289Y-98169755D01*
X176301290Y-98169755D01*
X176397760Y-98403228D01*
X176444775Y-98450325D01*
X176398387Y-98496632D01*
X176301511Y-98729937D01*
X176301290Y-98982555D01*
X176397760Y-99216028D01*
X176576232Y-99394813D01*
X176809537Y-99491689D01*
X177062155Y-99491910D01*
X177295628Y-99395440D01*
X177474413Y-99216968D01*
X177571289Y-98983663D01*
X177571510Y-98731045D01*
X177475040Y-98497572D01*
X177428025Y-98450475D01*
X177474413Y-98404168D01*
X177571289Y-98170863D01*
X177571289Y-98169755D01*
X179501690Y-98169755D01*
X179598160Y-98403228D01*
X179645175Y-98450325D01*
X179598787Y-98496632D01*
X179501911Y-98729937D01*
X179501690Y-98982555D01*
X179598160Y-99216028D01*
X179776632Y-99394813D01*
X180009937Y-99491689D01*
X180262555Y-99491910D01*
X180496028Y-99395440D01*
X180674813Y-99216968D01*
X180771689Y-98983663D01*
X180771801Y-98855555D01*
X180974890Y-98855555D01*
X181071360Y-99089028D01*
X181249832Y-99267813D01*
X181483137Y-99364689D01*
X181735755Y-99364910D01*
X181969228Y-99268440D01*
X182148013Y-99089968D01*
X182244889Y-98856663D01*
X182244993Y-98737167D01*
X183367238Y-98737167D01*
X183509283Y-99080943D01*
X183772073Y-99344192D01*
X184115601Y-99486838D01*
X184487567Y-99487162D01*
X184831343Y-99345117D01*
X185094592Y-99082327D01*
X185237238Y-98738799D01*
X185237562Y-98366833D01*
X185095517Y-98023057D01*
X184832727Y-97759808D01*
X184489199Y-97617162D01*
X184117233Y-97616838D01*
X183773457Y-97758883D01*
X183510208Y-98021673D01*
X183367562Y-98365201D01*
X183367238Y-98737167D01*
X182244993Y-98737167D01*
X182245110Y-98604045D01*
X182148640Y-98370572D01*
X181970168Y-98191787D01*
X181736863Y-98094911D01*
X181484245Y-98094690D01*
X181250772Y-98191160D01*
X181071987Y-98369632D01*
X180975111Y-98602937D01*
X180974890Y-98855555D01*
X180771801Y-98855555D01*
X180771910Y-98731045D01*
X180675440Y-98497572D01*
X180628425Y-98450475D01*
X180674813Y-98404168D01*
X180771689Y-98170863D01*
X180771910Y-97918245D01*
X180675440Y-97684772D01*
X180496968Y-97505987D01*
X180263663Y-97409111D01*
X180011045Y-97408890D01*
X179777572Y-97505360D01*
X179598787Y-97683832D01*
X179501911Y-97917137D01*
X179501690Y-98169755D01*
X177571289Y-98169755D01*
X177571510Y-97918245D01*
X177475040Y-97684772D01*
X177296568Y-97505987D01*
X177063263Y-97409111D01*
X176810645Y-97408890D01*
X176577172Y-97505360D01*
X176398387Y-97683832D01*
X176301511Y-97917137D01*
X176301290Y-98169755D01*
X175158289Y-98169755D01*
X175158510Y-97918245D01*
X175062040Y-97684772D01*
X174883568Y-97505987D01*
X174650263Y-97409111D01*
X174397645Y-97408890D01*
X174164172Y-97505360D01*
X173985387Y-97683832D01*
X173888511Y-97917137D01*
X173888290Y-98169755D01*
X171820802Y-98169755D01*
X171830889Y-98145463D01*
X171831110Y-97892845D01*
X171830614Y-97891644D01*
X171905955Y-97891710D01*
X172139428Y-97795240D01*
X172318213Y-97616768D01*
X172415089Y-97383463D01*
X172415310Y-97130845D01*
X172318840Y-96897372D01*
X172140368Y-96718587D01*
X171907063Y-96621711D01*
X171654445Y-96621490D01*
X171420972Y-96717960D01*
X171242187Y-96896432D01*
X171145311Y-97129737D01*
X171145090Y-97382355D01*
X171145586Y-97383556D01*
X171070245Y-97383490D01*
X170836772Y-97479960D01*
X170657987Y-97658432D01*
X170561111Y-97891737D01*
X170560890Y-98144355D01*
X169293034Y-98144355D01*
X169523228Y-98049240D01*
X169702013Y-97870768D01*
X169798889Y-97637463D01*
X169799110Y-97384845D01*
X169702640Y-97151372D01*
X169524168Y-96972587D01*
X169290863Y-96875711D01*
X169038245Y-96875490D01*
X168804772Y-96971960D01*
X168625987Y-97150432D01*
X168529111Y-97383737D01*
X168528890Y-97636355D01*
X164493171Y-97636355D01*
X164556943Y-97610005D01*
X164918735Y-97248845D01*
X165114777Y-96776724D01*
X165114979Y-96544155D01*
X175513890Y-96544155D01*
X175610360Y-96777628D01*
X175788832Y-96956413D01*
X176022137Y-97053289D01*
X176274755Y-97053510D01*
X176508228Y-96957040D01*
X176687013Y-96778568D01*
X176783889Y-96545263D01*
X176784110Y-96292645D01*
X176687640Y-96059172D01*
X176509168Y-95880387D01*
X176275863Y-95783511D01*
X176023245Y-95783290D01*
X175789772Y-95879760D01*
X175610987Y-96058232D01*
X175514111Y-96291537D01*
X175513890Y-96544155D01*
X165114979Y-96544155D01*
X165115223Y-96265519D01*
X164920005Y-95793057D01*
X164909123Y-95782155D01*
X173100890Y-95782155D01*
X173197360Y-96015628D01*
X173375832Y-96194413D01*
X173609137Y-96291289D01*
X173861755Y-96291510D01*
X174095228Y-96195040D01*
X174274013Y-96016568D01*
X174370889Y-95783263D01*
X174370889Y-95782155D01*
X178688890Y-95782155D01*
X178785360Y-96015628D01*
X178963832Y-96194413D01*
X179197137Y-96291289D01*
X179449755Y-96291510D01*
X179683228Y-96195040D01*
X179862013Y-96016568D01*
X179958889Y-95783263D01*
X179959110Y-95530645D01*
X179919659Y-95435167D01*
X182300438Y-95435167D01*
X182442483Y-95778943D01*
X182705273Y-96042192D01*
X183048801Y-96184838D01*
X183420767Y-96185162D01*
X183764543Y-96043117D01*
X184027792Y-95780327D01*
X184170438Y-95436799D01*
X184170762Y-95064833D01*
X184028717Y-94721057D01*
X183765927Y-94457808D01*
X183422399Y-94315162D01*
X183050433Y-94314838D01*
X182706657Y-94456883D01*
X182443408Y-94719673D01*
X182300762Y-95063201D01*
X182300438Y-95435167D01*
X179919659Y-95435167D01*
X179862640Y-95297172D01*
X179684168Y-95118387D01*
X179450863Y-95021511D01*
X179198245Y-95021290D01*
X178964772Y-95117760D01*
X178785987Y-95296232D01*
X178689111Y-95529537D01*
X178688890Y-95782155D01*
X174370889Y-95782155D01*
X174371110Y-95530645D01*
X174274640Y-95297172D01*
X174096168Y-95118387D01*
X173862863Y-95021511D01*
X173610245Y-95021290D01*
X173376772Y-95117760D01*
X173197987Y-95296232D01*
X173101111Y-95529537D01*
X173100890Y-95782155D01*
X164909123Y-95782155D01*
X164558845Y-95431265D01*
X164121818Y-95249795D01*
X164556943Y-95070005D01*
X164918735Y-94708845D01*
X165095331Y-94283555D01*
X174802690Y-94283555D01*
X174899160Y-94517028D01*
X175077632Y-94695813D01*
X175310937Y-94792689D01*
X175563555Y-94792910D01*
X175797028Y-94696440D01*
X175975813Y-94517968D01*
X176072689Y-94284663D01*
X176072910Y-94032045D01*
X175976440Y-93798572D01*
X175797968Y-93619787D01*
X175564663Y-93522911D01*
X175312045Y-93522690D01*
X175078572Y-93619160D01*
X174899787Y-93797632D01*
X174802911Y-94030937D01*
X174802690Y-94283555D01*
X165095331Y-94283555D01*
X165114777Y-94236724D01*
X165115223Y-93725519D01*
X164920005Y-93253057D01*
X164558845Y-92891265D01*
X164121818Y-92709795D01*
X164431698Y-92581755D01*
X176301290Y-92581755D01*
X176397760Y-92815228D01*
X176576232Y-92994013D01*
X176809537Y-93090889D01*
X177062155Y-93091110D01*
X177295628Y-92994640D01*
X177474413Y-92816168D01*
X177571289Y-92582863D01*
X177571510Y-92330245D01*
X177475040Y-92096772D01*
X177296568Y-91917987D01*
X177063263Y-91821111D01*
X176810645Y-91820890D01*
X176577172Y-91917360D01*
X176398387Y-92095832D01*
X176301511Y-92329137D01*
X176301290Y-92581755D01*
X164431698Y-92581755D01*
X164556943Y-92530005D01*
X164918735Y-92168845D01*
X165114777Y-91696724D01*
X165115223Y-91185519D01*
X164920005Y-90713057D01*
X164558845Y-90351265D01*
X164121818Y-90169795D01*
X164556943Y-89990005D01*
X164918735Y-89628845D01*
X165114777Y-89156724D01*
X165115223Y-88645519D01*
X164920005Y-88173057D01*
X164558845Y-87811265D01*
X164086724Y-87615223D01*
X163575519Y-87614777D01*
X163103057Y-87809995D01*
X162741265Y-88171155D01*
X162559795Y-88608182D01*
X162380005Y-88173057D01*
X162018845Y-87811265D01*
X161546724Y-87615223D01*
X161035519Y-87614777D01*
X160563057Y-87809995D01*
X160201265Y-88171155D01*
X160005223Y-88643276D01*
X160004777Y-89154481D01*
X127231000Y-89154481D01*
X127231000Y-83370167D01*
X239094838Y-83370167D01*
X239236883Y-83713943D01*
X239499673Y-83977192D01*
X239843201Y-84119838D01*
X240215167Y-84120162D01*
X240558943Y-83978117D01*
X240822192Y-83715327D01*
X240964838Y-83371799D01*
X240965162Y-82999833D01*
X240823117Y-82656057D01*
X240560327Y-82392808D01*
X240216799Y-82250162D01*
X239844833Y-82249838D01*
X239501057Y-82391883D01*
X239237808Y-82654673D01*
X239095162Y-82998201D01*
X239094838Y-83370167D01*
X127231000Y-83370167D01*
X127231000Y-81256549D01*
X149679000Y-81256549D01*
X149679000Y-81303451D01*
X149770116Y-81761523D01*
X150029593Y-82149858D01*
X150417928Y-82409335D01*
X150876000Y-82500451D01*
X151334072Y-82409335D01*
X151722407Y-82149858D01*
X151981884Y-81761523D01*
X152073000Y-81303451D01*
X152073000Y-81256549D01*
X152219000Y-81256549D01*
X152219000Y-81303451D01*
X152310116Y-81761523D01*
X152569593Y-82149858D01*
X152957928Y-82409335D01*
X153416000Y-82500451D01*
X153874072Y-82409335D01*
X154262407Y-82149858D01*
X154521884Y-81761523D01*
X154613000Y-81303451D01*
X154613000Y-81256549D01*
X154759000Y-81256549D01*
X154759000Y-81303451D01*
X154850116Y-81761523D01*
X155109593Y-82149858D01*
X155497928Y-82409335D01*
X155956000Y-82500451D01*
X156414072Y-82409335D01*
X156802407Y-82149858D01*
X157061884Y-81761523D01*
X157153000Y-81303451D01*
X157153000Y-81256549D01*
X157299000Y-81256549D01*
X157299000Y-81303451D01*
X157390116Y-81761523D01*
X157649593Y-82149858D01*
X158037928Y-82409335D01*
X158496000Y-82500451D01*
X158954072Y-82409335D01*
X159342407Y-82149858D01*
X159601884Y-81761523D01*
X159693000Y-81303451D01*
X159693000Y-81256549D01*
X159839000Y-81256549D01*
X159839000Y-81303451D01*
X159930116Y-81761523D01*
X160189593Y-82149858D01*
X160577928Y-82409335D01*
X161036000Y-82500451D01*
X161494072Y-82409335D01*
X161882407Y-82149858D01*
X162141884Y-81761523D01*
X162233000Y-81303451D01*
X162233000Y-81256549D01*
X162379000Y-81256549D01*
X162379000Y-81303451D01*
X162470116Y-81761523D01*
X162729593Y-82149858D01*
X163117928Y-82409335D01*
X163576000Y-82500451D01*
X164034072Y-82409335D01*
X164422407Y-82149858D01*
X164681884Y-81761523D01*
X164773000Y-81303451D01*
X164773000Y-81256549D01*
X164919000Y-81256549D01*
X164919000Y-81303451D01*
X165010116Y-81761523D01*
X165269593Y-82149858D01*
X165657928Y-82409335D01*
X166116000Y-82500451D01*
X166574072Y-82409335D01*
X166962407Y-82149858D01*
X167221884Y-81761523D01*
X167313000Y-81303451D01*
X167313000Y-81256549D01*
X167459000Y-81256549D01*
X167459000Y-81303451D01*
X167550116Y-81761523D01*
X167809593Y-82149858D01*
X168197928Y-82409335D01*
X168656000Y-82500451D01*
X169114072Y-82409335D01*
X169502407Y-82149858D01*
X169761884Y-81761523D01*
X169853000Y-81303451D01*
X169853000Y-81256549D01*
X171523000Y-81256549D01*
X171523000Y-81303451D01*
X171614116Y-81761523D01*
X171873593Y-82149858D01*
X172261928Y-82409335D01*
X172720000Y-82500451D01*
X173178072Y-82409335D01*
X173566407Y-82149858D01*
X173825884Y-81761523D01*
X173917000Y-81303451D01*
X173917000Y-81256549D01*
X174063000Y-81256549D01*
X174063000Y-81303451D01*
X174154116Y-81761523D01*
X174413593Y-82149858D01*
X174801928Y-82409335D01*
X175260000Y-82500451D01*
X175718072Y-82409335D01*
X176106407Y-82149858D01*
X176365884Y-81761523D01*
X176457000Y-81303451D01*
X176457000Y-81256549D01*
X176603000Y-81256549D01*
X176603000Y-81303451D01*
X176694116Y-81761523D01*
X176953593Y-82149858D01*
X177341928Y-82409335D01*
X177800000Y-82500451D01*
X178258072Y-82409335D01*
X178646407Y-82149858D01*
X178905884Y-81761523D01*
X178997000Y-81303451D01*
X178997000Y-81256549D01*
X179143000Y-81256549D01*
X179143000Y-81303451D01*
X179234116Y-81761523D01*
X179493593Y-82149858D01*
X179881928Y-82409335D01*
X180340000Y-82500451D01*
X180798072Y-82409335D01*
X181186407Y-82149858D01*
X181445884Y-81761523D01*
X181537000Y-81303451D01*
X181537000Y-81256549D01*
X181683000Y-81256549D01*
X181683000Y-81303451D01*
X181774116Y-81761523D01*
X182033593Y-82149858D01*
X182421928Y-82409335D01*
X182880000Y-82500451D01*
X183338072Y-82409335D01*
X183726407Y-82149858D01*
X183985884Y-81761523D01*
X184077000Y-81303451D01*
X184077000Y-81256549D01*
X184223000Y-81256549D01*
X184223000Y-81303451D01*
X184314116Y-81761523D01*
X184573593Y-82149858D01*
X184961928Y-82409335D01*
X185420000Y-82500451D01*
X185878072Y-82409335D01*
X186266407Y-82149858D01*
X186525884Y-81761523D01*
X186617000Y-81303451D01*
X186617000Y-81256549D01*
X186763000Y-81256549D01*
X186763000Y-81303451D01*
X186854116Y-81761523D01*
X187113593Y-82149858D01*
X187501928Y-82409335D01*
X187960000Y-82500451D01*
X188418072Y-82409335D01*
X188806407Y-82149858D01*
X189065884Y-81761523D01*
X189157000Y-81303451D01*
X189157000Y-81256549D01*
X189303000Y-81256549D01*
X189303000Y-81303451D01*
X189394116Y-81761523D01*
X189653593Y-82149858D01*
X190041928Y-82409335D01*
X190500000Y-82500451D01*
X190958072Y-82409335D01*
X191346407Y-82149858D01*
X191605884Y-81761523D01*
X191697000Y-81303451D01*
X191697000Y-81256549D01*
X191605884Y-80798477D01*
X191346407Y-80410142D01*
X190958072Y-80150665D01*
X190500000Y-80059549D01*
X190041928Y-80150665D01*
X189653593Y-80410142D01*
X189394116Y-80798477D01*
X189303000Y-81256549D01*
X189157000Y-81256549D01*
X189065884Y-80798477D01*
X188806407Y-80410142D01*
X188418072Y-80150665D01*
X187960000Y-80059549D01*
X187501928Y-80150665D01*
X187113593Y-80410142D01*
X186854116Y-80798477D01*
X186763000Y-81256549D01*
X186617000Y-81256549D01*
X186525884Y-80798477D01*
X186266407Y-80410142D01*
X185878072Y-80150665D01*
X185420000Y-80059549D01*
X184961928Y-80150665D01*
X184573593Y-80410142D01*
X184314116Y-80798477D01*
X184223000Y-81256549D01*
X184077000Y-81256549D01*
X183985884Y-80798477D01*
X183726407Y-80410142D01*
X183338072Y-80150665D01*
X182880000Y-80059549D01*
X182421928Y-80150665D01*
X182033593Y-80410142D01*
X181774116Y-80798477D01*
X181683000Y-81256549D01*
X181537000Y-81256549D01*
X181445884Y-80798477D01*
X181186407Y-80410142D01*
X180798072Y-80150665D01*
X180340000Y-80059549D01*
X179881928Y-80150665D01*
X179493593Y-80410142D01*
X179234116Y-80798477D01*
X179143000Y-81256549D01*
X178997000Y-81256549D01*
X178905884Y-80798477D01*
X178646407Y-80410142D01*
X178258072Y-80150665D01*
X177800000Y-80059549D01*
X177341928Y-80150665D01*
X176953593Y-80410142D01*
X176694116Y-80798477D01*
X176603000Y-81256549D01*
X176457000Y-81256549D01*
X176365884Y-80798477D01*
X176106407Y-80410142D01*
X175718072Y-80150665D01*
X175260000Y-80059549D01*
X174801928Y-80150665D01*
X174413593Y-80410142D01*
X174154116Y-80798477D01*
X174063000Y-81256549D01*
X173917000Y-81256549D01*
X173825884Y-80798477D01*
X173566407Y-80410142D01*
X173178072Y-80150665D01*
X172720000Y-80059549D01*
X172261928Y-80150665D01*
X171873593Y-80410142D01*
X171614116Y-80798477D01*
X171523000Y-81256549D01*
X169853000Y-81256549D01*
X169761884Y-80798477D01*
X169502407Y-80410142D01*
X169114072Y-80150665D01*
X168656000Y-80059549D01*
X168197928Y-80150665D01*
X167809593Y-80410142D01*
X167550116Y-80798477D01*
X167459000Y-81256549D01*
X167313000Y-81256549D01*
X167221884Y-80798477D01*
X166962407Y-80410142D01*
X166574072Y-80150665D01*
X166116000Y-80059549D01*
X165657928Y-80150665D01*
X165269593Y-80410142D01*
X165010116Y-80798477D01*
X164919000Y-81256549D01*
X164773000Y-81256549D01*
X164681884Y-80798477D01*
X164422407Y-80410142D01*
X164034072Y-80150665D01*
X163576000Y-80059549D01*
X163117928Y-80150665D01*
X162729593Y-80410142D01*
X162470116Y-80798477D01*
X162379000Y-81256549D01*
X162233000Y-81256549D01*
X162141884Y-80798477D01*
X161882407Y-80410142D01*
X161494072Y-80150665D01*
X161036000Y-80059549D01*
X160577928Y-80150665D01*
X160189593Y-80410142D01*
X159930116Y-80798477D01*
X159839000Y-81256549D01*
X159693000Y-81256549D01*
X159601884Y-80798477D01*
X159342407Y-80410142D01*
X158954072Y-80150665D01*
X158496000Y-80059549D01*
X158037928Y-80150665D01*
X157649593Y-80410142D01*
X157390116Y-80798477D01*
X157299000Y-81256549D01*
X157153000Y-81256549D01*
X157061884Y-80798477D01*
X156802407Y-80410142D01*
X156414072Y-80150665D01*
X155956000Y-80059549D01*
X155497928Y-80150665D01*
X155109593Y-80410142D01*
X154850116Y-80798477D01*
X154759000Y-81256549D01*
X154613000Y-81256549D01*
X154521884Y-80798477D01*
X154262407Y-80410142D01*
X153874072Y-80150665D01*
X153416000Y-80059549D01*
X152957928Y-80150665D01*
X152569593Y-80410142D01*
X152310116Y-80798477D01*
X152219000Y-81256549D01*
X152073000Y-81256549D01*
X151981884Y-80798477D01*
X151722407Y-80410142D01*
X151334072Y-80150665D01*
X150876000Y-80059549D01*
X150417928Y-80150665D01*
X150029593Y-80410142D01*
X149770116Y-80798477D01*
X149679000Y-81256549D01*
X127231000Y-81256549D01*
X127231000Y-78976954D01*
X149679293Y-78976954D01*
X149861065Y-79416877D01*
X150197352Y-79753752D01*
X150636957Y-79936292D01*
X151112954Y-79936707D01*
X151552877Y-79754935D01*
X151889752Y-79418648D01*
X152072292Y-78979043D01*
X152072293Y-78977054D01*
X152218792Y-78977054D01*
X152400641Y-79417160D01*
X152737068Y-79754176D01*
X153176857Y-79936792D01*
X153653054Y-79937208D01*
X154093160Y-79755359D01*
X154430176Y-79418932D01*
X154612792Y-78979143D01*
X154612793Y-78977054D01*
X154758792Y-78977054D01*
X154940641Y-79417160D01*
X155277068Y-79754176D01*
X155716857Y-79936792D01*
X156193054Y-79937208D01*
X156633160Y-79755359D01*
X156970176Y-79418932D01*
X157152792Y-78979143D01*
X157152793Y-78977054D01*
X157298792Y-78977054D01*
X157480641Y-79417160D01*
X157817068Y-79754176D01*
X158256857Y-79936792D01*
X158733054Y-79937208D01*
X159173160Y-79755359D01*
X159510176Y-79418932D01*
X159692792Y-78979143D01*
X159692793Y-78977054D01*
X159838792Y-78977054D01*
X160020641Y-79417160D01*
X160357068Y-79754176D01*
X160796857Y-79936792D01*
X161273054Y-79937208D01*
X161713160Y-79755359D01*
X162050176Y-79418932D01*
X162232792Y-78979143D01*
X162232793Y-78977054D01*
X162378792Y-78977054D01*
X162560641Y-79417160D01*
X162897068Y-79754176D01*
X163336857Y-79936792D01*
X163813054Y-79937208D01*
X164253160Y-79755359D01*
X164590176Y-79418932D01*
X164772792Y-78979143D01*
X164772793Y-78977054D01*
X164918792Y-78977054D01*
X165100641Y-79417160D01*
X165437068Y-79754176D01*
X165876857Y-79936792D01*
X166353054Y-79937208D01*
X166793160Y-79755359D01*
X167130176Y-79418932D01*
X167312792Y-78979143D01*
X167312793Y-78977054D01*
X167458792Y-78977054D01*
X167640641Y-79417160D01*
X167977068Y-79754176D01*
X168416857Y-79936792D01*
X168893054Y-79937208D01*
X169333160Y-79755359D01*
X169670176Y-79418932D01*
X169852792Y-78979143D01*
X169852793Y-78977054D01*
X171522792Y-78977054D01*
X171704641Y-79417160D01*
X172041068Y-79754176D01*
X172480857Y-79936792D01*
X172957054Y-79937208D01*
X173397160Y-79755359D01*
X173734176Y-79418932D01*
X173916792Y-78979143D01*
X173916793Y-78977054D01*
X174062792Y-78977054D01*
X174244641Y-79417160D01*
X174581068Y-79754176D01*
X175020857Y-79936792D01*
X175497054Y-79937208D01*
X175937160Y-79755359D01*
X176274176Y-79418932D01*
X176456792Y-78979143D01*
X176456793Y-78977054D01*
X176602792Y-78977054D01*
X176784641Y-79417160D01*
X177121068Y-79754176D01*
X177560857Y-79936792D01*
X178037054Y-79937208D01*
X178477160Y-79755359D01*
X178814176Y-79418932D01*
X178996792Y-78979143D01*
X178996793Y-78977054D01*
X179142792Y-78977054D01*
X179324641Y-79417160D01*
X179661068Y-79754176D01*
X180100857Y-79936792D01*
X180577054Y-79937208D01*
X181017160Y-79755359D01*
X181354176Y-79418932D01*
X181536792Y-78979143D01*
X181536793Y-78977054D01*
X181682792Y-78977054D01*
X181864641Y-79417160D01*
X182201068Y-79754176D01*
X182640857Y-79936792D01*
X183117054Y-79937208D01*
X183557160Y-79755359D01*
X183894176Y-79418932D01*
X184076792Y-78979143D01*
X184076793Y-78977054D01*
X184222792Y-78977054D01*
X184404641Y-79417160D01*
X184741068Y-79754176D01*
X185180857Y-79936792D01*
X185657054Y-79937208D01*
X186097160Y-79755359D01*
X186434176Y-79418932D01*
X186616792Y-78979143D01*
X186616793Y-78977054D01*
X186762792Y-78977054D01*
X186944641Y-79417160D01*
X187281068Y-79754176D01*
X187720857Y-79936792D01*
X188197054Y-79937208D01*
X188637160Y-79755359D01*
X188974176Y-79418932D01*
X189156792Y-78979143D01*
X189156793Y-78977054D01*
X189302792Y-78977054D01*
X189484641Y-79417160D01*
X189821068Y-79754176D01*
X190260857Y-79936792D01*
X190737054Y-79937208D01*
X191177160Y-79755359D01*
X191514176Y-79418932D01*
X191696792Y-78979143D01*
X191697208Y-78502946D01*
X191515359Y-78062840D01*
X191178932Y-77725824D01*
X190739143Y-77543208D01*
X190262946Y-77542792D01*
X189822840Y-77724641D01*
X189485824Y-78061068D01*
X189303208Y-78500857D01*
X189302792Y-78977054D01*
X189156793Y-78977054D01*
X189157208Y-78502946D01*
X188975359Y-78062840D01*
X188638932Y-77725824D01*
X188199143Y-77543208D01*
X187722946Y-77542792D01*
X187282840Y-77724641D01*
X186945824Y-78061068D01*
X186763208Y-78500857D01*
X186762792Y-78977054D01*
X186616793Y-78977054D01*
X186617208Y-78502946D01*
X186435359Y-78062840D01*
X186098932Y-77725824D01*
X185659143Y-77543208D01*
X185182946Y-77542792D01*
X184742840Y-77724641D01*
X184405824Y-78061068D01*
X184223208Y-78500857D01*
X184222792Y-78977054D01*
X184076793Y-78977054D01*
X184077208Y-78502946D01*
X183895359Y-78062840D01*
X183558932Y-77725824D01*
X183119143Y-77543208D01*
X182642946Y-77542792D01*
X182202840Y-77724641D01*
X181865824Y-78061068D01*
X181683208Y-78500857D01*
X181682792Y-78977054D01*
X181536793Y-78977054D01*
X181537208Y-78502946D01*
X181355359Y-78062840D01*
X181018932Y-77725824D01*
X180579143Y-77543208D01*
X180102946Y-77542792D01*
X179662840Y-77724641D01*
X179325824Y-78061068D01*
X179143208Y-78500857D01*
X179142792Y-78977054D01*
X178996793Y-78977054D01*
X178997208Y-78502946D01*
X178815359Y-78062840D01*
X178478932Y-77725824D01*
X178039143Y-77543208D01*
X177562946Y-77542792D01*
X177122840Y-77724641D01*
X176785824Y-78061068D01*
X176603208Y-78500857D01*
X176602792Y-78977054D01*
X176456793Y-78977054D01*
X176457208Y-78502946D01*
X176275359Y-78062840D01*
X175938932Y-77725824D01*
X175499143Y-77543208D01*
X175022946Y-77542792D01*
X174582840Y-77724641D01*
X174245824Y-78061068D01*
X174063208Y-78500857D01*
X174062792Y-78977054D01*
X173916793Y-78977054D01*
X173917208Y-78502946D01*
X173735359Y-78062840D01*
X173398932Y-77725824D01*
X172959143Y-77543208D01*
X172482946Y-77542792D01*
X172042840Y-77724641D01*
X171705824Y-78061068D01*
X171523208Y-78500857D01*
X171522792Y-78977054D01*
X169852793Y-78977054D01*
X169853208Y-78502946D01*
X169671359Y-78062840D01*
X169334932Y-77725824D01*
X168895143Y-77543208D01*
X168418946Y-77542792D01*
X167978840Y-77724641D01*
X167641824Y-78061068D01*
X167459208Y-78500857D01*
X167458792Y-78977054D01*
X167312793Y-78977054D01*
X167313208Y-78502946D01*
X167131359Y-78062840D01*
X166794932Y-77725824D01*
X166355143Y-77543208D01*
X165878946Y-77542792D01*
X165438840Y-77724641D01*
X165101824Y-78061068D01*
X164919208Y-78500857D01*
X164918792Y-78977054D01*
X164772793Y-78977054D01*
X164773208Y-78502946D01*
X164591359Y-78062840D01*
X164254932Y-77725824D01*
X163815143Y-77543208D01*
X163338946Y-77542792D01*
X162898840Y-77724641D01*
X162561824Y-78061068D01*
X162379208Y-78500857D01*
X162378792Y-78977054D01*
X162232793Y-78977054D01*
X162233208Y-78502946D01*
X162051359Y-78062840D01*
X161714932Y-77725824D01*
X161275143Y-77543208D01*
X160798946Y-77542792D01*
X160358840Y-77724641D01*
X160021824Y-78061068D01*
X159839208Y-78500857D01*
X159838792Y-78977054D01*
X159692793Y-78977054D01*
X159693208Y-78502946D01*
X159511359Y-78062840D01*
X159174932Y-77725824D01*
X158735143Y-77543208D01*
X158258946Y-77542792D01*
X157818840Y-77724641D01*
X157481824Y-78061068D01*
X157299208Y-78500857D01*
X157298792Y-78977054D01*
X157152793Y-78977054D01*
X157153208Y-78502946D01*
X156971359Y-78062840D01*
X156634932Y-77725824D01*
X156195143Y-77543208D01*
X155718946Y-77542792D01*
X155278840Y-77724641D01*
X154941824Y-78061068D01*
X154759208Y-78500857D01*
X154758792Y-78977054D01*
X154612793Y-78977054D01*
X154613208Y-78502946D01*
X154431359Y-78062840D01*
X154094932Y-77725824D01*
X153655143Y-77543208D01*
X153178946Y-77542792D01*
X152738840Y-77724641D01*
X152401824Y-78061068D01*
X152219208Y-78500857D01*
X152218792Y-78977054D01*
X152072293Y-78977054D01*
X152072707Y-78503046D01*
X151890935Y-78063123D01*
X151554648Y-77726248D01*
X151115043Y-77543708D01*
X150639046Y-77543293D01*
X150199123Y-77725065D01*
X149862248Y-78061352D01*
X149679708Y-78500957D01*
X149679293Y-78976954D01*
X127231000Y-78976954D01*
X127231000Y-76437054D01*
X144598792Y-76437054D01*
X144780641Y-76877160D01*
X145117068Y-77214176D01*
X145556857Y-77396792D01*
X146033054Y-77397208D01*
X146473160Y-77215359D01*
X146810176Y-76878932D01*
X146992792Y-76439143D01*
X146992793Y-76437054D01*
X147138792Y-76437054D01*
X147320641Y-76877160D01*
X147657068Y-77214176D01*
X148096857Y-77396792D01*
X148573054Y-77397208D01*
X149013160Y-77215359D01*
X149350176Y-76878932D01*
X149532792Y-76439143D01*
X149532793Y-76436954D01*
X149679293Y-76436954D01*
X149861065Y-76876877D01*
X150197352Y-77213752D01*
X150636957Y-77396292D01*
X151112954Y-77396707D01*
X151552877Y-77214935D01*
X151889752Y-76878648D01*
X152072292Y-76439043D01*
X152072293Y-76437054D01*
X152218792Y-76437054D01*
X152400641Y-76877160D01*
X152737068Y-77214176D01*
X153176857Y-77396792D01*
X153653054Y-77397208D01*
X154093160Y-77215359D01*
X154430176Y-76878932D01*
X154612792Y-76439143D01*
X154612793Y-76437054D01*
X154758792Y-76437054D01*
X154940641Y-76877160D01*
X155277068Y-77214176D01*
X155716857Y-77396792D01*
X156193054Y-77397208D01*
X156633160Y-77215359D01*
X156970176Y-76878932D01*
X157152792Y-76439143D01*
X157152793Y-76437054D01*
X157298792Y-76437054D01*
X157480641Y-76877160D01*
X157817068Y-77214176D01*
X158256857Y-77396792D01*
X158733054Y-77397208D01*
X159173160Y-77215359D01*
X159510176Y-76878932D01*
X159692792Y-76439143D01*
X159692793Y-76437054D01*
X159838792Y-76437054D01*
X160020641Y-76877160D01*
X160357068Y-77214176D01*
X160796857Y-77396792D01*
X161273054Y-77397208D01*
X161713160Y-77215359D01*
X162050176Y-76878932D01*
X162232792Y-76439143D01*
X162232793Y-76437054D01*
X162378792Y-76437054D01*
X162560641Y-76877160D01*
X162897068Y-77214176D01*
X163336857Y-77396792D01*
X163813054Y-77397208D01*
X164253160Y-77215359D01*
X164590176Y-76878932D01*
X164772792Y-76439143D01*
X164772793Y-76437054D01*
X164918792Y-76437054D01*
X165100641Y-76877160D01*
X165437068Y-77214176D01*
X165876857Y-77396792D01*
X166353054Y-77397208D01*
X166793160Y-77215359D01*
X167130176Y-76878932D01*
X167312792Y-76439143D01*
X167312793Y-76437054D01*
X167458792Y-76437054D01*
X167640641Y-76877160D01*
X167977068Y-77214176D01*
X168416857Y-77396792D01*
X168893054Y-77397208D01*
X169333160Y-77215359D01*
X169670176Y-76878932D01*
X169852792Y-76439143D01*
X169852793Y-76437054D01*
X171522792Y-76437054D01*
X171704641Y-76877160D01*
X172041068Y-77214176D01*
X172480857Y-77396792D01*
X172957054Y-77397208D01*
X173397160Y-77215359D01*
X173734176Y-76878932D01*
X173916792Y-76439143D01*
X173916793Y-76437054D01*
X174062792Y-76437054D01*
X174244641Y-76877160D01*
X174581068Y-77214176D01*
X175020857Y-77396792D01*
X175497054Y-77397208D01*
X175937160Y-77215359D01*
X176274176Y-76878932D01*
X176456792Y-76439143D01*
X176456793Y-76437054D01*
X176602792Y-76437054D01*
X176784641Y-76877160D01*
X177121068Y-77214176D01*
X177560857Y-77396792D01*
X178037054Y-77397208D01*
X178477160Y-77215359D01*
X178814176Y-76878932D01*
X178996792Y-76439143D01*
X178996793Y-76437054D01*
X179142792Y-76437054D01*
X179324641Y-76877160D01*
X179661068Y-77214176D01*
X180100857Y-77396792D01*
X180577054Y-77397208D01*
X181017160Y-77215359D01*
X181354176Y-76878932D01*
X181536792Y-76439143D01*
X181536793Y-76437054D01*
X181682792Y-76437054D01*
X181864641Y-76877160D01*
X182201068Y-77214176D01*
X182640857Y-77396792D01*
X183117054Y-77397208D01*
X183557160Y-77215359D01*
X183894176Y-76878932D01*
X184076792Y-76439143D01*
X184076793Y-76437054D01*
X184222792Y-76437054D01*
X184404641Y-76877160D01*
X184741068Y-77214176D01*
X185180857Y-77396792D01*
X185657054Y-77397208D01*
X186097160Y-77215359D01*
X186434176Y-76878932D01*
X186616792Y-76439143D01*
X186616793Y-76437054D01*
X186762792Y-76437054D01*
X186944641Y-76877160D01*
X187281068Y-77214176D01*
X187720857Y-77396792D01*
X188197054Y-77397208D01*
X188637160Y-77215359D01*
X188974176Y-76878932D01*
X189156792Y-76439143D01*
X189156793Y-76437054D01*
X189302792Y-76437054D01*
X189484641Y-76877160D01*
X189821068Y-77214176D01*
X190260857Y-77396792D01*
X190737054Y-77397208D01*
X191177160Y-77215359D01*
X191514176Y-76878932D01*
X191696792Y-76439143D01*
X191697208Y-75962946D01*
X191515359Y-75522840D01*
X191178932Y-75185824D01*
X190739143Y-75003208D01*
X190262946Y-75002792D01*
X189822840Y-75184641D01*
X189485824Y-75521068D01*
X189303208Y-75960857D01*
X189302792Y-76437054D01*
X189156793Y-76437054D01*
X189157208Y-75962946D01*
X188975359Y-75522840D01*
X188638932Y-75185824D01*
X188199143Y-75003208D01*
X187722946Y-75002792D01*
X187282840Y-75184641D01*
X186945824Y-75521068D01*
X186763208Y-75960857D01*
X186762792Y-76437054D01*
X186616793Y-76437054D01*
X186617208Y-75962946D01*
X186435359Y-75522840D01*
X186098932Y-75185824D01*
X185659143Y-75003208D01*
X185182946Y-75002792D01*
X184742840Y-75184641D01*
X184405824Y-75521068D01*
X184223208Y-75960857D01*
X184222792Y-76437054D01*
X184076793Y-76437054D01*
X184077208Y-75962946D01*
X183895359Y-75522840D01*
X183558932Y-75185824D01*
X183119143Y-75003208D01*
X182642946Y-75002792D01*
X182202840Y-75184641D01*
X181865824Y-75521068D01*
X181683208Y-75960857D01*
X181682792Y-76437054D01*
X181536793Y-76437054D01*
X181537208Y-75962946D01*
X181355359Y-75522840D01*
X181018932Y-75185824D01*
X180579143Y-75003208D01*
X180102946Y-75002792D01*
X179662840Y-75184641D01*
X179325824Y-75521068D01*
X179143208Y-75960857D01*
X179142792Y-76437054D01*
X178996793Y-76437054D01*
X178997208Y-75962946D01*
X178815359Y-75522840D01*
X178478932Y-75185824D01*
X178039143Y-75003208D01*
X177562946Y-75002792D01*
X177122840Y-75184641D01*
X176785824Y-75521068D01*
X176603208Y-75960857D01*
X176602792Y-76437054D01*
X176456793Y-76437054D01*
X176457208Y-75962946D01*
X176275359Y-75522840D01*
X175938932Y-75185824D01*
X175499143Y-75003208D01*
X175022946Y-75002792D01*
X174582840Y-75184641D01*
X174245824Y-75521068D01*
X174063208Y-75960857D01*
X174062792Y-76437054D01*
X173916793Y-76437054D01*
X173917208Y-75962946D01*
X173735359Y-75522840D01*
X173398932Y-75185824D01*
X172959143Y-75003208D01*
X172482946Y-75002792D01*
X172042840Y-75184641D01*
X171705824Y-75521068D01*
X171523208Y-75960857D01*
X171522792Y-76437054D01*
X169852793Y-76437054D01*
X169853208Y-75962946D01*
X169671359Y-75522840D01*
X169334932Y-75185824D01*
X168895143Y-75003208D01*
X168418946Y-75002792D01*
X167978840Y-75184641D01*
X167641824Y-75521068D01*
X167459208Y-75960857D01*
X167458792Y-76437054D01*
X167312793Y-76437054D01*
X167313208Y-75962946D01*
X167131359Y-75522840D01*
X166794932Y-75185824D01*
X166355143Y-75003208D01*
X165878946Y-75002792D01*
X165438840Y-75184641D01*
X165101824Y-75521068D01*
X164919208Y-75960857D01*
X164918792Y-76437054D01*
X164772793Y-76437054D01*
X164773208Y-75962946D01*
X164591359Y-75522840D01*
X164254932Y-75185824D01*
X163815143Y-75003208D01*
X163338946Y-75002792D01*
X162898840Y-75184641D01*
X162561824Y-75521068D01*
X162379208Y-75960857D01*
X162378792Y-76437054D01*
X162232793Y-76437054D01*
X162233208Y-75962946D01*
X162051359Y-75522840D01*
X161714932Y-75185824D01*
X161275143Y-75003208D01*
X160798946Y-75002792D01*
X160358840Y-75184641D01*
X160021824Y-75521068D01*
X159839208Y-75960857D01*
X159838792Y-76437054D01*
X159692793Y-76437054D01*
X159693208Y-75962946D01*
X159511359Y-75522840D01*
X159174932Y-75185824D01*
X158735143Y-75003208D01*
X158258946Y-75002792D01*
X157818840Y-75184641D01*
X157481824Y-75521068D01*
X157299208Y-75960857D01*
X157298792Y-76437054D01*
X157152793Y-76437054D01*
X157153208Y-75962946D01*
X156971359Y-75522840D01*
X156634932Y-75185824D01*
X156195143Y-75003208D01*
X155718946Y-75002792D01*
X155278840Y-75184641D01*
X154941824Y-75521068D01*
X154759208Y-75960857D01*
X154758792Y-76437054D01*
X154612793Y-76437054D01*
X154613208Y-75962946D01*
X154431359Y-75522840D01*
X154094932Y-75185824D01*
X153655143Y-75003208D01*
X153178946Y-75002792D01*
X152738840Y-75184641D01*
X152401824Y-75521068D01*
X152219208Y-75960857D01*
X152218792Y-76437054D01*
X152072293Y-76437054D01*
X152072707Y-75963046D01*
X151890935Y-75523123D01*
X151554648Y-75186248D01*
X151115043Y-75003708D01*
X150639046Y-75003293D01*
X150199123Y-75185065D01*
X149862248Y-75521352D01*
X149679708Y-75960957D01*
X149679293Y-76436954D01*
X149532793Y-76436954D01*
X149533208Y-75962946D01*
X149351359Y-75522840D01*
X149014932Y-75185824D01*
X148575143Y-75003208D01*
X148098946Y-75002792D01*
X147658840Y-75184641D01*
X147321824Y-75521068D01*
X147139208Y-75960857D01*
X147138792Y-76437054D01*
X146992793Y-76437054D01*
X146993208Y-75962946D01*
X146811359Y-75522840D01*
X146474932Y-75185824D01*
X146035143Y-75003208D01*
X145558946Y-75002792D01*
X145118840Y-75184641D01*
X144781824Y-75521068D01*
X144599208Y-75960857D01*
X144598792Y-76437054D01*
X127231000Y-76437054D01*
X127231000Y-73636549D01*
X144599000Y-73636549D01*
X144599000Y-73683451D01*
X144690116Y-74141523D01*
X144949593Y-74529858D01*
X145337928Y-74789335D01*
X145796000Y-74880451D01*
X146254072Y-74789335D01*
X146642407Y-74529858D01*
X146901884Y-74141523D01*
X146993000Y-73683451D01*
X146993000Y-73636549D01*
X147139000Y-73636549D01*
X147139000Y-73683451D01*
X147230116Y-74141523D01*
X147489593Y-74529858D01*
X147877928Y-74789335D01*
X148336000Y-74880451D01*
X148794072Y-74789335D01*
X149182407Y-74529858D01*
X149441884Y-74141523D01*
X149533000Y-73683451D01*
X149533000Y-73636549D01*
X149679000Y-73636549D01*
X149679000Y-73683451D01*
X149770116Y-74141523D01*
X150029593Y-74529858D01*
X150417928Y-74789335D01*
X150876000Y-74880451D01*
X151334072Y-74789335D01*
X151722407Y-74529858D01*
X151981884Y-74141523D01*
X152073000Y-73683451D01*
X152073000Y-73636549D01*
X152219000Y-73636549D01*
X152219000Y-73683451D01*
X152310116Y-74141523D01*
X152569593Y-74529858D01*
X152957928Y-74789335D01*
X153416000Y-74880451D01*
X153874072Y-74789335D01*
X154262407Y-74529858D01*
X154521884Y-74141523D01*
X154613000Y-73683451D01*
X154613000Y-73636549D01*
X154759000Y-73636549D01*
X154759000Y-73683451D01*
X154850116Y-74141523D01*
X155109593Y-74529858D01*
X155497928Y-74789335D01*
X155956000Y-74880451D01*
X156414072Y-74789335D01*
X156802407Y-74529858D01*
X157061884Y-74141523D01*
X157153000Y-73683451D01*
X157153000Y-73636549D01*
X157299000Y-73636549D01*
X157299000Y-73683451D01*
X157390116Y-74141523D01*
X157649593Y-74529858D01*
X158037928Y-74789335D01*
X158496000Y-74880451D01*
X158954072Y-74789335D01*
X159342407Y-74529858D01*
X159601884Y-74141523D01*
X159693000Y-73683451D01*
X159693000Y-73636549D01*
X159839000Y-73636549D01*
X159839000Y-73683451D01*
X159930116Y-74141523D01*
X160189593Y-74529858D01*
X160577928Y-74789335D01*
X161036000Y-74880451D01*
X161494072Y-74789335D01*
X161882407Y-74529858D01*
X162141884Y-74141523D01*
X162233000Y-73683451D01*
X162233000Y-73636549D01*
X162379000Y-73636549D01*
X162379000Y-73683451D01*
X162470116Y-74141523D01*
X162729593Y-74529858D01*
X163117928Y-74789335D01*
X163576000Y-74880451D01*
X164034072Y-74789335D01*
X164422407Y-74529858D01*
X164681884Y-74141523D01*
X164773000Y-73683451D01*
X164773000Y-73636549D01*
X164919000Y-73636549D01*
X164919000Y-73683451D01*
X165010116Y-74141523D01*
X165269593Y-74529858D01*
X165657928Y-74789335D01*
X166116000Y-74880451D01*
X166574072Y-74789335D01*
X166962407Y-74529858D01*
X167221884Y-74141523D01*
X167313000Y-73683451D01*
X167313000Y-73636549D01*
X167459000Y-73636549D01*
X167459000Y-73683451D01*
X167550116Y-74141523D01*
X167809593Y-74529858D01*
X168197928Y-74789335D01*
X168656000Y-74880451D01*
X169114072Y-74789335D01*
X169502407Y-74529858D01*
X169761884Y-74141523D01*
X169853000Y-73683451D01*
X169853000Y-73636549D01*
X171523000Y-73636549D01*
X171523000Y-73683451D01*
X171614116Y-74141523D01*
X171873593Y-74529858D01*
X172261928Y-74789335D01*
X172720000Y-74880451D01*
X173178072Y-74789335D01*
X173566407Y-74529858D01*
X173825884Y-74141523D01*
X173917000Y-73683451D01*
X173917000Y-73636549D01*
X174063000Y-73636549D01*
X174063000Y-73683451D01*
X174154116Y-74141523D01*
X174413593Y-74529858D01*
X174801928Y-74789335D01*
X175260000Y-74880451D01*
X175718072Y-74789335D01*
X176106407Y-74529858D01*
X176365884Y-74141523D01*
X176457000Y-73683451D01*
X176457000Y-73636549D01*
X176603000Y-73636549D01*
X176603000Y-73683451D01*
X176694116Y-74141523D01*
X176953593Y-74529858D01*
X177341928Y-74789335D01*
X177800000Y-74880451D01*
X178258072Y-74789335D01*
X178646407Y-74529858D01*
X178905884Y-74141523D01*
X178997000Y-73683451D01*
X178997000Y-73636549D01*
X179143000Y-73636549D01*
X179143000Y-73683451D01*
X179234116Y-74141523D01*
X179493593Y-74529858D01*
X179881928Y-74789335D01*
X180340000Y-74880451D01*
X180798072Y-74789335D01*
X181186407Y-74529858D01*
X181445884Y-74141523D01*
X181537000Y-73683451D01*
X181537000Y-73636549D01*
X181683000Y-73636549D01*
X181683000Y-73683451D01*
X181774116Y-74141523D01*
X182033593Y-74529858D01*
X182421928Y-74789335D01*
X182880000Y-74880451D01*
X183338072Y-74789335D01*
X183726407Y-74529858D01*
X183985884Y-74141523D01*
X184077000Y-73683451D01*
X184077000Y-73636549D01*
X184223000Y-73636549D01*
X184223000Y-73683451D01*
X184314116Y-74141523D01*
X184573593Y-74529858D01*
X184961928Y-74789335D01*
X185420000Y-74880451D01*
X185878072Y-74789335D01*
X186266407Y-74529858D01*
X186525884Y-74141523D01*
X186617000Y-73683451D01*
X186617000Y-73636549D01*
X186763000Y-73636549D01*
X186763000Y-73683451D01*
X186854116Y-74141523D01*
X187113593Y-74529858D01*
X187501928Y-74789335D01*
X187960000Y-74880451D01*
X188418072Y-74789335D01*
X188806407Y-74529858D01*
X189065884Y-74141523D01*
X189157000Y-73683451D01*
X189157000Y-73636549D01*
X189303000Y-73636549D01*
X189303000Y-73683451D01*
X189394116Y-74141523D01*
X189653593Y-74529858D01*
X190041928Y-74789335D01*
X190500000Y-74880451D01*
X190958072Y-74789335D01*
X191346407Y-74529858D01*
X191605884Y-74141523D01*
X191697000Y-73683451D01*
X191697000Y-73636549D01*
X191605884Y-73178477D01*
X191346407Y-72790142D01*
X190958072Y-72530665D01*
X190500000Y-72439549D01*
X190041928Y-72530665D01*
X189653593Y-72790142D01*
X189394116Y-73178477D01*
X189303000Y-73636549D01*
X189157000Y-73636549D01*
X189065884Y-73178477D01*
X188806407Y-72790142D01*
X188418072Y-72530665D01*
X187960000Y-72439549D01*
X187501928Y-72530665D01*
X187113593Y-72790142D01*
X186854116Y-73178477D01*
X186763000Y-73636549D01*
X186617000Y-73636549D01*
X186525884Y-73178477D01*
X186266407Y-72790142D01*
X185878072Y-72530665D01*
X185420000Y-72439549D01*
X184961928Y-72530665D01*
X184573593Y-72790142D01*
X184314116Y-73178477D01*
X184223000Y-73636549D01*
X184077000Y-73636549D01*
X183985884Y-73178477D01*
X183726407Y-72790142D01*
X183338072Y-72530665D01*
X182880000Y-72439549D01*
X182421928Y-72530665D01*
X182033593Y-72790142D01*
X181774116Y-73178477D01*
X181683000Y-73636549D01*
X181537000Y-73636549D01*
X181445884Y-73178477D01*
X181186407Y-72790142D01*
X180798072Y-72530665D01*
X180340000Y-72439549D01*
X179881928Y-72530665D01*
X179493593Y-72790142D01*
X179234116Y-73178477D01*
X179143000Y-73636549D01*
X178997000Y-73636549D01*
X178905884Y-73178477D01*
X178646407Y-72790142D01*
X178258072Y-72530665D01*
X177800000Y-72439549D01*
X177341928Y-72530665D01*
X176953593Y-72790142D01*
X176694116Y-73178477D01*
X176603000Y-73636549D01*
X176457000Y-73636549D01*
X176365884Y-73178477D01*
X176106407Y-72790142D01*
X175718072Y-72530665D01*
X175260000Y-72439549D01*
X174801928Y-72530665D01*
X174413593Y-72790142D01*
X174154116Y-73178477D01*
X174063000Y-73636549D01*
X173917000Y-73636549D01*
X173825884Y-73178477D01*
X173566407Y-72790142D01*
X173178072Y-72530665D01*
X172720000Y-72439549D01*
X172261928Y-72530665D01*
X171873593Y-72790142D01*
X171614116Y-73178477D01*
X171523000Y-73636549D01*
X169853000Y-73636549D01*
X169761884Y-73178477D01*
X169502407Y-72790142D01*
X169114072Y-72530665D01*
X168656000Y-72439549D01*
X168197928Y-72530665D01*
X167809593Y-72790142D01*
X167550116Y-73178477D01*
X167459000Y-73636549D01*
X167313000Y-73636549D01*
X167221884Y-73178477D01*
X166962407Y-72790142D01*
X166574072Y-72530665D01*
X166116000Y-72439549D01*
X165657928Y-72530665D01*
X165269593Y-72790142D01*
X165010116Y-73178477D01*
X164919000Y-73636549D01*
X164773000Y-73636549D01*
X164681884Y-73178477D01*
X164422407Y-72790142D01*
X164034072Y-72530665D01*
X163576000Y-72439549D01*
X163117928Y-72530665D01*
X162729593Y-72790142D01*
X162470116Y-73178477D01*
X162379000Y-73636549D01*
X162233000Y-73636549D01*
X162141884Y-73178477D01*
X161882407Y-72790142D01*
X161494072Y-72530665D01*
X161036000Y-72439549D01*
X160577928Y-72530665D01*
X160189593Y-72790142D01*
X159930116Y-73178477D01*
X159839000Y-73636549D01*
X159693000Y-73636549D01*
X159601884Y-73178477D01*
X159342407Y-72790142D01*
X158954072Y-72530665D01*
X158496000Y-72439549D01*
X158037928Y-72530665D01*
X157649593Y-72790142D01*
X157390116Y-73178477D01*
X157299000Y-73636549D01*
X157153000Y-73636549D01*
X157061884Y-73178477D01*
X156802407Y-72790142D01*
X156414072Y-72530665D01*
X155956000Y-72439549D01*
X155497928Y-72530665D01*
X155109593Y-72790142D01*
X154850116Y-73178477D01*
X154759000Y-73636549D01*
X154613000Y-73636549D01*
X154521884Y-73178477D01*
X154262407Y-72790142D01*
X153874072Y-72530665D01*
X153416000Y-72439549D01*
X152957928Y-72530665D01*
X152569593Y-72790142D01*
X152310116Y-73178477D01*
X152219000Y-73636549D01*
X152073000Y-73636549D01*
X151981884Y-73178477D01*
X151722407Y-72790142D01*
X151334072Y-72530665D01*
X150876000Y-72439549D01*
X150417928Y-72530665D01*
X150029593Y-72790142D01*
X149770116Y-73178477D01*
X149679000Y-73636549D01*
X149533000Y-73636549D01*
X149441884Y-73178477D01*
X149182407Y-72790142D01*
X148794072Y-72530665D01*
X148336000Y-72439549D01*
X147877928Y-72530665D01*
X147489593Y-72790142D01*
X147230116Y-73178477D01*
X147139000Y-73636549D01*
X146993000Y-73636549D01*
X146901884Y-73178477D01*
X146642407Y-72790142D01*
X146254072Y-72530665D01*
X145796000Y-72439549D01*
X145337928Y-72530665D01*
X144949593Y-72790142D01*
X144690116Y-73178477D01*
X144599000Y-73636549D01*
X127231000Y-73636549D01*
X127231000Y-66372600D01*
X246149000Y-66372600D01*
X246149000Y-134389000D01*
M02*
