G04 #@! TF.FileFunction,Other,Fab,Bot*
%FSLAX46Y46*%
G04 Gerber Fmt 4.6, Leading zero omitted, Abs format (unit mm)*
G04 Created by KiCad (PCBNEW 4.0.6) date Tuesday 10. October 2017 13:08:52*
%MOMM*%
%LPD*%
G01*
G04 APERTURE LIST*
%ADD10C,0.100000*%
%ADD11C,0.150000*%
%ADD12C,0.075000*%
%ADD13C,0.105000*%
G04 APERTURE END LIST*
D10*
X186290000Y-96990000D02*
X186290000Y-98590000D01*
X186290000Y-98590000D02*
X187090000Y-98590000D01*
X187090000Y-98590000D02*
X187090000Y-96990000D01*
X187090000Y-96990000D02*
X186290000Y-96990000D01*
X175730000Y-114700000D02*
X177330000Y-114700000D01*
X177330000Y-114700000D02*
X177330000Y-113900000D01*
X177330000Y-113900000D02*
X175730000Y-113900000D01*
X175730000Y-113900000D02*
X175730000Y-114700000D01*
X175730000Y-112160000D02*
X177330000Y-112160000D01*
X177330000Y-112160000D02*
X177330000Y-111360000D01*
X177330000Y-111360000D02*
X175730000Y-111360000D01*
X175730000Y-111360000D02*
X175730000Y-112160000D01*
X175730000Y-109620000D02*
X177330000Y-109620000D01*
X177330000Y-109620000D02*
X177330000Y-108820000D01*
X177330000Y-108820000D02*
X175730000Y-108820000D01*
X175730000Y-108820000D02*
X175730000Y-109620000D01*
X175730000Y-107080000D02*
X177330000Y-107080000D01*
X177330000Y-107080000D02*
X177330000Y-106280000D01*
X177330000Y-106280000D02*
X175730000Y-106280000D01*
X175730000Y-106280000D02*
X175730000Y-107080000D01*
X175730000Y-104540000D02*
X177330000Y-104540000D01*
X177330000Y-104540000D02*
X177330000Y-103740000D01*
X177330000Y-103740000D02*
X175730000Y-103740000D01*
X175730000Y-103740000D02*
X175730000Y-104540000D01*
X175730000Y-102000000D02*
X177330000Y-102000000D01*
X177330000Y-102000000D02*
X177330000Y-101200000D01*
X177330000Y-101200000D02*
X175730000Y-101200000D01*
X175730000Y-101200000D02*
X175730000Y-102000000D01*
X170650000Y-114700000D02*
X172250000Y-114700000D01*
X172250000Y-114700000D02*
X172250000Y-113900000D01*
X172250000Y-113900000D02*
X170650000Y-113900000D01*
X170650000Y-113900000D02*
X170650000Y-114700000D01*
X170650000Y-112160000D02*
X172250000Y-112160000D01*
X172250000Y-112160000D02*
X172250000Y-111360000D01*
X172250000Y-111360000D02*
X170650000Y-111360000D01*
X170650000Y-111360000D02*
X170650000Y-112160000D01*
X170650000Y-109620000D02*
X172250000Y-109620000D01*
X172250000Y-109620000D02*
X172250000Y-108820000D01*
X172250000Y-108820000D02*
X170650000Y-108820000D01*
X170650000Y-108820000D02*
X170650000Y-109620000D01*
X170650000Y-107080000D02*
X172250000Y-107080000D01*
X172250000Y-107080000D02*
X172250000Y-106280000D01*
X172250000Y-106280000D02*
X170650000Y-106280000D01*
X170650000Y-106280000D02*
X170650000Y-107080000D01*
X170650000Y-103740000D02*
X170650000Y-104540000D01*
X172250000Y-103740000D02*
X170650000Y-103740000D01*
X172250000Y-104540000D02*
X172250000Y-103740000D01*
X170650000Y-104540000D02*
X172250000Y-104540000D01*
X172250000Y-102000000D02*
X172250000Y-101200000D01*
X170650000Y-102000000D02*
X172250000Y-102000000D01*
X170650000Y-101200000D02*
X170650000Y-102000000D01*
X172250000Y-101200000D02*
X170650000Y-101200000D01*
X183438600Y-101797800D02*
X183438600Y-104297800D01*
X183438600Y-104297800D02*
X180238600Y-104297800D01*
X180238600Y-104297800D02*
X180238600Y-101797800D01*
X180238600Y-101797800D02*
X183438600Y-101797800D01*
X183438600Y-103297800D02*
X182438600Y-104297800D01*
D11*
X188642381Y-97147143D02*
X188642381Y-96575714D01*
X188642381Y-96861428D02*
X187642381Y-96861428D01*
X187785238Y-96766190D01*
X187880476Y-96670952D01*
X187928095Y-96575714D01*
X187642381Y-97766190D02*
X187642381Y-97861429D01*
X187690000Y-97956667D01*
X187737619Y-98004286D01*
X187832857Y-98051905D01*
X188023333Y-98099524D01*
X188261429Y-98099524D01*
X188451905Y-98051905D01*
X188547143Y-98004286D01*
X188594762Y-97956667D01*
X188642381Y-97861429D01*
X188642381Y-97766190D01*
X188594762Y-97670952D01*
X188547143Y-97623333D01*
X188451905Y-97575714D01*
X188261429Y-97528095D01*
X188023333Y-97528095D01*
X187832857Y-97575714D01*
X187737619Y-97623333D01*
X187690000Y-97670952D01*
X187642381Y-97766190D01*
X187975714Y-98956667D02*
X188642381Y-98956667D01*
X187975714Y-98528095D02*
X188499524Y-98528095D01*
X188594762Y-98575714D01*
X188642381Y-98670952D01*
X188642381Y-98813810D01*
X188594762Y-98909048D01*
X188547143Y-98956667D01*
D12*
X186797143Y-97740000D02*
X186811429Y-97725714D01*
X186825714Y-97682857D01*
X186825714Y-97654286D01*
X186811429Y-97611429D01*
X186782857Y-97582857D01*
X186754286Y-97568572D01*
X186697143Y-97554286D01*
X186654286Y-97554286D01*
X186597143Y-97568572D01*
X186568571Y-97582857D01*
X186540000Y-97611429D01*
X186525714Y-97654286D01*
X186525714Y-97682857D01*
X186540000Y-97725714D01*
X186554286Y-97740000D01*
X186825714Y-98025714D02*
X186825714Y-97854286D01*
X186825714Y-97940000D02*
X186525714Y-97940000D01*
X186568571Y-97911429D01*
X186597143Y-97882857D01*
X186611429Y-97854286D01*
D11*
X177649047Y-113252381D02*
X178220476Y-113252381D01*
X177934762Y-113252381D02*
X177934762Y-112252381D01*
X178030000Y-112395238D01*
X178125238Y-112490476D01*
X178220476Y-112538095D01*
X177030000Y-112252381D02*
X176934761Y-112252381D01*
X176839523Y-112300000D01*
X176791904Y-112347619D01*
X176744285Y-112442857D01*
X176696666Y-112633333D01*
X176696666Y-112871429D01*
X176744285Y-113061905D01*
X176791904Y-113157143D01*
X176839523Y-113204762D01*
X176934761Y-113252381D01*
X177030000Y-113252381D01*
X177125238Y-113204762D01*
X177172857Y-113157143D01*
X177220476Y-113061905D01*
X177268095Y-112871429D01*
X177268095Y-112633333D01*
X177220476Y-112442857D01*
X177172857Y-112347619D01*
X177125238Y-112300000D01*
X177030000Y-112252381D01*
X176077619Y-112252381D02*
X175982380Y-112252381D01*
X175887142Y-112300000D01*
X175839523Y-112347619D01*
X175791904Y-112442857D01*
X175744285Y-112633333D01*
X175744285Y-112871429D01*
X175791904Y-113061905D01*
X175839523Y-113157143D01*
X175887142Y-113204762D01*
X175982380Y-113252381D01*
X176077619Y-113252381D01*
X176172857Y-113204762D01*
X176220476Y-113157143D01*
X176268095Y-113061905D01*
X176315714Y-112871429D01*
X176315714Y-112633333D01*
X176268095Y-112442857D01*
X176220476Y-112347619D01*
X176172857Y-112300000D01*
X176077619Y-112252381D01*
X175315714Y-112585714D02*
X175315714Y-113252381D01*
X175315714Y-112680952D02*
X175268095Y-112633333D01*
X175172857Y-112585714D01*
X175029999Y-112585714D01*
X174934761Y-112633333D01*
X174887142Y-112728571D01*
X174887142Y-113252381D01*
D12*
X176580000Y-114407143D02*
X176594286Y-114421429D01*
X176637143Y-114435714D01*
X176665714Y-114435714D01*
X176708571Y-114421429D01*
X176737143Y-114392857D01*
X176751428Y-114364286D01*
X176765714Y-114307143D01*
X176765714Y-114264286D01*
X176751428Y-114207143D01*
X176737143Y-114178571D01*
X176708571Y-114150000D01*
X176665714Y-114135714D01*
X176637143Y-114135714D01*
X176594286Y-114150000D01*
X176580000Y-114164286D01*
X176322857Y-114235714D02*
X176322857Y-114435714D01*
X176394286Y-114121429D02*
X176465714Y-114335714D01*
X176280000Y-114335714D01*
D11*
X177649047Y-110712381D02*
X178220476Y-110712381D01*
X177934762Y-110712381D02*
X177934762Y-109712381D01*
X178030000Y-109855238D01*
X178125238Y-109950476D01*
X178220476Y-109998095D01*
X177030000Y-109712381D02*
X176934761Y-109712381D01*
X176839523Y-109760000D01*
X176791904Y-109807619D01*
X176744285Y-109902857D01*
X176696666Y-110093333D01*
X176696666Y-110331429D01*
X176744285Y-110521905D01*
X176791904Y-110617143D01*
X176839523Y-110664762D01*
X176934761Y-110712381D01*
X177030000Y-110712381D01*
X177125238Y-110664762D01*
X177172857Y-110617143D01*
X177220476Y-110521905D01*
X177268095Y-110331429D01*
X177268095Y-110093333D01*
X177220476Y-109902857D01*
X177172857Y-109807619D01*
X177125238Y-109760000D01*
X177030000Y-109712381D01*
X176077619Y-109712381D02*
X175982380Y-109712381D01*
X175887142Y-109760000D01*
X175839523Y-109807619D01*
X175791904Y-109902857D01*
X175744285Y-110093333D01*
X175744285Y-110331429D01*
X175791904Y-110521905D01*
X175839523Y-110617143D01*
X175887142Y-110664762D01*
X175982380Y-110712381D01*
X176077619Y-110712381D01*
X176172857Y-110664762D01*
X176220476Y-110617143D01*
X176268095Y-110521905D01*
X176315714Y-110331429D01*
X176315714Y-110093333D01*
X176268095Y-109902857D01*
X176220476Y-109807619D01*
X176172857Y-109760000D01*
X176077619Y-109712381D01*
X175315714Y-110045714D02*
X175315714Y-110712381D01*
X175315714Y-110140952D02*
X175268095Y-110093333D01*
X175172857Y-110045714D01*
X175029999Y-110045714D01*
X174934761Y-110093333D01*
X174887142Y-110188571D01*
X174887142Y-110712381D01*
D12*
X176580000Y-111867143D02*
X176594286Y-111881429D01*
X176637143Y-111895714D01*
X176665714Y-111895714D01*
X176708571Y-111881429D01*
X176737143Y-111852857D01*
X176751428Y-111824286D01*
X176765714Y-111767143D01*
X176765714Y-111724286D01*
X176751428Y-111667143D01*
X176737143Y-111638571D01*
X176708571Y-111610000D01*
X176665714Y-111595714D01*
X176637143Y-111595714D01*
X176594286Y-111610000D01*
X176580000Y-111624286D01*
X176308571Y-111595714D02*
X176451428Y-111595714D01*
X176465714Y-111738571D01*
X176451428Y-111724286D01*
X176422857Y-111710000D01*
X176351428Y-111710000D01*
X176322857Y-111724286D01*
X176308571Y-111738571D01*
X176294286Y-111767143D01*
X176294286Y-111838571D01*
X176308571Y-111867143D01*
X176322857Y-111881429D01*
X176351428Y-111895714D01*
X176422857Y-111895714D01*
X176451428Y-111881429D01*
X176465714Y-111867143D01*
D11*
X177649047Y-108172381D02*
X178220476Y-108172381D01*
X177934762Y-108172381D02*
X177934762Y-107172381D01*
X178030000Y-107315238D01*
X178125238Y-107410476D01*
X178220476Y-107458095D01*
X177030000Y-107172381D02*
X176934761Y-107172381D01*
X176839523Y-107220000D01*
X176791904Y-107267619D01*
X176744285Y-107362857D01*
X176696666Y-107553333D01*
X176696666Y-107791429D01*
X176744285Y-107981905D01*
X176791904Y-108077143D01*
X176839523Y-108124762D01*
X176934761Y-108172381D01*
X177030000Y-108172381D01*
X177125238Y-108124762D01*
X177172857Y-108077143D01*
X177220476Y-107981905D01*
X177268095Y-107791429D01*
X177268095Y-107553333D01*
X177220476Y-107362857D01*
X177172857Y-107267619D01*
X177125238Y-107220000D01*
X177030000Y-107172381D01*
X176077619Y-107172381D02*
X175982380Y-107172381D01*
X175887142Y-107220000D01*
X175839523Y-107267619D01*
X175791904Y-107362857D01*
X175744285Y-107553333D01*
X175744285Y-107791429D01*
X175791904Y-107981905D01*
X175839523Y-108077143D01*
X175887142Y-108124762D01*
X175982380Y-108172381D01*
X176077619Y-108172381D01*
X176172857Y-108124762D01*
X176220476Y-108077143D01*
X176268095Y-107981905D01*
X176315714Y-107791429D01*
X176315714Y-107553333D01*
X176268095Y-107362857D01*
X176220476Y-107267619D01*
X176172857Y-107220000D01*
X176077619Y-107172381D01*
X175315714Y-107505714D02*
X175315714Y-108172381D01*
X175315714Y-107600952D02*
X175268095Y-107553333D01*
X175172857Y-107505714D01*
X175029999Y-107505714D01*
X174934761Y-107553333D01*
X174887142Y-107648571D01*
X174887142Y-108172381D01*
D12*
X176580000Y-109327143D02*
X176594286Y-109341429D01*
X176637143Y-109355714D01*
X176665714Y-109355714D01*
X176708571Y-109341429D01*
X176737143Y-109312857D01*
X176751428Y-109284286D01*
X176765714Y-109227143D01*
X176765714Y-109184286D01*
X176751428Y-109127143D01*
X176737143Y-109098571D01*
X176708571Y-109070000D01*
X176665714Y-109055714D01*
X176637143Y-109055714D01*
X176594286Y-109070000D01*
X176580000Y-109084286D01*
X176322857Y-109055714D02*
X176380000Y-109055714D01*
X176408571Y-109070000D01*
X176422857Y-109084286D01*
X176451428Y-109127143D01*
X176465714Y-109184286D01*
X176465714Y-109298571D01*
X176451428Y-109327143D01*
X176437143Y-109341429D01*
X176408571Y-109355714D01*
X176351428Y-109355714D01*
X176322857Y-109341429D01*
X176308571Y-109327143D01*
X176294286Y-109298571D01*
X176294286Y-109227143D01*
X176308571Y-109198571D01*
X176322857Y-109184286D01*
X176351428Y-109170000D01*
X176408571Y-109170000D01*
X176437143Y-109184286D01*
X176451428Y-109198571D01*
X176465714Y-109227143D01*
D11*
X177649047Y-105632381D02*
X178220476Y-105632381D01*
X177934762Y-105632381D02*
X177934762Y-104632381D01*
X178030000Y-104775238D01*
X178125238Y-104870476D01*
X178220476Y-104918095D01*
X177030000Y-104632381D02*
X176934761Y-104632381D01*
X176839523Y-104680000D01*
X176791904Y-104727619D01*
X176744285Y-104822857D01*
X176696666Y-105013333D01*
X176696666Y-105251429D01*
X176744285Y-105441905D01*
X176791904Y-105537143D01*
X176839523Y-105584762D01*
X176934761Y-105632381D01*
X177030000Y-105632381D01*
X177125238Y-105584762D01*
X177172857Y-105537143D01*
X177220476Y-105441905D01*
X177268095Y-105251429D01*
X177268095Y-105013333D01*
X177220476Y-104822857D01*
X177172857Y-104727619D01*
X177125238Y-104680000D01*
X177030000Y-104632381D01*
X176077619Y-104632381D02*
X175982380Y-104632381D01*
X175887142Y-104680000D01*
X175839523Y-104727619D01*
X175791904Y-104822857D01*
X175744285Y-105013333D01*
X175744285Y-105251429D01*
X175791904Y-105441905D01*
X175839523Y-105537143D01*
X175887142Y-105584762D01*
X175982380Y-105632381D01*
X176077619Y-105632381D01*
X176172857Y-105584762D01*
X176220476Y-105537143D01*
X176268095Y-105441905D01*
X176315714Y-105251429D01*
X176315714Y-105013333D01*
X176268095Y-104822857D01*
X176220476Y-104727619D01*
X176172857Y-104680000D01*
X176077619Y-104632381D01*
X175315714Y-104965714D02*
X175315714Y-105632381D01*
X175315714Y-105060952D02*
X175268095Y-105013333D01*
X175172857Y-104965714D01*
X175029999Y-104965714D01*
X174934761Y-105013333D01*
X174887142Y-105108571D01*
X174887142Y-105632381D01*
D12*
X176580000Y-106787143D02*
X176594286Y-106801429D01*
X176637143Y-106815714D01*
X176665714Y-106815714D01*
X176708571Y-106801429D01*
X176737143Y-106772857D01*
X176751428Y-106744286D01*
X176765714Y-106687143D01*
X176765714Y-106644286D01*
X176751428Y-106587143D01*
X176737143Y-106558571D01*
X176708571Y-106530000D01*
X176665714Y-106515714D01*
X176637143Y-106515714D01*
X176594286Y-106530000D01*
X176580000Y-106544286D01*
X176480000Y-106515714D02*
X176280000Y-106515714D01*
X176408571Y-106815714D01*
D11*
X177649047Y-103092381D02*
X178220476Y-103092381D01*
X177934762Y-103092381D02*
X177934762Y-102092381D01*
X178030000Y-102235238D01*
X178125238Y-102330476D01*
X178220476Y-102378095D01*
X177030000Y-102092381D02*
X176934761Y-102092381D01*
X176839523Y-102140000D01*
X176791904Y-102187619D01*
X176744285Y-102282857D01*
X176696666Y-102473333D01*
X176696666Y-102711429D01*
X176744285Y-102901905D01*
X176791904Y-102997143D01*
X176839523Y-103044762D01*
X176934761Y-103092381D01*
X177030000Y-103092381D01*
X177125238Y-103044762D01*
X177172857Y-102997143D01*
X177220476Y-102901905D01*
X177268095Y-102711429D01*
X177268095Y-102473333D01*
X177220476Y-102282857D01*
X177172857Y-102187619D01*
X177125238Y-102140000D01*
X177030000Y-102092381D01*
X176077619Y-102092381D02*
X175982380Y-102092381D01*
X175887142Y-102140000D01*
X175839523Y-102187619D01*
X175791904Y-102282857D01*
X175744285Y-102473333D01*
X175744285Y-102711429D01*
X175791904Y-102901905D01*
X175839523Y-102997143D01*
X175887142Y-103044762D01*
X175982380Y-103092381D01*
X176077619Y-103092381D01*
X176172857Y-103044762D01*
X176220476Y-102997143D01*
X176268095Y-102901905D01*
X176315714Y-102711429D01*
X176315714Y-102473333D01*
X176268095Y-102282857D01*
X176220476Y-102187619D01*
X176172857Y-102140000D01*
X176077619Y-102092381D01*
X175315714Y-102425714D02*
X175315714Y-103092381D01*
X175315714Y-102520952D02*
X175268095Y-102473333D01*
X175172857Y-102425714D01*
X175029999Y-102425714D01*
X174934761Y-102473333D01*
X174887142Y-102568571D01*
X174887142Y-103092381D01*
D12*
X176580000Y-104247143D02*
X176594286Y-104261429D01*
X176637143Y-104275714D01*
X176665714Y-104275714D01*
X176708571Y-104261429D01*
X176737143Y-104232857D01*
X176751428Y-104204286D01*
X176765714Y-104147143D01*
X176765714Y-104104286D01*
X176751428Y-104047143D01*
X176737143Y-104018571D01*
X176708571Y-103990000D01*
X176665714Y-103975714D01*
X176637143Y-103975714D01*
X176594286Y-103990000D01*
X176580000Y-104004286D01*
X176408571Y-104104286D02*
X176437143Y-104090000D01*
X176451428Y-104075714D01*
X176465714Y-104047143D01*
X176465714Y-104032857D01*
X176451428Y-104004286D01*
X176437143Y-103990000D01*
X176408571Y-103975714D01*
X176351428Y-103975714D01*
X176322857Y-103990000D01*
X176308571Y-104004286D01*
X176294286Y-104032857D01*
X176294286Y-104047143D01*
X176308571Y-104075714D01*
X176322857Y-104090000D01*
X176351428Y-104104286D01*
X176408571Y-104104286D01*
X176437143Y-104118571D01*
X176451428Y-104132857D01*
X176465714Y-104161429D01*
X176465714Y-104218571D01*
X176451428Y-104247143D01*
X176437143Y-104261429D01*
X176408571Y-104275714D01*
X176351428Y-104275714D01*
X176322857Y-104261429D01*
X176308571Y-104247143D01*
X176294286Y-104218571D01*
X176294286Y-104161429D01*
X176308571Y-104132857D01*
X176322857Y-104118571D01*
X176351428Y-104104286D01*
D11*
X177172857Y-100552381D02*
X177744286Y-100552381D01*
X177458572Y-100552381D02*
X177458572Y-99552381D01*
X177553810Y-99695238D01*
X177649048Y-99790476D01*
X177744286Y-99838095D01*
X176553810Y-99552381D02*
X176458571Y-99552381D01*
X176363333Y-99600000D01*
X176315714Y-99647619D01*
X176268095Y-99742857D01*
X176220476Y-99933333D01*
X176220476Y-100171429D01*
X176268095Y-100361905D01*
X176315714Y-100457143D01*
X176363333Y-100504762D01*
X176458571Y-100552381D01*
X176553810Y-100552381D01*
X176649048Y-100504762D01*
X176696667Y-100457143D01*
X176744286Y-100361905D01*
X176791905Y-100171429D01*
X176791905Y-99933333D01*
X176744286Y-99742857D01*
X176696667Y-99647619D01*
X176649048Y-99600000D01*
X176553810Y-99552381D01*
X175363333Y-99885714D02*
X175363333Y-100552381D01*
X175791905Y-99885714D02*
X175791905Y-100409524D01*
X175744286Y-100504762D01*
X175649048Y-100552381D01*
X175506190Y-100552381D01*
X175410952Y-100504762D01*
X175363333Y-100457143D01*
D12*
X176580000Y-101707143D02*
X176594286Y-101721429D01*
X176637143Y-101735714D01*
X176665714Y-101735714D01*
X176708571Y-101721429D01*
X176737143Y-101692857D01*
X176751428Y-101664286D01*
X176765714Y-101607143D01*
X176765714Y-101564286D01*
X176751428Y-101507143D01*
X176737143Y-101478571D01*
X176708571Y-101450000D01*
X176665714Y-101435714D01*
X176637143Y-101435714D01*
X176594286Y-101450000D01*
X176580000Y-101464286D01*
X176437143Y-101735714D02*
X176380000Y-101735714D01*
X176351428Y-101721429D01*
X176337143Y-101707143D01*
X176308571Y-101664286D01*
X176294286Y-101607143D01*
X176294286Y-101492857D01*
X176308571Y-101464286D01*
X176322857Y-101450000D01*
X176351428Y-101435714D01*
X176408571Y-101435714D01*
X176437143Y-101450000D01*
X176451428Y-101464286D01*
X176465714Y-101492857D01*
X176465714Y-101564286D01*
X176451428Y-101592857D01*
X176437143Y-101607143D01*
X176408571Y-101621429D01*
X176351428Y-101621429D01*
X176322857Y-101607143D01*
X176308571Y-101592857D01*
X176294286Y-101564286D01*
D11*
X172092857Y-113252381D02*
X172664286Y-113252381D01*
X172378572Y-113252381D02*
X172378572Y-112252381D01*
X172473810Y-112395238D01*
X172569048Y-112490476D01*
X172664286Y-112538095D01*
X171473810Y-112252381D02*
X171378571Y-112252381D01*
X171283333Y-112300000D01*
X171235714Y-112347619D01*
X171188095Y-112442857D01*
X171140476Y-112633333D01*
X171140476Y-112871429D01*
X171188095Y-113061905D01*
X171235714Y-113157143D01*
X171283333Y-113204762D01*
X171378571Y-113252381D01*
X171473810Y-113252381D01*
X171569048Y-113204762D01*
X171616667Y-113157143D01*
X171664286Y-113061905D01*
X171711905Y-112871429D01*
X171711905Y-112633333D01*
X171664286Y-112442857D01*
X171616667Y-112347619D01*
X171569048Y-112300000D01*
X171473810Y-112252381D01*
X170711905Y-112585714D02*
X170711905Y-113252381D01*
X170711905Y-112680952D02*
X170664286Y-112633333D01*
X170569048Y-112585714D01*
X170426190Y-112585714D01*
X170330952Y-112633333D01*
X170283333Y-112728571D01*
X170283333Y-113252381D01*
D12*
X171642857Y-114407143D02*
X171657143Y-114421429D01*
X171700000Y-114435714D01*
X171728571Y-114435714D01*
X171771428Y-114421429D01*
X171800000Y-114392857D01*
X171814285Y-114364286D01*
X171828571Y-114307143D01*
X171828571Y-114264286D01*
X171814285Y-114207143D01*
X171800000Y-114178571D01*
X171771428Y-114150000D01*
X171728571Y-114135714D01*
X171700000Y-114135714D01*
X171657143Y-114150000D01*
X171642857Y-114164286D01*
X171357143Y-114435714D02*
X171528571Y-114435714D01*
X171442857Y-114435714D02*
X171442857Y-114135714D01*
X171471428Y-114178571D01*
X171500000Y-114207143D01*
X171528571Y-114221429D01*
X171171429Y-114135714D02*
X171142857Y-114135714D01*
X171114286Y-114150000D01*
X171100000Y-114164286D01*
X171085714Y-114192857D01*
X171071429Y-114250000D01*
X171071429Y-114321429D01*
X171085714Y-114378571D01*
X171100000Y-114407143D01*
X171114286Y-114421429D01*
X171142857Y-114435714D01*
X171171429Y-114435714D01*
X171200000Y-114421429D01*
X171214286Y-114407143D01*
X171228571Y-114378571D01*
X171242857Y-114321429D01*
X171242857Y-114250000D01*
X171228571Y-114192857D01*
X171214286Y-114164286D01*
X171200000Y-114150000D01*
X171171429Y-114135714D01*
D11*
X172092857Y-110712381D02*
X172664286Y-110712381D01*
X172378572Y-110712381D02*
X172378572Y-109712381D01*
X172473810Y-109855238D01*
X172569048Y-109950476D01*
X172664286Y-109998095D01*
X171473810Y-109712381D02*
X171378571Y-109712381D01*
X171283333Y-109760000D01*
X171235714Y-109807619D01*
X171188095Y-109902857D01*
X171140476Y-110093333D01*
X171140476Y-110331429D01*
X171188095Y-110521905D01*
X171235714Y-110617143D01*
X171283333Y-110664762D01*
X171378571Y-110712381D01*
X171473810Y-110712381D01*
X171569048Y-110664762D01*
X171616667Y-110617143D01*
X171664286Y-110521905D01*
X171711905Y-110331429D01*
X171711905Y-110093333D01*
X171664286Y-109902857D01*
X171616667Y-109807619D01*
X171569048Y-109760000D01*
X171473810Y-109712381D01*
X170711905Y-110045714D02*
X170711905Y-110712381D01*
X170711905Y-110140952D02*
X170664286Y-110093333D01*
X170569048Y-110045714D01*
X170426190Y-110045714D01*
X170330952Y-110093333D01*
X170283333Y-110188571D01*
X170283333Y-110712381D01*
D12*
X171642857Y-111867143D02*
X171657143Y-111881429D01*
X171700000Y-111895714D01*
X171728571Y-111895714D01*
X171771428Y-111881429D01*
X171800000Y-111852857D01*
X171814285Y-111824286D01*
X171828571Y-111767143D01*
X171828571Y-111724286D01*
X171814285Y-111667143D01*
X171800000Y-111638571D01*
X171771428Y-111610000D01*
X171728571Y-111595714D01*
X171700000Y-111595714D01*
X171657143Y-111610000D01*
X171642857Y-111624286D01*
X171357143Y-111895714D02*
X171528571Y-111895714D01*
X171442857Y-111895714D02*
X171442857Y-111595714D01*
X171471428Y-111638571D01*
X171500000Y-111667143D01*
X171528571Y-111681429D01*
X171071429Y-111895714D02*
X171242857Y-111895714D01*
X171157143Y-111895714D02*
X171157143Y-111595714D01*
X171185714Y-111638571D01*
X171214286Y-111667143D01*
X171242857Y-111681429D01*
D11*
X172092857Y-108172381D02*
X172664286Y-108172381D01*
X172378572Y-108172381D02*
X172378572Y-107172381D01*
X172473810Y-107315238D01*
X172569048Y-107410476D01*
X172664286Y-107458095D01*
X171473810Y-107172381D02*
X171378571Y-107172381D01*
X171283333Y-107220000D01*
X171235714Y-107267619D01*
X171188095Y-107362857D01*
X171140476Y-107553333D01*
X171140476Y-107791429D01*
X171188095Y-107981905D01*
X171235714Y-108077143D01*
X171283333Y-108124762D01*
X171378571Y-108172381D01*
X171473810Y-108172381D01*
X171569048Y-108124762D01*
X171616667Y-108077143D01*
X171664286Y-107981905D01*
X171711905Y-107791429D01*
X171711905Y-107553333D01*
X171664286Y-107362857D01*
X171616667Y-107267619D01*
X171569048Y-107220000D01*
X171473810Y-107172381D01*
X170711905Y-107505714D02*
X170711905Y-108172381D01*
X170711905Y-107600952D02*
X170664286Y-107553333D01*
X170569048Y-107505714D01*
X170426190Y-107505714D01*
X170330952Y-107553333D01*
X170283333Y-107648571D01*
X170283333Y-108172381D01*
D12*
X171642857Y-109327143D02*
X171657143Y-109341429D01*
X171700000Y-109355714D01*
X171728571Y-109355714D01*
X171771428Y-109341429D01*
X171800000Y-109312857D01*
X171814285Y-109284286D01*
X171828571Y-109227143D01*
X171828571Y-109184286D01*
X171814285Y-109127143D01*
X171800000Y-109098571D01*
X171771428Y-109070000D01*
X171728571Y-109055714D01*
X171700000Y-109055714D01*
X171657143Y-109070000D01*
X171642857Y-109084286D01*
X171357143Y-109355714D02*
X171528571Y-109355714D01*
X171442857Y-109355714D02*
X171442857Y-109055714D01*
X171471428Y-109098571D01*
X171500000Y-109127143D01*
X171528571Y-109141429D01*
X171242857Y-109084286D02*
X171228571Y-109070000D01*
X171200000Y-109055714D01*
X171128571Y-109055714D01*
X171100000Y-109070000D01*
X171085714Y-109084286D01*
X171071429Y-109112857D01*
X171071429Y-109141429D01*
X171085714Y-109184286D01*
X171257143Y-109355714D01*
X171071429Y-109355714D01*
D11*
X172092857Y-105632381D02*
X172664286Y-105632381D01*
X172378572Y-105632381D02*
X172378572Y-104632381D01*
X172473810Y-104775238D01*
X172569048Y-104870476D01*
X172664286Y-104918095D01*
X171473810Y-104632381D02*
X171378571Y-104632381D01*
X171283333Y-104680000D01*
X171235714Y-104727619D01*
X171188095Y-104822857D01*
X171140476Y-105013333D01*
X171140476Y-105251429D01*
X171188095Y-105441905D01*
X171235714Y-105537143D01*
X171283333Y-105584762D01*
X171378571Y-105632381D01*
X171473810Y-105632381D01*
X171569048Y-105584762D01*
X171616667Y-105537143D01*
X171664286Y-105441905D01*
X171711905Y-105251429D01*
X171711905Y-105013333D01*
X171664286Y-104822857D01*
X171616667Y-104727619D01*
X171569048Y-104680000D01*
X171473810Y-104632381D01*
X170283333Y-104965714D02*
X170283333Y-105632381D01*
X170711905Y-104965714D02*
X170711905Y-105489524D01*
X170664286Y-105584762D01*
X170569048Y-105632381D01*
X170426190Y-105632381D01*
X170330952Y-105584762D01*
X170283333Y-105537143D01*
D12*
X171642857Y-106787143D02*
X171657143Y-106801429D01*
X171700000Y-106815714D01*
X171728571Y-106815714D01*
X171771428Y-106801429D01*
X171800000Y-106772857D01*
X171814285Y-106744286D01*
X171828571Y-106687143D01*
X171828571Y-106644286D01*
X171814285Y-106587143D01*
X171800000Y-106558571D01*
X171771428Y-106530000D01*
X171728571Y-106515714D01*
X171700000Y-106515714D01*
X171657143Y-106530000D01*
X171642857Y-106544286D01*
X171357143Y-106815714D02*
X171528571Y-106815714D01*
X171442857Y-106815714D02*
X171442857Y-106515714D01*
X171471428Y-106558571D01*
X171500000Y-106587143D01*
X171528571Y-106601429D01*
X171257143Y-106515714D02*
X171071429Y-106515714D01*
X171171429Y-106630000D01*
X171128571Y-106630000D01*
X171100000Y-106644286D01*
X171085714Y-106658571D01*
X171071429Y-106687143D01*
X171071429Y-106758571D01*
X171085714Y-106787143D01*
X171100000Y-106801429D01*
X171128571Y-106815714D01*
X171214286Y-106815714D01*
X171242857Y-106801429D01*
X171257143Y-106787143D01*
D11*
X171140476Y-103092381D02*
X171473810Y-102616190D01*
X171711905Y-103092381D02*
X171711905Y-102092381D01*
X171330952Y-102092381D01*
X171235714Y-102140000D01*
X171188095Y-102187619D01*
X171140476Y-102282857D01*
X171140476Y-102425714D01*
X171188095Y-102520952D01*
X171235714Y-102568571D01*
X171330952Y-102616190D01*
X171711905Y-102616190D01*
D12*
X171516666Y-104320952D02*
X171650000Y-104130476D01*
X171745238Y-104320952D02*
X171745238Y-103920952D01*
X171592857Y-103920952D01*
X171554762Y-103940000D01*
X171535714Y-103959048D01*
X171516666Y-103997143D01*
X171516666Y-104054286D01*
X171535714Y-104092381D01*
X171554762Y-104111429D01*
X171592857Y-104130476D01*
X171745238Y-104130476D01*
X171135714Y-104320952D02*
X171364286Y-104320952D01*
X171250000Y-104320952D02*
X171250000Y-103920952D01*
X171288095Y-103978095D01*
X171326190Y-104016190D01*
X171364286Y-104035238D01*
D11*
X171140476Y-103952381D02*
X171616667Y-103952381D01*
X171616667Y-102952381D01*
D12*
X171516667Y-101780952D02*
X171707143Y-101780952D01*
X171707143Y-101380952D01*
X171173809Y-101780952D02*
X171402381Y-101780952D01*
X171288095Y-101780952D02*
X171288095Y-101380952D01*
X171326190Y-101438095D01*
X171364285Y-101476190D01*
X171402381Y-101495238D01*
D11*
X186481458Y-105854943D02*
X186529077Y-105902562D01*
X186671934Y-105950181D01*
X186767172Y-105950181D01*
X186910030Y-105902562D01*
X187005268Y-105807324D01*
X187052887Y-105712086D01*
X187100506Y-105521610D01*
X187100506Y-105378752D01*
X187052887Y-105188276D01*
X187005268Y-105093038D01*
X186910030Y-104997800D01*
X186767172Y-104950181D01*
X186671934Y-104950181D01*
X186529077Y-104997800D01*
X186481458Y-105045419D01*
X186052887Y-105950181D02*
X186052887Y-105283514D01*
X186052887Y-105473990D02*
X186005268Y-105378752D01*
X185957649Y-105331133D01*
X185862411Y-105283514D01*
X185767172Y-105283514D01*
X185529077Y-105283514D02*
X185290982Y-105950181D01*
X185052886Y-105283514D02*
X185290982Y-105950181D01*
X185386220Y-106188276D01*
X185433839Y-106235895D01*
X185529077Y-106283514D01*
X184719553Y-105902562D02*
X184624315Y-105950181D01*
X184433839Y-105950181D01*
X184338600Y-105902562D01*
X184290981Y-105807324D01*
X184290981Y-105759705D01*
X184338600Y-105664467D01*
X184433839Y-105616848D01*
X184576696Y-105616848D01*
X184671934Y-105569229D01*
X184719553Y-105473990D01*
X184719553Y-105426371D01*
X184671934Y-105331133D01*
X184576696Y-105283514D01*
X184433839Y-105283514D01*
X184338600Y-105331133D01*
X184005267Y-105283514D02*
X183624315Y-105283514D01*
X183862410Y-104950181D02*
X183862410Y-105807324D01*
X183814791Y-105902562D01*
X183719553Y-105950181D01*
X183624315Y-105950181D01*
X182862409Y-105950181D02*
X182862409Y-105426371D01*
X182910028Y-105331133D01*
X183005266Y-105283514D01*
X183195743Y-105283514D01*
X183290981Y-105331133D01*
X182862409Y-105902562D02*
X182957647Y-105950181D01*
X183195743Y-105950181D01*
X183290981Y-105902562D01*
X183338600Y-105807324D01*
X183338600Y-105712086D01*
X183290981Y-105616848D01*
X183195743Y-105569229D01*
X182957647Y-105569229D01*
X182862409Y-105521610D01*
X182243362Y-105950181D02*
X182338600Y-105902562D01*
X182386219Y-105807324D01*
X182386219Y-104950181D01*
X182100504Y-106045419D02*
X181338599Y-106045419D01*
X180576694Y-104997800D02*
X180671932Y-104950181D01*
X180814789Y-104950181D01*
X180957647Y-104997800D01*
X181052885Y-105093038D01*
X181100504Y-105188276D01*
X181148123Y-105378752D01*
X181148123Y-105521610D01*
X181100504Y-105712086D01*
X181052885Y-105807324D01*
X180957647Y-105902562D01*
X180814789Y-105950181D01*
X180719551Y-105950181D01*
X180576694Y-105902562D01*
X180529075Y-105854943D01*
X180529075Y-105521610D01*
X180719551Y-105521610D01*
X180100504Y-105950181D02*
X180100504Y-104950181D01*
X179529075Y-105950181D01*
X179529075Y-104950181D01*
X179052885Y-105950181D02*
X179052885Y-104950181D01*
X178814790Y-104950181D01*
X178671932Y-104997800D01*
X178576694Y-105093038D01*
X178529075Y-105188276D01*
X178481456Y-105378752D01*
X178481456Y-105521610D01*
X178529075Y-105712086D01*
X178576694Y-105807324D01*
X178671932Y-105902562D01*
X178814790Y-105950181D01*
X179052885Y-105950181D01*
X178100504Y-105045419D02*
X178052885Y-104997800D01*
X177957647Y-104950181D01*
X177719551Y-104950181D01*
X177624313Y-104997800D01*
X177576694Y-105045419D01*
X177529075Y-105140657D01*
X177529075Y-105235895D01*
X177576694Y-105378752D01*
X178148123Y-105950181D01*
X177529075Y-105950181D01*
X177195742Y-104950181D02*
X176576694Y-104950181D01*
X176910028Y-105331133D01*
X176767170Y-105331133D01*
X176671932Y-105378752D01*
X176624313Y-105426371D01*
X176576694Y-105521610D01*
X176576694Y-105759705D01*
X176624313Y-105854943D01*
X176671932Y-105902562D01*
X176767170Y-105950181D01*
X177052885Y-105950181D01*
X177148123Y-105902562D01*
X177195742Y-105854943D01*
D13*
X182171933Y-103031133D02*
X182171933Y-103364467D01*
X182405266Y-102664467D02*
X182171933Y-103031133D01*
X181938600Y-102664467D01*
X181338600Y-103364467D02*
X181738600Y-103364467D01*
X181538600Y-103364467D02*
X181538600Y-102664467D01*
X181605266Y-102764467D01*
X181671933Y-102831133D01*
X181738600Y-102864467D01*
M02*
