G04 #@! TF.FileFunction,Copper,L2,Bot,Signal*
%FSLAX46Y46*%
G04 Gerber Fmt 4.6, Leading zero omitted, Abs format (unit mm)*
G04 Created by KiCad (PCBNEW 4.0.6) date Tuesday 03. October 2017 15.24.42*
%MOMM*%
%LPD*%
G01*
G04 APERTURE LIST*
%ADD10C,0.100000*%
%ADD11O,1.524000X1.524000*%
%ADD12R,0.750000X0.800000*%
%ADD13R,0.800000X0.750000*%
%ADD14R,1.700000X1.700000*%
%ADD15C,1.700000*%
%ADD16R,0.500000X0.900000*%
%ADD17C,1.524000*%
%ADD18C,1.523000*%
%ADD19R,1.400000X1.200000*%
%ADD20C,0.600000*%
%ADD21C,1.000000*%
%ADD22C,0.635000*%
%ADD23C,0.250000*%
G04 APERTURE END LIST*
D10*
D11*
X168656000Y-73660000D03*
X166116000Y-73660000D03*
X163576000Y-73660000D03*
X161036000Y-73660000D03*
X158496000Y-73660000D03*
X155956000Y-73660000D03*
X153416000Y-73660000D03*
X150876000Y-73660000D03*
X148336000Y-73660000D03*
X145796000Y-73660000D03*
X154940000Y-127000000D03*
X157480000Y-127000000D03*
X160020000Y-127000000D03*
X162560000Y-127000000D03*
X165100000Y-127000000D03*
X167640000Y-127000000D03*
X170180000Y-127000000D03*
X172720000Y-127000000D03*
X190500000Y-73660000D03*
X187960000Y-73660000D03*
X185420000Y-73660000D03*
X182880000Y-73660000D03*
X180340000Y-73660000D03*
X177800000Y-73660000D03*
X175260000Y-73660000D03*
X172720000Y-73660000D03*
X168656000Y-81280000D03*
X166116000Y-81280000D03*
X163576000Y-81280000D03*
X161036000Y-81280000D03*
X158496000Y-81280000D03*
X155956000Y-81280000D03*
X153416000Y-81280000D03*
X150876000Y-81280000D03*
X190500000Y-81280000D03*
X187960000Y-81280000D03*
X185420000Y-81280000D03*
X182880000Y-81280000D03*
X180340000Y-81280000D03*
X177800000Y-81280000D03*
X175260000Y-81280000D03*
X172720000Y-81280000D03*
X177800000Y-127000000D03*
X180340000Y-127000000D03*
X182880000Y-127000000D03*
X185420000Y-127000000D03*
X187960000Y-127000000D03*
X190500000Y-127000000D03*
X165100000Y-119380000D03*
X167640000Y-119380000D03*
X170180000Y-119380000D03*
X172720000Y-119380000D03*
X177800000Y-119380000D03*
X180340000Y-119380000D03*
X182880000Y-119380000D03*
X185420000Y-119380000D03*
X187960000Y-119380000D03*
X190500000Y-119380000D03*
D12*
X186690000Y-98540000D03*
X186690000Y-97040000D03*
D13*
X177280000Y-114300000D03*
X175780000Y-114300000D03*
X177280000Y-111760000D03*
X175780000Y-111760000D03*
X177280000Y-109220000D03*
X175780000Y-109220000D03*
X177280000Y-106680000D03*
X175780000Y-106680000D03*
X177280000Y-104140000D03*
X175780000Y-104140000D03*
X177280000Y-101600000D03*
X175780000Y-101600000D03*
X172200000Y-114300000D03*
X170700000Y-114300000D03*
X172200000Y-111760000D03*
X170700000Y-111760000D03*
X172200000Y-109220000D03*
X170700000Y-109220000D03*
X172200000Y-106680000D03*
X170700000Y-106680000D03*
D14*
X163830000Y-111760000D03*
D15*
X161290000Y-111760000D03*
X163830000Y-109220000D03*
X161290000Y-109220000D03*
X163830000Y-106680000D03*
X161290000Y-106680000D03*
X163830000Y-104140000D03*
X161290000Y-104140000D03*
X163830000Y-101600000D03*
X161290000Y-101600000D03*
X163830000Y-99060000D03*
X161290000Y-99060000D03*
X163830000Y-96520000D03*
X161290000Y-96520000D03*
X163830000Y-93980000D03*
X161290000Y-93980000D03*
X163830000Y-91440000D03*
X161290000Y-91440000D03*
X163830000Y-88900000D03*
X161290000Y-88900000D03*
D16*
X170700000Y-104140000D03*
X172200000Y-104140000D03*
X172200000Y-101600000D03*
X170700000Y-101600000D03*
D17*
X165100000Y-121920000D03*
X167640000Y-121920000D03*
X170180000Y-121920000D03*
X172720000Y-121920000D03*
X182880000Y-121920000D03*
X180340000Y-121920000D03*
X177800000Y-121920000D03*
X185420000Y-121920000D03*
X187960000Y-121920000D03*
X190500000Y-121920000D03*
D18*
X150876000Y-78740000D03*
D17*
X153416000Y-78740000D03*
X155956000Y-78740000D03*
X158496000Y-78740000D03*
X161036000Y-78740000D03*
X163576000Y-78740000D03*
X166116000Y-78740000D03*
X168656000Y-78740000D03*
X172720000Y-78740000D03*
X175260000Y-78740000D03*
X177800000Y-78740000D03*
X180340000Y-78740000D03*
X182880000Y-78740000D03*
X185420000Y-78740000D03*
X187960000Y-78740000D03*
X190500000Y-78740000D03*
X190500000Y-124460000D03*
X187960000Y-124460000D03*
X185420000Y-124460000D03*
X177800000Y-124460000D03*
X180340000Y-124460000D03*
X182880000Y-124460000D03*
X172720000Y-124460000D03*
X170180000Y-124460000D03*
X167640000Y-124460000D03*
X162560000Y-124460000D03*
X160020000Y-124460000D03*
X190500000Y-76200000D03*
X187960000Y-76200000D03*
X185420000Y-76200000D03*
X182880000Y-76200000D03*
X180340000Y-76200000D03*
X177800000Y-76200000D03*
X175260000Y-76200000D03*
X172720000Y-76200000D03*
X168656000Y-76200000D03*
X166116000Y-76200000D03*
X163576000Y-76200000D03*
X161036000Y-76200000D03*
X158496000Y-76200000D03*
X155956000Y-76200000D03*
X153416000Y-76200000D03*
D18*
X150876000Y-76200000D03*
D17*
X165100000Y-124460000D03*
X148336000Y-76200000D03*
X145796000Y-76200000D03*
X157480000Y-124460000D03*
X154940000Y-124460000D03*
D19*
X182938600Y-103897800D03*
X180738600Y-103897800D03*
X180738600Y-102197800D03*
X182938600Y-102197800D03*
D20*
X193040000Y-132080000D03*
X208280000Y-116840000D03*
X200660000Y-88900000D03*
X177647600Y-100177600D03*
X169367200Y-93268800D03*
X184200800Y-96418400D03*
X182930800Y-111734600D03*
X195427600Y-113030000D03*
X195478400Y-128117600D03*
X195427600Y-123240800D03*
X195376800Y-118211600D03*
X176326800Y-94234000D03*
X177546000Y-95554800D03*
X175006000Y-100203000D03*
D21*
X173990000Y-111760000D03*
D20*
X184150000Y-95250000D03*
X179146200Y-100609400D03*
X168554400Y-98044000D03*
X183692800Y-94030800D03*
X181889400Y-97231200D03*
X154914600Y-109677200D03*
X182753000Y-99288600D03*
X152882600Y-111175800D03*
X170484800Y-99695000D03*
X156032200Y-110261400D03*
X169316400Y-102819200D03*
X178663600Y-101701600D03*
X180594000Y-100126800D03*
X139471400Y-120878600D03*
X160248600Y-115519200D03*
X142595600Y-121996200D03*
X161137600Y-116484400D03*
X167132000Y-116408200D03*
X169672000Y-97104200D03*
D22*
X180738600Y-103897800D02*
X180738600Y-113799800D01*
X180738600Y-113799800D02*
X180238400Y-114300000D01*
X208280000Y-116840000D02*
X208280000Y-96520000D01*
X208280000Y-96520000D02*
X200660000Y-88900000D01*
D23*
X177280000Y-100545200D02*
X177280000Y-101600000D01*
X177647600Y-100177600D02*
X177280000Y-100545200D01*
X162560000Y-92710000D02*
X161290000Y-91440000D01*
X168808400Y-92710000D02*
X162560000Y-92710000D01*
X169367200Y-93268800D02*
X168808400Y-92710000D01*
X186690000Y-98540000D02*
X186322400Y-98540000D01*
X186322400Y-98540000D02*
X184200800Y-96418400D01*
D22*
X195580000Y-109220000D02*
X195580000Y-100711000D01*
X193409000Y-98540000D02*
X186690000Y-98540000D01*
X195580000Y-100711000D02*
X193409000Y-98540000D01*
X177280000Y-114300000D02*
X177280000Y-114820000D01*
X173470000Y-115570000D02*
X172200000Y-114300000D01*
X176530000Y-115570000D02*
X173470000Y-115570000D01*
X177280000Y-114820000D02*
X176530000Y-115570000D01*
X172200000Y-114300000D02*
X172200000Y-111760000D01*
X172200000Y-111760000D02*
X172200000Y-109220000D01*
X172200000Y-109220000D02*
X172200000Y-106680000D01*
X177280000Y-114300000D02*
X180238400Y-114300000D01*
X180238400Y-114300000D02*
X184023000Y-114300000D01*
X184023000Y-114300000D02*
X193040000Y-114300000D01*
X177280000Y-114300000D02*
X177280000Y-111760000D01*
X177280000Y-111760000D02*
X177280000Y-109220000D01*
X177280000Y-109220000D02*
X177280000Y-106680000D01*
X177280000Y-106680000D02*
X177280000Y-104140000D01*
X177280000Y-104140000D02*
X177280000Y-101600000D01*
X193040000Y-132080000D02*
X193040000Y-114300000D01*
X193040000Y-114300000D02*
X193040000Y-111760000D01*
X200660000Y-109220000D02*
X208280000Y-116840000D01*
X195580000Y-109220000D02*
X200660000Y-109220000D01*
X193040000Y-111760000D02*
X195580000Y-109220000D01*
X170180000Y-127000000D02*
X170180000Y-129540000D01*
X170180000Y-129540000D02*
X172720000Y-132080000D01*
X172720000Y-132080000D02*
X193040000Y-132080000D01*
X182938600Y-111726800D02*
X182938600Y-103897800D01*
X182930800Y-111734600D02*
X182938600Y-111726800D01*
X182938600Y-102197800D02*
X182938600Y-103897800D01*
X175780000Y-101600000D02*
X172200000Y-101600000D01*
X195376800Y-113080800D02*
X195427600Y-113030000D01*
X195376800Y-113080800D02*
X195376800Y-118211600D01*
X195427600Y-123240800D02*
X195427600Y-118262400D01*
X195427600Y-118262400D02*
X195376800Y-118211600D01*
X195478400Y-128117600D02*
X195478400Y-123291600D01*
X195478400Y-123291600D02*
X195427600Y-123240800D01*
X162560000Y-127000000D02*
X168656000Y-133096000D01*
X195478400Y-133096000D02*
X195478400Y-128117600D01*
X168656000Y-133096000D02*
X195478400Y-133096000D01*
D23*
X177546000Y-95554800D02*
X177546000Y-97663000D01*
X177546000Y-97663000D02*
X175006000Y-100203000D01*
X176326800Y-94234000D02*
X176326800Y-94335600D01*
X176326800Y-94335600D02*
X177546000Y-95554800D01*
X175780000Y-100977000D02*
X175780000Y-101600000D01*
X175006000Y-100203000D02*
X175780000Y-100977000D01*
D22*
X173990000Y-111760000D02*
X175780000Y-111760000D01*
X162560000Y-124460000D02*
X162560000Y-113030000D01*
X162560000Y-113030000D02*
X163830000Y-111760000D01*
X175780000Y-101600000D02*
X175780000Y-104140000D01*
X175780000Y-104140000D02*
X175780000Y-106680000D01*
X175780000Y-106680000D02*
X175780000Y-109220000D01*
X175780000Y-109220000D02*
X175780000Y-111760000D01*
X175780000Y-111760000D02*
X175780000Y-114300000D01*
D23*
X185940000Y-97040000D02*
X186690000Y-97040000D01*
X184150000Y-95250000D02*
X185940000Y-97040000D01*
D22*
X172200000Y-104140000D02*
X172200000Y-102934200D01*
X170700000Y-102567346D02*
X170700000Y-101600000D01*
X170371946Y-102895400D02*
X170700000Y-102567346D01*
X172161200Y-102895400D02*
X170371946Y-102895400D01*
X172200000Y-102934200D02*
X172161200Y-102895400D01*
D23*
X179146200Y-100609400D02*
X179150200Y-100609400D01*
X179150200Y-100609400D02*
X180738600Y-102197800D01*
X164439600Y-96520000D02*
X163830000Y-96520000D01*
X165912800Y-93980000D02*
X163830000Y-93980000D01*
X168554400Y-98044000D02*
X165912800Y-93980000D01*
X183692800Y-94030800D02*
X183794400Y-93929200D01*
X183794400Y-93929200D02*
X183794400Y-88849200D01*
X183794400Y-88849200D02*
X177800000Y-82854800D01*
X177800000Y-82854800D02*
X171450000Y-82854800D01*
X171450000Y-82854800D02*
X171348400Y-82753200D01*
X171348400Y-82753200D02*
X171348400Y-76758800D01*
X171348400Y-76758800D02*
X169621200Y-75031600D01*
X169621200Y-75031600D02*
X167284400Y-75031600D01*
X167284400Y-75031600D02*
X166116000Y-76200000D01*
X181889400Y-89865200D02*
X181889400Y-97231200D01*
X176606200Y-84582000D02*
X181889400Y-89865200D01*
X159613600Y-84582000D02*
X176606200Y-84582000D01*
X155244800Y-88950800D02*
X159613600Y-84582000D01*
X155244800Y-109347000D02*
X155244800Y-88950800D01*
X154914600Y-109677200D02*
X155244800Y-109347000D01*
X182753000Y-89255600D02*
X182753000Y-99288600D01*
X177292000Y-83794600D02*
X182753000Y-89255600D01*
X158724600Y-83794600D02*
X177292000Y-83794600D01*
X153746200Y-88773000D02*
X158724600Y-83794600D01*
X153746200Y-110312200D02*
X153746200Y-88773000D01*
X152882600Y-111175800D02*
X153746200Y-110312200D01*
X170484800Y-88188800D02*
X170484800Y-99695000D01*
X168021000Y-85725000D02*
X170484800Y-88188800D01*
X160070800Y-85725000D02*
X168021000Y-85725000D01*
X156565600Y-89230200D02*
X160070800Y-85725000D01*
X156565600Y-109728000D02*
X156565600Y-89230200D01*
X156032200Y-110261400D02*
X156565600Y-109728000D01*
X169316400Y-102819200D02*
X170637200Y-104140000D01*
X178308000Y-101346000D02*
X178663600Y-101701600D01*
X178308000Y-99669600D02*
X178308000Y-101346000D01*
X178917600Y-99060000D02*
X178308000Y-99669600D01*
X180492400Y-99060000D02*
X178917600Y-99060000D01*
X180594000Y-99161600D02*
X180492400Y-99060000D01*
X180594000Y-100126800D02*
X180594000Y-99161600D01*
X170637200Y-104140000D02*
X170700000Y-104140000D01*
D22*
X170700000Y-114300000D02*
X170700000Y-111760000D01*
X170700000Y-111760000D02*
X170700000Y-109220000D01*
X170700000Y-109220000D02*
X170700000Y-106680000D01*
X170700000Y-106680000D02*
X170700000Y-104140000D01*
D23*
X139801600Y-120548400D02*
X139471400Y-120878600D01*
X155219400Y-120548400D02*
X139801600Y-120548400D01*
X160248600Y-115519200D02*
X155219400Y-120548400D01*
X142595600Y-121996200D02*
X144145000Y-121996200D01*
X144145000Y-121996200D02*
X155625800Y-121996200D01*
X155625800Y-121996200D02*
X161137600Y-116484400D01*
X167132000Y-116408200D02*
X167792400Y-115747800D01*
X167792400Y-115747800D02*
X167792400Y-100736400D01*
X167792400Y-100736400D02*
X169672000Y-98856800D01*
X169672000Y-98856800D02*
X169672000Y-97104200D01*
M02*
