G04 #@! TF.FileFunction,Copper,L3,Inr,Plane*
%FSLAX46Y46*%
G04 Gerber Fmt 4.6, Leading zero omitted, Abs format (unit mm)*
G04 Created by KiCad (PCBNEW 4.0.6) date Tuesday 10. October 2017 13:08:52*
%MOMM*%
%LPD*%
G01*
G04 APERTURE LIST*
%ADD10C,0.100000*%
%ADD11O,1.524000X1.524000*%
%ADD12R,1.700000X1.700000*%
%ADD13C,1.700000*%
%ADD14C,1.524000*%
%ADD15C,1.523000*%
%ADD16C,1.000000*%
%ADD17C,0.400000*%
%ADD18C,0.600000*%
%ADD19C,0.254000*%
G04 APERTURE END LIST*
D10*
D11*
X168656000Y-73660000D03*
X166116000Y-73660000D03*
X163576000Y-73660000D03*
X161036000Y-73660000D03*
X158496000Y-73660000D03*
X155956000Y-73660000D03*
X153416000Y-73660000D03*
X150876000Y-73660000D03*
X148336000Y-73660000D03*
X145796000Y-73660000D03*
X154940000Y-127000000D03*
X157480000Y-127000000D03*
X160020000Y-127000000D03*
X162560000Y-127000000D03*
X165100000Y-127000000D03*
X167640000Y-127000000D03*
X170180000Y-127000000D03*
X172720000Y-127000000D03*
X190500000Y-73660000D03*
X187960000Y-73660000D03*
X185420000Y-73660000D03*
X182880000Y-73660000D03*
X180340000Y-73660000D03*
X177800000Y-73660000D03*
X175260000Y-73660000D03*
X172720000Y-73660000D03*
X168656000Y-81280000D03*
X166116000Y-81280000D03*
X163576000Y-81280000D03*
X161036000Y-81280000D03*
X158496000Y-81280000D03*
X155956000Y-81280000D03*
X153416000Y-81280000D03*
X150876000Y-81280000D03*
X190500000Y-81280000D03*
X187960000Y-81280000D03*
X185420000Y-81280000D03*
X182880000Y-81280000D03*
X180340000Y-81280000D03*
X177800000Y-81280000D03*
X175260000Y-81280000D03*
X172720000Y-81280000D03*
X177800000Y-127000000D03*
X180340000Y-127000000D03*
X182880000Y-127000000D03*
X185420000Y-127000000D03*
X187960000Y-127000000D03*
X190500000Y-127000000D03*
X165100000Y-119380000D03*
X167640000Y-119380000D03*
X170180000Y-119380000D03*
X172720000Y-119380000D03*
X177800000Y-119380000D03*
X180340000Y-119380000D03*
X182880000Y-119380000D03*
X185420000Y-119380000D03*
X187960000Y-119380000D03*
X190500000Y-119380000D03*
D12*
X163830000Y-111760000D03*
D13*
X161290000Y-111760000D03*
X163830000Y-109220000D03*
X161290000Y-109220000D03*
X163830000Y-106680000D03*
X161290000Y-106680000D03*
X163830000Y-104140000D03*
X161290000Y-104140000D03*
X163830000Y-101600000D03*
X161290000Y-101600000D03*
X163830000Y-99060000D03*
X161290000Y-99060000D03*
X163830000Y-96520000D03*
X161290000Y-96520000D03*
X163830000Y-93980000D03*
X161290000Y-93980000D03*
X163830000Y-91440000D03*
X161290000Y-91440000D03*
X163830000Y-88900000D03*
X161290000Y-88900000D03*
D14*
X165100000Y-121920000D03*
X167640000Y-121920000D03*
X170180000Y-121920000D03*
X172720000Y-121920000D03*
X182880000Y-121920000D03*
X180340000Y-121920000D03*
X177800000Y-121920000D03*
X185420000Y-121920000D03*
X187960000Y-121920000D03*
X190500000Y-121920000D03*
D15*
X150876000Y-78740000D03*
D14*
X153416000Y-78740000D03*
X155956000Y-78740000D03*
X158496000Y-78740000D03*
X161036000Y-78740000D03*
X163576000Y-78740000D03*
X166116000Y-78740000D03*
X168656000Y-78740000D03*
X172720000Y-78740000D03*
X175260000Y-78740000D03*
X177800000Y-78740000D03*
X180340000Y-78740000D03*
X182880000Y-78740000D03*
X185420000Y-78740000D03*
X187960000Y-78740000D03*
X190500000Y-78740000D03*
X190500000Y-124460000D03*
X187960000Y-124460000D03*
X185420000Y-124460000D03*
X177800000Y-124460000D03*
X180340000Y-124460000D03*
X182880000Y-124460000D03*
X172720000Y-124460000D03*
X170180000Y-124460000D03*
X167640000Y-124460000D03*
X162560000Y-124460000D03*
X160020000Y-124460000D03*
X190500000Y-76200000D03*
X187960000Y-76200000D03*
X185420000Y-76200000D03*
X182880000Y-76200000D03*
X180340000Y-76200000D03*
X177800000Y-76200000D03*
X175260000Y-76200000D03*
X172720000Y-76200000D03*
X168656000Y-76200000D03*
X166116000Y-76200000D03*
X163576000Y-76200000D03*
X161036000Y-76200000D03*
X158496000Y-76200000D03*
X155956000Y-76200000D03*
X153416000Y-76200000D03*
D15*
X150876000Y-76200000D03*
D14*
X165100000Y-124460000D03*
X148336000Y-76200000D03*
X145796000Y-76200000D03*
X157480000Y-124460000D03*
X154940000Y-124460000D03*
D16*
X184302400Y-98552000D03*
D17*
X174523400Y-98044000D03*
X180136800Y-98856800D03*
X176936400Y-98044000D03*
X176936400Y-98856800D03*
X173736000Y-95656400D03*
X176149000Y-96418400D03*
X179324000Y-95656400D03*
X176936400Y-92456000D03*
X175437800Y-94157800D03*
D16*
X240614200Y-116636800D03*
X239496600Y-131851400D03*
X231368600Y-131699000D03*
X223215200Y-131775200D03*
X215112600Y-131826000D03*
X240030000Y-83185000D03*
D18*
X180746400Y-105435400D03*
X172212000Y-116205000D03*
X178968400Y-114300000D03*
X140335000Y-128727200D03*
D17*
X177698400Y-95656400D03*
X177723800Y-96443800D03*
X174523400Y-98856800D03*
X175387000Y-95631000D03*
X176936400Y-96418400D03*
X176123600Y-94081600D03*
X176936400Y-94107000D03*
D16*
X196824600Y-112953800D03*
X196824600Y-118110000D03*
X197078600Y-123215400D03*
X197053200Y-128041400D03*
D18*
X185140600Y-104038400D03*
X175768000Y-115925600D03*
X141351000Y-128676400D03*
D16*
X183235600Y-95250000D03*
D18*
X178917600Y-100812600D03*
D17*
X169164000Y-97510600D03*
X171196000Y-99491800D03*
X171780200Y-97256600D03*
X171196000Y-98018600D03*
X180136800Y-98044000D03*
X150469600Y-115417600D03*
X169799000Y-102946200D03*
X181610000Y-98729800D03*
X140944600Y-117932200D03*
D19*
G36*
X246107000Y-134347000D02*
X127273000Y-134347000D01*
X127273000Y-128830277D01*
X140573866Y-128830277D01*
X140691908Y-129115960D01*
X140910290Y-129334724D01*
X141195767Y-129453265D01*
X141504877Y-129453534D01*
X141790560Y-129335492D01*
X142009324Y-129117110D01*
X142127865Y-128831633D01*
X142128134Y-128522523D01*
X142010092Y-128236840D01*
X141791710Y-128018076D01*
X141506233Y-127899535D01*
X141197123Y-127899266D01*
X140911440Y-128017308D01*
X140692676Y-128235690D01*
X140574135Y-128521167D01*
X140573866Y-128830277D01*
X127273000Y-128830277D01*
X127273000Y-126975727D01*
X153701000Y-126975727D01*
X153701000Y-127024273D01*
X153795313Y-127498418D01*
X154063895Y-127900378D01*
X154465855Y-128168960D01*
X154940000Y-128263273D01*
X155414145Y-128168960D01*
X155816105Y-127900378D01*
X156084687Y-127498418D01*
X156179000Y-127024273D01*
X156179000Y-126975727D01*
X156241000Y-126975727D01*
X156241000Y-127024273D01*
X156335313Y-127498418D01*
X156603895Y-127900378D01*
X157005855Y-128168960D01*
X157480000Y-128263273D01*
X157954145Y-128168960D01*
X158356105Y-127900378D01*
X158624687Y-127498418D01*
X158719000Y-127024273D01*
X158719000Y-126975727D01*
X158781000Y-126975727D01*
X158781000Y-127024273D01*
X158875313Y-127498418D01*
X159143895Y-127900378D01*
X159545855Y-128168960D01*
X160020000Y-128263273D01*
X160494145Y-128168960D01*
X160896105Y-127900378D01*
X161164687Y-127498418D01*
X161259000Y-127024273D01*
X161259000Y-126975727D01*
X161321000Y-126975727D01*
X161321000Y-127024273D01*
X161415313Y-127498418D01*
X161683895Y-127900378D01*
X162085855Y-128168960D01*
X162560000Y-128263273D01*
X163034145Y-128168960D01*
X163436105Y-127900378D01*
X163704687Y-127498418D01*
X163799000Y-127024273D01*
X163799000Y-126975727D01*
X163861000Y-126975727D01*
X163861000Y-127024273D01*
X163955313Y-127498418D01*
X164223895Y-127900378D01*
X164625855Y-128168960D01*
X165100000Y-128263273D01*
X165574145Y-128168960D01*
X165976105Y-127900378D01*
X166244687Y-127498418D01*
X166295873Y-127241086D01*
X166424678Y-127241086D01*
X166609448Y-127687818D01*
X166951111Y-128029836D01*
X167397651Y-128215071D01*
X167398914Y-128215318D01*
X167592000Y-128118721D01*
X167592000Y-127048000D01*
X167688000Y-127048000D01*
X167688000Y-128118721D01*
X167881086Y-128215318D01*
X167882349Y-128215071D01*
X168328889Y-128029836D01*
X168670552Y-127687818D01*
X168855322Y-127241086D01*
X168964678Y-127241086D01*
X169149448Y-127687818D01*
X169491111Y-128029836D01*
X169937651Y-128215071D01*
X169938914Y-128215318D01*
X170132000Y-128118721D01*
X170132000Y-127048000D01*
X170228000Y-127048000D01*
X170228000Y-128118721D01*
X170421086Y-128215318D01*
X170422349Y-128215071D01*
X170868889Y-128029836D01*
X171210552Y-127687818D01*
X171395322Y-127241086D01*
X171298824Y-127048000D01*
X170228000Y-127048000D01*
X170132000Y-127048000D01*
X169061176Y-127048000D01*
X168964678Y-127241086D01*
X168855322Y-127241086D01*
X168758824Y-127048000D01*
X167688000Y-127048000D01*
X167592000Y-127048000D01*
X166521176Y-127048000D01*
X166424678Y-127241086D01*
X166295873Y-127241086D01*
X166339000Y-127024273D01*
X166339000Y-126975727D01*
X171481000Y-126975727D01*
X171481000Y-127024273D01*
X171575313Y-127498418D01*
X171843895Y-127900378D01*
X172245855Y-128168960D01*
X172720000Y-128263273D01*
X173194145Y-128168960D01*
X173596105Y-127900378D01*
X173864687Y-127498418D01*
X173959000Y-127024273D01*
X173959000Y-126975727D01*
X176561000Y-126975727D01*
X176561000Y-127024273D01*
X176655313Y-127498418D01*
X176923895Y-127900378D01*
X177325855Y-128168960D01*
X177800000Y-128263273D01*
X178274145Y-128168960D01*
X178676105Y-127900378D01*
X178944687Y-127498418D01*
X179039000Y-127024273D01*
X179039000Y-126975727D01*
X179101000Y-126975727D01*
X179101000Y-127024273D01*
X179195313Y-127498418D01*
X179463895Y-127900378D01*
X179865855Y-128168960D01*
X180340000Y-128263273D01*
X180814145Y-128168960D01*
X181216105Y-127900378D01*
X181484687Y-127498418D01*
X181579000Y-127024273D01*
X181579000Y-126975727D01*
X181641000Y-126975727D01*
X181641000Y-127024273D01*
X181735313Y-127498418D01*
X182003895Y-127900378D01*
X182405855Y-128168960D01*
X182880000Y-128263273D01*
X183354145Y-128168960D01*
X183756105Y-127900378D01*
X184024687Y-127498418D01*
X184119000Y-127024273D01*
X184119000Y-126975727D01*
X184181000Y-126975727D01*
X184181000Y-127024273D01*
X184275313Y-127498418D01*
X184543895Y-127900378D01*
X184945855Y-128168960D01*
X185420000Y-128263273D01*
X185894145Y-128168960D01*
X186296105Y-127900378D01*
X186564687Y-127498418D01*
X186659000Y-127024273D01*
X186659000Y-126975727D01*
X186721000Y-126975727D01*
X186721000Y-127024273D01*
X186815313Y-127498418D01*
X187083895Y-127900378D01*
X187485855Y-128168960D01*
X187960000Y-128263273D01*
X188434145Y-128168960D01*
X188836105Y-127900378D01*
X189104687Y-127498418D01*
X189199000Y-127024273D01*
X189199000Y-126975727D01*
X189261000Y-126975727D01*
X189261000Y-127024273D01*
X189355313Y-127498418D01*
X189623895Y-127900378D01*
X190025855Y-128168960D01*
X190500000Y-128263273D01*
X190642716Y-128234885D01*
X196076030Y-128234885D01*
X196224456Y-128594103D01*
X196499051Y-128869178D01*
X196858010Y-129018230D01*
X197246685Y-129018570D01*
X197605903Y-128870144D01*
X197880978Y-128595549D01*
X198030030Y-128236590D01*
X198030370Y-127847915D01*
X197881944Y-127488697D01*
X197607349Y-127213622D01*
X197248390Y-127064570D01*
X196859715Y-127064230D01*
X196500497Y-127212656D01*
X196225422Y-127487251D01*
X196076370Y-127846210D01*
X196076030Y-128234885D01*
X190642716Y-128234885D01*
X190974145Y-128168960D01*
X191376105Y-127900378D01*
X191644687Y-127498418D01*
X191739000Y-127024273D01*
X191739000Y-126975727D01*
X191644687Y-126501582D01*
X191376105Y-126099622D01*
X190974145Y-125831040D01*
X190500000Y-125736727D01*
X190025855Y-125831040D01*
X189623895Y-126099622D01*
X189355313Y-126501582D01*
X189261000Y-126975727D01*
X189199000Y-126975727D01*
X189104687Y-126501582D01*
X188836105Y-126099622D01*
X188434145Y-125831040D01*
X187960000Y-125736727D01*
X187485855Y-125831040D01*
X187083895Y-126099622D01*
X186815313Y-126501582D01*
X186721000Y-126975727D01*
X186659000Y-126975727D01*
X186564687Y-126501582D01*
X186296105Y-126099622D01*
X185894145Y-125831040D01*
X185420000Y-125736727D01*
X184945855Y-125831040D01*
X184543895Y-126099622D01*
X184275313Y-126501582D01*
X184181000Y-126975727D01*
X184119000Y-126975727D01*
X184024687Y-126501582D01*
X183756105Y-126099622D01*
X183354145Y-125831040D01*
X182880000Y-125736727D01*
X182405855Y-125831040D01*
X182003895Y-126099622D01*
X181735313Y-126501582D01*
X181641000Y-126975727D01*
X181579000Y-126975727D01*
X181484687Y-126501582D01*
X181216105Y-126099622D01*
X180814145Y-125831040D01*
X180340000Y-125736727D01*
X179865855Y-125831040D01*
X179463895Y-126099622D01*
X179195313Y-126501582D01*
X179101000Y-126975727D01*
X179039000Y-126975727D01*
X178944687Y-126501582D01*
X178676105Y-126099622D01*
X178274145Y-125831040D01*
X177800000Y-125736727D01*
X177325855Y-125831040D01*
X176923895Y-126099622D01*
X176655313Y-126501582D01*
X176561000Y-126975727D01*
X173959000Y-126975727D01*
X173864687Y-126501582D01*
X173596105Y-126099622D01*
X173194145Y-125831040D01*
X172720000Y-125736727D01*
X172245855Y-125831040D01*
X171843895Y-126099622D01*
X171575313Y-126501582D01*
X171481000Y-126975727D01*
X166339000Y-126975727D01*
X166295874Y-126758914D01*
X166424678Y-126758914D01*
X166521176Y-126952000D01*
X167592000Y-126952000D01*
X167592000Y-125881279D01*
X167688000Y-125881279D01*
X167688000Y-126952000D01*
X168758824Y-126952000D01*
X168855322Y-126758914D01*
X168964678Y-126758914D01*
X169061176Y-126952000D01*
X170132000Y-126952000D01*
X170132000Y-125881279D01*
X170228000Y-125881279D01*
X170228000Y-126952000D01*
X171298824Y-126952000D01*
X171395322Y-126758914D01*
X171210552Y-126312182D01*
X170868889Y-125970164D01*
X170422349Y-125784929D01*
X170421086Y-125784682D01*
X170228000Y-125881279D01*
X170132000Y-125881279D01*
X169938914Y-125784682D01*
X169937651Y-125784929D01*
X169491111Y-125970164D01*
X169149448Y-126312182D01*
X168964678Y-126758914D01*
X168855322Y-126758914D01*
X168670552Y-126312182D01*
X168328889Y-125970164D01*
X167882349Y-125784929D01*
X167881086Y-125784682D01*
X167688000Y-125881279D01*
X167592000Y-125881279D01*
X167398914Y-125784682D01*
X167397651Y-125784929D01*
X166951111Y-125970164D01*
X166609448Y-126312182D01*
X166424678Y-126758914D01*
X166295874Y-126758914D01*
X166244687Y-126501582D01*
X165976105Y-126099622D01*
X165574145Y-125831040D01*
X165100000Y-125736727D01*
X164625855Y-125831040D01*
X164223895Y-126099622D01*
X163955313Y-126501582D01*
X163861000Y-126975727D01*
X163799000Y-126975727D01*
X163704687Y-126501582D01*
X163436105Y-126099622D01*
X163034145Y-125831040D01*
X162560000Y-125736727D01*
X162085855Y-125831040D01*
X161683895Y-126099622D01*
X161415313Y-126501582D01*
X161321000Y-126975727D01*
X161259000Y-126975727D01*
X161164687Y-126501582D01*
X160896105Y-126099622D01*
X160494145Y-125831040D01*
X160020000Y-125736727D01*
X159545855Y-125831040D01*
X159143895Y-126099622D01*
X158875313Y-126501582D01*
X158781000Y-126975727D01*
X158719000Y-126975727D01*
X158624687Y-126501582D01*
X158356105Y-126099622D01*
X157954145Y-125831040D01*
X157480000Y-125736727D01*
X157005855Y-125831040D01*
X156603895Y-126099622D01*
X156335313Y-126501582D01*
X156241000Y-126975727D01*
X156179000Y-126975727D01*
X156084687Y-126501582D01*
X155816105Y-126099622D01*
X155414145Y-125831040D01*
X154940000Y-125736727D01*
X154465855Y-125831040D01*
X154063895Y-126099622D01*
X153795313Y-126501582D01*
X153701000Y-126975727D01*
X127273000Y-126975727D01*
X127273000Y-124705371D01*
X153700786Y-124705371D01*
X153889015Y-125160920D01*
X154237247Y-125509760D01*
X154692467Y-125698784D01*
X155185371Y-125699214D01*
X155640920Y-125510985D01*
X155989760Y-125162753D01*
X156178784Y-124707533D01*
X156178785Y-124705371D01*
X156240786Y-124705371D01*
X156429015Y-125160920D01*
X156777247Y-125509760D01*
X157232467Y-125698784D01*
X157725371Y-125699214D01*
X158180920Y-125510985D01*
X158529760Y-125162753D01*
X158718784Y-124707533D01*
X158718785Y-124705371D01*
X158780786Y-124705371D01*
X158969015Y-125160920D01*
X159317247Y-125509760D01*
X159772467Y-125698784D01*
X160265371Y-125699214D01*
X160720920Y-125510985D01*
X161069760Y-125162753D01*
X161258784Y-124707533D01*
X161258785Y-124705371D01*
X161320786Y-124705371D01*
X161509015Y-125160920D01*
X161857247Y-125509760D01*
X162312467Y-125698784D01*
X162805371Y-125699214D01*
X163260920Y-125510985D01*
X163609760Y-125162753D01*
X163798784Y-124707533D01*
X163798785Y-124705371D01*
X163860786Y-124705371D01*
X164049015Y-125160920D01*
X164397247Y-125509760D01*
X164852467Y-125698784D01*
X165345371Y-125699214D01*
X165800920Y-125510985D01*
X166010094Y-125302175D01*
X166865707Y-125302175D01*
X166936836Y-125509485D01*
X167391982Y-125698687D01*
X167884887Y-125699309D01*
X168340509Y-125511258D01*
X168343164Y-125509485D01*
X168414293Y-125302175D01*
X169405707Y-125302175D01*
X169476836Y-125509485D01*
X169931982Y-125698687D01*
X170424887Y-125699309D01*
X170880509Y-125511258D01*
X170883164Y-125509485D01*
X170954293Y-125302175D01*
X170180000Y-124527882D01*
X169405707Y-125302175D01*
X168414293Y-125302175D01*
X167640000Y-124527882D01*
X166865707Y-125302175D01*
X166010094Y-125302175D01*
X166149760Y-125162753D01*
X166338784Y-124707533D01*
X166338786Y-124704887D01*
X166400691Y-124704887D01*
X166588742Y-125160509D01*
X166590515Y-125163164D01*
X166797825Y-125234293D01*
X167572118Y-124460000D01*
X167707882Y-124460000D01*
X168482175Y-125234293D01*
X168689485Y-125163164D01*
X168878687Y-124708018D01*
X168878690Y-124704887D01*
X168940691Y-124704887D01*
X169128742Y-125160509D01*
X169130515Y-125163164D01*
X169337825Y-125234293D01*
X170112118Y-124460000D01*
X170247882Y-124460000D01*
X171022175Y-125234293D01*
X171229485Y-125163164D01*
X171418687Y-124708018D01*
X171418690Y-124705371D01*
X171480786Y-124705371D01*
X171669015Y-125160920D01*
X172017247Y-125509760D01*
X172472467Y-125698784D01*
X172965371Y-125699214D01*
X173420920Y-125510985D01*
X173769760Y-125162753D01*
X173958784Y-124707533D01*
X173958785Y-124705371D01*
X176560786Y-124705371D01*
X176749015Y-125160920D01*
X177097247Y-125509760D01*
X177552467Y-125698784D01*
X178045371Y-125699214D01*
X178500920Y-125510985D01*
X178849760Y-125162753D01*
X179038784Y-124707533D01*
X179038785Y-124705371D01*
X179100786Y-124705371D01*
X179289015Y-125160920D01*
X179637247Y-125509760D01*
X180092467Y-125698784D01*
X180585371Y-125699214D01*
X181040920Y-125510985D01*
X181389760Y-125162753D01*
X181578784Y-124707533D01*
X181578785Y-124705371D01*
X181640786Y-124705371D01*
X181829015Y-125160920D01*
X182177247Y-125509760D01*
X182632467Y-125698784D01*
X183125371Y-125699214D01*
X183580920Y-125510985D01*
X183929760Y-125162753D01*
X184118784Y-124707533D01*
X184118785Y-124705371D01*
X184180786Y-124705371D01*
X184369015Y-125160920D01*
X184717247Y-125509760D01*
X185172467Y-125698784D01*
X185665371Y-125699214D01*
X186120920Y-125510985D01*
X186469760Y-125162753D01*
X186658784Y-124707533D01*
X186658785Y-124705371D01*
X186720786Y-124705371D01*
X186909015Y-125160920D01*
X187257247Y-125509760D01*
X187712467Y-125698784D01*
X188205371Y-125699214D01*
X188660920Y-125510985D01*
X189009760Y-125162753D01*
X189198784Y-124707533D01*
X189198785Y-124705371D01*
X189260786Y-124705371D01*
X189449015Y-125160920D01*
X189797247Y-125509760D01*
X190252467Y-125698784D01*
X190745371Y-125699214D01*
X191200920Y-125510985D01*
X191549760Y-125162753D01*
X191738784Y-124707533D01*
X191739214Y-124214629D01*
X191550985Y-123759080D01*
X191202753Y-123410240D01*
X191199490Y-123408885D01*
X196101430Y-123408885D01*
X196249856Y-123768103D01*
X196524451Y-124043178D01*
X196883410Y-124192230D01*
X197272085Y-124192570D01*
X197631303Y-124044144D01*
X197906378Y-123769549D01*
X198055430Y-123410590D01*
X198055770Y-123021915D01*
X197907344Y-122662697D01*
X197632749Y-122387622D01*
X197273790Y-122238570D01*
X196885115Y-122238230D01*
X196525897Y-122386656D01*
X196250822Y-122661251D01*
X196101770Y-123020210D01*
X196101430Y-123408885D01*
X191199490Y-123408885D01*
X190747533Y-123221216D01*
X190254629Y-123220786D01*
X189799080Y-123409015D01*
X189450240Y-123757247D01*
X189261216Y-124212467D01*
X189260786Y-124705371D01*
X189198785Y-124705371D01*
X189199214Y-124214629D01*
X189010985Y-123759080D01*
X188662753Y-123410240D01*
X188207533Y-123221216D01*
X187714629Y-123220786D01*
X187259080Y-123409015D01*
X186910240Y-123757247D01*
X186721216Y-124212467D01*
X186720786Y-124705371D01*
X186658785Y-124705371D01*
X186659214Y-124214629D01*
X186470985Y-123759080D01*
X186122753Y-123410240D01*
X185667533Y-123221216D01*
X185174629Y-123220786D01*
X184719080Y-123409015D01*
X184370240Y-123757247D01*
X184181216Y-124212467D01*
X184180786Y-124705371D01*
X184118785Y-124705371D01*
X184119214Y-124214629D01*
X183930985Y-123759080D01*
X183582753Y-123410240D01*
X183127533Y-123221216D01*
X182634629Y-123220786D01*
X182179080Y-123409015D01*
X181830240Y-123757247D01*
X181641216Y-124212467D01*
X181640786Y-124705371D01*
X181578785Y-124705371D01*
X181579214Y-124214629D01*
X181390985Y-123759080D01*
X181042753Y-123410240D01*
X180587533Y-123221216D01*
X180094629Y-123220786D01*
X179639080Y-123409015D01*
X179290240Y-123757247D01*
X179101216Y-124212467D01*
X179100786Y-124705371D01*
X179038785Y-124705371D01*
X179039214Y-124214629D01*
X178850985Y-123759080D01*
X178502753Y-123410240D01*
X178047533Y-123221216D01*
X177554629Y-123220786D01*
X177099080Y-123409015D01*
X176750240Y-123757247D01*
X176561216Y-124212467D01*
X176560786Y-124705371D01*
X173958785Y-124705371D01*
X173959214Y-124214629D01*
X173770985Y-123759080D01*
X173422753Y-123410240D01*
X172967533Y-123221216D01*
X172474629Y-123220786D01*
X172019080Y-123409015D01*
X171670240Y-123757247D01*
X171481216Y-124212467D01*
X171480786Y-124705371D01*
X171418690Y-124705371D01*
X171419309Y-124215113D01*
X171231258Y-123759491D01*
X171229485Y-123756836D01*
X171022175Y-123685707D01*
X170247882Y-124460000D01*
X170112118Y-124460000D01*
X169337825Y-123685707D01*
X169130515Y-123756836D01*
X168941313Y-124211982D01*
X168940691Y-124704887D01*
X168878690Y-124704887D01*
X168879309Y-124215113D01*
X168691258Y-123759491D01*
X168689485Y-123756836D01*
X168482175Y-123685707D01*
X167707882Y-124460000D01*
X167572118Y-124460000D01*
X166797825Y-123685707D01*
X166590515Y-123756836D01*
X166401313Y-124211982D01*
X166400691Y-124704887D01*
X166338786Y-124704887D01*
X166339214Y-124214629D01*
X166150985Y-123759080D01*
X166009977Y-123617825D01*
X166865707Y-123617825D01*
X167640000Y-124392118D01*
X168414293Y-123617825D01*
X169405707Y-123617825D01*
X170180000Y-124392118D01*
X170954293Y-123617825D01*
X170883164Y-123410515D01*
X170428018Y-123221313D01*
X169935113Y-123220691D01*
X169479491Y-123408742D01*
X169476836Y-123410515D01*
X169405707Y-123617825D01*
X168414293Y-123617825D01*
X168343164Y-123410515D01*
X167888018Y-123221313D01*
X167395113Y-123220691D01*
X166939491Y-123408742D01*
X166936836Y-123410515D01*
X166865707Y-123617825D01*
X166009977Y-123617825D01*
X165802753Y-123410240D01*
X165347533Y-123221216D01*
X164854629Y-123220786D01*
X164399080Y-123409015D01*
X164050240Y-123757247D01*
X163861216Y-124212467D01*
X163860786Y-124705371D01*
X163798785Y-124705371D01*
X163799214Y-124214629D01*
X163610985Y-123759080D01*
X163262753Y-123410240D01*
X162807533Y-123221216D01*
X162314629Y-123220786D01*
X161859080Y-123409015D01*
X161510240Y-123757247D01*
X161321216Y-124212467D01*
X161320786Y-124705371D01*
X161258785Y-124705371D01*
X161259214Y-124214629D01*
X161070985Y-123759080D01*
X160722753Y-123410240D01*
X160267533Y-123221216D01*
X159774629Y-123220786D01*
X159319080Y-123409015D01*
X158970240Y-123757247D01*
X158781216Y-124212467D01*
X158780786Y-124705371D01*
X158718785Y-124705371D01*
X158719214Y-124214629D01*
X158530985Y-123759080D01*
X158182753Y-123410240D01*
X157727533Y-123221216D01*
X157234629Y-123220786D01*
X156779080Y-123409015D01*
X156430240Y-123757247D01*
X156241216Y-124212467D01*
X156240786Y-124705371D01*
X156178785Y-124705371D01*
X156179214Y-124214629D01*
X155990985Y-123759080D01*
X155642753Y-123410240D01*
X155187533Y-123221216D01*
X154694629Y-123220786D01*
X154239080Y-123409015D01*
X153890240Y-123757247D01*
X153701216Y-124212467D01*
X153700786Y-124705371D01*
X127273000Y-124705371D01*
X127273000Y-122165371D01*
X163860786Y-122165371D01*
X164049015Y-122620920D01*
X164397247Y-122969760D01*
X164852467Y-123158784D01*
X165345371Y-123159214D01*
X165800920Y-122970985D01*
X166149760Y-122622753D01*
X166338784Y-122167533D01*
X166338785Y-122165371D01*
X166400786Y-122165371D01*
X166589015Y-122620920D01*
X166937247Y-122969760D01*
X167392467Y-123158784D01*
X167885371Y-123159214D01*
X168340920Y-122970985D01*
X168689760Y-122622753D01*
X168878784Y-122167533D01*
X168878785Y-122165371D01*
X168940786Y-122165371D01*
X169129015Y-122620920D01*
X169477247Y-122969760D01*
X169932467Y-123158784D01*
X170425371Y-123159214D01*
X170880920Y-122970985D01*
X171229760Y-122622753D01*
X171418784Y-122167533D01*
X171418785Y-122165371D01*
X171480786Y-122165371D01*
X171669015Y-122620920D01*
X172017247Y-122969760D01*
X172472467Y-123158784D01*
X172965371Y-123159214D01*
X173420920Y-122970985D01*
X173769760Y-122622753D01*
X173958784Y-122167533D01*
X173958785Y-122165371D01*
X176560786Y-122165371D01*
X176749015Y-122620920D01*
X177097247Y-122969760D01*
X177552467Y-123158784D01*
X178045371Y-123159214D01*
X178500920Y-122970985D01*
X178849760Y-122622753D01*
X179038784Y-122167533D01*
X179038785Y-122165371D01*
X179100786Y-122165371D01*
X179289015Y-122620920D01*
X179637247Y-122969760D01*
X180092467Y-123158784D01*
X180585371Y-123159214D01*
X181040920Y-122970985D01*
X181389760Y-122622753D01*
X181578784Y-122167533D01*
X181578785Y-122165371D01*
X181640786Y-122165371D01*
X181829015Y-122620920D01*
X182177247Y-122969760D01*
X182632467Y-123158784D01*
X183125371Y-123159214D01*
X183580920Y-122970985D01*
X183929760Y-122622753D01*
X184118784Y-122167533D01*
X184118785Y-122165371D01*
X184180786Y-122165371D01*
X184369015Y-122620920D01*
X184717247Y-122969760D01*
X185172467Y-123158784D01*
X185665371Y-123159214D01*
X186120920Y-122970985D01*
X186469760Y-122622753D01*
X186658784Y-122167533D01*
X186658785Y-122165371D01*
X186720786Y-122165371D01*
X186909015Y-122620920D01*
X187257247Y-122969760D01*
X187712467Y-123158784D01*
X188205371Y-123159214D01*
X188660920Y-122970985D01*
X189009760Y-122622753D01*
X189198784Y-122167533D01*
X189198785Y-122165371D01*
X189260786Y-122165371D01*
X189449015Y-122620920D01*
X189797247Y-122969760D01*
X190252467Y-123158784D01*
X190745371Y-123159214D01*
X191200920Y-122970985D01*
X191549760Y-122622753D01*
X191738784Y-122167533D01*
X191739214Y-121674629D01*
X191550985Y-121219080D01*
X191202753Y-120870240D01*
X190747533Y-120681216D01*
X190254629Y-120680786D01*
X189799080Y-120869015D01*
X189450240Y-121217247D01*
X189261216Y-121672467D01*
X189260786Y-122165371D01*
X189198785Y-122165371D01*
X189199214Y-121674629D01*
X189010985Y-121219080D01*
X188662753Y-120870240D01*
X188207533Y-120681216D01*
X187714629Y-120680786D01*
X187259080Y-120869015D01*
X186910240Y-121217247D01*
X186721216Y-121672467D01*
X186720786Y-122165371D01*
X186658785Y-122165371D01*
X186659214Y-121674629D01*
X186470985Y-121219080D01*
X186122753Y-120870240D01*
X185667533Y-120681216D01*
X185174629Y-120680786D01*
X184719080Y-120869015D01*
X184370240Y-121217247D01*
X184181216Y-121672467D01*
X184180786Y-122165371D01*
X184118785Y-122165371D01*
X184119214Y-121674629D01*
X183930985Y-121219080D01*
X183582753Y-120870240D01*
X183127533Y-120681216D01*
X182634629Y-120680786D01*
X182179080Y-120869015D01*
X181830240Y-121217247D01*
X181641216Y-121672467D01*
X181640786Y-122165371D01*
X181578785Y-122165371D01*
X181579214Y-121674629D01*
X181390985Y-121219080D01*
X181042753Y-120870240D01*
X180587533Y-120681216D01*
X180094629Y-120680786D01*
X179639080Y-120869015D01*
X179290240Y-121217247D01*
X179101216Y-121672467D01*
X179100786Y-122165371D01*
X179038785Y-122165371D01*
X179039214Y-121674629D01*
X178850985Y-121219080D01*
X178502753Y-120870240D01*
X178047533Y-120681216D01*
X177554629Y-120680786D01*
X177099080Y-120869015D01*
X176750240Y-121217247D01*
X176561216Y-121672467D01*
X176560786Y-122165371D01*
X173958785Y-122165371D01*
X173959214Y-121674629D01*
X173770985Y-121219080D01*
X173422753Y-120870240D01*
X172967533Y-120681216D01*
X172474629Y-120680786D01*
X172019080Y-120869015D01*
X171670240Y-121217247D01*
X171481216Y-121672467D01*
X171480786Y-122165371D01*
X171418785Y-122165371D01*
X171419214Y-121674629D01*
X171230985Y-121219080D01*
X170882753Y-120870240D01*
X170427533Y-120681216D01*
X169934629Y-120680786D01*
X169479080Y-120869015D01*
X169130240Y-121217247D01*
X168941216Y-121672467D01*
X168940786Y-122165371D01*
X168878785Y-122165371D01*
X168879214Y-121674629D01*
X168690985Y-121219080D01*
X168342753Y-120870240D01*
X167887533Y-120681216D01*
X167394629Y-120680786D01*
X166939080Y-120869015D01*
X166590240Y-121217247D01*
X166401216Y-121672467D01*
X166400786Y-122165371D01*
X166338785Y-122165371D01*
X166339214Y-121674629D01*
X166150985Y-121219080D01*
X165802753Y-120870240D01*
X165347533Y-120681216D01*
X164854629Y-120680786D01*
X164399080Y-120869015D01*
X164050240Y-121217247D01*
X163861216Y-121672467D01*
X163860786Y-122165371D01*
X127273000Y-122165371D01*
X127273000Y-119355727D01*
X163861000Y-119355727D01*
X163861000Y-119404273D01*
X163955313Y-119878418D01*
X164223895Y-120280378D01*
X164625855Y-120548960D01*
X165100000Y-120643273D01*
X165574145Y-120548960D01*
X165976105Y-120280378D01*
X166244687Y-119878418D01*
X166339000Y-119404273D01*
X166339000Y-119355727D01*
X166401000Y-119355727D01*
X166401000Y-119404273D01*
X166495313Y-119878418D01*
X166763895Y-120280378D01*
X167165855Y-120548960D01*
X167640000Y-120643273D01*
X168114145Y-120548960D01*
X168516105Y-120280378D01*
X168784687Y-119878418D01*
X168879000Y-119404273D01*
X168879000Y-119355727D01*
X168941000Y-119355727D01*
X168941000Y-119404273D01*
X169035313Y-119878418D01*
X169303895Y-120280378D01*
X169705855Y-120548960D01*
X170180000Y-120643273D01*
X170654145Y-120548960D01*
X171056105Y-120280378D01*
X171324687Y-119878418D01*
X171419000Y-119404273D01*
X171419000Y-119355727D01*
X171481000Y-119355727D01*
X171481000Y-119404273D01*
X171575313Y-119878418D01*
X171843895Y-120280378D01*
X172245855Y-120548960D01*
X172720000Y-120643273D01*
X173194145Y-120548960D01*
X173596105Y-120280378D01*
X173864687Y-119878418D01*
X173959000Y-119404273D01*
X173959000Y-119355727D01*
X176561000Y-119355727D01*
X176561000Y-119404273D01*
X176655313Y-119878418D01*
X176923895Y-120280378D01*
X177325855Y-120548960D01*
X177800000Y-120643273D01*
X178274145Y-120548960D01*
X178676105Y-120280378D01*
X178944687Y-119878418D01*
X179039000Y-119404273D01*
X179039000Y-119355727D01*
X179101000Y-119355727D01*
X179101000Y-119404273D01*
X179195313Y-119878418D01*
X179463895Y-120280378D01*
X179865855Y-120548960D01*
X180340000Y-120643273D01*
X180814145Y-120548960D01*
X181216105Y-120280378D01*
X181484687Y-119878418D01*
X181579000Y-119404273D01*
X181579000Y-119355727D01*
X181641000Y-119355727D01*
X181641000Y-119404273D01*
X181735313Y-119878418D01*
X182003895Y-120280378D01*
X182405855Y-120548960D01*
X182880000Y-120643273D01*
X183354145Y-120548960D01*
X183756105Y-120280378D01*
X184024687Y-119878418D01*
X184119000Y-119404273D01*
X184119000Y-119355727D01*
X184181000Y-119355727D01*
X184181000Y-119404273D01*
X184275313Y-119878418D01*
X184543895Y-120280378D01*
X184945855Y-120548960D01*
X185420000Y-120643273D01*
X185894145Y-120548960D01*
X186296105Y-120280378D01*
X186564687Y-119878418D01*
X186659000Y-119404273D01*
X186659000Y-119355727D01*
X186721000Y-119355727D01*
X186721000Y-119404273D01*
X186815313Y-119878418D01*
X187083895Y-120280378D01*
X187485855Y-120548960D01*
X187960000Y-120643273D01*
X188434145Y-120548960D01*
X188836105Y-120280378D01*
X189104687Y-119878418D01*
X189199000Y-119404273D01*
X189199000Y-119355727D01*
X189261000Y-119355727D01*
X189261000Y-119404273D01*
X189355313Y-119878418D01*
X189623895Y-120280378D01*
X190025855Y-120548960D01*
X190500000Y-120643273D01*
X190974145Y-120548960D01*
X191376105Y-120280378D01*
X191644687Y-119878418D01*
X191739000Y-119404273D01*
X191739000Y-119355727D01*
X191644687Y-118881582D01*
X191376105Y-118479622D01*
X191112499Y-118303485D01*
X195847430Y-118303485D01*
X195995856Y-118662703D01*
X196270451Y-118937778D01*
X196629410Y-119086830D01*
X197018085Y-119087170D01*
X197377303Y-118938744D01*
X197652378Y-118664149D01*
X197801430Y-118305190D01*
X197801770Y-117916515D01*
X197653344Y-117557297D01*
X197378749Y-117282222D01*
X197019790Y-117133170D01*
X196631115Y-117132830D01*
X196271897Y-117281256D01*
X195996822Y-117555851D01*
X195847770Y-117914810D01*
X195847430Y-118303485D01*
X191112499Y-118303485D01*
X190974145Y-118211040D01*
X190500000Y-118116727D01*
X190025855Y-118211040D01*
X189623895Y-118479622D01*
X189355313Y-118881582D01*
X189261000Y-119355727D01*
X189199000Y-119355727D01*
X189104687Y-118881582D01*
X188836105Y-118479622D01*
X188434145Y-118211040D01*
X187960000Y-118116727D01*
X187485855Y-118211040D01*
X187083895Y-118479622D01*
X186815313Y-118881582D01*
X186721000Y-119355727D01*
X186659000Y-119355727D01*
X186564687Y-118881582D01*
X186296105Y-118479622D01*
X185894145Y-118211040D01*
X185420000Y-118116727D01*
X184945855Y-118211040D01*
X184543895Y-118479622D01*
X184275313Y-118881582D01*
X184181000Y-119355727D01*
X184119000Y-119355727D01*
X184024687Y-118881582D01*
X183756105Y-118479622D01*
X183354145Y-118211040D01*
X182880000Y-118116727D01*
X182405855Y-118211040D01*
X182003895Y-118479622D01*
X181735313Y-118881582D01*
X181641000Y-119355727D01*
X181579000Y-119355727D01*
X181484687Y-118881582D01*
X181216105Y-118479622D01*
X180814145Y-118211040D01*
X180340000Y-118116727D01*
X179865855Y-118211040D01*
X179463895Y-118479622D01*
X179195313Y-118881582D01*
X179101000Y-119355727D01*
X179039000Y-119355727D01*
X178944687Y-118881582D01*
X178676105Y-118479622D01*
X178274145Y-118211040D01*
X177800000Y-118116727D01*
X177325855Y-118211040D01*
X176923895Y-118479622D01*
X176655313Y-118881582D01*
X176561000Y-119355727D01*
X173959000Y-119355727D01*
X173864687Y-118881582D01*
X173596105Y-118479622D01*
X173194145Y-118211040D01*
X172720000Y-118116727D01*
X172245855Y-118211040D01*
X171843895Y-118479622D01*
X171575313Y-118881582D01*
X171481000Y-119355727D01*
X171419000Y-119355727D01*
X171324687Y-118881582D01*
X171056105Y-118479622D01*
X170654145Y-118211040D01*
X170180000Y-118116727D01*
X169705855Y-118211040D01*
X169303895Y-118479622D01*
X169035313Y-118881582D01*
X168941000Y-119355727D01*
X168879000Y-119355727D01*
X168784687Y-118881582D01*
X168516105Y-118479622D01*
X168114145Y-118211040D01*
X167640000Y-118116727D01*
X167165855Y-118211040D01*
X166763895Y-118479622D01*
X166495313Y-118881582D01*
X166401000Y-119355727D01*
X166339000Y-119355727D01*
X166244687Y-118881582D01*
X165976105Y-118479622D01*
X165574145Y-118211040D01*
X165100000Y-118116727D01*
X164625855Y-118211040D01*
X164223895Y-118479622D01*
X163955313Y-118881582D01*
X163861000Y-119355727D01*
X127273000Y-119355727D01*
X127273000Y-118066273D01*
X140267483Y-118066273D01*
X140370333Y-118315189D01*
X140560610Y-118505798D01*
X140809346Y-118609082D01*
X141078673Y-118609317D01*
X141327589Y-118506467D01*
X141518198Y-118316190D01*
X141621482Y-118067454D01*
X141621717Y-117798127D01*
X141518867Y-117549211D01*
X141328590Y-117358602D01*
X141079854Y-117255318D01*
X140810527Y-117255083D01*
X140561611Y-117357933D01*
X140371002Y-117548210D01*
X140267718Y-117796946D01*
X140267483Y-118066273D01*
X127273000Y-118066273D01*
X127273000Y-115551673D01*
X149792483Y-115551673D01*
X149895333Y-115800589D01*
X150085610Y-115991198D01*
X150334346Y-116094482D01*
X150603673Y-116094717D01*
X150640556Y-116079477D01*
X174990866Y-116079477D01*
X175108908Y-116365160D01*
X175327290Y-116583924D01*
X175612767Y-116702465D01*
X175921877Y-116702734D01*
X176207560Y-116584692D01*
X176426324Y-116366310D01*
X176544865Y-116080833D01*
X176545134Y-115771723D01*
X176427092Y-115486040D01*
X176208710Y-115267276D01*
X175923233Y-115148735D01*
X175614123Y-115148466D01*
X175328440Y-115266508D01*
X175109676Y-115484890D01*
X174991135Y-115770367D01*
X174990866Y-116079477D01*
X150640556Y-116079477D01*
X150852589Y-115991867D01*
X151043198Y-115801590D01*
X151146482Y-115552854D01*
X151146717Y-115283527D01*
X151043867Y-115034611D01*
X150853590Y-114844002D01*
X150604854Y-114740718D01*
X150335527Y-114740483D01*
X150086611Y-114843333D01*
X149896002Y-115033610D01*
X149792718Y-115282346D01*
X149792483Y-115551673D01*
X127273000Y-115551673D01*
X127273000Y-113147285D01*
X195847430Y-113147285D01*
X195995856Y-113506503D01*
X196270451Y-113781578D01*
X196629410Y-113930630D01*
X197018085Y-113930970D01*
X197377303Y-113782544D01*
X197652378Y-113507949D01*
X197801430Y-113148990D01*
X197801770Y-112760315D01*
X197653344Y-112401097D01*
X197378749Y-112126022D01*
X197019790Y-111976970D01*
X196631115Y-111976630D01*
X196271897Y-112125056D01*
X195996822Y-112399651D01*
X195847770Y-112758610D01*
X195847430Y-113147285D01*
X127273000Y-113147285D01*
X127273000Y-112022798D01*
X159962771Y-112022798D01*
X160164369Y-112510703D01*
X160537334Y-112884319D01*
X161024885Y-113086769D01*
X161552798Y-113087229D01*
X162040703Y-112885631D01*
X162414319Y-112512666D01*
X162493656Y-112321602D01*
X162493656Y-112610000D01*
X162526917Y-112786765D01*
X162631385Y-112949113D01*
X162790785Y-113058027D01*
X162980000Y-113096344D01*
X164680000Y-113096344D01*
X164856765Y-113063083D01*
X165019113Y-112958615D01*
X165128027Y-112799215D01*
X165166344Y-112610000D01*
X165166344Y-110910000D01*
X165133083Y-110733235D01*
X165028615Y-110570887D01*
X164869215Y-110461973D01*
X164680000Y-110423656D01*
X164391868Y-110423656D01*
X164580703Y-110345631D01*
X164954319Y-109972666D01*
X165156769Y-109485115D01*
X165157229Y-108957202D01*
X164955631Y-108469297D01*
X164582666Y-108095681D01*
X164231567Y-107949891D01*
X164580703Y-107805631D01*
X164954319Y-107432666D01*
X165156769Y-106945115D01*
X165157229Y-106417202D01*
X164955631Y-105929297D01*
X164582666Y-105555681D01*
X164231567Y-105409891D01*
X164580703Y-105265631D01*
X164954319Y-104892666D01*
X165156769Y-104405115D01*
X165156954Y-104192277D01*
X184363466Y-104192277D01*
X184481508Y-104477960D01*
X184699890Y-104696724D01*
X184985367Y-104815265D01*
X185294477Y-104815534D01*
X185580160Y-104697492D01*
X185798924Y-104479110D01*
X185917465Y-104193633D01*
X185917734Y-103884523D01*
X185799692Y-103598840D01*
X185581310Y-103380076D01*
X185295833Y-103261535D01*
X184986723Y-103261266D01*
X184701040Y-103379308D01*
X184482276Y-103597690D01*
X184363735Y-103883167D01*
X184363466Y-104192277D01*
X165156954Y-104192277D01*
X165157229Y-103877202D01*
X164955631Y-103389297D01*
X164647146Y-103080273D01*
X169121883Y-103080273D01*
X169224733Y-103329189D01*
X169415010Y-103519798D01*
X169663746Y-103623082D01*
X169933073Y-103623317D01*
X170181989Y-103520467D01*
X170372598Y-103330190D01*
X170475882Y-103081454D01*
X170476117Y-102812127D01*
X170373267Y-102563211D01*
X170182990Y-102372602D01*
X169934254Y-102269318D01*
X169664927Y-102269083D01*
X169416011Y-102371933D01*
X169225402Y-102562210D01*
X169122118Y-102810946D01*
X169121883Y-103080273D01*
X164647146Y-103080273D01*
X164582666Y-103015681D01*
X164231567Y-102869891D01*
X164580703Y-102725631D01*
X164954319Y-102352666D01*
X165156769Y-101865115D01*
X165157229Y-101337202D01*
X165004049Y-100966477D01*
X178140466Y-100966477D01*
X178258508Y-101252160D01*
X178476890Y-101470924D01*
X178762367Y-101589465D01*
X179071477Y-101589734D01*
X179357160Y-101471692D01*
X179575924Y-101253310D01*
X179694465Y-100967833D01*
X179694734Y-100658723D01*
X179576692Y-100373040D01*
X179358310Y-100154276D01*
X179072833Y-100035735D01*
X178763723Y-100035466D01*
X178478040Y-100153508D01*
X178259276Y-100371890D01*
X178140735Y-100657367D01*
X178140466Y-100966477D01*
X165004049Y-100966477D01*
X164955631Y-100849297D01*
X164582666Y-100475681D01*
X164231567Y-100329891D01*
X164580703Y-100185631D01*
X164954319Y-99812666D01*
X165031882Y-99625873D01*
X170518883Y-99625873D01*
X170621733Y-99874789D01*
X170812010Y-100065398D01*
X171060746Y-100168682D01*
X171330073Y-100168917D01*
X171578989Y-100066067D01*
X171769598Y-99875790D01*
X171872882Y-99627054D01*
X171873117Y-99357727D01*
X171770267Y-99108811D01*
X171652535Y-98990873D01*
X173846283Y-98990873D01*
X173949133Y-99239789D01*
X174139410Y-99430398D01*
X174388146Y-99533682D01*
X174657473Y-99533917D01*
X174906389Y-99431067D01*
X175096998Y-99240790D01*
X175200282Y-98992054D01*
X175200393Y-98863873D01*
X180932883Y-98863873D01*
X181035733Y-99112789D01*
X181226010Y-99303398D01*
X181474746Y-99406682D01*
X181744073Y-99406917D01*
X181992989Y-99304067D01*
X182183598Y-99113790D01*
X182286882Y-98865054D01*
X182287117Y-98595727D01*
X182184267Y-98346811D01*
X181993990Y-98156202D01*
X181745254Y-98052918D01*
X181475927Y-98052683D01*
X181227011Y-98155533D01*
X181036402Y-98345810D01*
X180933118Y-98594546D01*
X180932883Y-98863873D01*
X175200393Y-98863873D01*
X175200517Y-98722727D01*
X175097667Y-98473811D01*
X174907390Y-98283202D01*
X174658654Y-98179918D01*
X174389327Y-98179683D01*
X174140411Y-98282533D01*
X173949802Y-98472810D01*
X173846518Y-98721546D01*
X173846283Y-98990873D01*
X171652535Y-98990873D01*
X171579990Y-98918202D01*
X171331254Y-98814918D01*
X171061927Y-98814683D01*
X170813011Y-98917533D01*
X170622402Y-99107810D01*
X170519118Y-99356546D01*
X170518883Y-99625873D01*
X165031882Y-99625873D01*
X165156769Y-99325115D01*
X165157229Y-98797202D01*
X164955631Y-98309297D01*
X164582666Y-97935681D01*
X164231567Y-97789891D01*
X164580703Y-97645631D01*
X164581662Y-97644673D01*
X168486883Y-97644673D01*
X168589733Y-97893589D01*
X168780010Y-98084198D01*
X169028746Y-98187482D01*
X169298073Y-98187717D01*
X169382885Y-98152673D01*
X170518883Y-98152673D01*
X170621733Y-98401589D01*
X170812010Y-98592198D01*
X171060746Y-98695482D01*
X171330073Y-98695717D01*
X171578989Y-98592867D01*
X171769598Y-98402590D01*
X171862825Y-98178073D01*
X179459683Y-98178073D01*
X179562533Y-98426989D01*
X179752810Y-98617598D01*
X180001546Y-98720882D01*
X180270873Y-98721117D01*
X180519789Y-98618267D01*
X180710398Y-98427990D01*
X180813682Y-98179254D01*
X180813917Y-97909927D01*
X180711067Y-97661011D01*
X180520790Y-97470402D01*
X180272054Y-97367118D01*
X180002727Y-97366883D01*
X179753811Y-97469733D01*
X179563202Y-97660010D01*
X179459918Y-97908746D01*
X179459683Y-98178073D01*
X171862825Y-98178073D01*
X171872882Y-98153854D01*
X171873074Y-97933681D01*
X171914273Y-97933717D01*
X172163189Y-97830867D01*
X172353798Y-97640590D01*
X172457082Y-97391854D01*
X172457317Y-97122527D01*
X172354467Y-96873611D01*
X172164190Y-96683002D01*
X171915454Y-96579718D01*
X171646127Y-96579483D01*
X171397211Y-96682333D01*
X171206602Y-96872610D01*
X171103318Y-97121346D01*
X171103126Y-97341519D01*
X171061927Y-97341483D01*
X170813011Y-97444333D01*
X170622402Y-97634610D01*
X170519118Y-97883346D01*
X170518883Y-98152673D01*
X169382885Y-98152673D01*
X169546989Y-98084867D01*
X169737598Y-97894590D01*
X169840882Y-97645854D01*
X169841117Y-97376527D01*
X169738267Y-97127611D01*
X169547990Y-96937002D01*
X169299254Y-96833718D01*
X169029927Y-96833483D01*
X168781011Y-96936333D01*
X168590402Y-97126610D01*
X168487118Y-97375346D01*
X168486883Y-97644673D01*
X164581662Y-97644673D01*
X164954319Y-97272666D01*
X165156769Y-96785115D01*
X165156971Y-96552473D01*
X176259283Y-96552473D01*
X176362133Y-96801389D01*
X176552410Y-96991998D01*
X176801146Y-97095282D01*
X177070473Y-97095517D01*
X177316368Y-96993915D01*
X177339810Y-97017398D01*
X177588546Y-97120682D01*
X177857873Y-97120917D01*
X178106789Y-97018067D01*
X178297398Y-96827790D01*
X178400682Y-96579054D01*
X178400917Y-96309727D01*
X178298067Y-96060811D01*
X178273668Y-96036369D01*
X178375282Y-95791654D01*
X178375517Y-95522327D01*
X178342941Y-95443485D01*
X182258430Y-95443485D01*
X182406856Y-95802703D01*
X182681451Y-96077778D01*
X183040410Y-96226830D01*
X183429085Y-96227170D01*
X183788303Y-96078744D01*
X184063378Y-95804149D01*
X184212430Y-95445190D01*
X184212770Y-95056515D01*
X184064344Y-94697297D01*
X183789749Y-94422222D01*
X183430790Y-94273170D01*
X183042115Y-94272830D01*
X182682897Y-94421256D01*
X182407822Y-94695851D01*
X182258770Y-95054810D01*
X182258430Y-95443485D01*
X178342941Y-95443485D01*
X178272667Y-95273411D01*
X178082390Y-95082802D01*
X177833654Y-94979518D01*
X177564327Y-94979283D01*
X177315411Y-95082133D01*
X177124802Y-95272410D01*
X177021518Y-95521146D01*
X177021326Y-95741474D01*
X176802327Y-95741283D01*
X176553411Y-95844133D01*
X176362802Y-96034410D01*
X176259518Y-96283146D01*
X176259283Y-96552473D01*
X165156971Y-96552473D01*
X165157229Y-96257202D01*
X164955631Y-95769297D01*
X164951415Y-95765073D01*
X174709883Y-95765073D01*
X174812733Y-96013989D01*
X175003010Y-96204598D01*
X175251746Y-96307882D01*
X175521073Y-96308117D01*
X175769989Y-96205267D01*
X175960598Y-96014990D01*
X176063882Y-95766254D01*
X176064117Y-95496927D01*
X175961267Y-95248011D01*
X175770990Y-95057402D01*
X175522254Y-94954118D01*
X175252927Y-94953883D01*
X175004011Y-95056733D01*
X174813402Y-95247010D01*
X174710118Y-95495746D01*
X174709883Y-95765073D01*
X164951415Y-95765073D01*
X164582666Y-95395681D01*
X164231567Y-95249891D01*
X164580703Y-95105631D01*
X164954319Y-94732666D01*
X165156769Y-94245115D01*
X165156794Y-94215673D01*
X175446483Y-94215673D01*
X175549333Y-94464589D01*
X175739610Y-94655198D01*
X175988346Y-94758482D01*
X176257673Y-94758717D01*
X176506589Y-94655867D01*
X176517174Y-94645300D01*
X176552410Y-94680598D01*
X176801146Y-94783882D01*
X177070473Y-94784117D01*
X177319389Y-94681267D01*
X177509998Y-94490990D01*
X177613282Y-94242254D01*
X177613517Y-93972927D01*
X177510667Y-93724011D01*
X177320390Y-93533402D01*
X177071654Y-93430118D01*
X176802327Y-93429883D01*
X176553411Y-93532733D01*
X176542826Y-93543300D01*
X176507590Y-93508002D01*
X176258854Y-93404718D01*
X175989527Y-93404483D01*
X175740611Y-93507333D01*
X175550002Y-93697610D01*
X175446718Y-93946346D01*
X175446483Y-94215673D01*
X165156794Y-94215673D01*
X165157229Y-93717202D01*
X164955631Y-93229297D01*
X164582666Y-92855681D01*
X164231567Y-92709891D01*
X164580703Y-92565631D01*
X164954319Y-92192666D01*
X165156769Y-91705115D01*
X165157229Y-91177202D01*
X164955631Y-90689297D01*
X164582666Y-90315681D01*
X164231567Y-90169891D01*
X164580703Y-90025631D01*
X164954319Y-89652666D01*
X165156769Y-89165115D01*
X165157229Y-88637202D01*
X164955631Y-88149297D01*
X164582666Y-87775681D01*
X164095115Y-87573231D01*
X163567202Y-87572771D01*
X163079297Y-87774369D01*
X162705681Y-88147334D01*
X162559713Y-88498861D01*
X162417813Y-88152580D01*
X162412122Y-88144062D01*
X162195672Y-88062211D01*
X161357882Y-88900000D01*
X162195672Y-89737789D01*
X162412122Y-89655938D01*
X162560294Y-89302014D01*
X162704369Y-89650703D01*
X163077334Y-90024319D01*
X163428433Y-90170109D01*
X163079297Y-90314369D01*
X162705681Y-90687334D01*
X162559713Y-91038861D01*
X162417813Y-90692580D01*
X162412122Y-90684062D01*
X162195672Y-90602211D01*
X161357882Y-91440000D01*
X162195672Y-92277789D01*
X162412122Y-92195938D01*
X162560294Y-91842014D01*
X162704369Y-92190703D01*
X163077334Y-92564319D01*
X163428433Y-92710109D01*
X163079297Y-92854369D01*
X162705681Y-93227334D01*
X162559713Y-93578861D01*
X162417813Y-93232580D01*
X162412122Y-93224062D01*
X162195672Y-93142211D01*
X161357882Y-93980000D01*
X162195672Y-94817789D01*
X162412122Y-94735938D01*
X162560294Y-94382014D01*
X162704369Y-94730703D01*
X163077334Y-95104319D01*
X163428433Y-95250109D01*
X163079297Y-95394369D01*
X162705681Y-95767334D01*
X162559713Y-96118861D01*
X162417813Y-95772580D01*
X162412122Y-95764062D01*
X162195672Y-95682211D01*
X161357882Y-96520000D01*
X162195672Y-97357789D01*
X162412122Y-97275938D01*
X162560294Y-96922014D01*
X162704369Y-97270703D01*
X163077334Y-97644319D01*
X163428433Y-97790109D01*
X163079297Y-97934369D01*
X162705681Y-98307334D01*
X162559713Y-98658861D01*
X162417813Y-98312580D01*
X162412122Y-98304062D01*
X162195672Y-98222211D01*
X161357882Y-99060000D01*
X162195672Y-99897789D01*
X162412122Y-99815938D01*
X162560294Y-99462014D01*
X162704369Y-99810703D01*
X163077334Y-100184319D01*
X163428433Y-100330109D01*
X163079297Y-100474369D01*
X162705681Y-100847334D01*
X162559713Y-101198861D01*
X162417813Y-100852580D01*
X162412122Y-100844062D01*
X162195672Y-100762211D01*
X161357882Y-101600000D01*
X162195672Y-102437789D01*
X162412122Y-102355938D01*
X162560294Y-102002014D01*
X162704369Y-102350703D01*
X163077334Y-102724319D01*
X163428433Y-102870109D01*
X163079297Y-103014369D01*
X162705681Y-103387334D01*
X162559713Y-103738861D01*
X162417813Y-103392580D01*
X162412122Y-103384062D01*
X162195672Y-103302211D01*
X161357882Y-104140000D01*
X162195672Y-104977789D01*
X162412122Y-104895938D01*
X162560294Y-104542014D01*
X162704369Y-104890703D01*
X163077334Y-105264319D01*
X163428433Y-105410109D01*
X163079297Y-105554369D01*
X162705681Y-105927334D01*
X162559713Y-106278861D01*
X162417813Y-105932580D01*
X162412122Y-105924062D01*
X162195672Y-105842211D01*
X161357882Y-106680000D01*
X162195672Y-107517789D01*
X162412122Y-107435938D01*
X162560294Y-107082014D01*
X162704369Y-107430703D01*
X163077334Y-107804319D01*
X163428433Y-107950109D01*
X163079297Y-108094369D01*
X162705681Y-108467334D01*
X162559713Y-108818861D01*
X162417813Y-108472580D01*
X162412122Y-108464062D01*
X162195672Y-108382211D01*
X161357882Y-109220000D01*
X162195672Y-110057789D01*
X162412122Y-109975938D01*
X162560294Y-109622014D01*
X162704369Y-109970703D01*
X163077334Y-110344319D01*
X163268398Y-110423656D01*
X162980000Y-110423656D01*
X162803235Y-110456917D01*
X162640887Y-110561385D01*
X162531973Y-110720785D01*
X162493656Y-110910000D01*
X162493656Y-111198132D01*
X162415631Y-111009297D01*
X162042666Y-110635681D01*
X161691139Y-110489713D01*
X162037420Y-110347813D01*
X162045938Y-110342122D01*
X162127789Y-110125672D01*
X161290000Y-109287882D01*
X160452211Y-110125672D01*
X160534062Y-110342122D01*
X160887986Y-110490294D01*
X160539297Y-110634369D01*
X160165681Y-111007334D01*
X159963231Y-111494885D01*
X159962771Y-112022798D01*
X127273000Y-112022798D01*
X127273000Y-109478930D01*
X159962012Y-109478930D01*
X160162187Y-109967420D01*
X160167878Y-109975938D01*
X160384328Y-110057789D01*
X161222118Y-109220000D01*
X160384328Y-108382211D01*
X160167878Y-108464062D01*
X159964010Y-108951022D01*
X159962012Y-109478930D01*
X127273000Y-109478930D01*
X127273000Y-107585672D01*
X160452211Y-107585672D01*
X160534062Y-107802122D01*
X160888410Y-107950472D01*
X160542580Y-108092187D01*
X160534062Y-108097878D01*
X160452211Y-108314328D01*
X161290000Y-109152118D01*
X162127789Y-108314328D01*
X162045938Y-108097878D01*
X161691590Y-107949528D01*
X162037420Y-107807813D01*
X162045938Y-107802122D01*
X162127789Y-107585672D01*
X161290000Y-106747882D01*
X160452211Y-107585672D01*
X127273000Y-107585672D01*
X127273000Y-106938930D01*
X159962012Y-106938930D01*
X160162187Y-107427420D01*
X160167878Y-107435938D01*
X160384328Y-107517789D01*
X161222118Y-106680000D01*
X160384328Y-105842211D01*
X160167878Y-105924062D01*
X159964010Y-106411022D01*
X159962012Y-106938930D01*
X127273000Y-106938930D01*
X127273000Y-105045672D01*
X160452211Y-105045672D01*
X160534062Y-105262122D01*
X160888410Y-105410472D01*
X160542580Y-105552187D01*
X160534062Y-105557878D01*
X160452211Y-105774328D01*
X161290000Y-106612118D01*
X162127789Y-105774328D01*
X162045938Y-105557878D01*
X161691590Y-105409528D01*
X162037420Y-105267813D01*
X162045938Y-105262122D01*
X162127789Y-105045672D01*
X161290000Y-104207882D01*
X160452211Y-105045672D01*
X127273000Y-105045672D01*
X127273000Y-104398930D01*
X159962012Y-104398930D01*
X160162187Y-104887420D01*
X160167878Y-104895938D01*
X160384328Y-104977789D01*
X161222118Y-104140000D01*
X160384328Y-103302211D01*
X160167878Y-103384062D01*
X159964010Y-103871022D01*
X159962012Y-104398930D01*
X127273000Y-104398930D01*
X127273000Y-102505672D01*
X160452211Y-102505672D01*
X160534062Y-102722122D01*
X160888410Y-102870472D01*
X160542580Y-103012187D01*
X160534062Y-103017878D01*
X160452211Y-103234328D01*
X161290000Y-104072118D01*
X162127789Y-103234328D01*
X162045938Y-103017878D01*
X161691590Y-102869528D01*
X162037420Y-102727813D01*
X162045938Y-102722122D01*
X162127789Y-102505672D01*
X161290000Y-101667882D01*
X160452211Y-102505672D01*
X127273000Y-102505672D01*
X127273000Y-101858930D01*
X159962012Y-101858930D01*
X160162187Y-102347420D01*
X160167878Y-102355938D01*
X160384328Y-102437789D01*
X161222118Y-101600000D01*
X160384328Y-100762211D01*
X160167878Y-100844062D01*
X159964010Y-101331022D01*
X159962012Y-101858930D01*
X127273000Y-101858930D01*
X127273000Y-99965672D01*
X160452211Y-99965672D01*
X160534062Y-100182122D01*
X160888410Y-100330472D01*
X160542580Y-100472187D01*
X160534062Y-100477878D01*
X160452211Y-100694328D01*
X161290000Y-101532118D01*
X162127789Y-100694328D01*
X162045938Y-100477878D01*
X161691590Y-100329528D01*
X162037420Y-100187813D01*
X162045938Y-100182122D01*
X162127789Y-99965672D01*
X161290000Y-99127882D01*
X160452211Y-99965672D01*
X127273000Y-99965672D01*
X127273000Y-99318930D01*
X159962012Y-99318930D01*
X160162187Y-99807420D01*
X160167878Y-99815938D01*
X160384328Y-99897789D01*
X161222118Y-99060000D01*
X160384328Y-98222211D01*
X160167878Y-98304062D01*
X159964010Y-98791022D01*
X159962012Y-99318930D01*
X127273000Y-99318930D01*
X127273000Y-97425672D01*
X160452211Y-97425672D01*
X160534062Y-97642122D01*
X160888410Y-97790472D01*
X160542580Y-97932187D01*
X160534062Y-97937878D01*
X160452211Y-98154328D01*
X161290000Y-98992118D01*
X162127789Y-98154328D01*
X162045938Y-97937878D01*
X161691590Y-97789528D01*
X162037420Y-97647813D01*
X162045938Y-97642122D01*
X162127789Y-97425672D01*
X161290000Y-96587882D01*
X160452211Y-97425672D01*
X127273000Y-97425672D01*
X127273000Y-96778930D01*
X159962012Y-96778930D01*
X160162187Y-97267420D01*
X160167878Y-97275938D01*
X160384328Y-97357789D01*
X161222118Y-96520000D01*
X160384328Y-95682211D01*
X160167878Y-95764062D01*
X159964010Y-96251022D01*
X159962012Y-96778930D01*
X127273000Y-96778930D01*
X127273000Y-94885672D01*
X160452211Y-94885672D01*
X160534062Y-95102122D01*
X160888410Y-95250472D01*
X160542580Y-95392187D01*
X160534062Y-95397878D01*
X160452211Y-95614328D01*
X161290000Y-96452118D01*
X162127789Y-95614328D01*
X162045938Y-95397878D01*
X161691590Y-95249528D01*
X162037420Y-95107813D01*
X162045938Y-95102122D01*
X162127789Y-94885672D01*
X161290000Y-94047882D01*
X160452211Y-94885672D01*
X127273000Y-94885672D01*
X127273000Y-94238930D01*
X159962012Y-94238930D01*
X160162187Y-94727420D01*
X160167878Y-94735938D01*
X160384328Y-94817789D01*
X161222118Y-93980000D01*
X160384328Y-93142211D01*
X160167878Y-93224062D01*
X159964010Y-93711022D01*
X159962012Y-94238930D01*
X127273000Y-94238930D01*
X127273000Y-92345672D01*
X160452211Y-92345672D01*
X160534062Y-92562122D01*
X160888410Y-92710472D01*
X160542580Y-92852187D01*
X160534062Y-92857878D01*
X160452211Y-93074328D01*
X161290000Y-93912118D01*
X162127789Y-93074328D01*
X162045938Y-92857878D01*
X161691590Y-92709528D01*
X162037420Y-92567813D01*
X162045938Y-92562122D01*
X162127789Y-92345672D01*
X161290000Y-91507882D01*
X160452211Y-92345672D01*
X127273000Y-92345672D01*
X127273000Y-91698930D01*
X159962012Y-91698930D01*
X160162187Y-92187420D01*
X160167878Y-92195938D01*
X160384328Y-92277789D01*
X161222118Y-91440000D01*
X160384328Y-90602211D01*
X160167878Y-90684062D01*
X159964010Y-91171022D01*
X159962012Y-91698930D01*
X127273000Y-91698930D01*
X127273000Y-89805672D01*
X160452211Y-89805672D01*
X160534062Y-90022122D01*
X160888410Y-90170472D01*
X160542580Y-90312187D01*
X160534062Y-90317878D01*
X160452211Y-90534328D01*
X161290000Y-91372118D01*
X162127789Y-90534328D01*
X162045938Y-90317878D01*
X161691590Y-90169528D01*
X162037420Y-90027813D01*
X162045938Y-90022122D01*
X162127789Y-89805672D01*
X161290000Y-88967882D01*
X160452211Y-89805672D01*
X127273000Y-89805672D01*
X127273000Y-89158930D01*
X159962012Y-89158930D01*
X160162187Y-89647420D01*
X160167878Y-89655938D01*
X160384328Y-89737789D01*
X161222118Y-88900000D01*
X160384328Y-88062211D01*
X160167878Y-88144062D01*
X159964010Y-88631022D01*
X159962012Y-89158930D01*
X127273000Y-89158930D01*
X127273000Y-87994328D01*
X160452211Y-87994328D01*
X161290000Y-88832118D01*
X162127789Y-87994328D01*
X162045938Y-87777878D01*
X161558978Y-87574010D01*
X161031070Y-87572012D01*
X160542580Y-87772187D01*
X160534062Y-87777878D01*
X160452211Y-87994328D01*
X127273000Y-87994328D01*
X127273000Y-81255727D01*
X149637000Y-81255727D01*
X149637000Y-81304273D01*
X149731313Y-81778418D01*
X149999895Y-82180378D01*
X150401855Y-82448960D01*
X150876000Y-82543273D01*
X151350145Y-82448960D01*
X151752105Y-82180378D01*
X152020687Y-81778418D01*
X152115000Y-81304273D01*
X152115000Y-81255727D01*
X152177000Y-81255727D01*
X152177000Y-81304273D01*
X152271313Y-81778418D01*
X152539895Y-82180378D01*
X152941855Y-82448960D01*
X153416000Y-82543273D01*
X153890145Y-82448960D01*
X154292105Y-82180378D01*
X154560687Y-81778418D01*
X154655000Y-81304273D01*
X154655000Y-81255727D01*
X154717000Y-81255727D01*
X154717000Y-81304273D01*
X154811313Y-81778418D01*
X155079895Y-82180378D01*
X155481855Y-82448960D01*
X155956000Y-82543273D01*
X156430145Y-82448960D01*
X156832105Y-82180378D01*
X157100687Y-81778418D01*
X157195000Y-81304273D01*
X157195000Y-81255727D01*
X157257000Y-81255727D01*
X157257000Y-81304273D01*
X157351313Y-81778418D01*
X157619895Y-82180378D01*
X158021855Y-82448960D01*
X158496000Y-82543273D01*
X158970145Y-82448960D01*
X159372105Y-82180378D01*
X159640687Y-81778418D01*
X159735000Y-81304273D01*
X159735000Y-81255727D01*
X159797000Y-81255727D01*
X159797000Y-81304273D01*
X159891313Y-81778418D01*
X160159895Y-82180378D01*
X160561855Y-82448960D01*
X161036000Y-82543273D01*
X161510145Y-82448960D01*
X161912105Y-82180378D01*
X162180687Y-81778418D01*
X162275000Y-81304273D01*
X162275000Y-81255727D01*
X162337000Y-81255727D01*
X162337000Y-81304273D01*
X162431313Y-81778418D01*
X162699895Y-82180378D01*
X163101855Y-82448960D01*
X163576000Y-82543273D01*
X164050145Y-82448960D01*
X164452105Y-82180378D01*
X164720687Y-81778418D01*
X164815000Y-81304273D01*
X164815000Y-81255727D01*
X164877000Y-81255727D01*
X164877000Y-81304273D01*
X164971313Y-81778418D01*
X165239895Y-82180378D01*
X165641855Y-82448960D01*
X166116000Y-82543273D01*
X166590145Y-82448960D01*
X166992105Y-82180378D01*
X167260687Y-81778418D01*
X167355000Y-81304273D01*
X167355000Y-81255727D01*
X167417000Y-81255727D01*
X167417000Y-81304273D01*
X167511313Y-81778418D01*
X167779895Y-82180378D01*
X168181855Y-82448960D01*
X168656000Y-82543273D01*
X169130145Y-82448960D01*
X169532105Y-82180378D01*
X169800687Y-81778418D01*
X169895000Y-81304273D01*
X169895000Y-81255727D01*
X171481000Y-81255727D01*
X171481000Y-81304273D01*
X171575313Y-81778418D01*
X171843895Y-82180378D01*
X172245855Y-82448960D01*
X172720000Y-82543273D01*
X173194145Y-82448960D01*
X173596105Y-82180378D01*
X173864687Y-81778418D01*
X173959000Y-81304273D01*
X173959000Y-81255727D01*
X174021000Y-81255727D01*
X174021000Y-81304273D01*
X174115313Y-81778418D01*
X174383895Y-82180378D01*
X174785855Y-82448960D01*
X175260000Y-82543273D01*
X175734145Y-82448960D01*
X176136105Y-82180378D01*
X176404687Y-81778418D01*
X176499000Y-81304273D01*
X176499000Y-81255727D01*
X176561000Y-81255727D01*
X176561000Y-81304273D01*
X176655313Y-81778418D01*
X176923895Y-82180378D01*
X177325855Y-82448960D01*
X177800000Y-82543273D01*
X178274145Y-82448960D01*
X178676105Y-82180378D01*
X178944687Y-81778418D01*
X179039000Y-81304273D01*
X179039000Y-81255727D01*
X179101000Y-81255727D01*
X179101000Y-81304273D01*
X179195313Y-81778418D01*
X179463895Y-82180378D01*
X179865855Y-82448960D01*
X180340000Y-82543273D01*
X180814145Y-82448960D01*
X181216105Y-82180378D01*
X181484687Y-81778418D01*
X181579000Y-81304273D01*
X181579000Y-81255727D01*
X181641000Y-81255727D01*
X181641000Y-81304273D01*
X181735313Y-81778418D01*
X182003895Y-82180378D01*
X182405855Y-82448960D01*
X182880000Y-82543273D01*
X183354145Y-82448960D01*
X183756105Y-82180378D01*
X184024687Y-81778418D01*
X184119000Y-81304273D01*
X184119000Y-81255727D01*
X184181000Y-81255727D01*
X184181000Y-81304273D01*
X184275313Y-81778418D01*
X184543895Y-82180378D01*
X184945855Y-82448960D01*
X185420000Y-82543273D01*
X185894145Y-82448960D01*
X186296105Y-82180378D01*
X186564687Y-81778418D01*
X186659000Y-81304273D01*
X186659000Y-81255727D01*
X186721000Y-81255727D01*
X186721000Y-81304273D01*
X186815313Y-81778418D01*
X187083895Y-82180378D01*
X187485855Y-82448960D01*
X187960000Y-82543273D01*
X188434145Y-82448960D01*
X188836105Y-82180378D01*
X189104687Y-81778418D01*
X189199000Y-81304273D01*
X189199000Y-81255727D01*
X189261000Y-81255727D01*
X189261000Y-81304273D01*
X189355313Y-81778418D01*
X189623895Y-82180378D01*
X190025855Y-82448960D01*
X190500000Y-82543273D01*
X190974145Y-82448960D01*
X191376105Y-82180378D01*
X191644687Y-81778418D01*
X191739000Y-81304273D01*
X191739000Y-81255727D01*
X191644687Y-80781582D01*
X191376105Y-80379622D01*
X190974145Y-80111040D01*
X190500000Y-80016727D01*
X190025855Y-80111040D01*
X189623895Y-80379622D01*
X189355313Y-80781582D01*
X189261000Y-81255727D01*
X189199000Y-81255727D01*
X189104687Y-80781582D01*
X188836105Y-80379622D01*
X188434145Y-80111040D01*
X187960000Y-80016727D01*
X187485855Y-80111040D01*
X187083895Y-80379622D01*
X186815313Y-80781582D01*
X186721000Y-81255727D01*
X186659000Y-81255727D01*
X186564687Y-80781582D01*
X186296105Y-80379622D01*
X185894145Y-80111040D01*
X185420000Y-80016727D01*
X184945855Y-80111040D01*
X184543895Y-80379622D01*
X184275313Y-80781582D01*
X184181000Y-81255727D01*
X184119000Y-81255727D01*
X184024687Y-80781582D01*
X183756105Y-80379622D01*
X183354145Y-80111040D01*
X182880000Y-80016727D01*
X182405855Y-80111040D01*
X182003895Y-80379622D01*
X181735313Y-80781582D01*
X181641000Y-81255727D01*
X181579000Y-81255727D01*
X181484687Y-80781582D01*
X181216105Y-80379622D01*
X180814145Y-80111040D01*
X180340000Y-80016727D01*
X179865855Y-80111040D01*
X179463895Y-80379622D01*
X179195313Y-80781582D01*
X179101000Y-81255727D01*
X179039000Y-81255727D01*
X178944687Y-80781582D01*
X178676105Y-80379622D01*
X178274145Y-80111040D01*
X177800000Y-80016727D01*
X177325855Y-80111040D01*
X176923895Y-80379622D01*
X176655313Y-80781582D01*
X176561000Y-81255727D01*
X176499000Y-81255727D01*
X176404687Y-80781582D01*
X176136105Y-80379622D01*
X175734145Y-80111040D01*
X175260000Y-80016727D01*
X174785855Y-80111040D01*
X174383895Y-80379622D01*
X174115313Y-80781582D01*
X174021000Y-81255727D01*
X173959000Y-81255727D01*
X173864687Y-80781582D01*
X173596105Y-80379622D01*
X173194145Y-80111040D01*
X172720000Y-80016727D01*
X172245855Y-80111040D01*
X171843895Y-80379622D01*
X171575313Y-80781582D01*
X171481000Y-81255727D01*
X169895000Y-81255727D01*
X169800687Y-80781582D01*
X169532105Y-80379622D01*
X169130145Y-80111040D01*
X168656000Y-80016727D01*
X168181855Y-80111040D01*
X167779895Y-80379622D01*
X167511313Y-80781582D01*
X167417000Y-81255727D01*
X167355000Y-81255727D01*
X167260687Y-80781582D01*
X166992105Y-80379622D01*
X166590145Y-80111040D01*
X166116000Y-80016727D01*
X165641855Y-80111040D01*
X165239895Y-80379622D01*
X164971313Y-80781582D01*
X164877000Y-81255727D01*
X164815000Y-81255727D01*
X164720687Y-80781582D01*
X164452105Y-80379622D01*
X164050145Y-80111040D01*
X163576000Y-80016727D01*
X163101855Y-80111040D01*
X162699895Y-80379622D01*
X162431313Y-80781582D01*
X162337000Y-81255727D01*
X162275000Y-81255727D01*
X162180687Y-80781582D01*
X161912105Y-80379622D01*
X161510145Y-80111040D01*
X161036000Y-80016727D01*
X160561855Y-80111040D01*
X160159895Y-80379622D01*
X159891313Y-80781582D01*
X159797000Y-81255727D01*
X159735000Y-81255727D01*
X159640687Y-80781582D01*
X159372105Y-80379622D01*
X158970145Y-80111040D01*
X158496000Y-80016727D01*
X158021855Y-80111040D01*
X157619895Y-80379622D01*
X157351313Y-80781582D01*
X157257000Y-81255727D01*
X157195000Y-81255727D01*
X157100687Y-80781582D01*
X156832105Y-80379622D01*
X156430145Y-80111040D01*
X155956000Y-80016727D01*
X155481855Y-80111040D01*
X155079895Y-80379622D01*
X154811313Y-80781582D01*
X154717000Y-81255727D01*
X154655000Y-81255727D01*
X154560687Y-80781582D01*
X154292105Y-80379622D01*
X153890145Y-80111040D01*
X153416000Y-80016727D01*
X152941855Y-80111040D01*
X152539895Y-80379622D01*
X152271313Y-80781582D01*
X152177000Y-81255727D01*
X152115000Y-81255727D01*
X152020687Y-80781582D01*
X151752105Y-80379622D01*
X151350145Y-80111040D01*
X150876000Y-80016727D01*
X150401855Y-80111040D01*
X149999895Y-80379622D01*
X149731313Y-80781582D01*
X149637000Y-81255727D01*
X127273000Y-81255727D01*
X127273000Y-78985272D01*
X149637285Y-78985272D01*
X149825438Y-79440638D01*
X150173530Y-79789337D01*
X150628566Y-79978285D01*
X151121272Y-79978715D01*
X151576638Y-79790562D01*
X151925337Y-79442470D01*
X152114285Y-78987434D01*
X152114286Y-78985371D01*
X152176786Y-78985371D01*
X152365015Y-79440920D01*
X152713247Y-79789760D01*
X153168467Y-79978784D01*
X153661371Y-79979214D01*
X154116920Y-79790985D01*
X154465760Y-79442753D01*
X154654784Y-78987533D01*
X154654785Y-78985371D01*
X154716786Y-78985371D01*
X154905015Y-79440920D01*
X155253247Y-79789760D01*
X155708467Y-79978784D01*
X156201371Y-79979214D01*
X156656920Y-79790985D01*
X157005760Y-79442753D01*
X157194784Y-78987533D01*
X157194785Y-78985371D01*
X157256786Y-78985371D01*
X157445015Y-79440920D01*
X157793247Y-79789760D01*
X158248467Y-79978784D01*
X158741371Y-79979214D01*
X159196920Y-79790985D01*
X159545760Y-79442753D01*
X159734784Y-78987533D01*
X159734785Y-78985371D01*
X159796786Y-78985371D01*
X159985015Y-79440920D01*
X160333247Y-79789760D01*
X160788467Y-79978784D01*
X161281371Y-79979214D01*
X161736920Y-79790985D01*
X162085760Y-79442753D01*
X162274784Y-78987533D01*
X162274785Y-78985371D01*
X162336786Y-78985371D01*
X162525015Y-79440920D01*
X162873247Y-79789760D01*
X163328467Y-79978784D01*
X163821371Y-79979214D01*
X164276920Y-79790985D01*
X164625760Y-79442753D01*
X164814784Y-78987533D01*
X164814785Y-78985371D01*
X164876786Y-78985371D01*
X165065015Y-79440920D01*
X165413247Y-79789760D01*
X165868467Y-79978784D01*
X166361371Y-79979214D01*
X166816920Y-79790985D01*
X167165760Y-79442753D01*
X167354784Y-78987533D01*
X167354785Y-78985371D01*
X167416786Y-78985371D01*
X167605015Y-79440920D01*
X167953247Y-79789760D01*
X168408467Y-79978784D01*
X168901371Y-79979214D01*
X169356920Y-79790985D01*
X169705760Y-79442753D01*
X169894784Y-78987533D01*
X169894785Y-78985371D01*
X171480786Y-78985371D01*
X171669015Y-79440920D01*
X172017247Y-79789760D01*
X172472467Y-79978784D01*
X172965371Y-79979214D01*
X173420920Y-79790985D01*
X173769760Y-79442753D01*
X173958784Y-78987533D01*
X173958785Y-78985371D01*
X174020786Y-78985371D01*
X174209015Y-79440920D01*
X174557247Y-79789760D01*
X175012467Y-79978784D01*
X175505371Y-79979214D01*
X175960920Y-79790985D01*
X176309760Y-79442753D01*
X176498784Y-78987533D01*
X176498785Y-78985371D01*
X176560786Y-78985371D01*
X176749015Y-79440920D01*
X177097247Y-79789760D01*
X177552467Y-79978784D01*
X178045371Y-79979214D01*
X178500920Y-79790985D01*
X178849760Y-79442753D01*
X179038784Y-78987533D01*
X179038785Y-78985371D01*
X179100786Y-78985371D01*
X179289015Y-79440920D01*
X179637247Y-79789760D01*
X180092467Y-79978784D01*
X180585371Y-79979214D01*
X181040920Y-79790985D01*
X181389760Y-79442753D01*
X181578784Y-78987533D01*
X181578785Y-78985371D01*
X181640786Y-78985371D01*
X181829015Y-79440920D01*
X182177247Y-79789760D01*
X182632467Y-79978784D01*
X183125371Y-79979214D01*
X183580920Y-79790985D01*
X183929760Y-79442753D01*
X184118784Y-78987533D01*
X184118785Y-78985371D01*
X184180786Y-78985371D01*
X184369015Y-79440920D01*
X184717247Y-79789760D01*
X185172467Y-79978784D01*
X185665371Y-79979214D01*
X186120920Y-79790985D01*
X186469760Y-79442753D01*
X186658784Y-78987533D01*
X186658785Y-78985371D01*
X186720786Y-78985371D01*
X186909015Y-79440920D01*
X187257247Y-79789760D01*
X187712467Y-79978784D01*
X188205371Y-79979214D01*
X188660920Y-79790985D01*
X189009760Y-79442753D01*
X189198784Y-78987533D01*
X189198785Y-78985371D01*
X189260786Y-78985371D01*
X189449015Y-79440920D01*
X189797247Y-79789760D01*
X190252467Y-79978784D01*
X190745371Y-79979214D01*
X191200920Y-79790985D01*
X191549760Y-79442753D01*
X191738784Y-78987533D01*
X191739214Y-78494629D01*
X191550985Y-78039080D01*
X191202753Y-77690240D01*
X190747533Y-77501216D01*
X190254629Y-77500786D01*
X189799080Y-77689015D01*
X189450240Y-78037247D01*
X189261216Y-78492467D01*
X189260786Y-78985371D01*
X189198785Y-78985371D01*
X189199214Y-78494629D01*
X189010985Y-78039080D01*
X188662753Y-77690240D01*
X188207533Y-77501216D01*
X187714629Y-77500786D01*
X187259080Y-77689015D01*
X186910240Y-78037247D01*
X186721216Y-78492467D01*
X186720786Y-78985371D01*
X186658785Y-78985371D01*
X186659214Y-78494629D01*
X186470985Y-78039080D01*
X186122753Y-77690240D01*
X185667533Y-77501216D01*
X185174629Y-77500786D01*
X184719080Y-77689015D01*
X184370240Y-78037247D01*
X184181216Y-78492467D01*
X184180786Y-78985371D01*
X184118785Y-78985371D01*
X184119214Y-78494629D01*
X183930985Y-78039080D01*
X183582753Y-77690240D01*
X183127533Y-77501216D01*
X182634629Y-77500786D01*
X182179080Y-77689015D01*
X181830240Y-78037247D01*
X181641216Y-78492467D01*
X181640786Y-78985371D01*
X181578785Y-78985371D01*
X181579214Y-78494629D01*
X181390985Y-78039080D01*
X181042753Y-77690240D01*
X180587533Y-77501216D01*
X180094629Y-77500786D01*
X179639080Y-77689015D01*
X179290240Y-78037247D01*
X179101216Y-78492467D01*
X179100786Y-78985371D01*
X179038785Y-78985371D01*
X179039214Y-78494629D01*
X178850985Y-78039080D01*
X178502753Y-77690240D01*
X178047533Y-77501216D01*
X177554629Y-77500786D01*
X177099080Y-77689015D01*
X176750240Y-78037247D01*
X176561216Y-78492467D01*
X176560786Y-78985371D01*
X176498785Y-78985371D01*
X176499214Y-78494629D01*
X176310985Y-78039080D01*
X175962753Y-77690240D01*
X175507533Y-77501216D01*
X175014629Y-77500786D01*
X174559080Y-77689015D01*
X174210240Y-78037247D01*
X174021216Y-78492467D01*
X174020786Y-78985371D01*
X173958785Y-78985371D01*
X173959214Y-78494629D01*
X173770985Y-78039080D01*
X173422753Y-77690240D01*
X172967533Y-77501216D01*
X172474629Y-77500786D01*
X172019080Y-77689015D01*
X171670240Y-78037247D01*
X171481216Y-78492467D01*
X171480786Y-78985371D01*
X169894785Y-78985371D01*
X169895214Y-78494629D01*
X169706985Y-78039080D01*
X169358753Y-77690240D01*
X168903533Y-77501216D01*
X168410629Y-77500786D01*
X167955080Y-77689015D01*
X167606240Y-78037247D01*
X167417216Y-78492467D01*
X167416786Y-78985371D01*
X167354785Y-78985371D01*
X167355214Y-78494629D01*
X167166985Y-78039080D01*
X166818753Y-77690240D01*
X166363533Y-77501216D01*
X165870629Y-77500786D01*
X165415080Y-77689015D01*
X165066240Y-78037247D01*
X164877216Y-78492467D01*
X164876786Y-78985371D01*
X164814785Y-78985371D01*
X164815214Y-78494629D01*
X164626985Y-78039080D01*
X164278753Y-77690240D01*
X163823533Y-77501216D01*
X163330629Y-77500786D01*
X162875080Y-77689015D01*
X162526240Y-78037247D01*
X162337216Y-78492467D01*
X162336786Y-78985371D01*
X162274785Y-78985371D01*
X162275214Y-78494629D01*
X162086985Y-78039080D01*
X161738753Y-77690240D01*
X161283533Y-77501216D01*
X160790629Y-77500786D01*
X160335080Y-77689015D01*
X159986240Y-78037247D01*
X159797216Y-78492467D01*
X159796786Y-78985371D01*
X159734785Y-78985371D01*
X159735214Y-78494629D01*
X159546985Y-78039080D01*
X159198753Y-77690240D01*
X158743533Y-77501216D01*
X158250629Y-77500786D01*
X157795080Y-77689015D01*
X157446240Y-78037247D01*
X157257216Y-78492467D01*
X157256786Y-78985371D01*
X157194785Y-78985371D01*
X157195214Y-78494629D01*
X157006985Y-78039080D01*
X156658753Y-77690240D01*
X156203533Y-77501216D01*
X155710629Y-77500786D01*
X155255080Y-77689015D01*
X154906240Y-78037247D01*
X154717216Y-78492467D01*
X154716786Y-78985371D01*
X154654785Y-78985371D01*
X154655214Y-78494629D01*
X154466985Y-78039080D01*
X154118753Y-77690240D01*
X153663533Y-77501216D01*
X153170629Y-77500786D01*
X152715080Y-77689015D01*
X152366240Y-78037247D01*
X152177216Y-78492467D01*
X152176786Y-78985371D01*
X152114286Y-78985371D01*
X152114715Y-78494728D01*
X151926562Y-78039362D01*
X151578470Y-77690663D01*
X151123434Y-77501715D01*
X150630728Y-77501285D01*
X150175362Y-77689438D01*
X149826663Y-78037530D01*
X149637715Y-78492566D01*
X149637285Y-78985272D01*
X127273000Y-78985272D01*
X127273000Y-76445371D01*
X144556786Y-76445371D01*
X144745015Y-76900920D01*
X145093247Y-77249760D01*
X145548467Y-77438784D01*
X146041371Y-77439214D01*
X146496920Y-77250985D01*
X146845760Y-76902753D01*
X147034784Y-76447533D01*
X147034785Y-76445371D01*
X147096786Y-76445371D01*
X147285015Y-76900920D01*
X147633247Y-77249760D01*
X148088467Y-77438784D01*
X148581371Y-77439214D01*
X149036920Y-77250985D01*
X149385760Y-76902753D01*
X149574784Y-76447533D01*
X149574785Y-76445272D01*
X149637285Y-76445272D01*
X149825438Y-76900638D01*
X150173530Y-77249337D01*
X150628566Y-77438285D01*
X151121272Y-77438715D01*
X151576638Y-77250562D01*
X151785388Y-77042175D01*
X152641707Y-77042175D01*
X152712836Y-77249485D01*
X153167982Y-77438687D01*
X153660887Y-77439309D01*
X154116509Y-77251258D01*
X154119164Y-77249485D01*
X154190293Y-77042175D01*
X153416000Y-76267882D01*
X152641707Y-77042175D01*
X151785388Y-77042175D01*
X151925337Y-76902470D01*
X152114285Y-76447434D01*
X152114287Y-76444887D01*
X152176691Y-76444887D01*
X152364742Y-76900509D01*
X152366515Y-76903164D01*
X152573825Y-76974293D01*
X153348118Y-76200000D01*
X153483882Y-76200000D01*
X154258175Y-76974293D01*
X154465485Y-76903164D01*
X154654687Y-76448018D01*
X154654690Y-76445371D01*
X154716786Y-76445371D01*
X154905015Y-76900920D01*
X155253247Y-77249760D01*
X155708467Y-77438784D01*
X156201371Y-77439214D01*
X156656920Y-77250985D01*
X157005760Y-76902753D01*
X157194784Y-76447533D01*
X157194785Y-76445371D01*
X157256786Y-76445371D01*
X157445015Y-76900920D01*
X157793247Y-77249760D01*
X158248467Y-77438784D01*
X158741371Y-77439214D01*
X159196920Y-77250985D01*
X159545760Y-76902753D01*
X159734784Y-76447533D01*
X159734785Y-76445371D01*
X159796786Y-76445371D01*
X159985015Y-76900920D01*
X160333247Y-77249760D01*
X160788467Y-77438784D01*
X161281371Y-77439214D01*
X161736920Y-77250985D01*
X162085760Y-76902753D01*
X162274784Y-76447533D01*
X162274785Y-76445371D01*
X162336786Y-76445371D01*
X162525015Y-76900920D01*
X162873247Y-77249760D01*
X163328467Y-77438784D01*
X163821371Y-77439214D01*
X164276920Y-77250985D01*
X164625760Y-76902753D01*
X164814784Y-76447533D01*
X164814785Y-76445371D01*
X164876786Y-76445371D01*
X165065015Y-76900920D01*
X165413247Y-77249760D01*
X165868467Y-77438784D01*
X166361371Y-77439214D01*
X166816920Y-77250985D01*
X167165760Y-76902753D01*
X167354784Y-76447533D01*
X167354785Y-76445371D01*
X167416786Y-76445371D01*
X167605015Y-76900920D01*
X167953247Y-77249760D01*
X168408467Y-77438784D01*
X168901371Y-77439214D01*
X169356920Y-77250985D01*
X169705760Y-76902753D01*
X169894784Y-76447533D01*
X169894785Y-76445371D01*
X171480786Y-76445371D01*
X171669015Y-76900920D01*
X172017247Y-77249760D01*
X172472467Y-77438784D01*
X172965371Y-77439214D01*
X173420920Y-77250985D01*
X173769760Y-76902753D01*
X173958784Y-76447533D01*
X173958785Y-76445371D01*
X174020786Y-76445371D01*
X174209015Y-76900920D01*
X174557247Y-77249760D01*
X175012467Y-77438784D01*
X175505371Y-77439214D01*
X175960920Y-77250985D01*
X176309760Y-76902753D01*
X176498784Y-76447533D01*
X176498785Y-76445371D01*
X176560786Y-76445371D01*
X176749015Y-76900920D01*
X177097247Y-77249760D01*
X177552467Y-77438784D01*
X178045371Y-77439214D01*
X178500920Y-77250985D01*
X178849760Y-76902753D01*
X179038784Y-76447533D01*
X179038785Y-76445371D01*
X179100786Y-76445371D01*
X179289015Y-76900920D01*
X179637247Y-77249760D01*
X180092467Y-77438784D01*
X180585371Y-77439214D01*
X181040920Y-77250985D01*
X181389760Y-76902753D01*
X181578784Y-76447533D01*
X181578785Y-76445371D01*
X181640786Y-76445371D01*
X181829015Y-76900920D01*
X182177247Y-77249760D01*
X182632467Y-77438784D01*
X183125371Y-77439214D01*
X183580920Y-77250985D01*
X183929760Y-76902753D01*
X184118784Y-76447533D01*
X184118785Y-76445371D01*
X184180786Y-76445371D01*
X184369015Y-76900920D01*
X184717247Y-77249760D01*
X185172467Y-77438784D01*
X185665371Y-77439214D01*
X186120920Y-77250985D01*
X186469760Y-76902753D01*
X186658784Y-76447533D01*
X186658785Y-76445371D01*
X186720786Y-76445371D01*
X186909015Y-76900920D01*
X187257247Y-77249760D01*
X187712467Y-77438784D01*
X188205371Y-77439214D01*
X188660920Y-77250985D01*
X189009760Y-76902753D01*
X189198784Y-76447533D01*
X189198785Y-76445371D01*
X189260786Y-76445371D01*
X189449015Y-76900920D01*
X189797247Y-77249760D01*
X190252467Y-77438784D01*
X190745371Y-77439214D01*
X191200920Y-77250985D01*
X191549760Y-76902753D01*
X191738784Y-76447533D01*
X191739214Y-75954629D01*
X191550985Y-75499080D01*
X191202753Y-75150240D01*
X190747533Y-74961216D01*
X190254629Y-74960786D01*
X189799080Y-75149015D01*
X189450240Y-75497247D01*
X189261216Y-75952467D01*
X189260786Y-76445371D01*
X189198785Y-76445371D01*
X189199214Y-75954629D01*
X189010985Y-75499080D01*
X188662753Y-75150240D01*
X188207533Y-74961216D01*
X187714629Y-74960786D01*
X187259080Y-75149015D01*
X186910240Y-75497247D01*
X186721216Y-75952467D01*
X186720786Y-76445371D01*
X186658785Y-76445371D01*
X186659214Y-75954629D01*
X186470985Y-75499080D01*
X186122753Y-75150240D01*
X185667533Y-74961216D01*
X185174629Y-74960786D01*
X184719080Y-75149015D01*
X184370240Y-75497247D01*
X184181216Y-75952467D01*
X184180786Y-76445371D01*
X184118785Y-76445371D01*
X184119214Y-75954629D01*
X183930985Y-75499080D01*
X183582753Y-75150240D01*
X183127533Y-74961216D01*
X182634629Y-74960786D01*
X182179080Y-75149015D01*
X181830240Y-75497247D01*
X181641216Y-75952467D01*
X181640786Y-76445371D01*
X181578785Y-76445371D01*
X181579214Y-75954629D01*
X181390985Y-75499080D01*
X181042753Y-75150240D01*
X180587533Y-74961216D01*
X180094629Y-74960786D01*
X179639080Y-75149015D01*
X179290240Y-75497247D01*
X179101216Y-75952467D01*
X179100786Y-76445371D01*
X179038785Y-76445371D01*
X179039214Y-75954629D01*
X178850985Y-75499080D01*
X178502753Y-75150240D01*
X178047533Y-74961216D01*
X177554629Y-74960786D01*
X177099080Y-75149015D01*
X176750240Y-75497247D01*
X176561216Y-75952467D01*
X176560786Y-76445371D01*
X176498785Y-76445371D01*
X176499214Y-75954629D01*
X176310985Y-75499080D01*
X175962753Y-75150240D01*
X175507533Y-74961216D01*
X175014629Y-74960786D01*
X174559080Y-75149015D01*
X174210240Y-75497247D01*
X174021216Y-75952467D01*
X174020786Y-76445371D01*
X173958785Y-76445371D01*
X173959214Y-75954629D01*
X173770985Y-75499080D01*
X173422753Y-75150240D01*
X172967533Y-74961216D01*
X172474629Y-74960786D01*
X172019080Y-75149015D01*
X171670240Y-75497247D01*
X171481216Y-75952467D01*
X171480786Y-76445371D01*
X169894785Y-76445371D01*
X169895214Y-75954629D01*
X169706985Y-75499080D01*
X169358753Y-75150240D01*
X168903533Y-74961216D01*
X168410629Y-74960786D01*
X167955080Y-75149015D01*
X167606240Y-75497247D01*
X167417216Y-75952467D01*
X167416786Y-76445371D01*
X167354785Y-76445371D01*
X167355214Y-75954629D01*
X167166985Y-75499080D01*
X166818753Y-75150240D01*
X166363533Y-74961216D01*
X165870629Y-74960786D01*
X165415080Y-75149015D01*
X165066240Y-75497247D01*
X164877216Y-75952467D01*
X164876786Y-76445371D01*
X164814785Y-76445371D01*
X164815214Y-75954629D01*
X164626985Y-75499080D01*
X164278753Y-75150240D01*
X163823533Y-74961216D01*
X163330629Y-74960786D01*
X162875080Y-75149015D01*
X162526240Y-75497247D01*
X162337216Y-75952467D01*
X162336786Y-76445371D01*
X162274785Y-76445371D01*
X162275214Y-75954629D01*
X162086985Y-75499080D01*
X161738753Y-75150240D01*
X161283533Y-74961216D01*
X160790629Y-74960786D01*
X160335080Y-75149015D01*
X159986240Y-75497247D01*
X159797216Y-75952467D01*
X159796786Y-76445371D01*
X159734785Y-76445371D01*
X159735214Y-75954629D01*
X159546985Y-75499080D01*
X159198753Y-75150240D01*
X158743533Y-74961216D01*
X158250629Y-74960786D01*
X157795080Y-75149015D01*
X157446240Y-75497247D01*
X157257216Y-75952467D01*
X157256786Y-76445371D01*
X157194785Y-76445371D01*
X157195214Y-75954629D01*
X157006985Y-75499080D01*
X156658753Y-75150240D01*
X156203533Y-74961216D01*
X155710629Y-74960786D01*
X155255080Y-75149015D01*
X154906240Y-75497247D01*
X154717216Y-75952467D01*
X154716786Y-76445371D01*
X154654690Y-76445371D01*
X154655309Y-75955113D01*
X154467258Y-75499491D01*
X154465485Y-75496836D01*
X154258175Y-75425707D01*
X153483882Y-76200000D01*
X153348118Y-76200000D01*
X152573825Y-75425707D01*
X152366515Y-75496836D01*
X152177313Y-75951982D01*
X152176691Y-76444887D01*
X152114287Y-76444887D01*
X152114715Y-75954728D01*
X151926562Y-75499362D01*
X151785272Y-75357825D01*
X152641707Y-75357825D01*
X153416000Y-76132118D01*
X154190293Y-75357825D01*
X154119164Y-75150515D01*
X153664018Y-74961313D01*
X153171113Y-74960691D01*
X152715491Y-75148742D01*
X152712836Y-75150515D01*
X152641707Y-75357825D01*
X151785272Y-75357825D01*
X151578470Y-75150663D01*
X151123434Y-74961715D01*
X150630728Y-74961285D01*
X150175362Y-75149438D01*
X149826663Y-75497530D01*
X149637715Y-75952566D01*
X149637285Y-76445272D01*
X149574785Y-76445272D01*
X149575214Y-75954629D01*
X149386985Y-75499080D01*
X149038753Y-75150240D01*
X148583533Y-74961216D01*
X148090629Y-74960786D01*
X147635080Y-75149015D01*
X147286240Y-75497247D01*
X147097216Y-75952467D01*
X147096786Y-76445371D01*
X147034785Y-76445371D01*
X147035214Y-75954629D01*
X146846985Y-75499080D01*
X146498753Y-75150240D01*
X146043533Y-74961216D01*
X145550629Y-74960786D01*
X145095080Y-75149015D01*
X144746240Y-75497247D01*
X144557216Y-75952467D01*
X144556786Y-76445371D01*
X127273000Y-76445371D01*
X127273000Y-73635727D01*
X144557000Y-73635727D01*
X144557000Y-73684273D01*
X144651313Y-74158418D01*
X144919895Y-74560378D01*
X145321855Y-74828960D01*
X145796000Y-74923273D01*
X146270145Y-74828960D01*
X146672105Y-74560378D01*
X146940687Y-74158418D01*
X147035000Y-73684273D01*
X147035000Y-73635727D01*
X147097000Y-73635727D01*
X147097000Y-73684273D01*
X147191313Y-74158418D01*
X147459895Y-74560378D01*
X147861855Y-74828960D01*
X148336000Y-74923273D01*
X148810145Y-74828960D01*
X149212105Y-74560378D01*
X149480687Y-74158418D01*
X149575000Y-73684273D01*
X149575000Y-73635727D01*
X149637000Y-73635727D01*
X149637000Y-73684273D01*
X149731313Y-74158418D01*
X149999895Y-74560378D01*
X150401855Y-74828960D01*
X150876000Y-74923273D01*
X151350145Y-74828960D01*
X151752105Y-74560378D01*
X152020687Y-74158418D01*
X152071873Y-73901086D01*
X152200678Y-73901086D01*
X152385448Y-74347818D01*
X152727111Y-74689836D01*
X153173651Y-74875071D01*
X153174914Y-74875318D01*
X153368000Y-74778721D01*
X153368000Y-73708000D01*
X153464000Y-73708000D01*
X153464000Y-74778721D01*
X153657086Y-74875318D01*
X153658349Y-74875071D01*
X154104889Y-74689836D01*
X154446552Y-74347818D01*
X154631322Y-73901086D01*
X154534824Y-73708000D01*
X153464000Y-73708000D01*
X153368000Y-73708000D01*
X152297176Y-73708000D01*
X152200678Y-73901086D01*
X152071873Y-73901086D01*
X152115000Y-73684273D01*
X152115000Y-73635727D01*
X154717000Y-73635727D01*
X154717000Y-73684273D01*
X154811313Y-74158418D01*
X155079895Y-74560378D01*
X155481855Y-74828960D01*
X155956000Y-74923273D01*
X156430145Y-74828960D01*
X156832105Y-74560378D01*
X157100687Y-74158418D01*
X157195000Y-73684273D01*
X157195000Y-73635727D01*
X157257000Y-73635727D01*
X157257000Y-73684273D01*
X157351313Y-74158418D01*
X157619895Y-74560378D01*
X158021855Y-74828960D01*
X158496000Y-74923273D01*
X158970145Y-74828960D01*
X159372105Y-74560378D01*
X159640687Y-74158418D01*
X159735000Y-73684273D01*
X159735000Y-73635727D01*
X159797000Y-73635727D01*
X159797000Y-73684273D01*
X159891313Y-74158418D01*
X160159895Y-74560378D01*
X160561855Y-74828960D01*
X161036000Y-74923273D01*
X161510145Y-74828960D01*
X161912105Y-74560378D01*
X162180687Y-74158418D01*
X162275000Y-73684273D01*
X162275000Y-73635727D01*
X162337000Y-73635727D01*
X162337000Y-73684273D01*
X162431313Y-74158418D01*
X162699895Y-74560378D01*
X163101855Y-74828960D01*
X163576000Y-74923273D01*
X164050145Y-74828960D01*
X164452105Y-74560378D01*
X164720687Y-74158418D01*
X164815000Y-73684273D01*
X164815000Y-73635727D01*
X164877000Y-73635727D01*
X164877000Y-73684273D01*
X164971313Y-74158418D01*
X165239895Y-74560378D01*
X165641855Y-74828960D01*
X166116000Y-74923273D01*
X166590145Y-74828960D01*
X166992105Y-74560378D01*
X167260687Y-74158418D01*
X167355000Y-73684273D01*
X167355000Y-73635727D01*
X167417000Y-73635727D01*
X167417000Y-73684273D01*
X167511313Y-74158418D01*
X167779895Y-74560378D01*
X168181855Y-74828960D01*
X168656000Y-74923273D01*
X169130145Y-74828960D01*
X169532105Y-74560378D01*
X169800687Y-74158418D01*
X169895000Y-73684273D01*
X169895000Y-73635727D01*
X171481000Y-73635727D01*
X171481000Y-73684273D01*
X171575313Y-74158418D01*
X171843895Y-74560378D01*
X172245855Y-74828960D01*
X172720000Y-74923273D01*
X173194145Y-74828960D01*
X173596105Y-74560378D01*
X173864687Y-74158418D01*
X173959000Y-73684273D01*
X173959000Y-73635727D01*
X174021000Y-73635727D01*
X174021000Y-73684273D01*
X174115313Y-74158418D01*
X174383895Y-74560378D01*
X174785855Y-74828960D01*
X175260000Y-74923273D01*
X175734145Y-74828960D01*
X176136105Y-74560378D01*
X176404687Y-74158418D01*
X176499000Y-73684273D01*
X176499000Y-73635727D01*
X176561000Y-73635727D01*
X176561000Y-73684273D01*
X176655313Y-74158418D01*
X176923895Y-74560378D01*
X177325855Y-74828960D01*
X177800000Y-74923273D01*
X178274145Y-74828960D01*
X178676105Y-74560378D01*
X178944687Y-74158418D01*
X179039000Y-73684273D01*
X179039000Y-73635727D01*
X179101000Y-73635727D01*
X179101000Y-73684273D01*
X179195313Y-74158418D01*
X179463895Y-74560378D01*
X179865855Y-74828960D01*
X180340000Y-74923273D01*
X180814145Y-74828960D01*
X181216105Y-74560378D01*
X181484687Y-74158418D01*
X181579000Y-73684273D01*
X181579000Y-73635727D01*
X181641000Y-73635727D01*
X181641000Y-73684273D01*
X181735313Y-74158418D01*
X182003895Y-74560378D01*
X182405855Y-74828960D01*
X182880000Y-74923273D01*
X183354145Y-74828960D01*
X183756105Y-74560378D01*
X184024687Y-74158418D01*
X184119000Y-73684273D01*
X184119000Y-73635727D01*
X184181000Y-73635727D01*
X184181000Y-73684273D01*
X184275313Y-74158418D01*
X184543895Y-74560378D01*
X184945855Y-74828960D01*
X185420000Y-74923273D01*
X185894145Y-74828960D01*
X186296105Y-74560378D01*
X186564687Y-74158418D01*
X186659000Y-73684273D01*
X186659000Y-73635727D01*
X186721000Y-73635727D01*
X186721000Y-73684273D01*
X186815313Y-74158418D01*
X187083895Y-74560378D01*
X187485855Y-74828960D01*
X187960000Y-74923273D01*
X188434145Y-74828960D01*
X188836105Y-74560378D01*
X189104687Y-74158418D01*
X189199000Y-73684273D01*
X189199000Y-73635727D01*
X189261000Y-73635727D01*
X189261000Y-73684273D01*
X189355313Y-74158418D01*
X189623895Y-74560378D01*
X190025855Y-74828960D01*
X190500000Y-74923273D01*
X190974145Y-74828960D01*
X191376105Y-74560378D01*
X191644687Y-74158418D01*
X191739000Y-73684273D01*
X191739000Y-73635727D01*
X191644687Y-73161582D01*
X191376105Y-72759622D01*
X190974145Y-72491040D01*
X190500000Y-72396727D01*
X190025855Y-72491040D01*
X189623895Y-72759622D01*
X189355313Y-73161582D01*
X189261000Y-73635727D01*
X189199000Y-73635727D01*
X189104687Y-73161582D01*
X188836105Y-72759622D01*
X188434145Y-72491040D01*
X187960000Y-72396727D01*
X187485855Y-72491040D01*
X187083895Y-72759622D01*
X186815313Y-73161582D01*
X186721000Y-73635727D01*
X186659000Y-73635727D01*
X186564687Y-73161582D01*
X186296105Y-72759622D01*
X185894145Y-72491040D01*
X185420000Y-72396727D01*
X184945855Y-72491040D01*
X184543895Y-72759622D01*
X184275313Y-73161582D01*
X184181000Y-73635727D01*
X184119000Y-73635727D01*
X184024687Y-73161582D01*
X183756105Y-72759622D01*
X183354145Y-72491040D01*
X182880000Y-72396727D01*
X182405855Y-72491040D01*
X182003895Y-72759622D01*
X181735313Y-73161582D01*
X181641000Y-73635727D01*
X181579000Y-73635727D01*
X181484687Y-73161582D01*
X181216105Y-72759622D01*
X180814145Y-72491040D01*
X180340000Y-72396727D01*
X179865855Y-72491040D01*
X179463895Y-72759622D01*
X179195313Y-73161582D01*
X179101000Y-73635727D01*
X179039000Y-73635727D01*
X178944687Y-73161582D01*
X178676105Y-72759622D01*
X178274145Y-72491040D01*
X177800000Y-72396727D01*
X177325855Y-72491040D01*
X176923895Y-72759622D01*
X176655313Y-73161582D01*
X176561000Y-73635727D01*
X176499000Y-73635727D01*
X176404687Y-73161582D01*
X176136105Y-72759622D01*
X175734145Y-72491040D01*
X175260000Y-72396727D01*
X174785855Y-72491040D01*
X174383895Y-72759622D01*
X174115313Y-73161582D01*
X174021000Y-73635727D01*
X173959000Y-73635727D01*
X173864687Y-73161582D01*
X173596105Y-72759622D01*
X173194145Y-72491040D01*
X172720000Y-72396727D01*
X172245855Y-72491040D01*
X171843895Y-72759622D01*
X171575313Y-73161582D01*
X171481000Y-73635727D01*
X169895000Y-73635727D01*
X169800687Y-73161582D01*
X169532105Y-72759622D01*
X169130145Y-72491040D01*
X168656000Y-72396727D01*
X168181855Y-72491040D01*
X167779895Y-72759622D01*
X167511313Y-73161582D01*
X167417000Y-73635727D01*
X167355000Y-73635727D01*
X167260687Y-73161582D01*
X166992105Y-72759622D01*
X166590145Y-72491040D01*
X166116000Y-72396727D01*
X165641855Y-72491040D01*
X165239895Y-72759622D01*
X164971313Y-73161582D01*
X164877000Y-73635727D01*
X164815000Y-73635727D01*
X164720687Y-73161582D01*
X164452105Y-72759622D01*
X164050145Y-72491040D01*
X163576000Y-72396727D01*
X163101855Y-72491040D01*
X162699895Y-72759622D01*
X162431313Y-73161582D01*
X162337000Y-73635727D01*
X162275000Y-73635727D01*
X162180687Y-73161582D01*
X161912105Y-72759622D01*
X161510145Y-72491040D01*
X161036000Y-72396727D01*
X160561855Y-72491040D01*
X160159895Y-72759622D01*
X159891313Y-73161582D01*
X159797000Y-73635727D01*
X159735000Y-73635727D01*
X159640687Y-73161582D01*
X159372105Y-72759622D01*
X158970145Y-72491040D01*
X158496000Y-72396727D01*
X158021855Y-72491040D01*
X157619895Y-72759622D01*
X157351313Y-73161582D01*
X157257000Y-73635727D01*
X157195000Y-73635727D01*
X157100687Y-73161582D01*
X156832105Y-72759622D01*
X156430145Y-72491040D01*
X155956000Y-72396727D01*
X155481855Y-72491040D01*
X155079895Y-72759622D01*
X154811313Y-73161582D01*
X154717000Y-73635727D01*
X152115000Y-73635727D01*
X152071874Y-73418914D01*
X152200678Y-73418914D01*
X152297176Y-73612000D01*
X153368000Y-73612000D01*
X153368000Y-72541279D01*
X153464000Y-72541279D01*
X153464000Y-73612000D01*
X154534824Y-73612000D01*
X154631322Y-73418914D01*
X154446552Y-72972182D01*
X154104889Y-72630164D01*
X153658349Y-72444929D01*
X153657086Y-72444682D01*
X153464000Y-72541279D01*
X153368000Y-72541279D01*
X153174914Y-72444682D01*
X153173651Y-72444929D01*
X152727111Y-72630164D01*
X152385448Y-72972182D01*
X152200678Y-73418914D01*
X152071874Y-73418914D01*
X152020687Y-73161582D01*
X151752105Y-72759622D01*
X151350145Y-72491040D01*
X150876000Y-72396727D01*
X150401855Y-72491040D01*
X149999895Y-72759622D01*
X149731313Y-73161582D01*
X149637000Y-73635727D01*
X149575000Y-73635727D01*
X149480687Y-73161582D01*
X149212105Y-72759622D01*
X148810145Y-72491040D01*
X148336000Y-72396727D01*
X147861855Y-72491040D01*
X147459895Y-72759622D01*
X147191313Y-73161582D01*
X147097000Y-73635727D01*
X147035000Y-73635727D01*
X146940687Y-73161582D01*
X146672105Y-72759622D01*
X146270145Y-72491040D01*
X145796000Y-72396727D01*
X145321855Y-72491040D01*
X144919895Y-72759622D01*
X144651313Y-73161582D01*
X144557000Y-73635727D01*
X127273000Y-73635727D01*
X127273000Y-66414600D01*
X246107000Y-66414600D01*
X246107000Y-134347000D01*
X246107000Y-134347000D01*
G37*
X246107000Y-134347000D02*
X127273000Y-134347000D01*
X127273000Y-128830277D01*
X140573866Y-128830277D01*
X140691908Y-129115960D01*
X140910290Y-129334724D01*
X141195767Y-129453265D01*
X141504877Y-129453534D01*
X141790560Y-129335492D01*
X142009324Y-129117110D01*
X142127865Y-128831633D01*
X142128134Y-128522523D01*
X142010092Y-128236840D01*
X141791710Y-128018076D01*
X141506233Y-127899535D01*
X141197123Y-127899266D01*
X140911440Y-128017308D01*
X140692676Y-128235690D01*
X140574135Y-128521167D01*
X140573866Y-128830277D01*
X127273000Y-128830277D01*
X127273000Y-126975727D01*
X153701000Y-126975727D01*
X153701000Y-127024273D01*
X153795313Y-127498418D01*
X154063895Y-127900378D01*
X154465855Y-128168960D01*
X154940000Y-128263273D01*
X155414145Y-128168960D01*
X155816105Y-127900378D01*
X156084687Y-127498418D01*
X156179000Y-127024273D01*
X156179000Y-126975727D01*
X156241000Y-126975727D01*
X156241000Y-127024273D01*
X156335313Y-127498418D01*
X156603895Y-127900378D01*
X157005855Y-128168960D01*
X157480000Y-128263273D01*
X157954145Y-128168960D01*
X158356105Y-127900378D01*
X158624687Y-127498418D01*
X158719000Y-127024273D01*
X158719000Y-126975727D01*
X158781000Y-126975727D01*
X158781000Y-127024273D01*
X158875313Y-127498418D01*
X159143895Y-127900378D01*
X159545855Y-128168960D01*
X160020000Y-128263273D01*
X160494145Y-128168960D01*
X160896105Y-127900378D01*
X161164687Y-127498418D01*
X161259000Y-127024273D01*
X161259000Y-126975727D01*
X161321000Y-126975727D01*
X161321000Y-127024273D01*
X161415313Y-127498418D01*
X161683895Y-127900378D01*
X162085855Y-128168960D01*
X162560000Y-128263273D01*
X163034145Y-128168960D01*
X163436105Y-127900378D01*
X163704687Y-127498418D01*
X163799000Y-127024273D01*
X163799000Y-126975727D01*
X163861000Y-126975727D01*
X163861000Y-127024273D01*
X163955313Y-127498418D01*
X164223895Y-127900378D01*
X164625855Y-128168960D01*
X165100000Y-128263273D01*
X165574145Y-128168960D01*
X165976105Y-127900378D01*
X166244687Y-127498418D01*
X166295873Y-127241086D01*
X166424678Y-127241086D01*
X166609448Y-127687818D01*
X166951111Y-128029836D01*
X167397651Y-128215071D01*
X167398914Y-128215318D01*
X167592000Y-128118721D01*
X167592000Y-127048000D01*
X167688000Y-127048000D01*
X167688000Y-128118721D01*
X167881086Y-128215318D01*
X167882349Y-128215071D01*
X168328889Y-128029836D01*
X168670552Y-127687818D01*
X168855322Y-127241086D01*
X168964678Y-127241086D01*
X169149448Y-127687818D01*
X169491111Y-128029836D01*
X169937651Y-128215071D01*
X169938914Y-128215318D01*
X170132000Y-128118721D01*
X170132000Y-127048000D01*
X170228000Y-127048000D01*
X170228000Y-128118721D01*
X170421086Y-128215318D01*
X170422349Y-128215071D01*
X170868889Y-128029836D01*
X171210552Y-127687818D01*
X171395322Y-127241086D01*
X171298824Y-127048000D01*
X170228000Y-127048000D01*
X170132000Y-127048000D01*
X169061176Y-127048000D01*
X168964678Y-127241086D01*
X168855322Y-127241086D01*
X168758824Y-127048000D01*
X167688000Y-127048000D01*
X167592000Y-127048000D01*
X166521176Y-127048000D01*
X166424678Y-127241086D01*
X166295873Y-127241086D01*
X166339000Y-127024273D01*
X166339000Y-126975727D01*
X171481000Y-126975727D01*
X171481000Y-127024273D01*
X171575313Y-127498418D01*
X171843895Y-127900378D01*
X172245855Y-128168960D01*
X172720000Y-128263273D01*
X173194145Y-128168960D01*
X173596105Y-127900378D01*
X173864687Y-127498418D01*
X173959000Y-127024273D01*
X173959000Y-126975727D01*
X176561000Y-126975727D01*
X176561000Y-127024273D01*
X176655313Y-127498418D01*
X176923895Y-127900378D01*
X177325855Y-128168960D01*
X177800000Y-128263273D01*
X178274145Y-128168960D01*
X178676105Y-127900378D01*
X178944687Y-127498418D01*
X179039000Y-127024273D01*
X179039000Y-126975727D01*
X179101000Y-126975727D01*
X179101000Y-127024273D01*
X179195313Y-127498418D01*
X179463895Y-127900378D01*
X179865855Y-128168960D01*
X180340000Y-128263273D01*
X180814145Y-128168960D01*
X181216105Y-127900378D01*
X181484687Y-127498418D01*
X181579000Y-127024273D01*
X181579000Y-126975727D01*
X181641000Y-126975727D01*
X181641000Y-127024273D01*
X181735313Y-127498418D01*
X182003895Y-127900378D01*
X182405855Y-128168960D01*
X182880000Y-128263273D01*
X183354145Y-128168960D01*
X183756105Y-127900378D01*
X184024687Y-127498418D01*
X184119000Y-127024273D01*
X184119000Y-126975727D01*
X184181000Y-126975727D01*
X184181000Y-127024273D01*
X184275313Y-127498418D01*
X184543895Y-127900378D01*
X184945855Y-128168960D01*
X185420000Y-128263273D01*
X185894145Y-128168960D01*
X186296105Y-127900378D01*
X186564687Y-127498418D01*
X186659000Y-127024273D01*
X186659000Y-126975727D01*
X186721000Y-126975727D01*
X186721000Y-127024273D01*
X186815313Y-127498418D01*
X187083895Y-127900378D01*
X187485855Y-128168960D01*
X187960000Y-128263273D01*
X188434145Y-128168960D01*
X188836105Y-127900378D01*
X189104687Y-127498418D01*
X189199000Y-127024273D01*
X189199000Y-126975727D01*
X189261000Y-126975727D01*
X189261000Y-127024273D01*
X189355313Y-127498418D01*
X189623895Y-127900378D01*
X190025855Y-128168960D01*
X190500000Y-128263273D01*
X190642716Y-128234885D01*
X196076030Y-128234885D01*
X196224456Y-128594103D01*
X196499051Y-128869178D01*
X196858010Y-129018230D01*
X197246685Y-129018570D01*
X197605903Y-128870144D01*
X197880978Y-128595549D01*
X198030030Y-128236590D01*
X198030370Y-127847915D01*
X197881944Y-127488697D01*
X197607349Y-127213622D01*
X197248390Y-127064570D01*
X196859715Y-127064230D01*
X196500497Y-127212656D01*
X196225422Y-127487251D01*
X196076370Y-127846210D01*
X196076030Y-128234885D01*
X190642716Y-128234885D01*
X190974145Y-128168960D01*
X191376105Y-127900378D01*
X191644687Y-127498418D01*
X191739000Y-127024273D01*
X191739000Y-126975727D01*
X191644687Y-126501582D01*
X191376105Y-126099622D01*
X190974145Y-125831040D01*
X190500000Y-125736727D01*
X190025855Y-125831040D01*
X189623895Y-126099622D01*
X189355313Y-126501582D01*
X189261000Y-126975727D01*
X189199000Y-126975727D01*
X189104687Y-126501582D01*
X188836105Y-126099622D01*
X188434145Y-125831040D01*
X187960000Y-125736727D01*
X187485855Y-125831040D01*
X187083895Y-126099622D01*
X186815313Y-126501582D01*
X186721000Y-126975727D01*
X186659000Y-126975727D01*
X186564687Y-126501582D01*
X186296105Y-126099622D01*
X185894145Y-125831040D01*
X185420000Y-125736727D01*
X184945855Y-125831040D01*
X184543895Y-126099622D01*
X184275313Y-126501582D01*
X184181000Y-126975727D01*
X184119000Y-126975727D01*
X184024687Y-126501582D01*
X183756105Y-126099622D01*
X183354145Y-125831040D01*
X182880000Y-125736727D01*
X182405855Y-125831040D01*
X182003895Y-126099622D01*
X181735313Y-126501582D01*
X181641000Y-126975727D01*
X181579000Y-126975727D01*
X181484687Y-126501582D01*
X181216105Y-126099622D01*
X180814145Y-125831040D01*
X180340000Y-125736727D01*
X179865855Y-125831040D01*
X179463895Y-126099622D01*
X179195313Y-126501582D01*
X179101000Y-126975727D01*
X179039000Y-126975727D01*
X178944687Y-126501582D01*
X178676105Y-126099622D01*
X178274145Y-125831040D01*
X177800000Y-125736727D01*
X177325855Y-125831040D01*
X176923895Y-126099622D01*
X176655313Y-126501582D01*
X176561000Y-126975727D01*
X173959000Y-126975727D01*
X173864687Y-126501582D01*
X173596105Y-126099622D01*
X173194145Y-125831040D01*
X172720000Y-125736727D01*
X172245855Y-125831040D01*
X171843895Y-126099622D01*
X171575313Y-126501582D01*
X171481000Y-126975727D01*
X166339000Y-126975727D01*
X166295874Y-126758914D01*
X166424678Y-126758914D01*
X166521176Y-126952000D01*
X167592000Y-126952000D01*
X167592000Y-125881279D01*
X167688000Y-125881279D01*
X167688000Y-126952000D01*
X168758824Y-126952000D01*
X168855322Y-126758914D01*
X168964678Y-126758914D01*
X169061176Y-126952000D01*
X170132000Y-126952000D01*
X170132000Y-125881279D01*
X170228000Y-125881279D01*
X170228000Y-126952000D01*
X171298824Y-126952000D01*
X171395322Y-126758914D01*
X171210552Y-126312182D01*
X170868889Y-125970164D01*
X170422349Y-125784929D01*
X170421086Y-125784682D01*
X170228000Y-125881279D01*
X170132000Y-125881279D01*
X169938914Y-125784682D01*
X169937651Y-125784929D01*
X169491111Y-125970164D01*
X169149448Y-126312182D01*
X168964678Y-126758914D01*
X168855322Y-126758914D01*
X168670552Y-126312182D01*
X168328889Y-125970164D01*
X167882349Y-125784929D01*
X167881086Y-125784682D01*
X167688000Y-125881279D01*
X167592000Y-125881279D01*
X167398914Y-125784682D01*
X167397651Y-125784929D01*
X166951111Y-125970164D01*
X166609448Y-126312182D01*
X166424678Y-126758914D01*
X166295874Y-126758914D01*
X166244687Y-126501582D01*
X165976105Y-126099622D01*
X165574145Y-125831040D01*
X165100000Y-125736727D01*
X164625855Y-125831040D01*
X164223895Y-126099622D01*
X163955313Y-126501582D01*
X163861000Y-126975727D01*
X163799000Y-126975727D01*
X163704687Y-126501582D01*
X163436105Y-126099622D01*
X163034145Y-125831040D01*
X162560000Y-125736727D01*
X162085855Y-125831040D01*
X161683895Y-126099622D01*
X161415313Y-126501582D01*
X161321000Y-126975727D01*
X161259000Y-126975727D01*
X161164687Y-126501582D01*
X160896105Y-126099622D01*
X160494145Y-125831040D01*
X160020000Y-125736727D01*
X159545855Y-125831040D01*
X159143895Y-126099622D01*
X158875313Y-126501582D01*
X158781000Y-126975727D01*
X158719000Y-126975727D01*
X158624687Y-126501582D01*
X158356105Y-126099622D01*
X157954145Y-125831040D01*
X157480000Y-125736727D01*
X157005855Y-125831040D01*
X156603895Y-126099622D01*
X156335313Y-126501582D01*
X156241000Y-126975727D01*
X156179000Y-126975727D01*
X156084687Y-126501582D01*
X155816105Y-126099622D01*
X155414145Y-125831040D01*
X154940000Y-125736727D01*
X154465855Y-125831040D01*
X154063895Y-126099622D01*
X153795313Y-126501582D01*
X153701000Y-126975727D01*
X127273000Y-126975727D01*
X127273000Y-124705371D01*
X153700786Y-124705371D01*
X153889015Y-125160920D01*
X154237247Y-125509760D01*
X154692467Y-125698784D01*
X155185371Y-125699214D01*
X155640920Y-125510985D01*
X155989760Y-125162753D01*
X156178784Y-124707533D01*
X156178785Y-124705371D01*
X156240786Y-124705371D01*
X156429015Y-125160920D01*
X156777247Y-125509760D01*
X157232467Y-125698784D01*
X157725371Y-125699214D01*
X158180920Y-125510985D01*
X158529760Y-125162753D01*
X158718784Y-124707533D01*
X158718785Y-124705371D01*
X158780786Y-124705371D01*
X158969015Y-125160920D01*
X159317247Y-125509760D01*
X159772467Y-125698784D01*
X160265371Y-125699214D01*
X160720920Y-125510985D01*
X161069760Y-125162753D01*
X161258784Y-124707533D01*
X161258785Y-124705371D01*
X161320786Y-124705371D01*
X161509015Y-125160920D01*
X161857247Y-125509760D01*
X162312467Y-125698784D01*
X162805371Y-125699214D01*
X163260920Y-125510985D01*
X163609760Y-125162753D01*
X163798784Y-124707533D01*
X163798785Y-124705371D01*
X163860786Y-124705371D01*
X164049015Y-125160920D01*
X164397247Y-125509760D01*
X164852467Y-125698784D01*
X165345371Y-125699214D01*
X165800920Y-125510985D01*
X166010094Y-125302175D01*
X166865707Y-125302175D01*
X166936836Y-125509485D01*
X167391982Y-125698687D01*
X167884887Y-125699309D01*
X168340509Y-125511258D01*
X168343164Y-125509485D01*
X168414293Y-125302175D01*
X169405707Y-125302175D01*
X169476836Y-125509485D01*
X169931982Y-125698687D01*
X170424887Y-125699309D01*
X170880509Y-125511258D01*
X170883164Y-125509485D01*
X170954293Y-125302175D01*
X170180000Y-124527882D01*
X169405707Y-125302175D01*
X168414293Y-125302175D01*
X167640000Y-124527882D01*
X166865707Y-125302175D01*
X166010094Y-125302175D01*
X166149760Y-125162753D01*
X166338784Y-124707533D01*
X166338786Y-124704887D01*
X166400691Y-124704887D01*
X166588742Y-125160509D01*
X166590515Y-125163164D01*
X166797825Y-125234293D01*
X167572118Y-124460000D01*
X167707882Y-124460000D01*
X168482175Y-125234293D01*
X168689485Y-125163164D01*
X168878687Y-124708018D01*
X168878690Y-124704887D01*
X168940691Y-124704887D01*
X169128742Y-125160509D01*
X169130515Y-125163164D01*
X169337825Y-125234293D01*
X170112118Y-124460000D01*
X170247882Y-124460000D01*
X171022175Y-125234293D01*
X171229485Y-125163164D01*
X171418687Y-124708018D01*
X171418690Y-124705371D01*
X171480786Y-124705371D01*
X171669015Y-125160920D01*
X172017247Y-125509760D01*
X172472467Y-125698784D01*
X172965371Y-125699214D01*
X173420920Y-125510985D01*
X173769760Y-125162753D01*
X173958784Y-124707533D01*
X173958785Y-124705371D01*
X176560786Y-124705371D01*
X176749015Y-125160920D01*
X177097247Y-125509760D01*
X177552467Y-125698784D01*
X178045371Y-125699214D01*
X178500920Y-125510985D01*
X178849760Y-125162753D01*
X179038784Y-124707533D01*
X179038785Y-124705371D01*
X179100786Y-124705371D01*
X179289015Y-125160920D01*
X179637247Y-125509760D01*
X180092467Y-125698784D01*
X180585371Y-125699214D01*
X181040920Y-125510985D01*
X181389760Y-125162753D01*
X181578784Y-124707533D01*
X181578785Y-124705371D01*
X181640786Y-124705371D01*
X181829015Y-125160920D01*
X182177247Y-125509760D01*
X182632467Y-125698784D01*
X183125371Y-125699214D01*
X183580920Y-125510985D01*
X183929760Y-125162753D01*
X184118784Y-124707533D01*
X184118785Y-124705371D01*
X184180786Y-124705371D01*
X184369015Y-125160920D01*
X184717247Y-125509760D01*
X185172467Y-125698784D01*
X185665371Y-125699214D01*
X186120920Y-125510985D01*
X186469760Y-125162753D01*
X186658784Y-124707533D01*
X186658785Y-124705371D01*
X186720786Y-124705371D01*
X186909015Y-125160920D01*
X187257247Y-125509760D01*
X187712467Y-125698784D01*
X188205371Y-125699214D01*
X188660920Y-125510985D01*
X189009760Y-125162753D01*
X189198784Y-124707533D01*
X189198785Y-124705371D01*
X189260786Y-124705371D01*
X189449015Y-125160920D01*
X189797247Y-125509760D01*
X190252467Y-125698784D01*
X190745371Y-125699214D01*
X191200920Y-125510985D01*
X191549760Y-125162753D01*
X191738784Y-124707533D01*
X191739214Y-124214629D01*
X191550985Y-123759080D01*
X191202753Y-123410240D01*
X191199490Y-123408885D01*
X196101430Y-123408885D01*
X196249856Y-123768103D01*
X196524451Y-124043178D01*
X196883410Y-124192230D01*
X197272085Y-124192570D01*
X197631303Y-124044144D01*
X197906378Y-123769549D01*
X198055430Y-123410590D01*
X198055770Y-123021915D01*
X197907344Y-122662697D01*
X197632749Y-122387622D01*
X197273790Y-122238570D01*
X196885115Y-122238230D01*
X196525897Y-122386656D01*
X196250822Y-122661251D01*
X196101770Y-123020210D01*
X196101430Y-123408885D01*
X191199490Y-123408885D01*
X190747533Y-123221216D01*
X190254629Y-123220786D01*
X189799080Y-123409015D01*
X189450240Y-123757247D01*
X189261216Y-124212467D01*
X189260786Y-124705371D01*
X189198785Y-124705371D01*
X189199214Y-124214629D01*
X189010985Y-123759080D01*
X188662753Y-123410240D01*
X188207533Y-123221216D01*
X187714629Y-123220786D01*
X187259080Y-123409015D01*
X186910240Y-123757247D01*
X186721216Y-124212467D01*
X186720786Y-124705371D01*
X186658785Y-124705371D01*
X186659214Y-124214629D01*
X186470985Y-123759080D01*
X186122753Y-123410240D01*
X185667533Y-123221216D01*
X185174629Y-123220786D01*
X184719080Y-123409015D01*
X184370240Y-123757247D01*
X184181216Y-124212467D01*
X184180786Y-124705371D01*
X184118785Y-124705371D01*
X184119214Y-124214629D01*
X183930985Y-123759080D01*
X183582753Y-123410240D01*
X183127533Y-123221216D01*
X182634629Y-123220786D01*
X182179080Y-123409015D01*
X181830240Y-123757247D01*
X181641216Y-124212467D01*
X181640786Y-124705371D01*
X181578785Y-124705371D01*
X181579214Y-124214629D01*
X181390985Y-123759080D01*
X181042753Y-123410240D01*
X180587533Y-123221216D01*
X180094629Y-123220786D01*
X179639080Y-123409015D01*
X179290240Y-123757247D01*
X179101216Y-124212467D01*
X179100786Y-124705371D01*
X179038785Y-124705371D01*
X179039214Y-124214629D01*
X178850985Y-123759080D01*
X178502753Y-123410240D01*
X178047533Y-123221216D01*
X177554629Y-123220786D01*
X177099080Y-123409015D01*
X176750240Y-123757247D01*
X176561216Y-124212467D01*
X176560786Y-124705371D01*
X173958785Y-124705371D01*
X173959214Y-124214629D01*
X173770985Y-123759080D01*
X173422753Y-123410240D01*
X172967533Y-123221216D01*
X172474629Y-123220786D01*
X172019080Y-123409015D01*
X171670240Y-123757247D01*
X171481216Y-124212467D01*
X171480786Y-124705371D01*
X171418690Y-124705371D01*
X171419309Y-124215113D01*
X171231258Y-123759491D01*
X171229485Y-123756836D01*
X171022175Y-123685707D01*
X170247882Y-124460000D01*
X170112118Y-124460000D01*
X169337825Y-123685707D01*
X169130515Y-123756836D01*
X168941313Y-124211982D01*
X168940691Y-124704887D01*
X168878690Y-124704887D01*
X168879309Y-124215113D01*
X168691258Y-123759491D01*
X168689485Y-123756836D01*
X168482175Y-123685707D01*
X167707882Y-124460000D01*
X167572118Y-124460000D01*
X166797825Y-123685707D01*
X166590515Y-123756836D01*
X166401313Y-124211982D01*
X166400691Y-124704887D01*
X166338786Y-124704887D01*
X166339214Y-124214629D01*
X166150985Y-123759080D01*
X166009977Y-123617825D01*
X166865707Y-123617825D01*
X167640000Y-124392118D01*
X168414293Y-123617825D01*
X169405707Y-123617825D01*
X170180000Y-124392118D01*
X170954293Y-123617825D01*
X170883164Y-123410515D01*
X170428018Y-123221313D01*
X169935113Y-123220691D01*
X169479491Y-123408742D01*
X169476836Y-123410515D01*
X169405707Y-123617825D01*
X168414293Y-123617825D01*
X168343164Y-123410515D01*
X167888018Y-123221313D01*
X167395113Y-123220691D01*
X166939491Y-123408742D01*
X166936836Y-123410515D01*
X166865707Y-123617825D01*
X166009977Y-123617825D01*
X165802753Y-123410240D01*
X165347533Y-123221216D01*
X164854629Y-123220786D01*
X164399080Y-123409015D01*
X164050240Y-123757247D01*
X163861216Y-124212467D01*
X163860786Y-124705371D01*
X163798785Y-124705371D01*
X163799214Y-124214629D01*
X163610985Y-123759080D01*
X163262753Y-123410240D01*
X162807533Y-123221216D01*
X162314629Y-123220786D01*
X161859080Y-123409015D01*
X161510240Y-123757247D01*
X161321216Y-124212467D01*
X161320786Y-124705371D01*
X161258785Y-124705371D01*
X161259214Y-124214629D01*
X161070985Y-123759080D01*
X160722753Y-123410240D01*
X160267533Y-123221216D01*
X159774629Y-123220786D01*
X159319080Y-123409015D01*
X158970240Y-123757247D01*
X158781216Y-124212467D01*
X158780786Y-124705371D01*
X158718785Y-124705371D01*
X158719214Y-124214629D01*
X158530985Y-123759080D01*
X158182753Y-123410240D01*
X157727533Y-123221216D01*
X157234629Y-123220786D01*
X156779080Y-123409015D01*
X156430240Y-123757247D01*
X156241216Y-124212467D01*
X156240786Y-124705371D01*
X156178785Y-124705371D01*
X156179214Y-124214629D01*
X155990985Y-123759080D01*
X155642753Y-123410240D01*
X155187533Y-123221216D01*
X154694629Y-123220786D01*
X154239080Y-123409015D01*
X153890240Y-123757247D01*
X153701216Y-124212467D01*
X153700786Y-124705371D01*
X127273000Y-124705371D01*
X127273000Y-122165371D01*
X163860786Y-122165371D01*
X164049015Y-122620920D01*
X164397247Y-122969760D01*
X164852467Y-123158784D01*
X165345371Y-123159214D01*
X165800920Y-122970985D01*
X166149760Y-122622753D01*
X166338784Y-122167533D01*
X166338785Y-122165371D01*
X166400786Y-122165371D01*
X166589015Y-122620920D01*
X166937247Y-122969760D01*
X167392467Y-123158784D01*
X167885371Y-123159214D01*
X168340920Y-122970985D01*
X168689760Y-122622753D01*
X168878784Y-122167533D01*
X168878785Y-122165371D01*
X168940786Y-122165371D01*
X169129015Y-122620920D01*
X169477247Y-122969760D01*
X169932467Y-123158784D01*
X170425371Y-123159214D01*
X170880920Y-122970985D01*
X171229760Y-122622753D01*
X171418784Y-122167533D01*
X171418785Y-122165371D01*
X171480786Y-122165371D01*
X171669015Y-122620920D01*
X172017247Y-122969760D01*
X172472467Y-123158784D01*
X172965371Y-123159214D01*
X173420920Y-122970985D01*
X173769760Y-122622753D01*
X173958784Y-122167533D01*
X173958785Y-122165371D01*
X176560786Y-122165371D01*
X176749015Y-122620920D01*
X177097247Y-122969760D01*
X177552467Y-123158784D01*
X178045371Y-123159214D01*
X178500920Y-122970985D01*
X178849760Y-122622753D01*
X179038784Y-122167533D01*
X179038785Y-122165371D01*
X179100786Y-122165371D01*
X179289015Y-122620920D01*
X179637247Y-122969760D01*
X180092467Y-123158784D01*
X180585371Y-123159214D01*
X181040920Y-122970985D01*
X181389760Y-122622753D01*
X181578784Y-122167533D01*
X181578785Y-122165371D01*
X181640786Y-122165371D01*
X181829015Y-122620920D01*
X182177247Y-122969760D01*
X182632467Y-123158784D01*
X183125371Y-123159214D01*
X183580920Y-122970985D01*
X183929760Y-122622753D01*
X184118784Y-122167533D01*
X184118785Y-122165371D01*
X184180786Y-122165371D01*
X184369015Y-122620920D01*
X184717247Y-122969760D01*
X185172467Y-123158784D01*
X185665371Y-123159214D01*
X186120920Y-122970985D01*
X186469760Y-122622753D01*
X186658784Y-122167533D01*
X186658785Y-122165371D01*
X186720786Y-122165371D01*
X186909015Y-122620920D01*
X187257247Y-122969760D01*
X187712467Y-123158784D01*
X188205371Y-123159214D01*
X188660920Y-122970985D01*
X189009760Y-122622753D01*
X189198784Y-122167533D01*
X189198785Y-122165371D01*
X189260786Y-122165371D01*
X189449015Y-122620920D01*
X189797247Y-122969760D01*
X190252467Y-123158784D01*
X190745371Y-123159214D01*
X191200920Y-122970985D01*
X191549760Y-122622753D01*
X191738784Y-122167533D01*
X191739214Y-121674629D01*
X191550985Y-121219080D01*
X191202753Y-120870240D01*
X190747533Y-120681216D01*
X190254629Y-120680786D01*
X189799080Y-120869015D01*
X189450240Y-121217247D01*
X189261216Y-121672467D01*
X189260786Y-122165371D01*
X189198785Y-122165371D01*
X189199214Y-121674629D01*
X189010985Y-121219080D01*
X188662753Y-120870240D01*
X188207533Y-120681216D01*
X187714629Y-120680786D01*
X187259080Y-120869015D01*
X186910240Y-121217247D01*
X186721216Y-121672467D01*
X186720786Y-122165371D01*
X186658785Y-122165371D01*
X186659214Y-121674629D01*
X186470985Y-121219080D01*
X186122753Y-120870240D01*
X185667533Y-120681216D01*
X185174629Y-120680786D01*
X184719080Y-120869015D01*
X184370240Y-121217247D01*
X184181216Y-121672467D01*
X184180786Y-122165371D01*
X184118785Y-122165371D01*
X184119214Y-121674629D01*
X183930985Y-121219080D01*
X183582753Y-120870240D01*
X183127533Y-120681216D01*
X182634629Y-120680786D01*
X182179080Y-120869015D01*
X181830240Y-121217247D01*
X181641216Y-121672467D01*
X181640786Y-122165371D01*
X181578785Y-122165371D01*
X181579214Y-121674629D01*
X181390985Y-121219080D01*
X181042753Y-120870240D01*
X180587533Y-120681216D01*
X180094629Y-120680786D01*
X179639080Y-120869015D01*
X179290240Y-121217247D01*
X179101216Y-121672467D01*
X179100786Y-122165371D01*
X179038785Y-122165371D01*
X179039214Y-121674629D01*
X178850985Y-121219080D01*
X178502753Y-120870240D01*
X178047533Y-120681216D01*
X177554629Y-120680786D01*
X177099080Y-120869015D01*
X176750240Y-121217247D01*
X176561216Y-121672467D01*
X176560786Y-122165371D01*
X173958785Y-122165371D01*
X173959214Y-121674629D01*
X173770985Y-121219080D01*
X173422753Y-120870240D01*
X172967533Y-120681216D01*
X172474629Y-120680786D01*
X172019080Y-120869015D01*
X171670240Y-121217247D01*
X171481216Y-121672467D01*
X171480786Y-122165371D01*
X171418785Y-122165371D01*
X171419214Y-121674629D01*
X171230985Y-121219080D01*
X170882753Y-120870240D01*
X170427533Y-120681216D01*
X169934629Y-120680786D01*
X169479080Y-120869015D01*
X169130240Y-121217247D01*
X168941216Y-121672467D01*
X168940786Y-122165371D01*
X168878785Y-122165371D01*
X168879214Y-121674629D01*
X168690985Y-121219080D01*
X168342753Y-120870240D01*
X167887533Y-120681216D01*
X167394629Y-120680786D01*
X166939080Y-120869015D01*
X166590240Y-121217247D01*
X166401216Y-121672467D01*
X166400786Y-122165371D01*
X166338785Y-122165371D01*
X166339214Y-121674629D01*
X166150985Y-121219080D01*
X165802753Y-120870240D01*
X165347533Y-120681216D01*
X164854629Y-120680786D01*
X164399080Y-120869015D01*
X164050240Y-121217247D01*
X163861216Y-121672467D01*
X163860786Y-122165371D01*
X127273000Y-122165371D01*
X127273000Y-119355727D01*
X163861000Y-119355727D01*
X163861000Y-119404273D01*
X163955313Y-119878418D01*
X164223895Y-120280378D01*
X164625855Y-120548960D01*
X165100000Y-120643273D01*
X165574145Y-120548960D01*
X165976105Y-120280378D01*
X166244687Y-119878418D01*
X166339000Y-119404273D01*
X166339000Y-119355727D01*
X166401000Y-119355727D01*
X166401000Y-119404273D01*
X166495313Y-119878418D01*
X166763895Y-120280378D01*
X167165855Y-120548960D01*
X167640000Y-120643273D01*
X168114145Y-120548960D01*
X168516105Y-120280378D01*
X168784687Y-119878418D01*
X168879000Y-119404273D01*
X168879000Y-119355727D01*
X168941000Y-119355727D01*
X168941000Y-119404273D01*
X169035313Y-119878418D01*
X169303895Y-120280378D01*
X169705855Y-120548960D01*
X170180000Y-120643273D01*
X170654145Y-120548960D01*
X171056105Y-120280378D01*
X171324687Y-119878418D01*
X171419000Y-119404273D01*
X171419000Y-119355727D01*
X171481000Y-119355727D01*
X171481000Y-119404273D01*
X171575313Y-119878418D01*
X171843895Y-120280378D01*
X172245855Y-120548960D01*
X172720000Y-120643273D01*
X173194145Y-120548960D01*
X173596105Y-120280378D01*
X173864687Y-119878418D01*
X173959000Y-119404273D01*
X173959000Y-119355727D01*
X176561000Y-119355727D01*
X176561000Y-119404273D01*
X176655313Y-119878418D01*
X176923895Y-120280378D01*
X177325855Y-120548960D01*
X177800000Y-120643273D01*
X178274145Y-120548960D01*
X178676105Y-120280378D01*
X178944687Y-119878418D01*
X179039000Y-119404273D01*
X179039000Y-119355727D01*
X179101000Y-119355727D01*
X179101000Y-119404273D01*
X179195313Y-119878418D01*
X179463895Y-120280378D01*
X179865855Y-120548960D01*
X180340000Y-120643273D01*
X180814145Y-120548960D01*
X181216105Y-120280378D01*
X181484687Y-119878418D01*
X181579000Y-119404273D01*
X181579000Y-119355727D01*
X181641000Y-119355727D01*
X181641000Y-119404273D01*
X181735313Y-119878418D01*
X182003895Y-120280378D01*
X182405855Y-120548960D01*
X182880000Y-120643273D01*
X183354145Y-120548960D01*
X183756105Y-120280378D01*
X184024687Y-119878418D01*
X184119000Y-119404273D01*
X184119000Y-119355727D01*
X184181000Y-119355727D01*
X184181000Y-119404273D01*
X184275313Y-119878418D01*
X184543895Y-120280378D01*
X184945855Y-120548960D01*
X185420000Y-120643273D01*
X185894145Y-120548960D01*
X186296105Y-120280378D01*
X186564687Y-119878418D01*
X186659000Y-119404273D01*
X186659000Y-119355727D01*
X186721000Y-119355727D01*
X186721000Y-119404273D01*
X186815313Y-119878418D01*
X187083895Y-120280378D01*
X187485855Y-120548960D01*
X187960000Y-120643273D01*
X188434145Y-120548960D01*
X188836105Y-120280378D01*
X189104687Y-119878418D01*
X189199000Y-119404273D01*
X189199000Y-119355727D01*
X189261000Y-119355727D01*
X189261000Y-119404273D01*
X189355313Y-119878418D01*
X189623895Y-120280378D01*
X190025855Y-120548960D01*
X190500000Y-120643273D01*
X190974145Y-120548960D01*
X191376105Y-120280378D01*
X191644687Y-119878418D01*
X191739000Y-119404273D01*
X191739000Y-119355727D01*
X191644687Y-118881582D01*
X191376105Y-118479622D01*
X191112499Y-118303485D01*
X195847430Y-118303485D01*
X195995856Y-118662703D01*
X196270451Y-118937778D01*
X196629410Y-119086830D01*
X197018085Y-119087170D01*
X197377303Y-118938744D01*
X197652378Y-118664149D01*
X197801430Y-118305190D01*
X197801770Y-117916515D01*
X197653344Y-117557297D01*
X197378749Y-117282222D01*
X197019790Y-117133170D01*
X196631115Y-117132830D01*
X196271897Y-117281256D01*
X195996822Y-117555851D01*
X195847770Y-117914810D01*
X195847430Y-118303485D01*
X191112499Y-118303485D01*
X190974145Y-118211040D01*
X190500000Y-118116727D01*
X190025855Y-118211040D01*
X189623895Y-118479622D01*
X189355313Y-118881582D01*
X189261000Y-119355727D01*
X189199000Y-119355727D01*
X189104687Y-118881582D01*
X188836105Y-118479622D01*
X188434145Y-118211040D01*
X187960000Y-118116727D01*
X187485855Y-118211040D01*
X187083895Y-118479622D01*
X186815313Y-118881582D01*
X186721000Y-119355727D01*
X186659000Y-119355727D01*
X186564687Y-118881582D01*
X186296105Y-118479622D01*
X185894145Y-118211040D01*
X185420000Y-118116727D01*
X184945855Y-118211040D01*
X184543895Y-118479622D01*
X184275313Y-118881582D01*
X184181000Y-119355727D01*
X184119000Y-119355727D01*
X184024687Y-118881582D01*
X183756105Y-118479622D01*
X183354145Y-118211040D01*
X182880000Y-118116727D01*
X182405855Y-118211040D01*
X182003895Y-118479622D01*
X181735313Y-118881582D01*
X181641000Y-119355727D01*
X181579000Y-119355727D01*
X181484687Y-118881582D01*
X181216105Y-118479622D01*
X180814145Y-118211040D01*
X180340000Y-118116727D01*
X179865855Y-118211040D01*
X179463895Y-118479622D01*
X179195313Y-118881582D01*
X179101000Y-119355727D01*
X179039000Y-119355727D01*
X178944687Y-118881582D01*
X178676105Y-118479622D01*
X178274145Y-118211040D01*
X177800000Y-118116727D01*
X177325855Y-118211040D01*
X176923895Y-118479622D01*
X176655313Y-118881582D01*
X176561000Y-119355727D01*
X173959000Y-119355727D01*
X173864687Y-118881582D01*
X173596105Y-118479622D01*
X173194145Y-118211040D01*
X172720000Y-118116727D01*
X172245855Y-118211040D01*
X171843895Y-118479622D01*
X171575313Y-118881582D01*
X171481000Y-119355727D01*
X171419000Y-119355727D01*
X171324687Y-118881582D01*
X171056105Y-118479622D01*
X170654145Y-118211040D01*
X170180000Y-118116727D01*
X169705855Y-118211040D01*
X169303895Y-118479622D01*
X169035313Y-118881582D01*
X168941000Y-119355727D01*
X168879000Y-119355727D01*
X168784687Y-118881582D01*
X168516105Y-118479622D01*
X168114145Y-118211040D01*
X167640000Y-118116727D01*
X167165855Y-118211040D01*
X166763895Y-118479622D01*
X166495313Y-118881582D01*
X166401000Y-119355727D01*
X166339000Y-119355727D01*
X166244687Y-118881582D01*
X165976105Y-118479622D01*
X165574145Y-118211040D01*
X165100000Y-118116727D01*
X164625855Y-118211040D01*
X164223895Y-118479622D01*
X163955313Y-118881582D01*
X163861000Y-119355727D01*
X127273000Y-119355727D01*
X127273000Y-118066273D01*
X140267483Y-118066273D01*
X140370333Y-118315189D01*
X140560610Y-118505798D01*
X140809346Y-118609082D01*
X141078673Y-118609317D01*
X141327589Y-118506467D01*
X141518198Y-118316190D01*
X141621482Y-118067454D01*
X141621717Y-117798127D01*
X141518867Y-117549211D01*
X141328590Y-117358602D01*
X141079854Y-117255318D01*
X140810527Y-117255083D01*
X140561611Y-117357933D01*
X140371002Y-117548210D01*
X140267718Y-117796946D01*
X140267483Y-118066273D01*
X127273000Y-118066273D01*
X127273000Y-115551673D01*
X149792483Y-115551673D01*
X149895333Y-115800589D01*
X150085610Y-115991198D01*
X150334346Y-116094482D01*
X150603673Y-116094717D01*
X150640556Y-116079477D01*
X174990866Y-116079477D01*
X175108908Y-116365160D01*
X175327290Y-116583924D01*
X175612767Y-116702465D01*
X175921877Y-116702734D01*
X176207560Y-116584692D01*
X176426324Y-116366310D01*
X176544865Y-116080833D01*
X176545134Y-115771723D01*
X176427092Y-115486040D01*
X176208710Y-115267276D01*
X175923233Y-115148735D01*
X175614123Y-115148466D01*
X175328440Y-115266508D01*
X175109676Y-115484890D01*
X174991135Y-115770367D01*
X174990866Y-116079477D01*
X150640556Y-116079477D01*
X150852589Y-115991867D01*
X151043198Y-115801590D01*
X151146482Y-115552854D01*
X151146717Y-115283527D01*
X151043867Y-115034611D01*
X150853590Y-114844002D01*
X150604854Y-114740718D01*
X150335527Y-114740483D01*
X150086611Y-114843333D01*
X149896002Y-115033610D01*
X149792718Y-115282346D01*
X149792483Y-115551673D01*
X127273000Y-115551673D01*
X127273000Y-113147285D01*
X195847430Y-113147285D01*
X195995856Y-113506503D01*
X196270451Y-113781578D01*
X196629410Y-113930630D01*
X197018085Y-113930970D01*
X197377303Y-113782544D01*
X197652378Y-113507949D01*
X197801430Y-113148990D01*
X197801770Y-112760315D01*
X197653344Y-112401097D01*
X197378749Y-112126022D01*
X197019790Y-111976970D01*
X196631115Y-111976630D01*
X196271897Y-112125056D01*
X195996822Y-112399651D01*
X195847770Y-112758610D01*
X195847430Y-113147285D01*
X127273000Y-113147285D01*
X127273000Y-112022798D01*
X159962771Y-112022798D01*
X160164369Y-112510703D01*
X160537334Y-112884319D01*
X161024885Y-113086769D01*
X161552798Y-113087229D01*
X162040703Y-112885631D01*
X162414319Y-112512666D01*
X162493656Y-112321602D01*
X162493656Y-112610000D01*
X162526917Y-112786765D01*
X162631385Y-112949113D01*
X162790785Y-113058027D01*
X162980000Y-113096344D01*
X164680000Y-113096344D01*
X164856765Y-113063083D01*
X165019113Y-112958615D01*
X165128027Y-112799215D01*
X165166344Y-112610000D01*
X165166344Y-110910000D01*
X165133083Y-110733235D01*
X165028615Y-110570887D01*
X164869215Y-110461973D01*
X164680000Y-110423656D01*
X164391868Y-110423656D01*
X164580703Y-110345631D01*
X164954319Y-109972666D01*
X165156769Y-109485115D01*
X165157229Y-108957202D01*
X164955631Y-108469297D01*
X164582666Y-108095681D01*
X164231567Y-107949891D01*
X164580703Y-107805631D01*
X164954319Y-107432666D01*
X165156769Y-106945115D01*
X165157229Y-106417202D01*
X164955631Y-105929297D01*
X164582666Y-105555681D01*
X164231567Y-105409891D01*
X164580703Y-105265631D01*
X164954319Y-104892666D01*
X165156769Y-104405115D01*
X165156954Y-104192277D01*
X184363466Y-104192277D01*
X184481508Y-104477960D01*
X184699890Y-104696724D01*
X184985367Y-104815265D01*
X185294477Y-104815534D01*
X185580160Y-104697492D01*
X185798924Y-104479110D01*
X185917465Y-104193633D01*
X185917734Y-103884523D01*
X185799692Y-103598840D01*
X185581310Y-103380076D01*
X185295833Y-103261535D01*
X184986723Y-103261266D01*
X184701040Y-103379308D01*
X184482276Y-103597690D01*
X184363735Y-103883167D01*
X184363466Y-104192277D01*
X165156954Y-104192277D01*
X165157229Y-103877202D01*
X164955631Y-103389297D01*
X164647146Y-103080273D01*
X169121883Y-103080273D01*
X169224733Y-103329189D01*
X169415010Y-103519798D01*
X169663746Y-103623082D01*
X169933073Y-103623317D01*
X170181989Y-103520467D01*
X170372598Y-103330190D01*
X170475882Y-103081454D01*
X170476117Y-102812127D01*
X170373267Y-102563211D01*
X170182990Y-102372602D01*
X169934254Y-102269318D01*
X169664927Y-102269083D01*
X169416011Y-102371933D01*
X169225402Y-102562210D01*
X169122118Y-102810946D01*
X169121883Y-103080273D01*
X164647146Y-103080273D01*
X164582666Y-103015681D01*
X164231567Y-102869891D01*
X164580703Y-102725631D01*
X164954319Y-102352666D01*
X165156769Y-101865115D01*
X165157229Y-101337202D01*
X165004049Y-100966477D01*
X178140466Y-100966477D01*
X178258508Y-101252160D01*
X178476890Y-101470924D01*
X178762367Y-101589465D01*
X179071477Y-101589734D01*
X179357160Y-101471692D01*
X179575924Y-101253310D01*
X179694465Y-100967833D01*
X179694734Y-100658723D01*
X179576692Y-100373040D01*
X179358310Y-100154276D01*
X179072833Y-100035735D01*
X178763723Y-100035466D01*
X178478040Y-100153508D01*
X178259276Y-100371890D01*
X178140735Y-100657367D01*
X178140466Y-100966477D01*
X165004049Y-100966477D01*
X164955631Y-100849297D01*
X164582666Y-100475681D01*
X164231567Y-100329891D01*
X164580703Y-100185631D01*
X164954319Y-99812666D01*
X165031882Y-99625873D01*
X170518883Y-99625873D01*
X170621733Y-99874789D01*
X170812010Y-100065398D01*
X171060746Y-100168682D01*
X171330073Y-100168917D01*
X171578989Y-100066067D01*
X171769598Y-99875790D01*
X171872882Y-99627054D01*
X171873117Y-99357727D01*
X171770267Y-99108811D01*
X171652535Y-98990873D01*
X173846283Y-98990873D01*
X173949133Y-99239789D01*
X174139410Y-99430398D01*
X174388146Y-99533682D01*
X174657473Y-99533917D01*
X174906389Y-99431067D01*
X175096998Y-99240790D01*
X175200282Y-98992054D01*
X175200393Y-98863873D01*
X180932883Y-98863873D01*
X181035733Y-99112789D01*
X181226010Y-99303398D01*
X181474746Y-99406682D01*
X181744073Y-99406917D01*
X181992989Y-99304067D01*
X182183598Y-99113790D01*
X182286882Y-98865054D01*
X182287117Y-98595727D01*
X182184267Y-98346811D01*
X181993990Y-98156202D01*
X181745254Y-98052918D01*
X181475927Y-98052683D01*
X181227011Y-98155533D01*
X181036402Y-98345810D01*
X180933118Y-98594546D01*
X180932883Y-98863873D01*
X175200393Y-98863873D01*
X175200517Y-98722727D01*
X175097667Y-98473811D01*
X174907390Y-98283202D01*
X174658654Y-98179918D01*
X174389327Y-98179683D01*
X174140411Y-98282533D01*
X173949802Y-98472810D01*
X173846518Y-98721546D01*
X173846283Y-98990873D01*
X171652535Y-98990873D01*
X171579990Y-98918202D01*
X171331254Y-98814918D01*
X171061927Y-98814683D01*
X170813011Y-98917533D01*
X170622402Y-99107810D01*
X170519118Y-99356546D01*
X170518883Y-99625873D01*
X165031882Y-99625873D01*
X165156769Y-99325115D01*
X165157229Y-98797202D01*
X164955631Y-98309297D01*
X164582666Y-97935681D01*
X164231567Y-97789891D01*
X164580703Y-97645631D01*
X164581662Y-97644673D01*
X168486883Y-97644673D01*
X168589733Y-97893589D01*
X168780010Y-98084198D01*
X169028746Y-98187482D01*
X169298073Y-98187717D01*
X169382885Y-98152673D01*
X170518883Y-98152673D01*
X170621733Y-98401589D01*
X170812010Y-98592198D01*
X171060746Y-98695482D01*
X171330073Y-98695717D01*
X171578989Y-98592867D01*
X171769598Y-98402590D01*
X171862825Y-98178073D01*
X179459683Y-98178073D01*
X179562533Y-98426989D01*
X179752810Y-98617598D01*
X180001546Y-98720882D01*
X180270873Y-98721117D01*
X180519789Y-98618267D01*
X180710398Y-98427990D01*
X180813682Y-98179254D01*
X180813917Y-97909927D01*
X180711067Y-97661011D01*
X180520790Y-97470402D01*
X180272054Y-97367118D01*
X180002727Y-97366883D01*
X179753811Y-97469733D01*
X179563202Y-97660010D01*
X179459918Y-97908746D01*
X179459683Y-98178073D01*
X171862825Y-98178073D01*
X171872882Y-98153854D01*
X171873074Y-97933681D01*
X171914273Y-97933717D01*
X172163189Y-97830867D01*
X172353798Y-97640590D01*
X172457082Y-97391854D01*
X172457317Y-97122527D01*
X172354467Y-96873611D01*
X172164190Y-96683002D01*
X171915454Y-96579718D01*
X171646127Y-96579483D01*
X171397211Y-96682333D01*
X171206602Y-96872610D01*
X171103318Y-97121346D01*
X171103126Y-97341519D01*
X171061927Y-97341483D01*
X170813011Y-97444333D01*
X170622402Y-97634610D01*
X170519118Y-97883346D01*
X170518883Y-98152673D01*
X169382885Y-98152673D01*
X169546989Y-98084867D01*
X169737598Y-97894590D01*
X169840882Y-97645854D01*
X169841117Y-97376527D01*
X169738267Y-97127611D01*
X169547990Y-96937002D01*
X169299254Y-96833718D01*
X169029927Y-96833483D01*
X168781011Y-96936333D01*
X168590402Y-97126610D01*
X168487118Y-97375346D01*
X168486883Y-97644673D01*
X164581662Y-97644673D01*
X164954319Y-97272666D01*
X165156769Y-96785115D01*
X165156971Y-96552473D01*
X176259283Y-96552473D01*
X176362133Y-96801389D01*
X176552410Y-96991998D01*
X176801146Y-97095282D01*
X177070473Y-97095517D01*
X177316368Y-96993915D01*
X177339810Y-97017398D01*
X177588546Y-97120682D01*
X177857873Y-97120917D01*
X178106789Y-97018067D01*
X178297398Y-96827790D01*
X178400682Y-96579054D01*
X178400917Y-96309727D01*
X178298067Y-96060811D01*
X178273668Y-96036369D01*
X178375282Y-95791654D01*
X178375517Y-95522327D01*
X178342941Y-95443485D01*
X182258430Y-95443485D01*
X182406856Y-95802703D01*
X182681451Y-96077778D01*
X183040410Y-96226830D01*
X183429085Y-96227170D01*
X183788303Y-96078744D01*
X184063378Y-95804149D01*
X184212430Y-95445190D01*
X184212770Y-95056515D01*
X184064344Y-94697297D01*
X183789749Y-94422222D01*
X183430790Y-94273170D01*
X183042115Y-94272830D01*
X182682897Y-94421256D01*
X182407822Y-94695851D01*
X182258770Y-95054810D01*
X182258430Y-95443485D01*
X178342941Y-95443485D01*
X178272667Y-95273411D01*
X178082390Y-95082802D01*
X177833654Y-94979518D01*
X177564327Y-94979283D01*
X177315411Y-95082133D01*
X177124802Y-95272410D01*
X177021518Y-95521146D01*
X177021326Y-95741474D01*
X176802327Y-95741283D01*
X176553411Y-95844133D01*
X176362802Y-96034410D01*
X176259518Y-96283146D01*
X176259283Y-96552473D01*
X165156971Y-96552473D01*
X165157229Y-96257202D01*
X164955631Y-95769297D01*
X164951415Y-95765073D01*
X174709883Y-95765073D01*
X174812733Y-96013989D01*
X175003010Y-96204598D01*
X175251746Y-96307882D01*
X175521073Y-96308117D01*
X175769989Y-96205267D01*
X175960598Y-96014990D01*
X176063882Y-95766254D01*
X176064117Y-95496927D01*
X175961267Y-95248011D01*
X175770990Y-95057402D01*
X175522254Y-94954118D01*
X175252927Y-94953883D01*
X175004011Y-95056733D01*
X174813402Y-95247010D01*
X174710118Y-95495746D01*
X174709883Y-95765073D01*
X164951415Y-95765073D01*
X164582666Y-95395681D01*
X164231567Y-95249891D01*
X164580703Y-95105631D01*
X164954319Y-94732666D01*
X165156769Y-94245115D01*
X165156794Y-94215673D01*
X175446483Y-94215673D01*
X175549333Y-94464589D01*
X175739610Y-94655198D01*
X175988346Y-94758482D01*
X176257673Y-94758717D01*
X176506589Y-94655867D01*
X176517174Y-94645300D01*
X176552410Y-94680598D01*
X176801146Y-94783882D01*
X177070473Y-94784117D01*
X177319389Y-94681267D01*
X177509998Y-94490990D01*
X177613282Y-94242254D01*
X177613517Y-93972927D01*
X177510667Y-93724011D01*
X177320390Y-93533402D01*
X177071654Y-93430118D01*
X176802327Y-93429883D01*
X176553411Y-93532733D01*
X176542826Y-93543300D01*
X176507590Y-93508002D01*
X176258854Y-93404718D01*
X175989527Y-93404483D01*
X175740611Y-93507333D01*
X175550002Y-93697610D01*
X175446718Y-93946346D01*
X175446483Y-94215673D01*
X165156794Y-94215673D01*
X165157229Y-93717202D01*
X164955631Y-93229297D01*
X164582666Y-92855681D01*
X164231567Y-92709891D01*
X164580703Y-92565631D01*
X164954319Y-92192666D01*
X165156769Y-91705115D01*
X165157229Y-91177202D01*
X164955631Y-90689297D01*
X164582666Y-90315681D01*
X164231567Y-90169891D01*
X164580703Y-90025631D01*
X164954319Y-89652666D01*
X165156769Y-89165115D01*
X165157229Y-88637202D01*
X164955631Y-88149297D01*
X164582666Y-87775681D01*
X164095115Y-87573231D01*
X163567202Y-87572771D01*
X163079297Y-87774369D01*
X162705681Y-88147334D01*
X162559713Y-88498861D01*
X162417813Y-88152580D01*
X162412122Y-88144062D01*
X162195672Y-88062211D01*
X161357882Y-88900000D01*
X162195672Y-89737789D01*
X162412122Y-89655938D01*
X162560294Y-89302014D01*
X162704369Y-89650703D01*
X163077334Y-90024319D01*
X163428433Y-90170109D01*
X163079297Y-90314369D01*
X162705681Y-90687334D01*
X162559713Y-91038861D01*
X162417813Y-90692580D01*
X162412122Y-90684062D01*
X162195672Y-90602211D01*
X161357882Y-91440000D01*
X162195672Y-92277789D01*
X162412122Y-92195938D01*
X162560294Y-91842014D01*
X162704369Y-92190703D01*
X163077334Y-92564319D01*
X163428433Y-92710109D01*
X163079297Y-92854369D01*
X162705681Y-93227334D01*
X162559713Y-93578861D01*
X162417813Y-93232580D01*
X162412122Y-93224062D01*
X162195672Y-93142211D01*
X161357882Y-93980000D01*
X162195672Y-94817789D01*
X162412122Y-94735938D01*
X162560294Y-94382014D01*
X162704369Y-94730703D01*
X163077334Y-95104319D01*
X163428433Y-95250109D01*
X163079297Y-95394369D01*
X162705681Y-95767334D01*
X162559713Y-96118861D01*
X162417813Y-95772580D01*
X162412122Y-95764062D01*
X162195672Y-95682211D01*
X161357882Y-96520000D01*
X162195672Y-97357789D01*
X162412122Y-97275938D01*
X162560294Y-96922014D01*
X162704369Y-97270703D01*
X163077334Y-97644319D01*
X163428433Y-97790109D01*
X163079297Y-97934369D01*
X162705681Y-98307334D01*
X162559713Y-98658861D01*
X162417813Y-98312580D01*
X162412122Y-98304062D01*
X162195672Y-98222211D01*
X161357882Y-99060000D01*
X162195672Y-99897789D01*
X162412122Y-99815938D01*
X162560294Y-99462014D01*
X162704369Y-99810703D01*
X163077334Y-100184319D01*
X163428433Y-100330109D01*
X163079297Y-100474369D01*
X162705681Y-100847334D01*
X162559713Y-101198861D01*
X162417813Y-100852580D01*
X162412122Y-100844062D01*
X162195672Y-100762211D01*
X161357882Y-101600000D01*
X162195672Y-102437789D01*
X162412122Y-102355938D01*
X162560294Y-102002014D01*
X162704369Y-102350703D01*
X163077334Y-102724319D01*
X163428433Y-102870109D01*
X163079297Y-103014369D01*
X162705681Y-103387334D01*
X162559713Y-103738861D01*
X162417813Y-103392580D01*
X162412122Y-103384062D01*
X162195672Y-103302211D01*
X161357882Y-104140000D01*
X162195672Y-104977789D01*
X162412122Y-104895938D01*
X162560294Y-104542014D01*
X162704369Y-104890703D01*
X163077334Y-105264319D01*
X163428433Y-105410109D01*
X163079297Y-105554369D01*
X162705681Y-105927334D01*
X162559713Y-106278861D01*
X162417813Y-105932580D01*
X162412122Y-105924062D01*
X162195672Y-105842211D01*
X161357882Y-106680000D01*
X162195672Y-107517789D01*
X162412122Y-107435938D01*
X162560294Y-107082014D01*
X162704369Y-107430703D01*
X163077334Y-107804319D01*
X163428433Y-107950109D01*
X163079297Y-108094369D01*
X162705681Y-108467334D01*
X162559713Y-108818861D01*
X162417813Y-108472580D01*
X162412122Y-108464062D01*
X162195672Y-108382211D01*
X161357882Y-109220000D01*
X162195672Y-110057789D01*
X162412122Y-109975938D01*
X162560294Y-109622014D01*
X162704369Y-109970703D01*
X163077334Y-110344319D01*
X163268398Y-110423656D01*
X162980000Y-110423656D01*
X162803235Y-110456917D01*
X162640887Y-110561385D01*
X162531973Y-110720785D01*
X162493656Y-110910000D01*
X162493656Y-111198132D01*
X162415631Y-111009297D01*
X162042666Y-110635681D01*
X161691139Y-110489713D01*
X162037420Y-110347813D01*
X162045938Y-110342122D01*
X162127789Y-110125672D01*
X161290000Y-109287882D01*
X160452211Y-110125672D01*
X160534062Y-110342122D01*
X160887986Y-110490294D01*
X160539297Y-110634369D01*
X160165681Y-111007334D01*
X159963231Y-111494885D01*
X159962771Y-112022798D01*
X127273000Y-112022798D01*
X127273000Y-109478930D01*
X159962012Y-109478930D01*
X160162187Y-109967420D01*
X160167878Y-109975938D01*
X160384328Y-110057789D01*
X161222118Y-109220000D01*
X160384328Y-108382211D01*
X160167878Y-108464062D01*
X159964010Y-108951022D01*
X159962012Y-109478930D01*
X127273000Y-109478930D01*
X127273000Y-107585672D01*
X160452211Y-107585672D01*
X160534062Y-107802122D01*
X160888410Y-107950472D01*
X160542580Y-108092187D01*
X160534062Y-108097878D01*
X160452211Y-108314328D01*
X161290000Y-109152118D01*
X162127789Y-108314328D01*
X162045938Y-108097878D01*
X161691590Y-107949528D01*
X162037420Y-107807813D01*
X162045938Y-107802122D01*
X162127789Y-107585672D01*
X161290000Y-106747882D01*
X160452211Y-107585672D01*
X127273000Y-107585672D01*
X127273000Y-106938930D01*
X159962012Y-106938930D01*
X160162187Y-107427420D01*
X160167878Y-107435938D01*
X160384328Y-107517789D01*
X161222118Y-106680000D01*
X160384328Y-105842211D01*
X160167878Y-105924062D01*
X159964010Y-106411022D01*
X159962012Y-106938930D01*
X127273000Y-106938930D01*
X127273000Y-105045672D01*
X160452211Y-105045672D01*
X160534062Y-105262122D01*
X160888410Y-105410472D01*
X160542580Y-105552187D01*
X160534062Y-105557878D01*
X160452211Y-105774328D01*
X161290000Y-106612118D01*
X162127789Y-105774328D01*
X162045938Y-105557878D01*
X161691590Y-105409528D01*
X162037420Y-105267813D01*
X162045938Y-105262122D01*
X162127789Y-105045672D01*
X161290000Y-104207882D01*
X160452211Y-105045672D01*
X127273000Y-105045672D01*
X127273000Y-104398930D01*
X159962012Y-104398930D01*
X160162187Y-104887420D01*
X160167878Y-104895938D01*
X160384328Y-104977789D01*
X161222118Y-104140000D01*
X160384328Y-103302211D01*
X160167878Y-103384062D01*
X159964010Y-103871022D01*
X159962012Y-104398930D01*
X127273000Y-104398930D01*
X127273000Y-102505672D01*
X160452211Y-102505672D01*
X160534062Y-102722122D01*
X160888410Y-102870472D01*
X160542580Y-103012187D01*
X160534062Y-103017878D01*
X160452211Y-103234328D01*
X161290000Y-104072118D01*
X162127789Y-103234328D01*
X162045938Y-103017878D01*
X161691590Y-102869528D01*
X162037420Y-102727813D01*
X162045938Y-102722122D01*
X162127789Y-102505672D01*
X161290000Y-101667882D01*
X160452211Y-102505672D01*
X127273000Y-102505672D01*
X127273000Y-101858930D01*
X159962012Y-101858930D01*
X160162187Y-102347420D01*
X160167878Y-102355938D01*
X160384328Y-102437789D01*
X161222118Y-101600000D01*
X160384328Y-100762211D01*
X160167878Y-100844062D01*
X159964010Y-101331022D01*
X159962012Y-101858930D01*
X127273000Y-101858930D01*
X127273000Y-99965672D01*
X160452211Y-99965672D01*
X160534062Y-100182122D01*
X160888410Y-100330472D01*
X160542580Y-100472187D01*
X160534062Y-100477878D01*
X160452211Y-100694328D01*
X161290000Y-101532118D01*
X162127789Y-100694328D01*
X162045938Y-100477878D01*
X161691590Y-100329528D01*
X162037420Y-100187813D01*
X162045938Y-100182122D01*
X162127789Y-99965672D01*
X161290000Y-99127882D01*
X160452211Y-99965672D01*
X127273000Y-99965672D01*
X127273000Y-99318930D01*
X159962012Y-99318930D01*
X160162187Y-99807420D01*
X160167878Y-99815938D01*
X160384328Y-99897789D01*
X161222118Y-99060000D01*
X160384328Y-98222211D01*
X160167878Y-98304062D01*
X159964010Y-98791022D01*
X159962012Y-99318930D01*
X127273000Y-99318930D01*
X127273000Y-97425672D01*
X160452211Y-97425672D01*
X160534062Y-97642122D01*
X160888410Y-97790472D01*
X160542580Y-97932187D01*
X160534062Y-97937878D01*
X160452211Y-98154328D01*
X161290000Y-98992118D01*
X162127789Y-98154328D01*
X162045938Y-97937878D01*
X161691590Y-97789528D01*
X162037420Y-97647813D01*
X162045938Y-97642122D01*
X162127789Y-97425672D01*
X161290000Y-96587882D01*
X160452211Y-97425672D01*
X127273000Y-97425672D01*
X127273000Y-96778930D01*
X159962012Y-96778930D01*
X160162187Y-97267420D01*
X160167878Y-97275938D01*
X160384328Y-97357789D01*
X161222118Y-96520000D01*
X160384328Y-95682211D01*
X160167878Y-95764062D01*
X159964010Y-96251022D01*
X159962012Y-96778930D01*
X127273000Y-96778930D01*
X127273000Y-94885672D01*
X160452211Y-94885672D01*
X160534062Y-95102122D01*
X160888410Y-95250472D01*
X160542580Y-95392187D01*
X160534062Y-95397878D01*
X160452211Y-95614328D01*
X161290000Y-96452118D01*
X162127789Y-95614328D01*
X162045938Y-95397878D01*
X161691590Y-95249528D01*
X162037420Y-95107813D01*
X162045938Y-95102122D01*
X162127789Y-94885672D01*
X161290000Y-94047882D01*
X160452211Y-94885672D01*
X127273000Y-94885672D01*
X127273000Y-94238930D01*
X159962012Y-94238930D01*
X160162187Y-94727420D01*
X160167878Y-94735938D01*
X160384328Y-94817789D01*
X161222118Y-93980000D01*
X160384328Y-93142211D01*
X160167878Y-93224062D01*
X159964010Y-93711022D01*
X159962012Y-94238930D01*
X127273000Y-94238930D01*
X127273000Y-92345672D01*
X160452211Y-92345672D01*
X160534062Y-92562122D01*
X160888410Y-92710472D01*
X160542580Y-92852187D01*
X160534062Y-92857878D01*
X160452211Y-93074328D01*
X161290000Y-93912118D01*
X162127789Y-93074328D01*
X162045938Y-92857878D01*
X161691590Y-92709528D01*
X162037420Y-92567813D01*
X162045938Y-92562122D01*
X162127789Y-92345672D01*
X161290000Y-91507882D01*
X160452211Y-92345672D01*
X127273000Y-92345672D01*
X127273000Y-91698930D01*
X159962012Y-91698930D01*
X160162187Y-92187420D01*
X160167878Y-92195938D01*
X160384328Y-92277789D01*
X161222118Y-91440000D01*
X160384328Y-90602211D01*
X160167878Y-90684062D01*
X159964010Y-91171022D01*
X159962012Y-91698930D01*
X127273000Y-91698930D01*
X127273000Y-89805672D01*
X160452211Y-89805672D01*
X160534062Y-90022122D01*
X160888410Y-90170472D01*
X160542580Y-90312187D01*
X160534062Y-90317878D01*
X160452211Y-90534328D01*
X161290000Y-91372118D01*
X162127789Y-90534328D01*
X162045938Y-90317878D01*
X161691590Y-90169528D01*
X162037420Y-90027813D01*
X162045938Y-90022122D01*
X162127789Y-89805672D01*
X161290000Y-88967882D01*
X160452211Y-89805672D01*
X127273000Y-89805672D01*
X127273000Y-89158930D01*
X159962012Y-89158930D01*
X160162187Y-89647420D01*
X160167878Y-89655938D01*
X160384328Y-89737789D01*
X161222118Y-88900000D01*
X160384328Y-88062211D01*
X160167878Y-88144062D01*
X159964010Y-88631022D01*
X159962012Y-89158930D01*
X127273000Y-89158930D01*
X127273000Y-87994328D01*
X160452211Y-87994328D01*
X161290000Y-88832118D01*
X162127789Y-87994328D01*
X162045938Y-87777878D01*
X161558978Y-87574010D01*
X161031070Y-87572012D01*
X160542580Y-87772187D01*
X160534062Y-87777878D01*
X160452211Y-87994328D01*
X127273000Y-87994328D01*
X127273000Y-81255727D01*
X149637000Y-81255727D01*
X149637000Y-81304273D01*
X149731313Y-81778418D01*
X149999895Y-82180378D01*
X150401855Y-82448960D01*
X150876000Y-82543273D01*
X151350145Y-82448960D01*
X151752105Y-82180378D01*
X152020687Y-81778418D01*
X152115000Y-81304273D01*
X152115000Y-81255727D01*
X152177000Y-81255727D01*
X152177000Y-81304273D01*
X152271313Y-81778418D01*
X152539895Y-82180378D01*
X152941855Y-82448960D01*
X153416000Y-82543273D01*
X153890145Y-82448960D01*
X154292105Y-82180378D01*
X154560687Y-81778418D01*
X154655000Y-81304273D01*
X154655000Y-81255727D01*
X154717000Y-81255727D01*
X154717000Y-81304273D01*
X154811313Y-81778418D01*
X155079895Y-82180378D01*
X155481855Y-82448960D01*
X155956000Y-82543273D01*
X156430145Y-82448960D01*
X156832105Y-82180378D01*
X157100687Y-81778418D01*
X157195000Y-81304273D01*
X157195000Y-81255727D01*
X157257000Y-81255727D01*
X157257000Y-81304273D01*
X157351313Y-81778418D01*
X157619895Y-82180378D01*
X158021855Y-82448960D01*
X158496000Y-82543273D01*
X158970145Y-82448960D01*
X159372105Y-82180378D01*
X159640687Y-81778418D01*
X159735000Y-81304273D01*
X159735000Y-81255727D01*
X159797000Y-81255727D01*
X159797000Y-81304273D01*
X159891313Y-81778418D01*
X160159895Y-82180378D01*
X160561855Y-82448960D01*
X161036000Y-82543273D01*
X161510145Y-82448960D01*
X161912105Y-82180378D01*
X162180687Y-81778418D01*
X162275000Y-81304273D01*
X162275000Y-81255727D01*
X162337000Y-81255727D01*
X162337000Y-81304273D01*
X162431313Y-81778418D01*
X162699895Y-82180378D01*
X163101855Y-82448960D01*
X163576000Y-82543273D01*
X164050145Y-82448960D01*
X164452105Y-82180378D01*
X164720687Y-81778418D01*
X164815000Y-81304273D01*
X164815000Y-81255727D01*
X164877000Y-81255727D01*
X164877000Y-81304273D01*
X164971313Y-81778418D01*
X165239895Y-82180378D01*
X165641855Y-82448960D01*
X166116000Y-82543273D01*
X166590145Y-82448960D01*
X166992105Y-82180378D01*
X167260687Y-81778418D01*
X167355000Y-81304273D01*
X167355000Y-81255727D01*
X167417000Y-81255727D01*
X167417000Y-81304273D01*
X167511313Y-81778418D01*
X167779895Y-82180378D01*
X168181855Y-82448960D01*
X168656000Y-82543273D01*
X169130145Y-82448960D01*
X169532105Y-82180378D01*
X169800687Y-81778418D01*
X169895000Y-81304273D01*
X169895000Y-81255727D01*
X171481000Y-81255727D01*
X171481000Y-81304273D01*
X171575313Y-81778418D01*
X171843895Y-82180378D01*
X172245855Y-82448960D01*
X172720000Y-82543273D01*
X173194145Y-82448960D01*
X173596105Y-82180378D01*
X173864687Y-81778418D01*
X173959000Y-81304273D01*
X173959000Y-81255727D01*
X174021000Y-81255727D01*
X174021000Y-81304273D01*
X174115313Y-81778418D01*
X174383895Y-82180378D01*
X174785855Y-82448960D01*
X175260000Y-82543273D01*
X175734145Y-82448960D01*
X176136105Y-82180378D01*
X176404687Y-81778418D01*
X176499000Y-81304273D01*
X176499000Y-81255727D01*
X176561000Y-81255727D01*
X176561000Y-81304273D01*
X176655313Y-81778418D01*
X176923895Y-82180378D01*
X177325855Y-82448960D01*
X177800000Y-82543273D01*
X178274145Y-82448960D01*
X178676105Y-82180378D01*
X178944687Y-81778418D01*
X179039000Y-81304273D01*
X179039000Y-81255727D01*
X179101000Y-81255727D01*
X179101000Y-81304273D01*
X179195313Y-81778418D01*
X179463895Y-82180378D01*
X179865855Y-82448960D01*
X180340000Y-82543273D01*
X180814145Y-82448960D01*
X181216105Y-82180378D01*
X181484687Y-81778418D01*
X181579000Y-81304273D01*
X181579000Y-81255727D01*
X181641000Y-81255727D01*
X181641000Y-81304273D01*
X181735313Y-81778418D01*
X182003895Y-82180378D01*
X182405855Y-82448960D01*
X182880000Y-82543273D01*
X183354145Y-82448960D01*
X183756105Y-82180378D01*
X184024687Y-81778418D01*
X184119000Y-81304273D01*
X184119000Y-81255727D01*
X184181000Y-81255727D01*
X184181000Y-81304273D01*
X184275313Y-81778418D01*
X184543895Y-82180378D01*
X184945855Y-82448960D01*
X185420000Y-82543273D01*
X185894145Y-82448960D01*
X186296105Y-82180378D01*
X186564687Y-81778418D01*
X186659000Y-81304273D01*
X186659000Y-81255727D01*
X186721000Y-81255727D01*
X186721000Y-81304273D01*
X186815313Y-81778418D01*
X187083895Y-82180378D01*
X187485855Y-82448960D01*
X187960000Y-82543273D01*
X188434145Y-82448960D01*
X188836105Y-82180378D01*
X189104687Y-81778418D01*
X189199000Y-81304273D01*
X189199000Y-81255727D01*
X189261000Y-81255727D01*
X189261000Y-81304273D01*
X189355313Y-81778418D01*
X189623895Y-82180378D01*
X190025855Y-82448960D01*
X190500000Y-82543273D01*
X190974145Y-82448960D01*
X191376105Y-82180378D01*
X191644687Y-81778418D01*
X191739000Y-81304273D01*
X191739000Y-81255727D01*
X191644687Y-80781582D01*
X191376105Y-80379622D01*
X190974145Y-80111040D01*
X190500000Y-80016727D01*
X190025855Y-80111040D01*
X189623895Y-80379622D01*
X189355313Y-80781582D01*
X189261000Y-81255727D01*
X189199000Y-81255727D01*
X189104687Y-80781582D01*
X188836105Y-80379622D01*
X188434145Y-80111040D01*
X187960000Y-80016727D01*
X187485855Y-80111040D01*
X187083895Y-80379622D01*
X186815313Y-80781582D01*
X186721000Y-81255727D01*
X186659000Y-81255727D01*
X186564687Y-80781582D01*
X186296105Y-80379622D01*
X185894145Y-80111040D01*
X185420000Y-80016727D01*
X184945855Y-80111040D01*
X184543895Y-80379622D01*
X184275313Y-80781582D01*
X184181000Y-81255727D01*
X184119000Y-81255727D01*
X184024687Y-80781582D01*
X183756105Y-80379622D01*
X183354145Y-80111040D01*
X182880000Y-80016727D01*
X182405855Y-80111040D01*
X182003895Y-80379622D01*
X181735313Y-80781582D01*
X181641000Y-81255727D01*
X181579000Y-81255727D01*
X181484687Y-80781582D01*
X181216105Y-80379622D01*
X180814145Y-80111040D01*
X180340000Y-80016727D01*
X179865855Y-80111040D01*
X179463895Y-80379622D01*
X179195313Y-80781582D01*
X179101000Y-81255727D01*
X179039000Y-81255727D01*
X178944687Y-80781582D01*
X178676105Y-80379622D01*
X178274145Y-80111040D01*
X177800000Y-80016727D01*
X177325855Y-80111040D01*
X176923895Y-80379622D01*
X176655313Y-80781582D01*
X176561000Y-81255727D01*
X176499000Y-81255727D01*
X176404687Y-80781582D01*
X176136105Y-80379622D01*
X175734145Y-80111040D01*
X175260000Y-80016727D01*
X174785855Y-80111040D01*
X174383895Y-80379622D01*
X174115313Y-80781582D01*
X174021000Y-81255727D01*
X173959000Y-81255727D01*
X173864687Y-80781582D01*
X173596105Y-80379622D01*
X173194145Y-80111040D01*
X172720000Y-80016727D01*
X172245855Y-80111040D01*
X171843895Y-80379622D01*
X171575313Y-80781582D01*
X171481000Y-81255727D01*
X169895000Y-81255727D01*
X169800687Y-80781582D01*
X169532105Y-80379622D01*
X169130145Y-80111040D01*
X168656000Y-80016727D01*
X168181855Y-80111040D01*
X167779895Y-80379622D01*
X167511313Y-80781582D01*
X167417000Y-81255727D01*
X167355000Y-81255727D01*
X167260687Y-80781582D01*
X166992105Y-80379622D01*
X166590145Y-80111040D01*
X166116000Y-80016727D01*
X165641855Y-80111040D01*
X165239895Y-80379622D01*
X164971313Y-80781582D01*
X164877000Y-81255727D01*
X164815000Y-81255727D01*
X164720687Y-80781582D01*
X164452105Y-80379622D01*
X164050145Y-80111040D01*
X163576000Y-80016727D01*
X163101855Y-80111040D01*
X162699895Y-80379622D01*
X162431313Y-80781582D01*
X162337000Y-81255727D01*
X162275000Y-81255727D01*
X162180687Y-80781582D01*
X161912105Y-80379622D01*
X161510145Y-80111040D01*
X161036000Y-80016727D01*
X160561855Y-80111040D01*
X160159895Y-80379622D01*
X159891313Y-80781582D01*
X159797000Y-81255727D01*
X159735000Y-81255727D01*
X159640687Y-80781582D01*
X159372105Y-80379622D01*
X158970145Y-80111040D01*
X158496000Y-80016727D01*
X158021855Y-80111040D01*
X157619895Y-80379622D01*
X157351313Y-80781582D01*
X157257000Y-81255727D01*
X157195000Y-81255727D01*
X157100687Y-80781582D01*
X156832105Y-80379622D01*
X156430145Y-80111040D01*
X155956000Y-80016727D01*
X155481855Y-80111040D01*
X155079895Y-80379622D01*
X154811313Y-80781582D01*
X154717000Y-81255727D01*
X154655000Y-81255727D01*
X154560687Y-80781582D01*
X154292105Y-80379622D01*
X153890145Y-80111040D01*
X153416000Y-80016727D01*
X152941855Y-80111040D01*
X152539895Y-80379622D01*
X152271313Y-80781582D01*
X152177000Y-81255727D01*
X152115000Y-81255727D01*
X152020687Y-80781582D01*
X151752105Y-80379622D01*
X151350145Y-80111040D01*
X150876000Y-80016727D01*
X150401855Y-80111040D01*
X149999895Y-80379622D01*
X149731313Y-80781582D01*
X149637000Y-81255727D01*
X127273000Y-81255727D01*
X127273000Y-78985272D01*
X149637285Y-78985272D01*
X149825438Y-79440638D01*
X150173530Y-79789337D01*
X150628566Y-79978285D01*
X151121272Y-79978715D01*
X151576638Y-79790562D01*
X151925337Y-79442470D01*
X152114285Y-78987434D01*
X152114286Y-78985371D01*
X152176786Y-78985371D01*
X152365015Y-79440920D01*
X152713247Y-79789760D01*
X153168467Y-79978784D01*
X153661371Y-79979214D01*
X154116920Y-79790985D01*
X154465760Y-79442753D01*
X154654784Y-78987533D01*
X154654785Y-78985371D01*
X154716786Y-78985371D01*
X154905015Y-79440920D01*
X155253247Y-79789760D01*
X155708467Y-79978784D01*
X156201371Y-79979214D01*
X156656920Y-79790985D01*
X157005760Y-79442753D01*
X157194784Y-78987533D01*
X157194785Y-78985371D01*
X157256786Y-78985371D01*
X157445015Y-79440920D01*
X157793247Y-79789760D01*
X158248467Y-79978784D01*
X158741371Y-79979214D01*
X159196920Y-79790985D01*
X159545760Y-79442753D01*
X159734784Y-78987533D01*
X159734785Y-78985371D01*
X159796786Y-78985371D01*
X159985015Y-79440920D01*
X160333247Y-79789760D01*
X160788467Y-79978784D01*
X161281371Y-79979214D01*
X161736920Y-79790985D01*
X162085760Y-79442753D01*
X162274784Y-78987533D01*
X162274785Y-78985371D01*
X162336786Y-78985371D01*
X162525015Y-79440920D01*
X162873247Y-79789760D01*
X163328467Y-79978784D01*
X163821371Y-79979214D01*
X164276920Y-79790985D01*
X164625760Y-79442753D01*
X164814784Y-78987533D01*
X164814785Y-78985371D01*
X164876786Y-78985371D01*
X165065015Y-79440920D01*
X165413247Y-79789760D01*
X165868467Y-79978784D01*
X166361371Y-79979214D01*
X166816920Y-79790985D01*
X167165760Y-79442753D01*
X167354784Y-78987533D01*
X167354785Y-78985371D01*
X167416786Y-78985371D01*
X167605015Y-79440920D01*
X167953247Y-79789760D01*
X168408467Y-79978784D01*
X168901371Y-79979214D01*
X169356920Y-79790985D01*
X169705760Y-79442753D01*
X169894784Y-78987533D01*
X169894785Y-78985371D01*
X171480786Y-78985371D01*
X171669015Y-79440920D01*
X172017247Y-79789760D01*
X172472467Y-79978784D01*
X172965371Y-79979214D01*
X173420920Y-79790985D01*
X173769760Y-79442753D01*
X173958784Y-78987533D01*
X173958785Y-78985371D01*
X174020786Y-78985371D01*
X174209015Y-79440920D01*
X174557247Y-79789760D01*
X175012467Y-79978784D01*
X175505371Y-79979214D01*
X175960920Y-79790985D01*
X176309760Y-79442753D01*
X176498784Y-78987533D01*
X176498785Y-78985371D01*
X176560786Y-78985371D01*
X176749015Y-79440920D01*
X177097247Y-79789760D01*
X177552467Y-79978784D01*
X178045371Y-79979214D01*
X178500920Y-79790985D01*
X178849760Y-79442753D01*
X179038784Y-78987533D01*
X179038785Y-78985371D01*
X179100786Y-78985371D01*
X179289015Y-79440920D01*
X179637247Y-79789760D01*
X180092467Y-79978784D01*
X180585371Y-79979214D01*
X181040920Y-79790985D01*
X181389760Y-79442753D01*
X181578784Y-78987533D01*
X181578785Y-78985371D01*
X181640786Y-78985371D01*
X181829015Y-79440920D01*
X182177247Y-79789760D01*
X182632467Y-79978784D01*
X183125371Y-79979214D01*
X183580920Y-79790985D01*
X183929760Y-79442753D01*
X184118784Y-78987533D01*
X184118785Y-78985371D01*
X184180786Y-78985371D01*
X184369015Y-79440920D01*
X184717247Y-79789760D01*
X185172467Y-79978784D01*
X185665371Y-79979214D01*
X186120920Y-79790985D01*
X186469760Y-79442753D01*
X186658784Y-78987533D01*
X186658785Y-78985371D01*
X186720786Y-78985371D01*
X186909015Y-79440920D01*
X187257247Y-79789760D01*
X187712467Y-79978784D01*
X188205371Y-79979214D01*
X188660920Y-79790985D01*
X189009760Y-79442753D01*
X189198784Y-78987533D01*
X189198785Y-78985371D01*
X189260786Y-78985371D01*
X189449015Y-79440920D01*
X189797247Y-79789760D01*
X190252467Y-79978784D01*
X190745371Y-79979214D01*
X191200920Y-79790985D01*
X191549760Y-79442753D01*
X191738784Y-78987533D01*
X191739214Y-78494629D01*
X191550985Y-78039080D01*
X191202753Y-77690240D01*
X190747533Y-77501216D01*
X190254629Y-77500786D01*
X189799080Y-77689015D01*
X189450240Y-78037247D01*
X189261216Y-78492467D01*
X189260786Y-78985371D01*
X189198785Y-78985371D01*
X189199214Y-78494629D01*
X189010985Y-78039080D01*
X188662753Y-77690240D01*
X188207533Y-77501216D01*
X187714629Y-77500786D01*
X187259080Y-77689015D01*
X186910240Y-78037247D01*
X186721216Y-78492467D01*
X186720786Y-78985371D01*
X186658785Y-78985371D01*
X186659214Y-78494629D01*
X186470985Y-78039080D01*
X186122753Y-77690240D01*
X185667533Y-77501216D01*
X185174629Y-77500786D01*
X184719080Y-77689015D01*
X184370240Y-78037247D01*
X184181216Y-78492467D01*
X184180786Y-78985371D01*
X184118785Y-78985371D01*
X184119214Y-78494629D01*
X183930985Y-78039080D01*
X183582753Y-77690240D01*
X183127533Y-77501216D01*
X182634629Y-77500786D01*
X182179080Y-77689015D01*
X181830240Y-78037247D01*
X181641216Y-78492467D01*
X181640786Y-78985371D01*
X181578785Y-78985371D01*
X181579214Y-78494629D01*
X181390985Y-78039080D01*
X181042753Y-77690240D01*
X180587533Y-77501216D01*
X180094629Y-77500786D01*
X179639080Y-77689015D01*
X179290240Y-78037247D01*
X179101216Y-78492467D01*
X179100786Y-78985371D01*
X179038785Y-78985371D01*
X179039214Y-78494629D01*
X178850985Y-78039080D01*
X178502753Y-77690240D01*
X178047533Y-77501216D01*
X177554629Y-77500786D01*
X177099080Y-77689015D01*
X176750240Y-78037247D01*
X176561216Y-78492467D01*
X176560786Y-78985371D01*
X176498785Y-78985371D01*
X176499214Y-78494629D01*
X176310985Y-78039080D01*
X175962753Y-77690240D01*
X175507533Y-77501216D01*
X175014629Y-77500786D01*
X174559080Y-77689015D01*
X174210240Y-78037247D01*
X174021216Y-78492467D01*
X174020786Y-78985371D01*
X173958785Y-78985371D01*
X173959214Y-78494629D01*
X173770985Y-78039080D01*
X173422753Y-77690240D01*
X172967533Y-77501216D01*
X172474629Y-77500786D01*
X172019080Y-77689015D01*
X171670240Y-78037247D01*
X171481216Y-78492467D01*
X171480786Y-78985371D01*
X169894785Y-78985371D01*
X169895214Y-78494629D01*
X169706985Y-78039080D01*
X169358753Y-77690240D01*
X168903533Y-77501216D01*
X168410629Y-77500786D01*
X167955080Y-77689015D01*
X167606240Y-78037247D01*
X167417216Y-78492467D01*
X167416786Y-78985371D01*
X167354785Y-78985371D01*
X167355214Y-78494629D01*
X167166985Y-78039080D01*
X166818753Y-77690240D01*
X166363533Y-77501216D01*
X165870629Y-77500786D01*
X165415080Y-77689015D01*
X165066240Y-78037247D01*
X164877216Y-78492467D01*
X164876786Y-78985371D01*
X164814785Y-78985371D01*
X164815214Y-78494629D01*
X164626985Y-78039080D01*
X164278753Y-77690240D01*
X163823533Y-77501216D01*
X163330629Y-77500786D01*
X162875080Y-77689015D01*
X162526240Y-78037247D01*
X162337216Y-78492467D01*
X162336786Y-78985371D01*
X162274785Y-78985371D01*
X162275214Y-78494629D01*
X162086985Y-78039080D01*
X161738753Y-77690240D01*
X161283533Y-77501216D01*
X160790629Y-77500786D01*
X160335080Y-77689015D01*
X159986240Y-78037247D01*
X159797216Y-78492467D01*
X159796786Y-78985371D01*
X159734785Y-78985371D01*
X159735214Y-78494629D01*
X159546985Y-78039080D01*
X159198753Y-77690240D01*
X158743533Y-77501216D01*
X158250629Y-77500786D01*
X157795080Y-77689015D01*
X157446240Y-78037247D01*
X157257216Y-78492467D01*
X157256786Y-78985371D01*
X157194785Y-78985371D01*
X157195214Y-78494629D01*
X157006985Y-78039080D01*
X156658753Y-77690240D01*
X156203533Y-77501216D01*
X155710629Y-77500786D01*
X155255080Y-77689015D01*
X154906240Y-78037247D01*
X154717216Y-78492467D01*
X154716786Y-78985371D01*
X154654785Y-78985371D01*
X154655214Y-78494629D01*
X154466985Y-78039080D01*
X154118753Y-77690240D01*
X153663533Y-77501216D01*
X153170629Y-77500786D01*
X152715080Y-77689015D01*
X152366240Y-78037247D01*
X152177216Y-78492467D01*
X152176786Y-78985371D01*
X152114286Y-78985371D01*
X152114715Y-78494728D01*
X151926562Y-78039362D01*
X151578470Y-77690663D01*
X151123434Y-77501715D01*
X150630728Y-77501285D01*
X150175362Y-77689438D01*
X149826663Y-78037530D01*
X149637715Y-78492566D01*
X149637285Y-78985272D01*
X127273000Y-78985272D01*
X127273000Y-76445371D01*
X144556786Y-76445371D01*
X144745015Y-76900920D01*
X145093247Y-77249760D01*
X145548467Y-77438784D01*
X146041371Y-77439214D01*
X146496920Y-77250985D01*
X146845760Y-76902753D01*
X147034784Y-76447533D01*
X147034785Y-76445371D01*
X147096786Y-76445371D01*
X147285015Y-76900920D01*
X147633247Y-77249760D01*
X148088467Y-77438784D01*
X148581371Y-77439214D01*
X149036920Y-77250985D01*
X149385760Y-76902753D01*
X149574784Y-76447533D01*
X149574785Y-76445272D01*
X149637285Y-76445272D01*
X149825438Y-76900638D01*
X150173530Y-77249337D01*
X150628566Y-77438285D01*
X151121272Y-77438715D01*
X151576638Y-77250562D01*
X151785388Y-77042175D01*
X152641707Y-77042175D01*
X152712836Y-77249485D01*
X153167982Y-77438687D01*
X153660887Y-77439309D01*
X154116509Y-77251258D01*
X154119164Y-77249485D01*
X154190293Y-77042175D01*
X153416000Y-76267882D01*
X152641707Y-77042175D01*
X151785388Y-77042175D01*
X151925337Y-76902470D01*
X152114285Y-76447434D01*
X152114287Y-76444887D01*
X152176691Y-76444887D01*
X152364742Y-76900509D01*
X152366515Y-76903164D01*
X152573825Y-76974293D01*
X153348118Y-76200000D01*
X153483882Y-76200000D01*
X154258175Y-76974293D01*
X154465485Y-76903164D01*
X154654687Y-76448018D01*
X154654690Y-76445371D01*
X154716786Y-76445371D01*
X154905015Y-76900920D01*
X155253247Y-77249760D01*
X155708467Y-77438784D01*
X156201371Y-77439214D01*
X156656920Y-77250985D01*
X157005760Y-76902753D01*
X157194784Y-76447533D01*
X157194785Y-76445371D01*
X157256786Y-76445371D01*
X157445015Y-76900920D01*
X157793247Y-77249760D01*
X158248467Y-77438784D01*
X158741371Y-77439214D01*
X159196920Y-77250985D01*
X159545760Y-76902753D01*
X159734784Y-76447533D01*
X159734785Y-76445371D01*
X159796786Y-76445371D01*
X159985015Y-76900920D01*
X160333247Y-77249760D01*
X160788467Y-77438784D01*
X161281371Y-77439214D01*
X161736920Y-77250985D01*
X162085760Y-76902753D01*
X162274784Y-76447533D01*
X162274785Y-76445371D01*
X162336786Y-76445371D01*
X162525015Y-76900920D01*
X162873247Y-77249760D01*
X163328467Y-77438784D01*
X163821371Y-77439214D01*
X164276920Y-77250985D01*
X164625760Y-76902753D01*
X164814784Y-76447533D01*
X164814785Y-76445371D01*
X164876786Y-76445371D01*
X165065015Y-76900920D01*
X165413247Y-77249760D01*
X165868467Y-77438784D01*
X166361371Y-77439214D01*
X166816920Y-77250985D01*
X167165760Y-76902753D01*
X167354784Y-76447533D01*
X167354785Y-76445371D01*
X167416786Y-76445371D01*
X167605015Y-76900920D01*
X167953247Y-77249760D01*
X168408467Y-77438784D01*
X168901371Y-77439214D01*
X169356920Y-77250985D01*
X169705760Y-76902753D01*
X169894784Y-76447533D01*
X169894785Y-76445371D01*
X171480786Y-76445371D01*
X171669015Y-76900920D01*
X172017247Y-77249760D01*
X172472467Y-77438784D01*
X172965371Y-77439214D01*
X173420920Y-77250985D01*
X173769760Y-76902753D01*
X173958784Y-76447533D01*
X173958785Y-76445371D01*
X174020786Y-76445371D01*
X174209015Y-76900920D01*
X174557247Y-77249760D01*
X175012467Y-77438784D01*
X175505371Y-77439214D01*
X175960920Y-77250985D01*
X176309760Y-76902753D01*
X176498784Y-76447533D01*
X176498785Y-76445371D01*
X176560786Y-76445371D01*
X176749015Y-76900920D01*
X177097247Y-77249760D01*
X177552467Y-77438784D01*
X178045371Y-77439214D01*
X178500920Y-77250985D01*
X178849760Y-76902753D01*
X179038784Y-76447533D01*
X179038785Y-76445371D01*
X179100786Y-76445371D01*
X179289015Y-76900920D01*
X179637247Y-77249760D01*
X180092467Y-77438784D01*
X180585371Y-77439214D01*
X181040920Y-77250985D01*
X181389760Y-76902753D01*
X181578784Y-76447533D01*
X181578785Y-76445371D01*
X181640786Y-76445371D01*
X181829015Y-76900920D01*
X182177247Y-77249760D01*
X182632467Y-77438784D01*
X183125371Y-77439214D01*
X183580920Y-77250985D01*
X183929760Y-76902753D01*
X184118784Y-76447533D01*
X184118785Y-76445371D01*
X184180786Y-76445371D01*
X184369015Y-76900920D01*
X184717247Y-77249760D01*
X185172467Y-77438784D01*
X185665371Y-77439214D01*
X186120920Y-77250985D01*
X186469760Y-76902753D01*
X186658784Y-76447533D01*
X186658785Y-76445371D01*
X186720786Y-76445371D01*
X186909015Y-76900920D01*
X187257247Y-77249760D01*
X187712467Y-77438784D01*
X188205371Y-77439214D01*
X188660920Y-77250985D01*
X189009760Y-76902753D01*
X189198784Y-76447533D01*
X189198785Y-76445371D01*
X189260786Y-76445371D01*
X189449015Y-76900920D01*
X189797247Y-77249760D01*
X190252467Y-77438784D01*
X190745371Y-77439214D01*
X191200920Y-77250985D01*
X191549760Y-76902753D01*
X191738784Y-76447533D01*
X191739214Y-75954629D01*
X191550985Y-75499080D01*
X191202753Y-75150240D01*
X190747533Y-74961216D01*
X190254629Y-74960786D01*
X189799080Y-75149015D01*
X189450240Y-75497247D01*
X189261216Y-75952467D01*
X189260786Y-76445371D01*
X189198785Y-76445371D01*
X189199214Y-75954629D01*
X189010985Y-75499080D01*
X188662753Y-75150240D01*
X188207533Y-74961216D01*
X187714629Y-74960786D01*
X187259080Y-75149015D01*
X186910240Y-75497247D01*
X186721216Y-75952467D01*
X186720786Y-76445371D01*
X186658785Y-76445371D01*
X186659214Y-75954629D01*
X186470985Y-75499080D01*
X186122753Y-75150240D01*
X185667533Y-74961216D01*
X185174629Y-74960786D01*
X184719080Y-75149015D01*
X184370240Y-75497247D01*
X184181216Y-75952467D01*
X184180786Y-76445371D01*
X184118785Y-76445371D01*
X184119214Y-75954629D01*
X183930985Y-75499080D01*
X183582753Y-75150240D01*
X183127533Y-74961216D01*
X182634629Y-74960786D01*
X182179080Y-75149015D01*
X181830240Y-75497247D01*
X181641216Y-75952467D01*
X181640786Y-76445371D01*
X181578785Y-76445371D01*
X181579214Y-75954629D01*
X181390985Y-75499080D01*
X181042753Y-75150240D01*
X180587533Y-74961216D01*
X180094629Y-74960786D01*
X179639080Y-75149015D01*
X179290240Y-75497247D01*
X179101216Y-75952467D01*
X179100786Y-76445371D01*
X179038785Y-76445371D01*
X179039214Y-75954629D01*
X178850985Y-75499080D01*
X178502753Y-75150240D01*
X178047533Y-74961216D01*
X177554629Y-74960786D01*
X177099080Y-75149015D01*
X176750240Y-75497247D01*
X176561216Y-75952467D01*
X176560786Y-76445371D01*
X176498785Y-76445371D01*
X176499214Y-75954629D01*
X176310985Y-75499080D01*
X175962753Y-75150240D01*
X175507533Y-74961216D01*
X175014629Y-74960786D01*
X174559080Y-75149015D01*
X174210240Y-75497247D01*
X174021216Y-75952467D01*
X174020786Y-76445371D01*
X173958785Y-76445371D01*
X173959214Y-75954629D01*
X173770985Y-75499080D01*
X173422753Y-75150240D01*
X172967533Y-74961216D01*
X172474629Y-74960786D01*
X172019080Y-75149015D01*
X171670240Y-75497247D01*
X171481216Y-75952467D01*
X171480786Y-76445371D01*
X169894785Y-76445371D01*
X169895214Y-75954629D01*
X169706985Y-75499080D01*
X169358753Y-75150240D01*
X168903533Y-74961216D01*
X168410629Y-74960786D01*
X167955080Y-75149015D01*
X167606240Y-75497247D01*
X167417216Y-75952467D01*
X167416786Y-76445371D01*
X167354785Y-76445371D01*
X167355214Y-75954629D01*
X167166985Y-75499080D01*
X166818753Y-75150240D01*
X166363533Y-74961216D01*
X165870629Y-74960786D01*
X165415080Y-75149015D01*
X165066240Y-75497247D01*
X164877216Y-75952467D01*
X164876786Y-76445371D01*
X164814785Y-76445371D01*
X164815214Y-75954629D01*
X164626985Y-75499080D01*
X164278753Y-75150240D01*
X163823533Y-74961216D01*
X163330629Y-74960786D01*
X162875080Y-75149015D01*
X162526240Y-75497247D01*
X162337216Y-75952467D01*
X162336786Y-76445371D01*
X162274785Y-76445371D01*
X162275214Y-75954629D01*
X162086985Y-75499080D01*
X161738753Y-75150240D01*
X161283533Y-74961216D01*
X160790629Y-74960786D01*
X160335080Y-75149015D01*
X159986240Y-75497247D01*
X159797216Y-75952467D01*
X159796786Y-76445371D01*
X159734785Y-76445371D01*
X159735214Y-75954629D01*
X159546985Y-75499080D01*
X159198753Y-75150240D01*
X158743533Y-74961216D01*
X158250629Y-74960786D01*
X157795080Y-75149015D01*
X157446240Y-75497247D01*
X157257216Y-75952467D01*
X157256786Y-76445371D01*
X157194785Y-76445371D01*
X157195214Y-75954629D01*
X157006985Y-75499080D01*
X156658753Y-75150240D01*
X156203533Y-74961216D01*
X155710629Y-74960786D01*
X155255080Y-75149015D01*
X154906240Y-75497247D01*
X154717216Y-75952467D01*
X154716786Y-76445371D01*
X154654690Y-76445371D01*
X154655309Y-75955113D01*
X154467258Y-75499491D01*
X154465485Y-75496836D01*
X154258175Y-75425707D01*
X153483882Y-76200000D01*
X153348118Y-76200000D01*
X152573825Y-75425707D01*
X152366515Y-75496836D01*
X152177313Y-75951982D01*
X152176691Y-76444887D01*
X152114287Y-76444887D01*
X152114715Y-75954728D01*
X151926562Y-75499362D01*
X151785272Y-75357825D01*
X152641707Y-75357825D01*
X153416000Y-76132118D01*
X154190293Y-75357825D01*
X154119164Y-75150515D01*
X153664018Y-74961313D01*
X153171113Y-74960691D01*
X152715491Y-75148742D01*
X152712836Y-75150515D01*
X152641707Y-75357825D01*
X151785272Y-75357825D01*
X151578470Y-75150663D01*
X151123434Y-74961715D01*
X150630728Y-74961285D01*
X150175362Y-75149438D01*
X149826663Y-75497530D01*
X149637715Y-75952566D01*
X149637285Y-76445272D01*
X149574785Y-76445272D01*
X149575214Y-75954629D01*
X149386985Y-75499080D01*
X149038753Y-75150240D01*
X148583533Y-74961216D01*
X148090629Y-74960786D01*
X147635080Y-75149015D01*
X147286240Y-75497247D01*
X147097216Y-75952467D01*
X147096786Y-76445371D01*
X147034785Y-76445371D01*
X147035214Y-75954629D01*
X146846985Y-75499080D01*
X146498753Y-75150240D01*
X146043533Y-74961216D01*
X145550629Y-74960786D01*
X145095080Y-75149015D01*
X144746240Y-75497247D01*
X144557216Y-75952467D01*
X144556786Y-76445371D01*
X127273000Y-76445371D01*
X127273000Y-73635727D01*
X144557000Y-73635727D01*
X144557000Y-73684273D01*
X144651313Y-74158418D01*
X144919895Y-74560378D01*
X145321855Y-74828960D01*
X145796000Y-74923273D01*
X146270145Y-74828960D01*
X146672105Y-74560378D01*
X146940687Y-74158418D01*
X147035000Y-73684273D01*
X147035000Y-73635727D01*
X147097000Y-73635727D01*
X147097000Y-73684273D01*
X147191313Y-74158418D01*
X147459895Y-74560378D01*
X147861855Y-74828960D01*
X148336000Y-74923273D01*
X148810145Y-74828960D01*
X149212105Y-74560378D01*
X149480687Y-74158418D01*
X149575000Y-73684273D01*
X149575000Y-73635727D01*
X149637000Y-73635727D01*
X149637000Y-73684273D01*
X149731313Y-74158418D01*
X149999895Y-74560378D01*
X150401855Y-74828960D01*
X150876000Y-74923273D01*
X151350145Y-74828960D01*
X151752105Y-74560378D01*
X152020687Y-74158418D01*
X152071873Y-73901086D01*
X152200678Y-73901086D01*
X152385448Y-74347818D01*
X152727111Y-74689836D01*
X153173651Y-74875071D01*
X153174914Y-74875318D01*
X153368000Y-74778721D01*
X153368000Y-73708000D01*
X153464000Y-73708000D01*
X153464000Y-74778721D01*
X153657086Y-74875318D01*
X153658349Y-74875071D01*
X154104889Y-74689836D01*
X154446552Y-74347818D01*
X154631322Y-73901086D01*
X154534824Y-73708000D01*
X153464000Y-73708000D01*
X153368000Y-73708000D01*
X152297176Y-73708000D01*
X152200678Y-73901086D01*
X152071873Y-73901086D01*
X152115000Y-73684273D01*
X152115000Y-73635727D01*
X154717000Y-73635727D01*
X154717000Y-73684273D01*
X154811313Y-74158418D01*
X155079895Y-74560378D01*
X155481855Y-74828960D01*
X155956000Y-74923273D01*
X156430145Y-74828960D01*
X156832105Y-74560378D01*
X157100687Y-74158418D01*
X157195000Y-73684273D01*
X157195000Y-73635727D01*
X157257000Y-73635727D01*
X157257000Y-73684273D01*
X157351313Y-74158418D01*
X157619895Y-74560378D01*
X158021855Y-74828960D01*
X158496000Y-74923273D01*
X158970145Y-74828960D01*
X159372105Y-74560378D01*
X159640687Y-74158418D01*
X159735000Y-73684273D01*
X159735000Y-73635727D01*
X159797000Y-73635727D01*
X159797000Y-73684273D01*
X159891313Y-74158418D01*
X160159895Y-74560378D01*
X160561855Y-74828960D01*
X161036000Y-74923273D01*
X161510145Y-74828960D01*
X161912105Y-74560378D01*
X162180687Y-74158418D01*
X162275000Y-73684273D01*
X162275000Y-73635727D01*
X162337000Y-73635727D01*
X162337000Y-73684273D01*
X162431313Y-74158418D01*
X162699895Y-74560378D01*
X163101855Y-74828960D01*
X163576000Y-74923273D01*
X164050145Y-74828960D01*
X164452105Y-74560378D01*
X164720687Y-74158418D01*
X164815000Y-73684273D01*
X164815000Y-73635727D01*
X164877000Y-73635727D01*
X164877000Y-73684273D01*
X164971313Y-74158418D01*
X165239895Y-74560378D01*
X165641855Y-74828960D01*
X166116000Y-74923273D01*
X166590145Y-74828960D01*
X166992105Y-74560378D01*
X167260687Y-74158418D01*
X167355000Y-73684273D01*
X167355000Y-73635727D01*
X167417000Y-73635727D01*
X167417000Y-73684273D01*
X167511313Y-74158418D01*
X167779895Y-74560378D01*
X168181855Y-74828960D01*
X168656000Y-74923273D01*
X169130145Y-74828960D01*
X169532105Y-74560378D01*
X169800687Y-74158418D01*
X169895000Y-73684273D01*
X169895000Y-73635727D01*
X171481000Y-73635727D01*
X171481000Y-73684273D01*
X171575313Y-74158418D01*
X171843895Y-74560378D01*
X172245855Y-74828960D01*
X172720000Y-74923273D01*
X173194145Y-74828960D01*
X173596105Y-74560378D01*
X173864687Y-74158418D01*
X173959000Y-73684273D01*
X173959000Y-73635727D01*
X174021000Y-73635727D01*
X174021000Y-73684273D01*
X174115313Y-74158418D01*
X174383895Y-74560378D01*
X174785855Y-74828960D01*
X175260000Y-74923273D01*
X175734145Y-74828960D01*
X176136105Y-74560378D01*
X176404687Y-74158418D01*
X176499000Y-73684273D01*
X176499000Y-73635727D01*
X176561000Y-73635727D01*
X176561000Y-73684273D01*
X176655313Y-74158418D01*
X176923895Y-74560378D01*
X177325855Y-74828960D01*
X177800000Y-74923273D01*
X178274145Y-74828960D01*
X178676105Y-74560378D01*
X178944687Y-74158418D01*
X179039000Y-73684273D01*
X179039000Y-73635727D01*
X179101000Y-73635727D01*
X179101000Y-73684273D01*
X179195313Y-74158418D01*
X179463895Y-74560378D01*
X179865855Y-74828960D01*
X180340000Y-74923273D01*
X180814145Y-74828960D01*
X181216105Y-74560378D01*
X181484687Y-74158418D01*
X181579000Y-73684273D01*
X181579000Y-73635727D01*
X181641000Y-73635727D01*
X181641000Y-73684273D01*
X181735313Y-74158418D01*
X182003895Y-74560378D01*
X182405855Y-74828960D01*
X182880000Y-74923273D01*
X183354145Y-74828960D01*
X183756105Y-74560378D01*
X184024687Y-74158418D01*
X184119000Y-73684273D01*
X184119000Y-73635727D01*
X184181000Y-73635727D01*
X184181000Y-73684273D01*
X184275313Y-74158418D01*
X184543895Y-74560378D01*
X184945855Y-74828960D01*
X185420000Y-74923273D01*
X185894145Y-74828960D01*
X186296105Y-74560378D01*
X186564687Y-74158418D01*
X186659000Y-73684273D01*
X186659000Y-73635727D01*
X186721000Y-73635727D01*
X186721000Y-73684273D01*
X186815313Y-74158418D01*
X187083895Y-74560378D01*
X187485855Y-74828960D01*
X187960000Y-74923273D01*
X188434145Y-74828960D01*
X188836105Y-74560378D01*
X189104687Y-74158418D01*
X189199000Y-73684273D01*
X189199000Y-73635727D01*
X189261000Y-73635727D01*
X189261000Y-73684273D01*
X189355313Y-74158418D01*
X189623895Y-74560378D01*
X190025855Y-74828960D01*
X190500000Y-74923273D01*
X190974145Y-74828960D01*
X191376105Y-74560378D01*
X191644687Y-74158418D01*
X191739000Y-73684273D01*
X191739000Y-73635727D01*
X191644687Y-73161582D01*
X191376105Y-72759622D01*
X190974145Y-72491040D01*
X190500000Y-72396727D01*
X190025855Y-72491040D01*
X189623895Y-72759622D01*
X189355313Y-73161582D01*
X189261000Y-73635727D01*
X189199000Y-73635727D01*
X189104687Y-73161582D01*
X188836105Y-72759622D01*
X188434145Y-72491040D01*
X187960000Y-72396727D01*
X187485855Y-72491040D01*
X187083895Y-72759622D01*
X186815313Y-73161582D01*
X186721000Y-73635727D01*
X186659000Y-73635727D01*
X186564687Y-73161582D01*
X186296105Y-72759622D01*
X185894145Y-72491040D01*
X185420000Y-72396727D01*
X184945855Y-72491040D01*
X184543895Y-72759622D01*
X184275313Y-73161582D01*
X184181000Y-73635727D01*
X184119000Y-73635727D01*
X184024687Y-73161582D01*
X183756105Y-72759622D01*
X183354145Y-72491040D01*
X182880000Y-72396727D01*
X182405855Y-72491040D01*
X182003895Y-72759622D01*
X181735313Y-73161582D01*
X181641000Y-73635727D01*
X181579000Y-73635727D01*
X181484687Y-73161582D01*
X181216105Y-72759622D01*
X180814145Y-72491040D01*
X180340000Y-72396727D01*
X179865855Y-72491040D01*
X179463895Y-72759622D01*
X179195313Y-73161582D01*
X179101000Y-73635727D01*
X179039000Y-73635727D01*
X178944687Y-73161582D01*
X178676105Y-72759622D01*
X178274145Y-72491040D01*
X177800000Y-72396727D01*
X177325855Y-72491040D01*
X176923895Y-72759622D01*
X176655313Y-73161582D01*
X176561000Y-73635727D01*
X176499000Y-73635727D01*
X176404687Y-73161582D01*
X176136105Y-72759622D01*
X175734145Y-72491040D01*
X175260000Y-72396727D01*
X174785855Y-72491040D01*
X174383895Y-72759622D01*
X174115313Y-73161582D01*
X174021000Y-73635727D01*
X173959000Y-73635727D01*
X173864687Y-73161582D01*
X173596105Y-72759622D01*
X173194145Y-72491040D01*
X172720000Y-72396727D01*
X172245855Y-72491040D01*
X171843895Y-72759622D01*
X171575313Y-73161582D01*
X171481000Y-73635727D01*
X169895000Y-73635727D01*
X169800687Y-73161582D01*
X169532105Y-72759622D01*
X169130145Y-72491040D01*
X168656000Y-72396727D01*
X168181855Y-72491040D01*
X167779895Y-72759622D01*
X167511313Y-73161582D01*
X167417000Y-73635727D01*
X167355000Y-73635727D01*
X167260687Y-73161582D01*
X166992105Y-72759622D01*
X166590145Y-72491040D01*
X166116000Y-72396727D01*
X165641855Y-72491040D01*
X165239895Y-72759622D01*
X164971313Y-73161582D01*
X164877000Y-73635727D01*
X164815000Y-73635727D01*
X164720687Y-73161582D01*
X164452105Y-72759622D01*
X164050145Y-72491040D01*
X163576000Y-72396727D01*
X163101855Y-72491040D01*
X162699895Y-72759622D01*
X162431313Y-73161582D01*
X162337000Y-73635727D01*
X162275000Y-73635727D01*
X162180687Y-73161582D01*
X161912105Y-72759622D01*
X161510145Y-72491040D01*
X161036000Y-72396727D01*
X160561855Y-72491040D01*
X160159895Y-72759622D01*
X159891313Y-73161582D01*
X159797000Y-73635727D01*
X159735000Y-73635727D01*
X159640687Y-73161582D01*
X159372105Y-72759622D01*
X158970145Y-72491040D01*
X158496000Y-72396727D01*
X158021855Y-72491040D01*
X157619895Y-72759622D01*
X157351313Y-73161582D01*
X157257000Y-73635727D01*
X157195000Y-73635727D01*
X157100687Y-73161582D01*
X156832105Y-72759622D01*
X156430145Y-72491040D01*
X155956000Y-72396727D01*
X155481855Y-72491040D01*
X155079895Y-72759622D01*
X154811313Y-73161582D01*
X154717000Y-73635727D01*
X152115000Y-73635727D01*
X152071874Y-73418914D01*
X152200678Y-73418914D01*
X152297176Y-73612000D01*
X153368000Y-73612000D01*
X153368000Y-72541279D01*
X153464000Y-72541279D01*
X153464000Y-73612000D01*
X154534824Y-73612000D01*
X154631322Y-73418914D01*
X154446552Y-72972182D01*
X154104889Y-72630164D01*
X153658349Y-72444929D01*
X153657086Y-72444682D01*
X153464000Y-72541279D01*
X153368000Y-72541279D01*
X153174914Y-72444682D01*
X153173651Y-72444929D01*
X152727111Y-72630164D01*
X152385448Y-72972182D01*
X152200678Y-73418914D01*
X152071874Y-73418914D01*
X152020687Y-73161582D01*
X151752105Y-72759622D01*
X151350145Y-72491040D01*
X150876000Y-72396727D01*
X150401855Y-72491040D01*
X149999895Y-72759622D01*
X149731313Y-73161582D01*
X149637000Y-73635727D01*
X149575000Y-73635727D01*
X149480687Y-73161582D01*
X149212105Y-72759622D01*
X148810145Y-72491040D01*
X148336000Y-72396727D01*
X147861855Y-72491040D01*
X147459895Y-72759622D01*
X147191313Y-73161582D01*
X147097000Y-73635727D01*
X147035000Y-73635727D01*
X146940687Y-73161582D01*
X146672105Y-72759622D01*
X146270145Y-72491040D01*
X145796000Y-72396727D01*
X145321855Y-72491040D01*
X144919895Y-72759622D01*
X144651313Y-73161582D01*
X144557000Y-73635727D01*
X127273000Y-73635727D01*
X127273000Y-66414600D01*
X246107000Y-66414600D01*
X246107000Y-134347000D01*
M02*
