G04 #@! TF.FileFunction,Soldermask,Bot*
%FSLAX46Y46*%
G04 Gerber Fmt 4.6, Leading zero omitted, Abs format (unit mm)*
G04 Created by KiCad (PCBNEW 4.0.6) date Tuesday 10. October 2017 13:08:52*
%MOMM*%
%LPD*%
G01*
G04 APERTURE LIST*
%ADD10C,0.100000*%
%ADD11O,1.524000X1.524000*%
%ADD12R,0.750000X0.800000*%
%ADD13R,0.800000X0.750000*%
%ADD14R,1.700000X1.700000*%
%ADD15C,1.700000*%
%ADD16R,0.500000X0.900000*%
%ADD17C,1.524000*%
%ADD18C,1.523000*%
%ADD19R,1.400000X1.200000*%
G04 APERTURE END LIST*
D10*
D11*
X168656000Y-73660000D03*
X166116000Y-73660000D03*
X163576000Y-73660000D03*
X161036000Y-73660000D03*
X158496000Y-73660000D03*
X155956000Y-73660000D03*
X153416000Y-73660000D03*
X150876000Y-73660000D03*
X148336000Y-73660000D03*
X145796000Y-73660000D03*
X154940000Y-127000000D03*
X157480000Y-127000000D03*
X160020000Y-127000000D03*
X162560000Y-127000000D03*
X165100000Y-127000000D03*
X167640000Y-127000000D03*
X170180000Y-127000000D03*
X172720000Y-127000000D03*
X190500000Y-73660000D03*
X187960000Y-73660000D03*
X185420000Y-73660000D03*
X182880000Y-73660000D03*
X180340000Y-73660000D03*
X177800000Y-73660000D03*
X175260000Y-73660000D03*
X172720000Y-73660000D03*
X168656000Y-81280000D03*
X166116000Y-81280000D03*
X163576000Y-81280000D03*
X161036000Y-81280000D03*
X158496000Y-81280000D03*
X155956000Y-81280000D03*
X153416000Y-81280000D03*
X150876000Y-81280000D03*
X190500000Y-81280000D03*
X187960000Y-81280000D03*
X185420000Y-81280000D03*
X182880000Y-81280000D03*
X180340000Y-81280000D03*
X177800000Y-81280000D03*
X175260000Y-81280000D03*
X172720000Y-81280000D03*
X177800000Y-127000000D03*
X180340000Y-127000000D03*
X182880000Y-127000000D03*
X185420000Y-127000000D03*
X187960000Y-127000000D03*
X190500000Y-127000000D03*
X165100000Y-119380000D03*
X167640000Y-119380000D03*
X170180000Y-119380000D03*
X172720000Y-119380000D03*
X177800000Y-119380000D03*
X180340000Y-119380000D03*
X182880000Y-119380000D03*
X185420000Y-119380000D03*
X187960000Y-119380000D03*
X190500000Y-119380000D03*
D12*
X186690000Y-98540000D03*
X186690000Y-97040000D03*
D13*
X177280000Y-114300000D03*
X175780000Y-114300000D03*
X177280000Y-111760000D03*
X175780000Y-111760000D03*
X177280000Y-109220000D03*
X175780000Y-109220000D03*
X177280000Y-106680000D03*
X175780000Y-106680000D03*
X177280000Y-104140000D03*
X175780000Y-104140000D03*
X177280000Y-101600000D03*
X175780000Y-101600000D03*
X172200000Y-114300000D03*
X170700000Y-114300000D03*
X172200000Y-111760000D03*
X170700000Y-111760000D03*
X172200000Y-109220000D03*
X170700000Y-109220000D03*
X172200000Y-106680000D03*
X170700000Y-106680000D03*
D14*
X163830000Y-111760000D03*
D15*
X161290000Y-111760000D03*
X163830000Y-109220000D03*
X161290000Y-109220000D03*
X163830000Y-106680000D03*
X161290000Y-106680000D03*
X163830000Y-104140000D03*
X161290000Y-104140000D03*
X163830000Y-101600000D03*
X161290000Y-101600000D03*
X163830000Y-99060000D03*
X161290000Y-99060000D03*
X163830000Y-96520000D03*
X161290000Y-96520000D03*
X163830000Y-93980000D03*
X161290000Y-93980000D03*
X163830000Y-91440000D03*
X161290000Y-91440000D03*
X163830000Y-88900000D03*
X161290000Y-88900000D03*
D16*
X170700000Y-104140000D03*
X172200000Y-104140000D03*
X172200000Y-101600000D03*
X170700000Y-101600000D03*
D17*
X165100000Y-121920000D03*
X167640000Y-121920000D03*
X170180000Y-121920000D03*
X172720000Y-121920000D03*
X182880000Y-121920000D03*
X180340000Y-121920000D03*
X177800000Y-121920000D03*
X185420000Y-121920000D03*
X187960000Y-121920000D03*
X190500000Y-121920000D03*
D18*
X150876000Y-78740000D03*
D17*
X153416000Y-78740000D03*
X155956000Y-78740000D03*
X158496000Y-78740000D03*
X161036000Y-78740000D03*
X163576000Y-78740000D03*
X166116000Y-78740000D03*
X168656000Y-78740000D03*
X172720000Y-78740000D03*
X175260000Y-78740000D03*
X177800000Y-78740000D03*
X180340000Y-78740000D03*
X182880000Y-78740000D03*
X185420000Y-78740000D03*
X187960000Y-78740000D03*
X190500000Y-78740000D03*
X190500000Y-124460000D03*
X187960000Y-124460000D03*
X185420000Y-124460000D03*
X177800000Y-124460000D03*
X180340000Y-124460000D03*
X182880000Y-124460000D03*
X172720000Y-124460000D03*
X170180000Y-124460000D03*
X167640000Y-124460000D03*
X162560000Y-124460000D03*
X160020000Y-124460000D03*
X190500000Y-76200000D03*
X187960000Y-76200000D03*
X185420000Y-76200000D03*
X182880000Y-76200000D03*
X180340000Y-76200000D03*
X177800000Y-76200000D03*
X175260000Y-76200000D03*
X172720000Y-76200000D03*
X168656000Y-76200000D03*
X166116000Y-76200000D03*
X163576000Y-76200000D03*
X161036000Y-76200000D03*
X158496000Y-76200000D03*
X155956000Y-76200000D03*
X153416000Y-76200000D03*
D18*
X150876000Y-76200000D03*
D17*
X165100000Y-124460000D03*
X148336000Y-76200000D03*
X145796000Y-76200000D03*
X157480000Y-124460000D03*
X154940000Y-124460000D03*
D19*
X182938600Y-103897800D03*
X180738600Y-103897800D03*
X180738600Y-102197800D03*
X182938600Y-102197800D03*
M02*
