M48
INCH,TZ
T1C0.008
T2C0.016
T3C0.028
T4C0.039
T5C0.040
%
G90
G05
T1
X55490Y-46430
X59240Y-45440
X66600Y-38390
X66850Y-40530
X67400Y-38590
X67400Y-39170
X67630Y-38290
X68400Y-37660
X68710Y-38600
X68710Y-38920
X69050Y-37650
X69070Y-37070
X69340Y-37040
X69350Y-37960
X69660Y-36400
X69660Y-37050
X69660Y-37960
X69660Y-38600
X69660Y-38920
X69960Y-37660
X69970Y-37970
X70600Y-37660
X70920Y-38600
X70920Y-38920
X71500Y-38870
T2
X55250Y-50680
X55650Y-50660
X67800Y-45750
X69200Y-45640
X70440Y-39690
X70460Y-45000
X71160Y-41510
X72890Y-40960
T3
X72140Y-37500
X72560Y-38800
X77490Y-44470
X77490Y-46500
X77580Y-50410
X77590Y-48510
X84690Y-51900
X87880Y-51880
X91090Y-51850
X94290Y-51910
X94500Y-32750
X94730Y-45920
T4
X63500Y-35000
X63500Y-36000
X63500Y-37000
X63500Y-38000
X63500Y-39000
X63500Y-40000
X63500Y-41000
X63500Y-42000
X63500Y-43000
X63500Y-44000
X64500Y-35000
X64500Y-36000
X64500Y-37000
X64500Y-38000
X64500Y-39000
X64500Y-40000
X64500Y-41000
X64500Y-42000
X64500Y-43000
X64500Y-44000
T5
X57400Y-29000
X57400Y-30000
X58400Y-29000
X58400Y-30000
X59400Y-29000
X59400Y-30000
X59400Y-31000
X59400Y-32000
X60400Y-29000
X60400Y-30000
X60400Y-31000
X60400Y-32000
X61000Y-49000
X61000Y-50000
X61400Y-29000
X61400Y-30000
X61400Y-31000
X61400Y-32000
X62000Y-49000
X62000Y-50000
X62400Y-29000
X62400Y-30000
X62400Y-31000
X62400Y-32000
X63000Y-49000
X63000Y-50000
X63400Y-29000
X63400Y-30000
X63400Y-31000
X63400Y-32000
X64000Y-49000
X64000Y-50000
X64400Y-29000
X64400Y-30000
X64400Y-31000
X64400Y-32000
X65000Y-47000
X65000Y-48000
X65000Y-49000
X65000Y-50000
X65400Y-29000
X65400Y-30000
X65400Y-31000
X65400Y-32000
X66000Y-47000
X66000Y-48000
X66000Y-49000
X66000Y-50000
X66400Y-29000
X66400Y-30000
X66400Y-31000
X66400Y-32000
X67000Y-47000
X67000Y-48000
X67000Y-49000
X67000Y-50000
X68000Y-29000
X68000Y-30000
X68000Y-31000
X68000Y-32000
X68000Y-47000
X68000Y-48000
X68000Y-49000
X68000Y-50000
X69000Y-29000
X69000Y-30000
X69000Y-31000
X69000Y-32000
X70000Y-29000
X70000Y-30000
X70000Y-31000
X70000Y-32000
X70000Y-47000
X70000Y-48000
X70000Y-49000
X70000Y-50000
X71000Y-29000
X71000Y-30000
X71000Y-31000
X71000Y-32000
X71000Y-47000
X71000Y-48000
X71000Y-49000
X71000Y-50000
X72000Y-29000
X72000Y-30000
X72000Y-31000
X72000Y-32000
X72000Y-47000
X72000Y-48000
X72000Y-49000
X72000Y-50000
X73000Y-29000
X73000Y-30000
X73000Y-31000
X73000Y-32000
X73000Y-47000
X73000Y-48000
X73000Y-49000
X73000Y-50000
X74000Y-29000
X74000Y-30000
X74000Y-31000
X74000Y-32000
X74000Y-47000
X74000Y-48000
X74000Y-49000
X74000Y-50000
X75000Y-29000
X75000Y-30000
X75000Y-31000
X75000Y-32000
X75000Y-47000
X75000Y-48000
X75000Y-49000
X75000Y-50000
T0
M30
