M48
INCH,TZ
T1C0.016
T2C0.028
T3C0.039
T4C0.040
%
G90
G05
T1
X54910Y-47590
X56140Y-48030
X60190Y-43770
X60990Y-43180
X61430Y-43410
X63090Y-45480
X63440Y-45860
X65800Y-45830
X66360Y-38600
X66660Y-40480
X66680Y-36720
X66800Y-38230
X67120Y-39250
X68900Y-39450
X69420Y-37100
X69900Y-37620
X69940Y-39440
X70340Y-40040
X70530Y-39610
X71100Y-39420
X71610Y-38280
X71950Y-39090
X72020Y-43990
X72320Y-37020
X72500Y-37500
X72520Y-37960
X76000Y-52000
X76920Y-46540
X76940Y-44500
X76940Y-48520
X76960Y-50440
X79000Y-35000
X82000Y-46000
T2
X68500Y-44000
T3
X63500Y-35000
X63500Y-36000
X63500Y-37000
X63500Y-38000
X63500Y-39000
X63500Y-40000
X63500Y-41000
X63500Y-42000
X63500Y-43000
X63500Y-44000
X64500Y-35000
X64500Y-36000
X64500Y-37000
X64500Y-38000
X64500Y-39000
X64500Y-40000
X64500Y-41000
X64500Y-42000
X64500Y-43000
X64500Y-44000
T4
X57400Y-29000
X57400Y-30000
X58400Y-29000
X58400Y-30000
X59400Y-29000
X59400Y-30000
X59400Y-31000
X59400Y-32000
X60400Y-29000
X60400Y-30000
X60400Y-31000
X60400Y-32000
X61000Y-49000
X61000Y-50000
X61400Y-29000
X61400Y-30000
X61400Y-31000
X61400Y-32000
X62000Y-49000
X62000Y-50000
X62400Y-29000
X62400Y-30000
X62400Y-31000
X62400Y-32000
X63000Y-49000
X63000Y-50000
X63400Y-29000
X63400Y-30000
X63400Y-31000
X63400Y-32000
X64000Y-49000
X64000Y-50000
X64400Y-29000
X64400Y-30000
X64400Y-31000
X64400Y-32000
X65000Y-47000
X65000Y-48000
X65000Y-49000
X65000Y-50000
X65400Y-29000
X65400Y-30000
X65400Y-31000
X65400Y-32000
X66000Y-47000
X66000Y-48000
X66000Y-49000
X66000Y-50000
X66400Y-29000
X66400Y-30000
X66400Y-31000
X66400Y-32000
X67000Y-47000
X67000Y-48000
X67000Y-49000
X67000Y-50000
X68000Y-29000
X68000Y-30000
X68000Y-31000
X68000Y-32000
X68000Y-47000
X68000Y-48000
X68000Y-49000
X68000Y-50000
X69000Y-29000
X69000Y-30000
X69000Y-31000
X69000Y-32000
X70000Y-29000
X70000Y-30000
X70000Y-31000
X70000Y-32000
X70000Y-47000
X70000Y-48000
X70000Y-49000
X70000Y-50000
X71000Y-29000
X71000Y-30000
X71000Y-31000
X71000Y-32000
X71000Y-47000
X71000Y-48000
X71000Y-49000
X71000Y-50000
X72000Y-29000
X72000Y-30000
X72000Y-31000
X72000Y-32000
X72000Y-47000
X72000Y-48000
X72000Y-49000
X72000Y-50000
X73000Y-29000
X73000Y-30000
X73000Y-31000
X73000Y-32000
X73000Y-47000
X73000Y-48000
X73000Y-49000
X73000Y-50000
X74000Y-29000
X74000Y-30000
X74000Y-31000
X74000Y-32000
X74000Y-47000
X74000Y-48000
X74000Y-49000
X74000Y-50000
X75000Y-29000
X75000Y-30000
X75000Y-31000
X75000Y-32000
X75000Y-47000
X75000Y-48000
X75000Y-49000
X75000Y-50000
T0
M30
